<svg width="100" height="155" viewBox="0 0 100 155" fill="none" xmlns="http://www.w3.org/2000/svg">
<g clip-path="url(#clip0_15_1797)">
<path d="M93.5146 102.675H6.57485C2.94563 102.675 0 99.729 0 96.0998C0 92.4705 2.94563 89.5249 6.57485 89.5249H93.527C97.1562 89.5249 100.102 92.4705 100.102 96.0998C100.102 99.729 97.1562 102.675 93.527 102.675H93.5146Z" fill="#170045"/>
<path opacity="0.1" d="M9.33406 89.5374H6.57485C2.94563 89.5374 0 92.483 0 96.1122C0 99.7414 2.94563 102.687 6.57485 102.687H93.527C97.1562 102.687 100.102 99.7414 100.102 96.1122H15.9089C12.2797 96.1122 9.33406 93.1666 9.33406 89.5374Z" fill="#FF94FF"/>
<path d="M50.0385 0H20.5449C13.7338 0 8.45159 5.94098 9.24704 12.7147L18.3077 89.5373H81.7817L90.8423 12.7147C91.6378 5.95341 86.3555 0 79.5445 0H50.0509L50.0385 0Z" fill="#170045"/>
<path d="M15.8219 68.4705L18.3077 89.5373H50.0509H81.7818L84.2675 68.4705H15.8219Z" fill="#FF94FF"/>
<path opacity="0.1" d="M27.0079 0H20.5573C13.7339 0 8.45165 5.94098 9.24709 12.7147L18.3077 89.5373H81.7818L82.8755 80.2903C5.04615 84.1805 21.0918 18.2704 27.0079 0Z" fill="#FF94FF"/>
<path d="M91.352 136.73C83.7828 148.835 76.8226 132.939 65.4627 132.939C54.1027 132.939 50.0261 139.899 50.0261 139.899C50.0261 139.899 45.937 132.939 34.5895 132.939C23.2419 132.939 16.2694 148.835 8.7002 136.73C8.7002 136.73 7.33303 148.388 20.9675 153.235C34.5895 158.082 50.0261 151.408 50.0261 151.408C50.0261 151.408 65.4627 158.07 79.0847 153.235C92.7067 148.388 91.352 136.73 91.352 136.73Z" fill="#170045"/>
<path opacity="0.1" d="M91.3893 136.73C90.2831 138.507 89.1894 139.713 88.0832 140.508C86.4799 143.615 84.4167 146.486 81.9558 148.972C82.5026 147.742 82.8631 146.424 83.0247 145.094C81.4089 147.17 79.2836 148.86 76.8848 149.954C78.0034 148.786 78.6248 147.158 78.5876 145.529C76.1888 148.487 72.833 150.662 69.1416 151.619C70.832 148.997 72.0251 146.051 72.659 142.994C70.1111 146.524 66.1214 148.985 61.8211 149.668C63.0142 147.406 64.0707 145.069 65.0028 142.683C61.4233 145.703 56.9862 147.704 52.3627 148.413C53.5807 146.822 54.5999 145.082 55.3581 143.23C53.8169 144.237 52.2757 145.231 50.7221 146.238C50.4611 146.412 50.2001 146.598 50.0137 146.859C49.8272 146.611 49.5662 146.412 49.3052 146.238C47.764 145.231 46.2229 144.237 44.6693 143.23C45.4398 145.082 46.4466 146.822 47.6646 148.413C43.0287 147.717 38.604 145.703 35.0245 142.683C35.9566 145.069 37.0255 147.394 38.2063 149.668C33.9059 148.985 29.9162 146.524 27.3683 142.994C27.9898 146.051 29.1829 148.997 30.8857 151.619C27.1943 150.662 23.8385 148.487 21.4398 145.529C21.4025 147.145 22.0239 148.773 23.1425 149.954C20.7438 148.86 18.6184 147.17 17.0027 145.094C17.1642 146.437 17.5247 147.742 18.0716 148.972C15.6106 146.486 13.5475 143.615 11.9441 140.508C10.8504 139.713 9.74423 138.507 8.63806 136.73C8.63806 136.73 7.27089 148.388 20.9053 153.235C33.2472 157.623 47.0805 152.564 49.5787 151.57C49.5787 151.57 49.5787 151.57 49.5787 151.582C49.8397 151.483 49.9639 151.421 50.0012 151.408C50.0261 151.408 50.1628 151.47 50.4238 151.582C50.4238 151.582 50.4238 151.582 50.4238 151.57C52.9096 152.564 66.7553 157.623 79.0971 153.235C92.7191 148.388 91.3644 136.73 91.3644 136.73H91.3893Z" fill="#FF94FF"/>
<path d="M34.5024 134.927C34.5024 132.404 36.5532 130.354 39.0763 130.354C41.5993 130.354 43.6501 132.404 43.6501 134.927C43.6501 137.45 41.5993 139.501 39.0763 139.501C36.5532 139.501 34.5024 137.45 34.5024 134.927Z" fill="#FF94FF"/>
<path opacity="0.1" d="M40.7666 137.724C38.2435 137.724 36.1928 135.673 36.1928 133.15C36.1928 132.367 36.4041 131.646 36.7521 131.012C35.4097 131.808 34.5024 133.262 34.5024 134.928C34.5024 137.451 36.5532 139.501 39.0763 139.501C40.8287 139.501 42.3202 138.507 43.0908 137.065C42.4072 137.475 41.6242 137.724 40.7666 137.724Z" fill="#3C1763"/>
<path d="M56.4891 134.927C56.4891 132.404 58.5398 130.354 61.0629 130.354C63.5859 130.354 65.6367 132.404 65.6367 134.927C65.6367 137.45 63.5859 139.501 61.0629 139.501C58.5398 139.501 56.4891 137.45 56.4891 134.927Z" fill="#FF94FF"/>
<path opacity="0.1" d="M62.5792 137.898C60.0562 137.898 58.0054 135.847 58.0054 133.324C58.0054 132.504 58.2416 131.746 58.6144 131.074C57.3342 131.882 56.4767 133.299 56.4767 134.927C56.4767 137.45 58.5274 139.501 61.0505 139.501C62.7532 139.501 64.2198 138.557 65.0028 137.177C64.2944 137.624 63.4617 137.898 62.5668 137.898H62.5792Z" fill="#3C1763"/>
<path d="M50.0385 103.619C50.0385 103.619 76.6238 140.396 50.0385 140.396C23.4532 140.396 50.0385 103.619 50.0385 103.619Z" fill="#FF94FF"/>
<path opacity="0.1" d="M53.8169 135.922C33.446 135.922 44.2964 114.32 50.4735 104.228C50.2001 103.831 50.0509 103.619 50.0509 103.619C50.0509 103.619 23.4657 140.396 50.0509 140.396C56.8619 140.396 60.1804 137.973 61.3488 134.381C59.5341 135.35 57.0857 135.909 53.8169 135.909V135.922Z" fill="#3C1763"/>
</g>
<defs>
<clipPath id="clip0_15_1797">
<rect width="100" height="155" fill="white"/>
</clipPath>
</defs>
</svg>
