<svg width="400" height="450" viewBox="0 0 400 450" fill="none" xmlns="http://www.w3.org/2000/svg">
<g clip-path="url(#clip0_8_334)">
<g clip-path="url(#clip1_8_334)">
<path d="M166.406 210.471C166.9 227.801 153.251 242.259 135.897 242.753C118.573 243.248 104.121 229.593 103.627 212.231C103.133 194.901 116.782 180.443 134.137 179.949C151.46 179.455 165.912 193.109 166.406 210.471Z" fill="#C77D69"/>
<path d="M117.214 206.949C117.214 206.949 129.69 200.863 141.61 222.55" stroke="#AA523F" stroke-width="1.2" stroke-linecap="round" stroke-linejoin="round"/>
<path d="M164.09 73.3079C164.09 73.3079 128.887 77.6328 124.224 113.623C117.708 163.668 140.251 199.566 140.251 199.566L141.455 119.06L164.09 73.3388V73.3079Z" fill="#1E0A04"/>
<path d="M312.438 242.784C329.782 242.784 343.843 228.718 343.843 211.367C343.843 194.015 329.782 179.949 312.438 179.949C295.093 179.949 281.033 194.015 281.033 211.367C281.033 228.718 295.093 242.784 312.438 242.784Z" fill="#C77D69"/>
<path d="M330.132 206.455C330.132 206.455 317.471 200.74 306.2 222.766" stroke="#AA523F" stroke-width="1.2" stroke-linecap="round" stroke-linejoin="round"/>
<path d="M264.018 283.748C264.018 283.748 246.324 296.259 230.174 299.318C214.054 302.407 198.367 293.046 198.151 292.923C197.966 292.799 179.314 282.08 179.314 282.08L171.594 375.715L173.694 377.445C201.054 400.027 240.457 400.274 268.125 378.094L272.17 374.85L264.018 283.748Z" fill="#C77D69"/>
<path d="M164.09 286.837C164.09 286.837 201.918 333.392 233.045 326.41C265.5 319.12 275.197 280.473 275.197 280.473L164.09 286.868V286.837Z" fill="#AA523F"/>
<path d="M308.516 156.687C308.701 192.182 303.791 222.859 298.82 244.638C293.972 265.954 280.106 280.906 260.467 292.985L256.885 295.178C236.102 307.967 209.175 308.4 187.93 296.29C166.53 284.088 151.491 267.931 146.767 245.101C138.182 203.582 137.039 157.583 137.039 157.583C137.039 157.583 124.996 61.5379 217.451 62.8354C309.906 64.1329 308.485 156.718 308.485 156.718L308.516 156.687Z" fill="#C77D69"/>
<path d="M257.997 146.338C257.997 146.338 238.944 142.631 238.079 152.887C238.079 152.887 237.616 159.838 254.26 162.649C270.904 165.46 277.544 164.873 279.489 158.479C281.465 152.084 266.983 147.172 257.997 146.338Z" fill="#1E0A04"/>
<path d="M175.948 146.801C175.948 146.801 156.556 147.666 158.1 157.83C158.1 157.83 159.304 164.688 176.134 163.514C192.963 162.34 199.263 160.209 199.695 153.536C200.097 146.863 184.873 145.473 175.948 146.77V146.801Z" fill="#1E0A04"/>
<path d="M190.4 190.607C190.4 194.746 187.065 198.083 182.927 198.083C178.789 198.083 175.454 194.746 175.454 190.607C175.454 186.467 178.789 183.131 182.927 183.131C187.065 183.131 190.4 186.467 190.4 190.607Z" fill="#1E0A04"/>
<path d="M263.802 190.607C263.802 194.746 260.467 198.083 256.329 198.083C252.191 198.083 248.856 194.746 248.856 190.607C248.856 186.467 252.191 183.131 256.329 183.131C260.467 183.131 263.802 186.467 263.802 190.607Z" fill="#1E0A04"/>
<path d="M226.159 218.75H212.819V199.72" stroke="#AA523F" stroke-width="1.2" stroke-linecap="round" stroke-linejoin="round"/>
<path d="M304.564 197.403C304.564 197.403 303.761 247.912 276.185 242.784C261.517 240.066 253.334 236.204 245.49 233.424C220.539 222.982 199.726 232.96 199.726 232.96C191.45 235.772 183.205 239.911 167.703 242.784C140.127 247.912 140.56 199.566 140.56 199.566C140.56 199.566 121.538 229.408 138.429 264.224C149.052 286.095 164.43 297.031 179.16 302.283C179.654 302.468 180.117 302.623 180.611 302.808C180.642 302.808 180.673 302.808 180.704 302.839C220.94 317.112 256.36 304.755 256.36 304.755C273.375 300.893 292.829 290.328 305.49 264.224C322.381 229.439 304.594 197.403 304.594 197.403H304.564Z" fill="#1E0A04"/>
<path d="M203.123 242.784C203.123 242.784 215.969 250.476 231.594 245.132" stroke="white" stroke-width="1.2" stroke-linecap="round" stroke-linejoin="round"/>
<path d="M140.375 203.149C140.375 203.149 160.632 93.419 147.199 78.5906C147.199 78.5906 100.786 120.697 140.375 203.149Z" fill="#1E0A04"/>
<path d="M305.027 198.731C305.027 198.731 272.17 103.953 293.848 88.3834C293.848 88.3834 338.84 110.873 305.027 198.731Z" fill="#1E0A04"/>
<path d="M270.472 72.7518C270.472 72.7518 318.954 59.3445 324.08 110.194C327.693 146.307 304.625 199.566 304.625 199.566L303.421 119.06L270.503 72.7827L270.472 72.7518Z" fill="#1E0A04"/>
<path d="M258.861 71.1455C258.861 71.1455 257.811 135.309 306.2 136.082C306.2 136.082 315.433 78.776 258.861 71.1455Z" fill="#1E0A04"/>
<path d="M278.995 96.6935C278.995 96.6935 244.78 88.8159 208.311 105.282C171.841 121.747 112.397 135 103.658 92.0596C94.5794 47.3582 143.524 8.43361 233.941 37.9669C305.366 61.2907 284.152 87.5184 284.152 87.5184L278.964 96.6935H278.995Z" fill="#1E0A04"/>
<path d="M270.472 72.7519C270.472 72.7519 307.188 48.285 320.312 94.0059L292.428 103.614L270.472 72.7519Z" fill="#1E0A04"/>
<path d="M286.252 76.737C286.252 76.737 284.646 36.2987 227.394 12.2334C222.577 10.2254 217.05 10.8124 212.757 13.7472C205.593 18.6282 203.833 28.4211 208.836 35.4955L219.52 50.6019L286.283 76.737H286.252Z" fill="#1E0A04"/>
<path d="M-82.8572 537.9L54.775 626.253L117.647 524.678C140.93 487.051 143.617 434.38 106.376 410.5L92.5104 413.805C54.775 389.616 4.595 400.645 -19.4914 438.457L-82.8572 537.9Z" fill="#00CC87"/>
<path d="M176.35 375.653L41.4966 401.325L48.0123 838.083H384.481L396.277 386.743L268.434 380.318L176.35 375.653Z" fill="#00CC87"/>
<path d="M171.625 373.182L222.886 463.604L272.201 374.819L171.625 373.182Z" fill="#C77D69"/>
<path d="M170.328 367.374L139.325 383.345L174.343 453.595L204.389 430.981L170.328 367.374Z" fill="white"/>
<path d="M273.745 367.374L308.64 382.326L271.769 453.595L241.568 429.993L273.745 367.374Z" fill="white"/>
<path d="M484.069 366.54L321.578 384.673L368.053 553.748L507.383 518.253L484.069 366.54Z" fill="#00CC87"/>
<path d="M333.745 632.153C333.745 632.153 314.877 453.842 343.843 382.202L368.64 379.453C368.64 379.453 343.843 490.697 360.981 639.537L333.745 632.184V632.153Z" fill="#1E0A04"/>
</g>
</g>
<defs>
<clipPath id="clip0_8_334">
<rect width="400" height="450" fill="white"/>
</clipPath>
<clipPath id="clip1_8_334">
<rect width="832" height="1199" fill="white" transform="translate(-157)"/>
</clipPath>
</defs>
</svg>
