<svg width="400" height="450" viewBox="0 0 400 450" fill="none" xmlns="http://www.w3.org/2000/svg">
<g clip-path="url(#clip0_1_168)">
<g clip-path="url(#clip1_1_168)">
<path d="M189.518 396.945L125.037 686.662H214.448L255.485 518.263L270.291 688.261H352.234C352.234 688.261 352.234 409.157 321.749 396.927H189.518V396.945Z" fill="#914E4F"/>
<path d="M187.623 196.781C187.623 196.781 149.336 206.948 155.708 309.289L212.33 330.868L187.623 196.781Z" fill="#FACE57"/>
<path d="M89.2207 235.071C89.2207 235.071 107.333 232.71 105.067 209.811L102.243 174.495C101.927 171.373 98.955 169.217 95.8898 169.904C93.8092 170.369 92.2301 172.061 91.8772 174.161L88.6076 192.19L68.5445 150.537C67.1698 147.321 63.2314 146.113 60.2963 147.99C58.0113 149.44 57.0825 152.303 58.0485 154.83L69.7334 183.77L68.563 184.83L52.2153 156.652C50.2275 153.845 46.1777 153.529 43.7999 156.02C41.9979 157.897 41.7936 160.797 43.2797 162.934L58.1042 191.819L56.8038 193.287L39.49 169.997C34.79 163.771 31.149 165.444 29.3656 167.228C27.6936 168.901 31.3161 174.217 32.8766 175.982L49.7074 201.911L48.5556 203.305L31.3905 181.949C29.4213 180.406 26.5233 181.075 25.4272 183.324H25.3901C24.6098 184.941 25.0185 186.874 26.3747 188.045L45.3418 213.473C45.3418 213.473 59.2374 242.599 74.8235 239.81L89.2021 235.052L89.2207 235.071Z" fill="#D08864"/>
<path d="M88.6077 192.209C88.6077 192.209 73.7647 200.982 75.9382 217.729" stroke="#BA704F" stroke-width="1.88" stroke-linecap="round" stroke-linejoin="round"/>
<path d="M123.347 257.821L94.701 219.718L64.9034 233.193L124.907 322.913L123.347 257.821Z" fill="#D08864"/>
<path d="M206.33 342.876C216.176 358.731 203.488 384.957 186.546 392.782C171.758 399.604 154.203 393.823 146.364 379.548L66.501 264.884L113.129 235.145L206.33 342.894V342.876Z" fill="#FACE57"/>
<path d="M156.191 284.903L165.126 295.218" stroke="#E8B331" stroke-width="1.3" stroke-linecap="round" stroke-linejoin="round"/>
<path d="M274.043 173.678L342.407 194.848C352.364 198.789 352.773 209.811 351.937 221.669L335.83 425.644L179.561 425.774L171.015 224.123C170.049 212.376 176.756 201.335 187.623 196.781L244.822 173.975L274.043 173.696V173.678Z" fill="#FACE57"/>
<path d="M304.751 183.194L274.043 173.678L233.378 178.399L219.706 184.012L238.691 215.722L304.751 183.194Z" fill="#D08864"/>
<path d="M174.192 242.283L178.539 395.217" stroke="#E8B331" stroke-width="1.3" stroke-linecap="round" stroke-linejoin="round"/>
<path d="M364.736 214.941C379.616 248.528 407.11 302.598 422.232 337.021C429.904 354.474 421.006 374.697 402.986 380.886C387.642 386.165 367.021 379.344 359.646 364.864L299.178 246.149C289.091 226.353 298.974 202.227 320.021 195.183C337.781 189.235 357.138 197.785 364.736 214.922V214.941Z" fill="#FACE57"/>
<path d="M342.499 332.987L309.005 265.461" stroke="#E8B331" stroke-width="1.3" stroke-linecap="round" stroke-linejoin="round"/>
<path d="M317.235 431.406L309.804 444.231L320.95 491.368L338.152 458.469L317.235 431.406Z" fill="#D08864"/>
<path d="M363.083 324.326L317.235 431.406L352.234 476.684L421.062 365.515L363.083 324.326Z" fill="#FACE57"/>
<path d="M352.234 349.883L363.083 324.326" stroke="#E8B331" stroke-width="1.3" stroke-linecap="round" stroke-linejoin="round"/>
<path d="M339.49 379.455L320.69 423.321" stroke="#E8B331" stroke-width="1.3" stroke-linecap="round" stroke-linejoin="round"/>
<path d="M305.773 66.9878L278.409 129.924L269.548 102.991L305.773 66.9878Z" fill="#252B4E"/>
<path d="M215.117 93.9762C213.538 102.285 205.513 107.749 197.209 106.169C188.905 104.589 183.443 96.5599 185.022 88.2514C186.601 79.943 194.627 74.4784 202.931 76.0583C211.234 77.6382 216.696 85.6678 215.117 93.9762Z" fill="#BC7150"/>
<path d="M231.279 124.478L232.431 184.756L287.846 186.038L276.533 83.047L231.279 124.478Z" fill="#D08864"/>
<path d="M231.874 155.574C231.874 155.574 269.473 144.961 271.052 109.292L231.279 126.206L231.874 155.574Z" fill="#1E0A04"/>
<path d="M216.808 24.665C203.246 30.5757 194.441 43.9213 193.4 58.6794C192.212 75.6866 191.543 101.987 197.246 114.682C206.07 134.292 223.737 145.351 249.633 137.377C249.633 137.377 280.099 132.6 282.942 86.2998C286.304 31.5051 247.274 11.4125 216.808 24.665Z" fill="#D08864"/>
<path d="M268.767 86.7087C268.767 86.7087 266.26 81.0396 269.771 53.9025C270.124 51.1702 269.585 48.4007 268.21 46.003C265.554 41.3562 260.185 38.6053 254.983 39.8879C223.662 47.5086 213.352 46.5234 197.339 42.0254C197.339 42.0254 203.544 9.01473 254.556 10.6318C335.292 13.1782 311.587 87.3035 273.783 102.545L268.73 86.7087H268.767Z" fill="#252B4E"/>
<path d="M284.896 108.274C295.166 108.251 303.472 99.9021 303.449 89.6265C303.426 79.3509 295.081 71.0398 284.811 71.0631C274.541 71.0864 266.235 79.4353 266.258 89.7109C266.281 99.9865 274.626 108.298 284.896 108.274Z" fill="#D08864"/>
<path d="M292.62 83.3816C292.62 83.3816 278.65 80.9281 276.644 96.2439" stroke="#1E0A04" stroke-width="1.21" stroke-linecap="round" stroke-linejoin="round"/>
<path d="M334.827 25.1669C333.527 37.6946 322.306 46.7837 309.785 45.4826C297.264 44.1815 288.18 32.9549 289.481 20.4272C290.781 7.89951 302.002 -1.18957 314.523 0.111522C327.043 1.41262 336.128 12.6392 334.827 25.1669Z" fill="#252B4E"/>
<path d="M209.953 85.9838L207.649 93.9762C207.426 95.0729 208.151 96.1138 209.247 96.2996L212.981 96.8944" stroke="#1E0A04" stroke-width="1.21" stroke-linecap="round" stroke-linejoin="round"/>
<path d="M235.292 53.1219C235.292 53.1219 224.257 51.226 223.867 57.1552C223.867 57.1552 223.7 61.1701 233.341 62.5827C242.982 63.9953 246.809 63.5678 247.868 59.8504C248.927 56.133 240.493 53.475 235.292 53.1033V53.1219Z" fill="#1E0A04"/>
<path d="M194.051 62.8057C194.051 62.8057 204.008 59.6274 205.476 65.2964C205.476 65.2964 206.404 69.1997 197.655 71.709C191.283 73.5305 188.905 72.4338 188.236 69.8317C187.437 66.7462 190.28 63.6422 194.051 62.8057Z" fill="#1E0A04"/>
<path d="M207.315 104.571L228.4 105.147C228.4 105.147 223.885 112.582 215.879 111.894C207.853 111.188 207.333 104.571 207.333 104.571H207.315Z" fill="white"/>
<path d="M234.549 81.114C234.549 83.3816 232.672 85.2032 230.406 85.1846C228.14 85.1846 226.319 83.3073 226.338 81.0396C226.338 78.772 228.214 76.9505 230.48 76.9691C232.747 76.9691 234.567 78.8464 234.549 81.114Z" fill="#1E0A04"/>
<path d="M203.023 81.4114C203.023 83.4931 201.296 85.166 199.215 85.166C197.134 85.166 195.463 83.4374 195.463 81.3556C195.463 79.2739 197.19 77.601 199.271 77.601C201.351 77.601 203.023 79.3296 203.023 81.4114Z" fill="#1E0A04"/>
<path d="M215.656 82.4151C216.102 91.8945 223.997 99.2178 233.267 98.7717C242.537 98.3256 249.67 90.2774 249.224 80.8166C248.779 71.3372 240.883 64.0139 231.613 64.46C222.344 64.906 215.191 72.9542 215.656 82.4151Z" stroke="#FACE57" stroke-width="1.17" stroke-miterlimit="10"/>
<path d="M178.13 84.0879C178.558 93.1956 185.357 100.259 193.308 99.8683C201.259 99.478 207.333 91.8016 206.906 82.6939C206.479 73.5862 199.68 66.5231 191.729 66.9135C183.778 67.2852 177.703 74.9803 178.13 84.0879Z" stroke="#FACE57" stroke-width="1.17" stroke-miterlimit="10"/>
<path d="M215.656 82.4151C215.656 82.4151 211.736 78.3073 206.906 82.7125" stroke="#FACE57" stroke-width="1.17" stroke-miterlimit="10"/>
<path d="M249.224 80.798L268.099 81.0768" stroke="#FACE57" stroke-width="1.17" stroke-miterlimit="10"/>
</g>
</g>
<defs>
<clipPath id="clip0_1_168">
<rect width="400" height="450" fill="white"/>
</clipPath>
<clipPath id="clip1_1_168">
<rect width="400" height="688.279" fill="white" transform="translate(25)"/>
</clipPath>
</defs>
</svg>
