<svg width="400" height="450" viewBox="0 0 400 450" fill="none" xmlns="http://www.w3.org/2000/svg">
<g clip-path="url(#clip0_1_392)">
<g clip-path="url(#clip1_1_392)">
<path d="M82.3054 237.321C82.3054 237.321 58.0211 250.341 58.7385 299.51C59.4558 348.68 58.7385 587.182 58.7385 587.182L114.776 585.937L117.181 320.191L82.3054 237.321Z" fill="#E2DCD5"/>
<path d="M285.377 509.799L298.901 789.515L230.943 790L197.65 567.958L185.835 790H115.388L107.771 509.799L186.784 440.413L285.377 509.799Z" fill="#914E4F"/>
<path d="M309.282 236.688C352.555 285.266 385.996 377.189 385.996 377.189C390.321 396.013 387.367 406.522 372.345 414.879C359.264 422.159 342.807 418.867 333.545 407.071L253.751 293.981L309.261 236.688H309.282Z" fill="#E2DCD5"/>
<path d="M224.846 193.807L303.881 232.151C309.957 235.105 313.164 241.879 311.603 248.463L282.297 390.421L297.53 536.472C297.53 536.472 210.119 573.212 193.241 457.633C193.241 457.633 195.815 549.915 103.551 546.327L115.662 389.534L76.0179 254.161C73.9292 247.767 76.5243 240.782 82.3052 237.321L153.386 194.736L224.867 193.807H224.846Z" fill="#E2DCD5"/>
<path d="M291.644 342.56L303.438 288.242" stroke="#CCBDAE" stroke-width="1.12" stroke-linecap="round" stroke-linejoin="round"/>
<path d="M87.9387 296.261L113.742 389.513L108.594 546.306" stroke="#CCBDAE" stroke-width="1.12" stroke-linecap="round" stroke-linejoin="round"/>
<path d="M235.543 200.433L255.692 231.518L238.328 240.697L261.536 257.411L194.675 391.413" stroke="#CCBDAE" stroke-width="1.12" stroke-linecap="round" stroke-linejoin="round"/>
<path d="M145.115 201.404L125.789 231.201L143.174 240.402L119.966 257.115L186.806 391.117" stroke="#CCBDAE" stroke-width="1.12" stroke-linecap="round" stroke-linejoin="round"/>
<path d="M161.087 190.22L153.386 194.736L170.454 304.343L196.215 368.474L218.685 302.507L224.846 193.807L218.96 190.41L161.087 190.22Z" fill="white"/>
<path d="M189.295 222.211L176.868 237.321L190.519 249.518L203.347 235.865L189.295 222.211Z" fill="#AB5DAD"/>
<path d="M186.827 240.486L179.738 327.471L196.216 368.474L210.225 327.303L193.177 240.402L186.827 240.486Z" fill="#AB5DAD"/>
<path d="M176.868 237.321L161.551 249.518" stroke="#E5E5E5" stroke-width="0.91" stroke-miterlimit="10"/>
<path d="M203.347 235.865L221.787 247.893" stroke="#E5E5E5" stroke-width="0.91" stroke-miterlimit="10"/>
<path d="M158.492 392.7L168.598 462.571C169.294 467.213 173.45 470.505 178.134 470.126L208.073 467.678C212.757 467.298 216.343 463.331 216.238 458.625L214.529 388.099L158.47 392.7H158.492Z" fill="white"/>
<path d="M216.989 376.303L154.115 381.451L155.058 392.977L217.932 387.829L216.989 376.303Z" fill="#67935D"/>
<path d="M160.623 384.069L163.323 373.771L207.145 370.183L211.069 379.933L160.623 384.069Z" fill="#67935D"/>
<path d="M161.973 380.186L209.107 376.324" stroke="white" stroke-width="0.54" stroke-linecap="round" stroke-linejoin="round"/>
<path d="M216.85 437.29L164.23 441.616L159.547 412.579L216.744 407.894L216.85 437.29Z" fill="#67935D"/>
<path d="M232.99 412.41C232.99 412.41 224.509 405.826 215.584 403.019C208.453 400.761 184.042 408.105 176.278 411.165C174.379 411.903 173.155 413.739 173.155 415.765C173.155 418.888 176.024 421.252 179.084 420.64L198.663 417.601L178.134 429.081C175.307 431.086 174.569 434.947 176.446 437.86C179.907 443.241 185.097 450.985 186.763 451.914C193.051 455.417 215.099 451.914 215.099 451.914C215.099 451.914 236.239 458.498 255.987 443.452L232.969 412.431L232.99 412.41Z" fill="#FFC09B"/>
<path d="M343.44 359.4L232.969 412.389L253.118 461.748L366.374 418.15C383.886 412.304 392.684 392.784 385.447 375.797C378.506 359.526 359.559 352.119 343.44 359.379V359.4Z" fill="#E2DCD5"/>
<path d="M282.297 388.754L232.99 412.41" stroke="#CCBDAE" stroke-width="1.12" stroke-linecap="round" stroke-linejoin="round"/>
<path d="M312.004 374.488L330.423 365.646" stroke="#CCBDAE" stroke-width="1.12" stroke-linecap="round" stroke-linejoin="round"/>
<path d="M152.55 116.338C159.661 109.226 159.661 97.6954 152.55 90.5833C145.439 83.4712 133.911 83.4712 126.8 90.5833C119.69 97.6954 119.69 109.226 126.8 116.338C133.911 123.45 145.439 123.45 152.55 116.338Z" fill="#FFC09B"/>
<path d="M129.418 100.618C129.418 100.618 136.76 97.3045 143.301 110.072" stroke="#1E0A04" stroke-width="1.1" stroke-linecap="round" stroke-linejoin="round"/>
<path d="M246.714 121.195C256.503 118.893 262.573 109.09 260.271 99.2991C257.97 89.508 248.169 83.4369 238.379 85.7388C228.59 88.0406 222.52 97.8439 224.822 107.635C227.123 117.426 236.925 123.497 246.714 121.195Z" fill="#FFC09B"/>
<path d="M252.801 100.618C252.801 100.618 245.459 97.3045 238.919 110.072" stroke="#1E0A04" stroke-width="1.1" stroke-linecap="round" stroke-linejoin="round"/>
<path d="M214.466 145.44C214.466 145.44 204.191 152.678 194.844 154.472C185.498 156.265 176.404 150.821 176.278 150.758C176.172 150.694 165.349 144.469 165.349 144.469L161.53 190.705L189.295 222.211L218.517 190.874L214.445 145.419L214.466 145.44Z" fill="#FFC09B"/>
<path d="M163.154 146.621C163.154 146.621 178.451 174.224 196.49 170.172C215.31 165.93 215.9 141.81 215.9 141.81L163.154 146.643V146.621Z" fill="#1E0A04"/>
<path d="M240.269 71.7702C240.374 92.3453 237.526 110.135 234.657 122.754C231.851 135.12 223.812 143.773 212.419 150.779L210.351 152.045C198.304 159.452 182.691 159.705 170.37 152.678C157.964 145.609 149.25 136.239 146.508 123.008C141.528 98.9505 140.874 72.2767 140.874 72.2767C140.874 72.2767 136.001 20.343 189.612 21.0816C243.223 21.8202 240.29 71.7702 240.29 71.7702H240.269Z" fill="#FFC09B"/>
<path d="M170.771 120.982L207.862 120.792C207.862 120.792 204.971 131.153 189.359 131.238C176.278 131.301 170.75 120.982 170.75 120.982H170.771Z" fill="white"/>
<path d="M160.897 92.5353C160.897 92.5353 167.374 88.167 174.126 92.472" stroke="#1E0A04" stroke-width="1.1" stroke-linecap="round" stroke-linejoin="round"/>
<path d="M218.264 92.2398C218.264 92.2398 211.428 87.9349 204.697 92.3031" stroke="#1E0A04" stroke-width="1.1" stroke-linecap="round" stroke-linejoin="round"/>
<path d="M210.963 69.7655C210.963 69.7655 199.929 67.613 199.423 73.564C199.423 73.564 199.169 77.5946 208.811 79.2195C218.453 80.8444 222.314 80.5067 223.454 76.7927C224.593 73.0786 216.196 70.2508 210.984 69.7655H210.963Z" fill="#1E0A04"/>
<path d="M163.386 70.0187C163.386 70.0187 152.141 70.5251 153.048 76.4128C153.048 76.4128 153.744 80.4012 163.492 79.7048C173.26 79.0295 176.91 77.8056 177.143 73.9227C177.375 70.0398 168.555 69.259 163.365 69.9976L163.386 70.0187Z" fill="#1E0A04"/>
<path d="M142.689 98.6339C142.689 98.6339 149.419 47.8187 145.537 37.9004C145.537 37.9004 119.734 50.8364 142.689 98.6339Z" fill="#914E4F"/>
<path d="M238.244 98.1486C238.244 98.1486 229.319 54.0018 231.788 37.4573C231.788 37.4573 257.865 47.2067 238.244 98.1486Z" fill="#914E4F"/>
<path d="M184.78 100.702V109.755H190.519" stroke="#121E35" stroke-width="1.12" stroke-linecap="round" stroke-linejoin="round"/>
<path d="M146.677 54.0862C146.677 54.0862 148.66 34.4396 170.855 37.4362C189.506 39.9474 227.694 61.852 239.193 31.8017C249.974 3.73518 205.879 -5.84544 186.046 3.41864C166.193 12.6827 145.537 34.5451 145.537 34.5451L146.677 54.1073V54.0862Z" fill="#914E4F"/>
<path d="M157.88 26.8426C157.88 26.8426 133.047 26.0829 129.418 46.8058C125.789 67.5286 142.689 98.6129 142.689 98.6129L143.406 51.9337L157.901 26.8426H157.88Z" fill="#914E4F"/>
<path d="M222.167 25.1122C222.167 25.1122 247.632 26.0829 251.261 46.8058C254.89 67.5286 237.99 98.6128 237.99 98.6128L237.273 51.9337L222.167 25.0911V25.1122Z" fill="#914E4F"/>
</g>
</g>
<defs>
<clipPath id="clip0_1_392">
<rect width="400" height="450" fill="white"/>
</clipPath>
<clipPath id="clip1_1_392">
<rect width="330" height="790" fill="white" transform="translate(58)"/>
</clipPath>
</defs>
</svg>
