<svg width="400" height="450" viewBox="0 0 400 450" fill="none" xmlns="http://www.w3.org/2000/svg">
<g clip-path="url(#clip0_8_73)">
<g clip-path="url(#clip1_8_73)">
<path d="M344.736 377.442C338.234 365.585 335.829 351.543 337.922 338.214C341.975 312.672 361.171 292.656 373.107 269.744C396.667 224.453 390.566 168.42 369.722 121.837C359.657 99.2807 340.906 75.2536 316.366 77.9282L296.992 68.1658C254.102 60.2311 208.719 66.3381 169.436 85.328C161.687 89.0725 154.071 93.3965 148.103 99.5481C141.199 106.68 136.835 115.819 132.336 124.69C119.688 149.519 103.209 174.75 77.4215 185.181C59.072 192.625 38.4065 191.555 19.2108 196.503C0.950324 201.273 -16.1967 212.061 -26.3067 228.02C-44.2109 256.281 -37.3075 293.191 -45.2352 325.733C-50.6243 347.888 -63.3175 368.17 -80.8208 382.702C-95.2955 394.738 -112.665 402.717 -128.253 413.282C-143.842 423.847 -152.037 438.424 -156.089 456.834C-161.612 481.797 -119.168 512.957 -98.4132 527.89C-47.952 564.221 -102.733 623.152 -47.4176 656.674C36.8922 707.715 57.0678 512.154 128.729 496.508C150.463 491.738 171.708 484.65 193.798 481.887C215.845 479.123 239.494 481.084 258.2 493.12C272.675 502.481 282.918 516.969 295.389 528.871C307.859 540.773 324.917 550.491 341.708 546.523C353.867 543.626 363.531 533.864 368.965 522.585C374.399 511.307 376.136 498.648 377.071 486.166C379.253 457.057 377.071 426.165 361.305 401.514C356.049 393.312 349.413 386.001 344.736 377.442Z" fill="#1A4056"/>
<path d="M143.649 261.497C151.888 237.247 149.795 210.813 154.204 185.582C161.865 141.852 190.458 102.267 229.607 81.227C240.83 75.2091 253.078 70.5731 265.771 69.7707C286.659 68.4334 307.013 77.5271 323.893 89.9195C369.188 123.174 376.581 157.276 357.385 210.1C338.189 262.924 288.53 324.306 237.757 300.19C229.072 311.602 233.125 329.299 243.814 338.838C254.503 348.378 269.869 351.008 284.165 349.804C273.343 373.207 242.211 376.818 216.423 377.175C178.834 377.71 138.616 377.442 107.573 356.268C92.2971 345.837 70.2064 316.416 88.3777 302.597C94.7911 297.694 111.404 299.789 120.267 293.682C131.134 286.237 139.418 273.89 143.649 261.542V261.497Z" fill="#EFB289"/>
<path d="M310.22 162.669C294.542 165.879 278.375 157.543 262.52 159.772C248.446 161.778 236.911 171.719 227.113 181.971C207.338 202.655 190.681 226.415 168.857 244.87C147.034 263.325 119.242 305.94 91.4062 299.388C112.606 278.882 117.104 218.168 127.883 190.708C145.653 145.418 179.457 106.591 221.813 82.698C246.041 69.0574 274.59 60.1419 301.624 66.6502C327.946 72.9802 349.457 93.664 360.636 118.315C371.815 142.966 373.552 171.139 369.588 197.93C366.827 216.786 360.681 236.311 346.251 248.703C354.312 241.749 343.311 207.425 341.396 198.866C337.61 182.194 334.626 166.548 337.566 149.475C328.881 149.385 319.84 160.663 310.22 162.625V162.669Z" fill="#1A4056"/>
<path d="M259.759 206.578C245.373 232.968 213.529 243.354 188.588 229.758C163.646 216.162 155.095 183.754 169.481 157.365C183.867 130.975 215.711 120.589 240.652 134.185C265.593 147.781 274.144 180.188 259.759 206.578Z" fill="#DB759F"/>
<path d="M205.824 226.861C228.847 226.861 247.511 205.985 247.511 180.233C247.511 154.481 228.847 133.605 205.824 133.605C182.8 133.605 164.136 154.481 164.136 180.233C164.136 205.985 182.8 226.861 205.824 226.861Z" fill="#FF8DBB"/>
<path d="M229.117 128.702C229.117 128.702 264.747 62.8167 301.535 62.8167C338.323 62.8167 344.158 87.2004 344.158 87.2004L329.683 84.9269C314.006 82.4752 297.972 86.9329 286.036 97.4531C275.124 107.037 262.565 122.238 252.365 145.909L229.072 128.746L229.117 128.702Z" fill="#DB759F"/>
<path d="M120.133 339.819C120.133 339.819 198.297 373.609 248.09 355.822L354.713 802.218C354.713 802.218 54.0838 904.3 18.8991 798.652C17.1175 793.303 120.178 339.819 120.178 339.819H120.133Z" fill="#F2D768"/>
<path d="M-68.2167 115.239C-34.6353 87.8244 -23.9908 39.8148 5.13685 8.43242C9.67969 3.57351 17.5183 8.74446 15.0687 14.8961C13.8217 18.0165 12.1293 21.0923 10.3478 23.8561C6.2503 30.3198 1.61838 37.2293 1.03939 44.6291C0.905778 46.1893 2.86543 47.0808 4.02341 46.011L43.172 10.6613C45.7997 8.29869 48.5611 5.84695 51.9905 5.13371C55.4199 4.42048 59.6509 6.15899 60.319 9.63601C60.7199 11.642 59.8736 13.6925 58.8938 15.5202C50.1199 32.1029 32.3048 42.1328 22.2393 57.9577C21.3486 59.3396 20.5023 61.0335 21.1259 62.5491C22.3729 65.7587 27.2275 64.0202 29.8998 61.8359C41.9695 51.8506 54.0392 41.8653 66.1089 31.9246C68.9148 29.6066 71.8543 27.244 75.3727 26.397C78.8912 25.5946 83.2113 26.8428 84.6811 30.1415C86.6853 34.733 82.5433 39.5027 78.8021 42.7568C67.9349 52.2518 57.0232 61.7467 46.156 71.2417C42.5485 74.4066 38.6737 79.6667 41.6577 83.4112C56.5778 75.6102 72.166 69.0128 88.1996 63.7973C92.297 62.46 97.0626 64.243 98.7105 68.255C101.026 73.8271 95.3256 77.8836 90.5601 80.2908C76.5307 87.3786 62.5013 94.4218 48.472 101.51C43.8846 103.828 38.6737 107.082 38.4956 112.208C38.4065 115.195 40.1434 117.959 42.2367 120.054C46.156 123.976 51.2779 126.339 56.0434 129.147C61.9224 132.58 67.7123 137.171 68.4249 144.482C68.7812 148.004 67.356 151.614 64.4165 153.576C59.0274 157.142 53.193 153.576 48.2938 150.411C37.3376 143.368 25.2679 137.751 12.3519 136.101C-0.563978 134.452 -14.3261 137.171 -24.4807 145.284" fill="#EFB289"/>
<path d="M0.638555 293.013C-33.0764 298.942 -66.1234 310.042 -100.774 304.603C-130.97 299.878 -171.143 286.148 -140.1 252.938C-102.199 212.373 -44.7453 200.961 -8.98158 155.359C-6.04209 151.614 -3.10261 147.201 -3.6816 142.476C-4.12698 138.732 -6.71016 135.656 -9.15973 132.803C-24.0353 115.418 -38.9554 98.0326 -53.831 80.6475C-50.2234 84.8823 -155.377 157.855 -164.062 164.274C-214.033 201.273 -304.311 291.275 -239.33 354.574C-195.461 397.279 -125.269 401.157 -69.241 417.695C-53.5638 422.331 -36.6395 427.592 -27.1529 440.92C-16.5975 455.764 -18.6017 475.824 -21.1404 493.878C-34.368 588.069 -52.2722 688.056 -117.119 757.552C-124.779 765.754 -133.732 775.561 -131.416 786.572C-130.124 792.812 -125.358 797.716 -120.415 801.728C-101.085 817.33 -76.367 824.239 -52.3167 830.257C-23.0555 837.568 11.3276 843.095 34.309 823.526C42.9048 816.215 48.6947 806.141 54.1283 796.245C126.858 662.513 161.241 508.187 152.2 356.179C149.662 313.831 89.1794 296.98 55.6871 291.408C36.9367 288.288 18.7208 289.982 0.727632 293.147L0.638555 293.013Z" fill="#8167B2"/>
<path d="M274.412 592.438C290.846 668.13 309.24 744.669 347.409 812.025C349.858 816.349 352.531 820.762 356.673 823.481C361.616 826.691 367.807 827.003 373.686 826.78C410.741 825.354 446.683 806.096 468.462 776.051C405.53 729.78 365.357 653.821 362.596 575.722C385.177 599.125 407.757 622.528 430.338 645.975C443.922 660.062 460.713 675.352 480.086 672.677C496.788 670.359 508.502 655.47 518.122 641.607C558.74 582.809 594.726 520.802 625.636 456.388C599.447 448.097 574.373 436.462 551.124 421.841C525.871 461.782 495.63 498.603 461.381 531.144C404.417 496.642 413.814 405.214 364.333 360.592C337.432 336.342 298.952 331.216 262.965 327.159C203.107 320.473 232.546 381.41 238.826 415.244C249.827 474.487 261.718 533.596 274.501 592.483L274.412 592.438Z" fill="#8167B2"/>
<path d="M289.421 285.925C289.421 285.925 260.649 268.852 256.686 247.544C256.686 247.544 242.3 266.044 250.138 278.838C257.977 291.631 289.421 285.925 289.421 285.925Z" fill="#F0EBE4"/>
<path d="M308.884 239.743C303.138 242.775 298.506 247.901 296.057 253.964C294.454 257.975 292.494 263.325 288.174 263.102C284.611 262.924 282.785 258.867 281.76 255.479" stroke="#D3845E" stroke-miterlimit="10"/>
<path d="M273.654 206.132C283.542 205.731 292.627 215.315 291.737 225.167" stroke="#2B2B2B" stroke-miterlimit="10"/>
<path d="M315.163 249.952C321.31 248.659 328.124 251.913 331.019 257.485" stroke="#2B2B2B" stroke-miterlimit="10"/>
<path d="M298.506 194.899C293.162 191.957 286.882 191.154 280.78 191.466L308.928 209.119C308.127 203.056 303.851 197.841 298.506 194.899Z" fill="#964E38"/>
<path d="M334.849 236.489C332.355 233.101 328.614 230.873 324.739 229.268L336.764 248.347C338.412 244.469 337.343 239.833 334.849 236.445V236.489Z" fill="#964E38"/>
<path d="M193.754 228.555C145.163 281.646 93.8114 340.889 90.0257 412.792C88.9122 433.699 92.4752 455.764 105.258 472.347C124.008 496.597 158.436 503.462 188.81 499.272C205.423 496.998 221.724 491.961 238.514 491.382C285.368 489.777 330.173 528.291 335.651 574.875C337.076 586.821 335.963 599.615 329.327 609.6C322.69 619.586 309.329 625.737 298.15 621.369C290.579 618.382 285.279 611.383 281.938 603.939C265.638 568.054 289.154 524.101 323.225 504.354C357.296 484.606 398.583 482.912 437.954 482.154C477.325 481.352 524.09 490.713 558.918 472.347C577 462.852 588.714 454.026 603.189 435.705" stroke="#FF8DBB" stroke-miterlimit="10"/>
</g>
</g>
<defs>
<clipPath id="clip0_8_73">
<rect width="400" height="450" fill="white"/>
</clipPath>
<clipPath id="clip1_8_73">
<rect width="945" height="1836" fill="white" transform="translate(-262 5)"/>
</clipPath>
</defs>
</svg>
