<svg width="400" height="450" viewBox="0 0 400 450" fill="none" xmlns="http://www.w3.org/2000/svg">
<g clip-path="url(#clip0_8_852)">
<g clip-path="url(#clip1_8_852)">
<path d="M419.558 460.9C417.913 469.244 414.057 476.85 407.534 482.356C401.238 487.749 393.128 490.643 385.074 492.573C364.372 497.625 342.649 499.498 321.493 501.371C298.976 503.301 276.345 504.323 253.715 505.288C231.935 506.082 209.929 507.274 188.263 503.982C170.226 501.258 152.417 495.184 137.67 484.229C130.41 478.837 124.171 472.253 119.123 464.76C113.905 456.984 109.708 448.527 103.98 441.091C98.5915 434.166 91.2749 428.433 82.3702 426.957C73.3521 425.538 66.3191 429.909 62.0085 437.685C57.9815 445.007 55.7695 453.351 49.5306 459.311C44.1991 464.476 36.0884 468.109 29.0554 463.966C22.306 460.049 21.0015 451.648 21.0015 444.497C21.0015 441.261 21.6253 428.036 22.1358 425.822C22.5895 421.906 23.1 417.989 23.7239 414.129C25.9926 400.45 29.736 387.054 34.6137 374.056C42.4408 346.754 53.8979 320.473 75.3939 300.891C89.0062 288.46 105.681 280.968 123.888 278.584C144.703 275.916 165.802 278.867 186.504 280.23C209.362 281.762 232.276 282.557 255.246 282.557C276.516 282.557 298.068 280.741 319.281 282.784C338.055 284.6 355.864 290.617 370.554 302.707C383.769 313.662 393.808 328.079 400.898 343.632C409.406 362.306 413.603 382.74 416.325 402.947C417.743 413.505 418.821 424.063 419.842 434.62C420.636 443.305 421.203 452.216 419.558 460.844V460.9Z" fill="#36344C"/>
<path d="M529.875 854.199C507.074 915.614 341.514 1095.55 341.514 1095.55C341.514 1095.55 277.48 1083.4 263.924 1005.58L336.24 874.178C336.24 874.178 288.313 882.012 220.025 885.247C211.63 885.644 202.953 886.042 193.991 886.269C151.623 887.404 103.583 886.496 55.2591 881.103C46.8081 880.195 38.3572 879.117 29.9062 877.868C22.2493 876.733 14.6491 875.484 7.0489 874.178C7.0489 874.178 -18.3607 914.195 -60.2752 895.237C-102.19 876.335 -101.793 842.563 -98.3897 811.684C-94.9866 780.806 -56.1915 585.718 -56.1915 585.718L25.1986 604.279C25.1986 604.279 22.7598 449.378 79.9314 380.47C88.5525 369.969 98.5916 361.512 110.219 355.836C114.302 353.849 118.613 352.203 123.037 350.954L269.483 333.415C269.483 333.415 292.056 333.415 318.77 358.901C324.726 364.577 334.935 363.498 343.386 366.109C402.997 384.273 470.491 411.632 482.799 444.326C505.656 505.004 552.732 792.783 529.875 854.199Z" fill="#F4E9DC"/>
<path d="M316.048 354.984C286.214 494.617 268.008 636.69 261.939 779.274C261.202 795.791 260.691 812.365 260.351 828.883C266.477 828.486 272.602 827.861 278.728 827.294C281.223 827.067 283.662 827.067 286.158 827.01C288.937 707.528 300.11 588.159 319.962 470.323C326.314 433.087 333.347 395.909 341.401 359.014C332.723 357.482 324.215 356.176 316.105 355.041L316.048 354.984Z" fill="#36344C"/>
<path d="M79.9315 380.413C57.9816 510.056 42.8947 641.004 34.8407 772.292C33.9332 787.391 33.1392 802.489 32.4019 817.588C40.8528 817.417 49.4172 818.098 57.9816 818.212C63.7669 701.057 75.0537 584.129 92.0691 468.052C97.5707 430.59 103.64 393.185 110.219 355.836C98.5916 361.512 88.5526 369.969 79.9315 380.47V380.413Z" fill="#36344C"/>
<path d="M280.146 351.635C266.25 387.395 246.228 420.543 221.102 449.492C211.12 435.188 200.003 421.735 187.752 409.305C187.185 407.999 185.824 407.204 184.406 408.056C184.349 408.056 184.292 408.113 184.236 408.169C184.179 408.169 184.122 408.169 184.065 408.283C167.277 422.473 151.453 437.742 136.536 453.976C124.512 422.871 116.685 390.233 113.338 357.028C112.998 353.735 107.893 354.303 108.234 357.595C111.75 392.56 120.144 427.014 133.189 459.652C133.927 461.525 136.309 461.752 137.557 460.333C152.417 443.872 168.298 428.433 185.143 414.073C197.508 426.787 208.794 440.523 218.777 455.224C219.741 456.643 221.783 456.53 222.86 455.338C249.291 425.482 270.333 391.028 284.74 353.792C285.931 350.727 281.28 348.57 280.089 351.692L280.146 351.635Z" fill="#E2CAB0"/>
<path d="M236.359 421.622C235.509 427.809 234.601 433.996 233.694 440.126C233.013 445.007 232.162 449.946 227.908 453.067C223.938 455.906 218.777 456.587 214.012 456.076C204.2 455.054 196.373 449.151 190.531 441.602C188.773 442.51 186.731 443.078 184.576 443.078H183.895C181.74 443.078 179.698 442.51 177.883 441.602C172.098 449.151 164.214 455.111 154.402 456.076C149.694 456.53 144.476 455.849 140.563 453.067C136.309 450.002 135.515 445.007 134.778 440.126C133.927 433.996 132.906 427.809 132.112 421.622C131.431 416.286 131.431 410.894 134.324 406.126C139.599 397.555 150.829 394.32 160.13 397.555C169.319 400.79 175.217 408.737 180.095 416.854C181.286 416.457 182.534 416.23 183.838 416.23C183.952 416.23 184.065 416.23 184.179 416.23C184.292 416.23 184.406 416.23 184.519 416.23C185.88 416.23 187.128 416.457 188.262 416.854C193.14 408.737 199.039 400.79 208.227 397.555C217.529 394.32 228.759 397.555 234.034 406.126C236.926 410.894 236.87 416.343 236.246 421.622H236.359Z" fill="#AF3737"/>
<path d="M175.331 419.124C174.253 418.216 172.608 418.443 171.701 419.465C169.886 421.622 168.638 424.176 167.957 426.901C165.745 424.517 163.59 422.133 161.378 419.749C160.471 418.784 158.939 418.273 157.805 419.181C156.841 419.976 156.274 421.735 157.238 422.757C159.506 425.198 161.775 427.639 164.044 430.136C163.363 430.477 162.683 430.874 162.002 431.215C160.301 432.066 158.599 432.861 156.897 433.598C155.65 434.109 154.856 435.642 155.423 436.947C155.99 438.196 157.408 438.991 158.769 438.423C161.718 437.118 164.611 435.642 167.504 434.109C167.674 435.812 168.128 437.458 168.808 439.048C169.319 440.353 170.793 441.034 172.155 440.523C173.402 440.012 174.14 438.48 173.629 437.174C173.346 436.55 173.119 435.869 172.949 435.245V435.131C172.949 434.961 172.892 434.734 172.835 434.507C172.778 434.166 172.722 433.826 172.665 433.485C172.608 432.804 172.552 432.123 172.552 431.442C172.552 431.442 172.552 431.442 172.552 431.328C172.552 431.158 172.552 430.987 172.552 430.817C172.552 430.42 172.608 430.022 172.665 429.682C172.778 429.001 172.892 428.32 173.119 427.695C173.119 427.695 173.119 427.639 173.119 427.582C173.119 427.412 173.232 427.241 173.289 427.071C173.402 426.73 173.516 426.447 173.686 426.106C173.856 425.765 173.97 425.482 174.14 425.198C174.253 425.028 174.367 424.8 174.423 424.63C174.423 424.63 174.707 424.176 174.593 424.346C174.48 424.517 174.764 424.119 174.764 424.063C174.877 423.892 174.934 423.779 175.047 423.665C175.274 423.325 175.501 423.041 175.785 422.757C176.692 421.679 176.465 420.033 175.444 419.124H175.331Z" fill="#8E2323"/>
<path d="M212.254 434.223C209.078 432.86 205.959 431.555 202.782 430.193C205.221 427.184 207.603 424.119 210.042 421.111C210.893 420.032 210.78 418.386 209.702 417.478C208.624 416.627 206.98 416.74 206.072 417.819C203.973 420.487 201.875 423.098 199.72 425.765C199.039 422.757 197.735 419.919 195.92 417.365C193.934 414.697 189.794 417.705 191.779 420.373C195.352 425.254 196.317 431.839 194.218 437.288C193.708 438.593 194.218 440.069 195.523 440.694C196.714 441.261 198.415 440.694 198.926 439.388C199.493 437.799 199.89 436.153 200.117 434.507C203.463 435.926 206.809 437.345 210.156 438.764C211.404 439.275 213.048 438.764 213.559 437.458C214.069 436.209 213.559 434.62 212.254 434.052V434.223Z" fill="#8E2323"/>
<path d="M178.167 449.208C174.764 504.266 171.587 559.268 168.751 614.383C165.916 669.214 163.363 724.102 161.095 778.99C159.847 809.982 158.656 840.916 157.578 871.908C157.465 875.143 162.513 875.995 162.626 872.703C164.554 817.588 166.766 762.472 169.319 707.414C171.814 652.526 174.65 597.695 177.713 542.864C179.471 511.929 181.286 480.994 183.215 450.059C183.441 446.767 178.337 445.972 178.167 449.265V449.208Z" fill="#E2CAB0"/>
<path d="M84.7525 519.762C82.9375 527.481 78.003 533.498 72.785 539.174C60.0802 552.854 47.3187 566.476 34.6706 580.042C34.387 580.383 33.99 580.61 33.6497 580.723C30.6436 588.556 27.5808 596.333 24.5748 604.109L19.4702 602.917L-45.6987 588.102L-50.7466 586.91C-50.5764 577.431 -50.463 567.839 -50.2928 558.36C-50.066 544.794 -49.8958 531.228 -49.6122 517.662C-49.3286 504.834 -49.3286 491.779 -47.7405 479.007C-46.436 468.45 -42.9195 457.438 -34.3551 450.513C-29.3072 446.427 -22.7846 444.667 -16.6591 445.518C-15.9785 442.567 -14.674 439.842 -12.6321 437.685C-9.90969 434.847 -6.44989 433.088 -2.70651 432.463C-2.42292 427.582 -0.834826 422.927 2.34138 419.011C6.87881 413.448 13.9685 410.213 21.0583 410.44C35.5781 410.837 44.5395 422.814 51.0621 434.677C51.9128 431.725 52.9905 428.887 54.4651 426.163C57.0741 421.168 63.0862 415.151 68.9282 419.465C71.5372 421.395 72.6149 424.573 73.2388 427.582C74.0328 431.498 74.5433 435.415 75.1104 439.388C78.0598 457.949 80.8957 476.51 83.7883 495.128C85.0361 503.188 86.6242 511.645 84.7525 519.762Z" fill="#F99958"/>
<path d="M53.2172 490.076C53.2172 491.325 52.5366 492.176 51.6291 492.573C50.1544 493.254 48.1693 492.687 48.1126 490.643C47.9424 483.719 47.829 476.737 47.6588 469.812C45.6737 473.956 43.1214 477.929 40.0019 481.448C39.4348 482.016 38.8109 482.243 38.187 482.243C38.6974 485.648 38.584 489.111 37.5064 492.517C35.8048 498.136 31.8913 502.961 26.2195 504.663C25.7657 504.834 25.3687 504.777 24.915 504.663C25.0284 505.061 25.1418 505.515 25.1986 505.969C25.5956 510.283 23.7239 514.88 19.4133 516.526C15.046 518.116 10.225 516.072 6.25478 514.143C-0.437935 510.907 -6.62019 506.82 -12.292 502.052C-15.2413 499.612 -18.0205 496.887 -20.6862 494.106C-22.8982 491.665 -18.7578 488.657 -16.5458 491.097C-14.3905 493.425 -12.0651 495.638 -9.68294 497.682C-4.74848 501.882 0.639707 505.515 6.36822 508.523C9.37426 510.056 15.7834 514.029 18.8462 510.794C22.1925 507.274 18.1655 501.315 16.4073 497.966C12.8341 491.154 8.92053 484.456 4.66668 477.986C-1.74244 467.996 -8.94561 458.46 -16.716 449.435C-18.8712 446.937 -14.7308 443.929 -12.5756 446.426C-5.03208 455.281 1.94422 464.477 8.29662 474.239C8.63693 474.75 8.97724 475.318 9.31755 475.829C12.3803 480.597 15.3296 485.535 18.1088 490.587C19.8671 493.595 21.9657 496.944 23.4403 500.406C23.6672 500.236 23.8373 500.122 24.1776 500.009C29.6226 498.42 32.5719 493.311 33.1391 487.919C33.8764 481.278 30.53 474.921 26.9001 469.585C25.3687 467.201 23.7239 464.931 22.1358 462.603C14.8759 452.386 7.16227 442.453 -0.211059 432.406C-2.13947 429.739 2.00094 426.73 3.92934 429.398C9.4877 437.004 15.0461 444.61 20.6044 452.216C22.4761 454.657 24.3478 457.211 26.2762 459.709C29.339 463.852 32.4017 468.166 34.7272 472.82C35.4645 474.239 36.0884 475.772 36.5989 477.248C40.6826 472.423 43.7453 466.69 45.5036 460.617C46.2409 458.176 46.7514 455.565 47.035 453.011C47.035 450.911 46.9215 448.754 46.8648 446.654C46.8648 446.086 47.035 445.689 47.2051 445.291C47.035 442.113 46.5812 438.991 45.7305 435.869C44.8797 432.69 49.644 430.817 50.4947 433.996C52.3097 440.24 52.8202 446.767 52.1396 453.181C52.4232 465.498 52.65 477.872 52.9336 490.246L53.2172 490.076Z" fill="#D36D29"/>
<path d="M287.859 166.764C276.288 182.771 259.16 193.669 239.762 197.415C222.52 200.764 204.314 198.38 188.943 189.866C175.784 192.307 162.286 192.591 149.07 190.604C137.613 188.844 126.326 185.552 115.89 180.5C106.248 175.846 97.2868 169.375 91.5016 160.18C79.7043 141.562 83.9014 118.971 90.9911 99.2753C83.164 85.4256 78.2296 68.9081 84.2984 53.469C86.794 47.055 91.0478 41.606 96.7763 37.803C102.448 34.0567 109.084 32.0701 115.663 30.4808C122.81 28.7212 130.013 27.2454 136.876 24.4641C144.476 21.3422 151.679 17.2554 159.223 14.02C172.438 8.45744 187.865 5.84643 200.173 14.8147C209.645 21.6828 215.544 33.4891 214.523 45.2387C226.263 41.7762 238.798 40.0734 250.992 41.9465C262.563 43.7061 273.056 48.8146 281.62 56.8747C311.283 84.8579 310.886 134.921 287.859 166.708V166.764Z" fill="#36344C"/>
<path d="M270.56 346.867L185.2 408.34L123.094 350.954L127.404 292.433C143.569 310.313 171.701 327.342 197.451 327.115C223.144 326.944 250.369 310.427 266.306 292.433L270.504 346.867H270.56Z" fill="#F99958"/>
<path d="M266.306 292.433C266.306 292.433 225.867 383.705 123.094 350.954L127.404 292.433C143.512 310.256 171.701 327.342 197.508 327.115C223.201 326.944 250.425 310.427 266.363 292.433H266.306Z" fill="#D36D29"/>
<path d="M283.946 222.163L284.059 239.248C284.116 250.487 282.017 261.272 278.217 271.148C274.474 280.854 268.972 289.766 262.223 297.485C246.285 315.592 223.144 327.001 197.451 327.171C171.701 327.398 148.39 316.16 132.282 298.337C124.852 290.106 118.953 280.514 114.983 269.899C111.58 260.647 109.708 250.771 109.652 240.384L109.538 223.298C60.931 223.639 58.0951 162.394 78.627 148.714C79.1375 148.317 79.7614 148.033 80.2718 147.693C94.3379 139.632 104.377 150.247 107.837 154.788C106.646 120.22 121.336 103.589 121.336 103.589C136.706 108.471 151.283 110.968 164.668 111.933C185.937 113.466 204.314 110.968 218.21 107.733C236.246 103.532 253.545 95.6993 253.545 95.6993C253.545 95.6993 278.841 125.272 283.549 155.526C283.549 155.526 283.549 155.582 283.549 155.639C283.549 155.639 291.206 142.243 303.967 143.492C306.973 143.776 310.263 144.854 313.893 147.182C334.652 160.577 332.667 221.879 283.946 222.163Z" fill="#F99958"/>
<path d="M151.906 226.647C151.283 235.105 143.909 241.519 135.402 240.951C126.951 240.327 120.541 232.948 121.109 224.434C121.733 215.919 129.106 209.562 137.614 210.13C146.121 210.697 152.474 218.133 151.906 226.647Z" fill="#D36D29"/>
<path d="M275.778 226.647C275.154 235.161 267.781 241.575 259.273 241.008C250.766 240.383 244.356 233.005 244.924 224.49C245.547 215.976 252.978 209.562 261.429 210.13C269.936 210.754 276.345 218.19 275.778 226.647Z" fill="#D36D29"/>
<path d="M247.079 186.12C246.568 193.669 241.18 199.402 235.055 198.948C228.929 198.55 224.505 192.08 225.016 184.53C225.583 176.981 230.971 171.248 237.097 171.702C243.165 172.157 247.646 178.571 247.079 186.12Z" fill="#36344C"/>
<path d="M163.59 186.12C163.023 193.612 157.635 199.402 151.566 198.948C145.44 198.494 140.96 192.023 141.527 184.53C142.037 176.981 147.426 171.248 153.551 171.702C159.677 172.1 164.157 178.571 163.59 186.12Z" fill="#36344C"/>
<path d="M166.653 153.369C167.334 155.242 166.937 157.739 166.029 159.442C165.235 160.975 163.25 162.904 161.435 163.188L143.626 166.537C142.264 166.935 140.903 166.991 139.542 166.707C138.861 166.424 138.237 166.197 137.613 165.97C135.742 165.061 134.551 163.245 133.87 161.372C133.189 159.499 133.53 157.001 134.437 155.298C135.288 153.766 137.273 151.836 139.031 151.496L156.784 148.147C158.145 147.749 159.563 147.693 160.924 148.033C161.548 148.26 162.229 148.487 162.853 148.771C164.725 149.679 165.916 151.496 166.596 153.369H166.653Z" fill="#36344C"/>
<path d="M255.927 163.699C254.963 165.459 253.488 167.048 251.503 167.672C250.822 167.843 250.142 167.956 249.461 168.127C248.1 168.297 246.682 168.013 245.434 167.389L228.362 161.542C226.604 160.918 224.959 158.818 224.335 157.115C223.654 155.299 223.654 152.801 224.619 150.985C225.526 149.225 227.058 147.636 228.986 147.011C229.723 146.841 230.347 146.728 231.085 146.557C232.446 146.387 233.807 146.671 235.111 147.295L252.24 153.142C253.999 153.766 255.643 155.866 256.267 157.569C256.948 159.385 256.948 161.883 255.984 163.699H255.927Z" fill="#36344C"/>
<path d="M199.663 238.567L181.343 239.021C185.086 220.687 187.866 202.183 189.567 183.509C189.851 180.217 184.803 179.422 184.519 182.714C182.761 202.41 179.812 221.936 175.671 241.235C175.274 242.994 176.919 244.243 178.507 244.186C185.767 244.016 193.027 243.789 200.287 243.619C203.577 243.562 203.009 238.454 199.72 238.51L199.663 238.567Z" fill="#D36D29"/>
<path d="M223.825 247.706C219.401 258.888 208.738 266.948 196.77 268.083C193.481 268.367 194.048 273.475 197.337 273.191C211.006 271.886 223.428 262.634 228.476 249.806C229.667 246.741 225.016 244.584 223.825 247.706Z" fill="#36344C"/>
<path d="M299.373 127.145C285.25 117.155 249.348 96.948 189 96.948C128.652 96.948 95.0749 118.063 83.391 127.883C78.0028 123.058 32.7986 79.7494 87.5881 35.1351C145.781 -12.0901 190.985 1.98663 190.985 1.98663C190.985 1.98663 236.189 -12.0901 294.382 35.1919C347.129 78.1601 307.2 119.88 299.373 127.202V127.145Z" fill="#8E2323"/>
<path d="M321.55 135.432C313.212 133.616 304.818 132.026 296.424 130.607C218.777 117.893 139.769 124.988 98.0244 130.607C79.1941 133.162 67.9072 135.432 67.9072 135.432C67.9072 135.432 69.7222 133.332 73.6357 130.097C86.6241 119.198 122.583 95.6993 191.099 95.6993C259.614 95.6993 298.182 118.234 313.893 129.302C319.054 132.991 321.55 135.432 321.55 135.432Z" fill="#771818"/>
</g>
</g>
<defs>
<clipPath id="clip0_8_852">
<rect width="400" height="450" fill="white"/>
</clipPath>
<clipPath id="clip1_8_852">
<rect width="797" height="2341" fill="white" transform="translate(-261)"/>
</clipPath>
</defs>
</svg>
