<svg width="400" height="450" viewBox="0 0 400 450" fill="none" xmlns="http://www.w3.org/2000/svg">
<g clip-path="url(#clip0_8_234)">
<g clip-path="url(#clip1_8_234)">
<path d="M-1.62998 442.798C-1.62998 442.798 -46.9606 467.092 -45.6215 558.833C-44.2825 650.574 -45.6215 1095.58 -45.6215 1095.58L58.9815 1093.25L63.4712 597.42L-1.62998 442.798Z" fill="#E2DCD5"/>
<path d="M422.059 441.617C502.835 532.256 565.258 703.768 565.258 703.768C573.332 738.89 567.818 758.498 539.777 774.09C515.359 787.674 484.64 781.532 467.351 759.522L318.402 548.517L422.02 441.617H422.059Z" fill="#E2DCD5"/>
<path d="M264.446 361.61L411.977 433.152C423.32 438.664 429.306 451.303 426.392 463.588L371.688 728.456L400.123 1000.96C400.123 1000.96 236.956 1069.51 205.449 853.862C205.449 853.862 210.254 1026.04 38.0294 1019.35L60.6356 726.802L-13.3663 474.219C-17.2653 462.289 -12.4211 449.256 -1.62995 442.799L131.054 363.342L264.485 361.61H264.446Z" fill="#E2DCD5"/>
<path d="M284.414 373.973L322.025 431.971L289.612 449.098L332.934 480.282L208.127 730.306" stroke="#CCBDAE" stroke-width="1.12" stroke-linecap="round" stroke-linejoin="round"/>
<path d="M115.615 375.784L79.5398 431.38L111.992 448.547L68.6699 479.731L193.437 729.755" stroke="#CCBDAE" stroke-width="1.12" stroke-linecap="round" stroke-linejoin="round"/>
<path d="M145.429 354.916L131.053 363.342L162.915 567.85L211.002 687.507L252.946 564.424L264.446 361.61L253.458 355.27L145.429 354.916Z" fill="white"/>
<path d="M198.085 414.607L174.888 442.799L200.369 465.557L224.314 440.082L198.085 414.607Z" fill="#AB5DAD"/>
<path d="M193.477 448.705L180.244 611.004L211.002 687.507L237.153 610.689L205.331 448.547L193.477 448.705Z" fill="#AB5DAD"/>
<path d="M174.888 442.798L146.295 465.557" stroke="#E5E5E5" stroke-width="0.91" stroke-miterlimit="10"/>
<path d="M224.314 440.082L258.735 462.525" stroke="#E5E5E5" stroke-width="0.91" stroke-miterlimit="10"/>
<path d="M129.493 217.067C142.767 203.797 142.767 182.282 129.493 169.012C116.22 155.742 94.7002 155.742 81.427 169.012C68.1538 182.282 68.1538 203.797 81.427 217.067C94.7002 230.337 116.22 230.337 129.493 217.067Z" fill="#FFC09B"/>
<path d="M86.3137 187.735C86.3137 187.735 100.019 181.553 112.228 205.374" stroke="#1E0A04" stroke-width="1.1" stroke-linecap="round" stroke-linejoin="round"/>
<path d="M305.266 226.129C323.539 221.834 334.869 203.543 330.573 185.275C326.277 167.006 307.982 155.678 289.709 159.973C271.436 164.268 260.105 182.559 264.401 200.828C268.697 219.096 286.993 230.424 305.266 226.129Z" fill="#FFC09B"/>
<path d="M316.629 187.735C316.629 187.735 302.924 181.553 290.715 205.374" stroke="#1E0A04" stroke-width="1.1" stroke-linecap="round" stroke-linejoin="round"/>
<path d="M245.069 271.365C245.069 271.365 225.889 284.87 208.442 288.217C190.995 291.563 174.021 281.405 173.785 281.287C173.588 281.169 153.384 269.553 153.384 269.553L146.256 355.822L198.085 414.607L252.631 356.137L245.03 271.325L245.069 271.365Z" fill="#FFC09B"/>
<path d="M149.288 273.57C149.288 273.57 177.841 325.071 211.515 317.511C246.645 309.597 247.747 264.592 247.747 264.592L149.288 273.609V273.57Z" fill="#1E0A04"/>
<path d="M293.235 133.911C293.432 172.3 288.116 205.492 282.759 229.038C277.521 252.111 262.516 268.254 241.249 281.326L237.389 283.689C214.901 297.509 185.757 297.981 162.757 284.87C139.6 271.68 123.334 254.198 118.214 229.51C108.92 184.624 107.699 134.856 107.699 134.856C107.699 134.856 98.6014 37.9564 198.675 39.3345C298.749 40.7126 293.275 133.911 293.275 133.911H293.235Z" fill="#FFC09B"/>
<path d="M163.506 225.73L232.742 225.376C232.742 225.376 227.347 244.709 198.203 244.866C173.785 244.984 163.466 225.73 163.466 225.73H163.506Z" fill="white"/>
<path d="M145.074 172.654C145.074 172.654 157.165 164.504 169.768 172.536" stroke="#1E0A04" stroke-width="1.1" stroke-linecap="round" stroke-linejoin="round"/>
<path d="M252.158 172.103C252.158 172.103 239.398 164.071 226.835 172.221" stroke="#1E0A04" stroke-width="1.1" stroke-linecap="round" stroke-linejoin="round"/>
<path d="M238.532 130.17C238.532 130.17 217.934 126.154 216.989 137.257C216.989 137.257 216.516 144.778 234.514 147.81C252.513 150.841 259.72 150.211 261.847 143.282C263.973 136.352 248.299 131.076 238.571 130.17H238.532Z" fill="#1E0A04"/>
<path d="M149.721 130.642C149.721 130.642 128.73 131.587 130.423 142.573C130.423 142.573 131.723 150.014 149.918 148.715C168.153 147.455 174.966 145.171 175.4 137.927C175.833 130.682 159.37 129.225 149.682 130.603L149.721 130.642Z" fill="#1E0A04"/>
<path d="M111.086 184.033C111.086 184.033 123.649 89.2212 116.403 70.7155C116.403 70.7155 68.2366 94.8516 111.086 184.033Z" fill="#914E4F"/>
<path d="M289.455 183.128C289.455 183.128 272.796 100.758 277.403 69.8885C277.403 69.8885 326.082 88.0793 289.455 183.128Z" fill="#914E4F"/>
<path d="M189.656 187.892V204.783H200.369" stroke="#121E35" stroke-width="1.12" stroke-linecap="round" stroke-linejoin="round"/>
<path d="M118.53 100.915C118.53 100.915 122.232 64.2581 163.663 69.8492C198.478 74.5347 269.763 115.405 291.227 59.3363C311.352 6.96911 229.04 -10.9066 192.019 6.3785C154.959 23.6636 116.403 64.455 116.403 64.455L118.53 100.955V100.915Z" fill="#914E4F"/>
<path d="M139.442 50.0835C139.442 50.0835 93.0877 48.6661 86.3137 87.3312C79.5397 125.996 111.086 183.994 111.086 183.994L112.425 96.899L139.482 50.0835H139.442Z" fill="#914E4F"/>
<path d="M259.444 46.8549C259.444 46.8549 306.98 48.6661 313.754 87.3313C320.528 125.996 288.982 183.994 288.982 183.994L287.643 96.8991L259.444 46.8156V46.8549Z" fill="#914E4F"/>
</g>
</g>
<defs>
<clipPath id="clip0_8_234">
<rect width="400" height="450" fill="white"/>
</clipPath>
<clipPath id="clip1_8_234">
<rect width="616" height="1474" fill="white" transform="translate(-47)"/>
</clipPath>
</defs>
</svg>
