<svg width="400" height="450" viewBox="0 0 400 450" fill="none" xmlns="http://www.w3.org/2000/svg">
<g clip-path="url(#clip0_8_397)">
<g clip-path="url(#clip1_8_397)">
<path d="M178.875 103.728C207.492 103.728 230.691 80.5073 230.691 51.8638C230.691 23.2202 207.492 0 178.875 0C150.258 0 127.06 23.2202 127.06 51.8638C127.06 80.5073 150.258 103.728 178.875 103.728Z" fill="#1E0A04"/>
<path d="M184.077 169.612C212.694 169.612 235.893 146.391 235.893 117.748C235.893 89.1044 212.694 65.8842 184.077 65.8842C155.46 65.8842 132.262 89.1044 132.262 117.748C132.262 146.391 155.46 169.612 184.077 169.612Z" fill="#FF8DBB"/>
<path d="M160.422 310.048L152.546 411.856H233.452L222.031 308.885L160.422 310.048Z" fill="#C77D69"/>
<path d="M159.375 323.661C159.375 323.661 169.721 347.484 193.348 347.484C216.974 347.484 227.32 315.313 227.32 315.313L159.375 323.661Z" fill="#AA523F"/>
<path d="M126.891 262.509C136.209 250.288 133.865 232.819 121.655 223.492C109.445 214.165 91.9926 216.511 82.6741 228.733C73.3556 240.954 75.6998 258.423 87.9099 267.75C100.12 277.077 117.572 274.731 126.891 262.509Z" fill="#C77D69"/>
<path d="M89.1355 241.255C89.1355 241.255 100.324 236.194 110.321 255.683" stroke="#AA523F" stroke-width="1.27" stroke-linecap="round" stroke-linejoin="round"/>
<path d="M301.492 265.262C312.353 254.39 312.353 236.765 301.492 225.894C290.631 215.023 273.022 215.023 262.161 225.894C251.3 236.765 251.3 254.391 262.161 265.262C273.022 276.133 290.631 276.133 301.492 265.262Z" fill="#C77D69"/>
<path d="M297.502 241.255C297.502 241.255 286.313 236.194 276.316 255.683" stroke="#AA523F" stroke-width="1.27" stroke-linecap="round" stroke-linejoin="round"/>
<path d="M192.999 281.338C250.393 281.338 296.921 235.927 296.921 179.909C296.921 123.891 250.393 78.4792 192.999 78.4792C135.605 78.4792 89.0774 123.891 89.0774 179.909C89.0774 235.927 135.605 281.338 192.999 281.338Z" fill="#1E0A04"/>
<path d="M105.177 168.565C105.177 168.565 94.221 330.177 189.395 330.177C292.329 330.177 281.547 168.565 281.547 168.565C281.547 168.565 280.966 98.0554 192.563 98.0554C111.512 98.0554 105.177 168.565 105.177 168.565Z" fill="#C77D69"/>
<path d="M172.598 276.83C172.598 276.83 187.913 285.382 203.199 276.83" stroke="#AA523F" stroke-width="1.27" stroke-linecap="round" stroke-linejoin="round"/>
<path d="M228.947 189.421C228.947 189.421 210.029 185.726 209.157 195.936C209.157 195.936 208.721 202.859 225.257 205.652C241.792 208.444 248.389 207.862 250.336 201.492C252.283 195.122 237.898 190.264 228.947 189.421Z" fill="#1E0A04"/>
<path d="M147.402 189.857C147.402 189.857 128.135 190.7 129.675 200.823C129.675 200.823 130.867 207.659 147.577 206.495C164.316 205.332 170.593 203.208 171 196.576C171.407 189.944 156.266 188.577 147.402 189.857Z" fill="#1E0A04"/>
<path d="M161.759 230.027C161.759 234.129 158.417 237.474 154.319 237.474C150.221 237.474 146.879 234.129 146.879 230.027C146.879 225.926 150.221 222.581 154.319 222.581C158.417 222.581 161.759 225.926 161.759 230.027Z" fill="#1E0A04"/>
<path d="M234.73 230.027C234.73 234.129 231.388 237.474 227.291 237.474C223.193 237.474 219.851 234.129 219.851 230.027C219.851 225.926 223.193 222.581 227.291 222.581C231.388 222.581 234.73 225.926 234.73 230.027Z" fill="#1E0A04"/>
<path d="M184.077 242.477V261.413H193.9" stroke="#AA523F" stroke-width="1.27" stroke-linecap="round" stroke-linejoin="round"/>
<path d="M132.407 112.832C132.407 112.832 161.7 145.76 100.818 190.846C100.818 190.846 73.7622 137.353 132.407 112.832Z" fill="#1E0A04"/>
<path d="M127.467 113.152C127.467 113.152 116.394 152.014 207.791 166.15C296.891 179.938 281.867 148.378 281.867 148.378C281.867 148.378 246.994 93.285 221.74 91.8597C131.274 86.7984 127.467 113.152 127.467 113.152Z" fill="#1E0A04"/>
<path d="M207.82 166.121C207.82 166.121 309.649 185.348 304.331 130.401C299.158 76.7921 232.725 89.2708 216.48 94.5357C200.235 99.8006 207.82 166.15 207.82 166.15V166.121Z" fill="#1E0A04"/>
<path d="M352.078 442.602C352.078 442.602 414.762 462.178 425.224 556.132L306.54 592.87L303.488 533.269L352.049 442.602H352.078Z" fill="white"/>
<path d="M294.886 420.815L353.008 442.835L283.843 731.619H85.2122L32.7283 423.578L101.603 407.551L294.886 420.815Z" fill="white"/>
<path d="M218.427 390.302L294.886 420.815C294.886 420.815 304.505 479.893 203.199 472.853C125.229 467.443 101.603 407.551 101.603 407.551L175.882 390.302H218.427Z" fill="#C77D69"/>
<path d="M133.598 669.022C133.598 669.022 129.762 481.871 68.415 415.288L49.3801 419.71C49.3801 419.71 106.456 460.695 112.617 669.022H133.598Z" fill="#1E0A04"/>
<path d="M32.7284 423.578C32.7284 423.578 -16.6751 424.073 -47.1309 528.382L61.4115 592.87L91.0245 514.245L32.7284 423.578Z" fill="white"/>
</g>
</g>
<defs>
<clipPath id="clip0_8_397">
<rect width="400" height="450" fill="white"/>
</clipPath>
<clipPath id="clip1_8_397">
<rect width="721" height="1099" fill="white" transform="translate(-114)"/>
</clipPath>
</defs>
</svg>
