<svg width="400" height="450" viewBox="0 0 400 450" fill="none" xmlns="http://www.w3.org/2000/svg">
<g clip-path="url(#clip0_1_800)">
<g clip-path="url(#clip1_1_800)">
<path d="M244.06 144.713L200.424 127.582L156.788 144.713L135.505 151.284V475.296H198.552H202.318H265.365V151.284L244.06 144.713Z" fill="#11394F"/>
<path d="M272.185 179.353H128.686V190.045H272.185V179.353Z" fill="#1E638A"/>
<path d="M272.185 208.112H128.686V218.804H272.185V208.112Z" fill="#1E638A"/>
<path d="M272.185 236.871H128.686V247.563H272.185V236.871Z" fill="#1E638A"/>
<path d="M272.185 265.629H128.686V276.322H272.185V265.629Z" fill="#1E638A"/>
<path d="M272.185 294.388H128.686V305.081H272.185V294.388Z" fill="#1E638A"/>
<path d="M272.185 323.125H128.686V333.818H272.185V323.125Z" fill="#1E638A"/>
<path d="M272.185 351.884H128.686V362.577H272.185V351.884Z" fill="#1E638A"/>
<path d="M272.185 380.643H128.686V391.336H272.185V380.643Z" fill="#1E638A"/>
<path d="M272.185 409.402H128.686V420.094H272.185V409.402Z" fill="#1E638A"/>
<path d="M272.185 438.161H128.686V448.853H272.185V438.161Z" fill="#1E638A"/>
<path d="M166.371 138.72L171.586 171.645L169.09 508.087H65.0375C65.0375 508.087 78.8325 497.082 70.6759 486.3C62.5192 475.518 67.7564 466.942 67.7564 466.942C67.7564 466.942 11.7744 488.862 -10.8012 432.903C-27.1145 392.427 -8.92921 330.164 8.00804 276.901C24.923 223.638 44.4677 178.551 64.4135 164.606C96.7949 141.973 166.371 138.72 166.371 138.72Z" fill="#BA6528"/>
<path d="M184.958 133.419L171.586 148.143V171.645C171.586 171.645 148.03 175.187 147.763 159.438C147.384 135.735 182.551 124.04 182.551 124.04L184.958 133.441V133.419Z" fill="#FCA750"/>
<path d="M65.0376 508.087H91.4909C90.2429 499.087 89.5298 482.09 99.291 471.174C113.086 455.781 142.124 388.061 142.124 388.061C142.124 388.061 95.9481 426.02 104.729 405.548C113.509 385.076 94.7001 357.52 98.4664 339.565C102.233 321.61 94.7001 272.312 94.7001 272.312L70.4531 384.252L52.7358 470.506C61.6725 469.303 67.7342 466.942 67.7342 466.942C67.7342 466.942 62.5193 475.496 70.6537 486.3C78.8103 497.082 65.0153 508.087 65.0153 508.087H65.0376Z" fill="#8C4D1E"/>
<path d="M153.119 422.175L147.969 418.089L112.902 462.251L118.052 466.336L153.119 422.175Z" fill="#FCA750"/>
<path d="M103.904 216.844C103.904 216.844 108.919 246.316 94.0986 275.186" stroke="#3D210D" stroke-width="0.72" stroke-miterlimit="10"/>
<path d="M2.2583 392.316C2.2583 392.316 17.7247 385.21 38.6065 389.397" stroke="#3D210D" stroke-width="0.72" stroke-miterlimit="10"/>
<path d="M27.1294 374.784L47.1867 388.083" stroke="#3D210D" stroke-width="0.72" stroke-miterlimit="10"/>
<path d="M124.274 239.611L96.2158 283.384" stroke="#3D210D" stroke-width="0.72" stroke-miterlimit="10"/>
<path d="M239.491 138.72L234.276 171.645L236.772 508.087H340.825C340.825 508.087 327.03 497.082 335.187 486.3C343.343 475.518 338.106 466.942 338.106 466.942C338.106 466.942 394.088 488.862 416.664 432.903C432.977 392.427 414.792 330.164 397.855 276.901C380.94 223.638 361.395 178.551 341.449 164.606C309.068 141.973 239.491 138.72 239.491 138.72Z" fill="#BA6528"/>
<path d="M220.883 133.419L234.254 148.143V171.645C234.254 171.645 257.81 175.187 258.078 159.438C258.457 135.735 223.29 124.04 223.29 124.04L220.883 133.441V133.419Z" fill="#FCA750"/>
<path d="M340.825 508.087H314.372C315.62 499.087 316.333 482.09 306.572 471.174C292.777 455.781 263.738 388.061 263.738 388.061C263.738 388.061 309.915 426.02 301.134 405.548C292.353 385.076 311.163 357.52 307.396 339.565C303.63 321.61 311.163 272.312 311.163 272.312L335.387 384.252L353.105 470.506C344.168 469.303 338.106 466.942 338.106 466.942C338.106 466.942 343.321 475.496 335.187 486.3C327.03 497.082 340.825 508.087 340.825 508.087Z" fill="#8C4D1E"/>
<path d="M287.752 466.393L292.901 462.307L257.834 418.146L252.685 422.231L287.752 466.393Z" fill="#FCA750"/>
<path d="M301.959 216.844C301.959 216.844 296.945 246.316 311.765 275.186" stroke="#3D210D" stroke-width="0.72" stroke-miterlimit="10"/>
<path d="M281.589 239.611L309.625 283.384" stroke="#3D210D" stroke-width="0.72" stroke-miterlimit="10"/>
<path d="M182.039 103.345L179.119 142.819C179.119 142.819 180.991 152.844 199.6 152.844C218.209 152.844 225.719 140.525 225.719 140.525V102.298L182.061 103.345H182.039Z" fill="#FF6969"/>
<path d="M181.013 117.135C186.362 124.33 194.296 130.233 202.096 130.478C209.517 130.701 218.543 127.293 225.696 121.969V102.321L182.038 103.368L181.013 117.157V117.135Z" fill="#AB251D"/>
<path d="M165.48 42.8871L168.154 67.4803L242.388 72.1806L245.776 62.2008L225.719 25.6674L198.396 25.0436L165.48 42.8871Z" fill="#11454F"/>
<path d="M173.57 65.9878C173.57 65.9878 170.74 58.8593 164.901 59.0821C159.062 59.2826 158.126 71.0223 162.605 76.6359C167.932 83.3189 174.506 79.6655 174.506 79.6655L173.57 66.0101V65.9878Z" fill="#E64C4C"/>
<path d="M237.04 71.0668C237.04 71.0668 240.851 64.4284 246.601 65.4531C252.373 66.5001 251.593 78.2398 246.378 83.1407C240.16 88.9994 234.165 84.455 234.165 84.455L237.04 71.0668Z" fill="#E64C4C"/>
<path d="M174.105 36.7388C174.105 36.7388 171.609 76.6359 171.609 88.3311C171.609 100.026 185.604 117.558 199.199 117.981C212.793 118.404 231.781 106.709 234.722 93.1205C237.642 79.5541 242.879 42.9985 242.879 42.9985L221.395 13.9945L174.149 36.7388H174.105Z" fill="#FF6969"/>
<path d="M200.737 65.9878L199.021 82.361H205.617" stroke="#AB251D" stroke-linecap="round" stroke-linejoin="round"/>
<path d="M189.972 87.9969C189.972 87.9969 203.856 92.3854 215.779 87.3732" stroke="#AB251D" stroke-linecap="round" stroke-linejoin="round"/>
<path d="M200.803 102.744C204.348 102.744 207.221 101.198 207.221 99.2911C207.221 97.3841 204.348 95.8382 200.803 95.8382C197.258 95.8382 194.385 97.3841 194.385 99.2911C194.385 101.198 197.258 102.744 200.803 102.744Z" fill="#FF9696"/>
<path d="M194.407 66.5001C194.162 69.3515 192.535 71.5123 190.774 71.3564C189.014 71.2005 187.81 68.7723 188.056 65.9209C188.301 63.0695 189.928 60.9087 191.688 61.0647C193.449 61.2206 194.652 63.6487 194.407 66.5001Z" fill="#0A2330"/>
<path d="M220.326 68.8169C220.08 71.6683 218.454 73.8291 216.693 73.6732C214.932 73.5172 213.729 71.0891 213.974 68.2377C214.219 65.3863 215.846 63.2255 217.607 63.3814C219.367 63.5374 220.571 65.9655 220.326 68.8169Z" fill="#0A2330"/>
<path d="M184.958 51.1294C184.958 51.1294 194.251 47.9884 198.53 53.7357" stroke="#11454F" stroke-width="2" stroke-miterlimit="10"/>
<path d="M212.437 54.6936C212.437 54.6936 219.234 52.0204 224.872 57.2999" stroke="#11454F" stroke-width="2" stroke-miterlimit="10"/>
<path d="M204.815 27.3381C204.815 27.3381 184.958 43.4217 187.9 45.9167C190.842 48.4116 211.3 44.6692 225.719 30.4568C225.719 30.4568 233.452 49.4586 245.776 62.2008C245.776 62.2008 256.228 47.9884 257.276 36.3155C258.323 24.6204 238.89 22.3259 238.89 22.3259C238.89 22.3259 238.466 5.41807 223.423 -0.863894C208.381 -7.12358 159.82 13.9945 152.599 26.2911C150.081 30.5682 165.547 31.1028 165.547 31.1028C165.547 31.1028 147.161 44.4687 150.928 50.3051C154.694 56.1416 193.962 35.2685 204.837 27.3381H204.815Z" fill="#11454F"/>
<path opacity="0.68" d="M254.244 242.44H261.866C264.986 242.44 267.504 239.922 267.504 236.804C267.504 233.685 264.986 231.168 261.866 231.168H144.041C140.921 231.168 138.403 233.685 138.403 236.804C138.403 239.922 140.921 242.44 144.041 242.44H151.64C137.333 256.006 128.418 275.164 128.418 296.438C128.418 337.582 161.803 370.953 202.965 370.953C244.127 370.953 277.511 337.582 277.511 296.438C277.511 275.164 268.574 256.006 254.289 242.44H254.244Z" fill="white"/>
<path opacity="0.48" d="M241.385 242.44H151.618C146.069 247.697 141.344 253.823 137.623 260.573C174.528 246.85 241.385 242.44 241.385 242.44Z" fill="#2886BA"/>
<path d="M264.095 277.659C261.621 276.144 257.989 275.186 253.91 275.186C249.832 275.186 246.177 276.144 243.726 277.659C241.252 276.144 237.619 275.186 233.541 275.186C229.463 275.186 225.808 276.144 223.356 277.659C220.883 276.144 217.25 275.186 213.172 275.186C209.093 275.186 205.439 276.144 202.987 277.659C200.513 276.144 196.881 275.186 192.803 275.186C188.724 275.186 185.069 276.144 182.618 277.659C180.144 276.144 176.512 275.186 172.433 275.186C168.355 275.186 164.7 276.144 162.249 277.659C159.775 276.144 156.142 275.186 152.064 275.186C147.986 275.186 144.331 276.144 141.879 277.659C140.587 276.857 138.96 276.233 137.132 275.81C135.171 282.225 134.102 289.02 134.102 296.081C134.102 334.152 164.967 365.005 203.054 365.005C241.141 365.005 272.006 334.152 272.006 296.081C272.006 289.02 270.937 282.225 268.976 275.81C267.148 276.233 265.521 276.879 264.229 277.659H264.095Z" fill="#2886BA"/>
<path d="M190.173 302.92C192.093 302.92 193.649 301.364 193.649 299.445C193.649 297.526 192.093 295.97 190.173 295.97C188.253 295.97 186.696 297.526 186.696 299.445C186.696 301.364 188.253 302.92 190.173 302.92Z" fill="#FFEDDB"/>
<path d="M204.436 353.622C208.51 353.622 211.812 350.32 211.812 346.248C211.812 342.176 208.51 338.875 204.436 338.875C200.362 338.875 197.059 342.176 197.059 346.248C197.059 350.32 200.362 353.622 204.436 353.622Z" fill="#FFEDDB"/>
<path d="M250.968 296.26C250.968 298.019 249.542 299.445 247.782 299.445C246.021 299.445 244.595 298.019 244.595 296.26C244.595 294.5 246.021 293.074 247.782 293.074C249.542 293.074 250.968 294.5 250.968 296.26Z" fill="#FFEDDB"/>
<path d="M140.141 290.356C140.141 285.946 140.542 281.624 141.278 277.414C140.074 276.745 138.648 276.188 137.021 275.81C135.06 282.225 133.99 289.02 133.99 296.081C133.99 334.152 164.856 365.005 202.943 365.005C205.149 365.005 207.355 364.893 209.495 364.693C170.74 362.02 140.141 329.786 140.141 290.379V290.356Z" fill="#1E638A"/>
<path d="M185.381 320.095C185.381 320.095 194.853 327.202 204.971 325.932C217.339 324.373 225.964 316.063 229.418 306.819C232.873 297.574 231.446 290.067 231.446 290.067L225.518 292.094L226.231 286.614C226.231 286.614 217.674 286.191 213.595 293.185C210.698 298.175 207.333 306.574 199.332 312.611C190.307 319.427 185.381 317.467 185.381 317.467C185.381 317.467 180.768 306.574 175.197 304.457C172.768 309.225 176.913 315.974 179.342 317.779C179.342 317.779 173.659 322.256 173.146 328.204C178.25 328.516 183.888 322.947 185.359 320.095H185.381Z" fill="#FCA750"/>
<path d="M212.236 295.636C213.707 298.643 215.868 302.408 218.186 304.034C220.615 305.727 225.986 305.46 230.065 304.925" stroke="#AB251D" stroke-width="0.5" stroke-miterlimit="10"/>
<path d="M220.08 296.883C221.127 296.883 221.975 296.036 221.975 294.99C221.975 293.944 221.127 293.096 220.08 293.096C219.034 293.096 218.186 293.944 218.186 294.99C218.186 296.036 219.034 296.883 220.08 296.883Z" fill="#AB251D"/>
<path d="M220.816 305.037L218.186 317.779C218.186 317.779 215.155 317.066 214.999 315.662C212.013 315.039 211.545 313.791 211.545 312.611C209.517 312.143 208.336 310.427 208.559 309.314L217.451 303.455" stroke="#AB251D" stroke-width="0.5" stroke-miterlimit="10"/>
<path d="M212.236 311.207L218.186 304.034" stroke="#AB251D" stroke-width="0.5" stroke-miterlimit="10"/>
<path d="M215.712 313.702L219.479 304.68" stroke="#AB251D" stroke-width="0.5" stroke-miterlimit="10"/>
<path d="M185.381 317.467C185.381 317.467 180.768 306.574 175.197 304.457C172.768 309.225 176.913 315.974 179.342 317.779C179.342 317.779 173.659 322.256 173.146 328.204C178.25 328.516 183.888 322.947 185.359 320.095C186.34 318.603 185.359 317.467 185.359 317.467H185.381Z" fill="#AB251D"/>
<path d="M112.685 356.317L131.561 343.864L133.834 323.415C133.834 323.415 137.088 335.154 143.083 336.268C150.616 337.672 156.9 333.996 160.511 330.209C164.099 326.422 165.837 325.999 167.397 327.023C168.957 328.048 163.185 340.077 154.048 342.706C154.048 342.706 161.714 342.55 166.238 339.298C170.762 336.045 173.748 331.969 176.311 333.528C178.874 335.088 168.221 347.54 161.469 349.478C161.469 349.478 170.183 348.654 174.506 345.402C180.612 340.813 180.612 345.402 178.941 347.072C177.269 348.765 170.74 353.733 166.483 354.29C166.483 354.29 173.949 355.693 177.715 353.599C181.459 351.505 182.061 357.186 173.927 357.832C167.196 358.366 145.512 361.663 145.512 361.663L127.55 382.18L112.73 356.295L112.685 356.317Z" fill="#FF6969"/>
<path d="M142.147 388.061L115.827 350.837L-14.0547 422.723C-13.1633 426.243 -12.0935 429.651 -10.801 432.903C11.7523 488.862 67.7567 466.942 67.7567 466.942C93.2517 457.964 142.125 388.061 142.125 388.061H142.147Z" fill="#BA6528"/>
<path d="M293.178 356.317L274.302 343.864L272.029 323.415C272.029 323.415 268.775 335.154 262.78 336.268C255.247 337.672 248.963 333.996 245.353 330.209C241.765 326.422 240.026 325.999 238.466 327.023C236.906 328.048 242.678 340.077 251.815 342.706C251.815 342.706 244.149 342.55 239.625 339.298C235.101 336.045 232.115 331.969 229.552 333.528C226.989 335.088 237.642 347.54 244.394 349.478C244.394 349.478 235.68 348.654 231.357 345.402C225.251 340.813 225.251 345.402 226.922 347.072C228.594 348.765 235.123 353.733 239.38 354.29C239.38 354.29 231.914 355.693 228.148 353.599C224.404 351.505 223.802 357.186 231.936 357.832C238.667 358.366 260.351 361.663 260.351 361.663L278.313 382.18L293.133 356.295L293.178 356.317Z" fill="#FF6969"/>
<path d="M263.716 388.061L290.036 350.837L419.918 422.723C419.026 426.243 417.957 429.651 416.664 432.903C394.111 488.862 338.106 466.942 338.106 466.942C312.611 457.964 263.739 388.061 263.739 388.061H263.716Z" fill="#BA6528"/>
<path d="M15.8975 406.127L115.805 350.815L142.147 388.061" stroke="#3D210D" stroke-width="0.72" stroke-miterlimit="10"/>
<path d="M403.605 392.316C403.605 392.316 388.138 385.21 367.256 389.397" stroke="#3D210D" stroke-width="0.72" stroke-miterlimit="10"/>
<path d="M389.966 406.127L290.036 350.815L263.716 388.061" stroke="#3D210D" stroke-width="0.72" stroke-miterlimit="10"/>
<path d="M378.734 374.784L358.676 388.083" stroke="#3D210D" stroke-width="0.72" stroke-miterlimit="10"/>
<path d="M128.686 394.254L104.729 356.963" stroke="#3D210D" stroke-width="0.72" stroke-miterlimit="10"/>
<path d="M274.814 392.316L299.039 355.805" stroke="#3D210D" stroke-width="0.72" stroke-miterlimit="10"/>
</g>
</g>
<defs>
<clipPath id="clip0_1_800">
<rect width="400" height="450" fill="white"/>
</clipPath>
<clipPath id="clip1_1_800">
<rect width="440.212" height="796.25" fill="white" transform="translate(-17.1748 -2)"/>
</clipPath>
</defs>
</svg>
