<svg width="400" height="450" viewBox="0 0 400 450" fill="none" xmlns="http://www.w3.org/2000/svg">
<g clip-path="url(#clip0_2_2494)">
<g clip-path="url(#clip1_2_2494)">
<path d="M212.918 -1.43091C196.551 -4.39614 180.453 4.37974 171.417 16.0909C162.38 27.832 158.819 42.149 154.6 55.9268C150.381 69.7046 157.682 89.2631 146.102 99.1472C137.126 106.785 125.217 111.188 114.385 116.789C103.553 122.39 93.1105 130.057 90.1183 140.81C87.7545 149.316 90.4176 158.452 89.9687 167.288C88.8616 189.362 93.32 202.78 68.0059 214.072C37.5752 227.61 4.33183 290.33 29.6758 317.106C82.9071 330.854 129.466 339.81 183.385 350.802C185.211 351.162 187.275 351.521 188.771 350.593C190.297 349.664 190.597 347.807 190.746 346.16C191.554 337.564 192.96 327.679 201.309 323.336C209.418 319.113 220.249 322.198 229.555 320.431C240.297 318.394 247.897 309.888 250.919 300.693C253.942 291.498 253.164 281.584 252.386 271.879C251.338 259 250.291 246.151 249.244 233.271C248.316 222.009 247.598 209.969 254.061 200.474C256.365 197.09 259.537 194.094 261.003 190.35C265.521 178.669 251.937 166.689 251.249 154.199C250.501 140.6 264.743 130.567 268.544 117.568C271.356 107.953 268.244 97.4699 270.01 87.6158C272.254 75.036 282.218 64.6128 284.821 52.1229C287.783 37.8059 279.794 21.7817 265.462 13.4551C251.159 5.12853 231.44 5.00873 217.856 13.1556" fill="#000205"/>
<path d="M189.011 122.21C189.011 122.21 189.819 176.692 186.587 179.628C185.869 180.287 177.521 181.754 174.708 183.162C183.326 199.486 220.728 237.734 220.728 237.734L263.906 179.628L243.738 178.34L242.571 123.558L189.011 122.24V122.21Z" fill="#E87758"/>
<path d="M195.295 126.343H234.193C234.193 126.343 230.393 147.579 212.171 146.172C193.948 144.794 195.295 126.343 195.295 126.343Z" fill="#C94040"/>
<path d="M170.818 59.1616C170.818 59.1616 168.544 74.8263 169.143 76.6833C169.771 78.5404 156.994 71.2321 158.161 83.4225C158.879 90.8805 162.68 96.5414 170.908 96.5414C170.908 96.5414 176.085 134.64 212.889 134.4C260.136 134.101 258.909 104.269 258.909 104.269C258.909 104.269 271.566 102.232 272.284 91.21C272.553 81.4756 264.833 82.3442 264.833 82.3442C264.833 82.3442 271.656 58.6823 267.526 44.2456C263.397 29.8088 263.966 4.7092 229.346 1.83383C194.726 -1.07149 173.092 28.8503 171.836 37.5064C170.609 46.1625 170.788 59.1616 170.788 59.1616H170.818Z" fill="#E87758"/>
<path d="M267.556 44.2755C263.696 30.7074 263.936 7.70438 235.181 2.61258C235.749 4.08022 236.288 5.57781 236.826 7.0754C238.652 8.69279 240.208 10.7894 241.255 13.4551C247.868 30.0484 252.266 47.091 255.049 64.7326C256.246 72.4003 257.383 80.1578 258.101 87.9153C260.255 86.0283 262.32 84.0815 264.325 81.9848C264.624 81.6853 264.893 81.4158 265.192 81.1462C266.509 76.1742 271.117 56.7654 267.556 44.2755Z" fill="#C94040"/>
<path d="M232.248 0.0367172C213.697 -4.09663 197.628 3.48117 197.628 3.48117C160.106 14.5933 168.425 83.3626 168.425 83.3626C174.648 91.1201 182.368 74.4969 187.425 58.1132C189.34 51.8833 184.882 64.8224 207.593 59.1316C210.914 58.293 219.531 54.1596 215.552 46.0127C210.944 36.5779 227.94 39.1238 237.455 43.5567C247.06 48.0494 258.131 47.3905 267.107 41.6997C274.229 34.032 275.037 3.93045 232.278 0.00676548L232.248 0.0367172Z" fill="#000205"/>
<path d="M226.982 71.292C226.982 71.292 230.872 66.5597 234.373 67.0688C244.127 68.4766 241.674 74.8264 241.674 74.8264L226.952 71.292H226.982Z" fill="#000307"/>
<path d="M206.724 70.3036C206.724 70.3036 204.211 64.7925 199.812 64.4331C193.17 63.8939 190.567 68.1171 190.896 70.1539L206.724 70.3336V70.3036Z" fill="#000307"/>
<path d="M224.05 105.377C224.379 105.257 221.178 113.344 212.381 112.506C204.362 111.757 203.045 102.831 203.045 102.831L224.05 105.347V105.377Z" fill="white"/>
<path d="M210.704 98.7878L216.719 98.638C218.215 98.7878 215.402 84.6805 215.402 84.6805C215.402 84.6805 209.268 98.6081 210.734 98.7579L210.704 98.7878Z" fill="#C94040"/>
<path d="M168.784 82.0148C168.784 82.0148 169.502 90.581 170.13 92.4081C170.759 94.2651 163.368 90.7607 163.488 85.9085C163.578 81.0563 168.814 82.0148 168.814 82.0148H168.784Z" fill="#C94040"/>
<path d="M261.303 97.9791L264.504 86.6274C264.504 86.6274 268.963 87.5858 267.706 91.9588C265.941 97.9791 261.333 97.9791 261.333 97.9791H261.303Z" fill="#C94040"/>
<path d="M232.278 88.724C231.62 91.1501 229.974 92.8274 228.568 92.468C227.191 92.1085 226.593 89.8322 227.221 87.3761C227.879 84.9501 229.525 83.2728 230.932 83.6322C232.308 83.9916 232.906 86.2679 232.278 88.724Z" fill="#000307"/>
<path d="M205.947 86.0882C205.798 88.6042 204.511 90.581 203.075 90.4911C201.638 90.4013 200.591 88.3047 200.741 85.7887C200.89 83.2728 202.177 81.2959 203.613 81.3858C205.05 81.4756 206.097 83.5723 205.947 86.0882Z" fill="#000307"/>
<path d="M192.093 91.2998C196.282 93.3965 197.957 98.4883 195.863 102.652C193.768 106.845 188.682 108.522 184.522 106.425C180.333 104.329 178.658 99.2371 180.752 95.0738C182.847 90.8805 187.934 89.2032 192.093 91.2998Z" fill="#DE5745"/>
<path d="M242.033 98.1888C246.222 100.285 247.898 105.377 245.803 109.54C243.709 113.734 238.622 115.411 234.463 113.314C230.274 111.218 228.598 106.126 230.693 101.963C232.787 97.7694 237.874 96.0921 242.033 98.1888Z" fill="#DE5745"/>
<path d="M184.552 126.853C184.552 118.975 178.179 112.566 170.28 112.566C162.38 112.566 156.007 118.945 156.007 126.853C156.007 134.76 162.38 141.14 170.28 141.14C178.179 141.14 184.552 134.76 184.552 126.853Z" stroke="#F3CE0C" stroke-width="0.5" stroke-miterlimit="10"/>
<path d="M170.28 95.7327V112.596" stroke="#F3CE0C" stroke-width="0.5" stroke-linecap="round" stroke-linejoin="round"/>
<path d="M177.7 99.7462L162.41 106.845" stroke="#F3CE0C" stroke-width="0.5" stroke-linecap="round" stroke-linejoin="round"/>
<path d="M162.41 99.7462L177.7 106.845" stroke="#F3CE0C" stroke-width="0.5" stroke-linecap="round" stroke-linejoin="round"/>
<path d="M263.816 145.812C271.698 145.812 278.089 139.416 278.089 131.525C278.089 123.635 271.698 117.238 263.816 117.238C255.933 117.238 249.543 123.635 249.543 131.525C249.543 139.416 255.933 145.812 263.816 145.812Z" stroke="#F3CE0C" stroke-width="0.5" stroke-miterlimit="10"/>
<path d="M263.816 100.375V117.238" stroke="#F3CE0C" stroke-width="0.5" stroke-linecap="round" stroke-linejoin="round"/>
<path d="M271.236 104.389L255.946 111.487" stroke="#F3CE0C" stroke-width="0.5" stroke-linecap="round" stroke-linejoin="round"/>
<path d="M255.946 104.389L271.236 111.487" stroke="#F3CE0C" stroke-width="0.5" stroke-linecap="round" stroke-linejoin="round"/>
<path d="M142.034 366.527C122.375 401.331 111.992 426.82 100.681 471.059C87.5754 522.366 14.1766 990.812 8.0127 1084.14C24.1706 1088.04 59.2392 1088.6 69.4427 1088.04C88.9818 995.754 177.91 624.951 191.824 566.275C193.978 557.26 209.149 559.476 206.815 568.432C186.049 648.194 212.739 988.446 226.683 1086.03C253.044 1087.5 272.643 1089.56 282.428 1088.34C293.08 973.41 355.587 508.858 270.339 367.815C231.351 362.423 181.591 365.329 142.063 366.497L142.034 366.527Z" fill="#F3CE0C"/>
<path d="M260.016 366.737C260.016 366.737 297.717 464.978 297.717 586.373C297.717 707.768 269.71 1090.46 269.71 1090.46" stroke="white" stroke-width="0.51" stroke-miterlimit="10"/>
<path d="M24.8887 1086.24L160.944 367.845" stroke="white" stroke-width="0.51" stroke-miterlimit="10"/>
<g style="mix-blend-mode:multiply" opacity="0.21">
<path d="M268.095 363.801L107.055 502.209C107.055 502.209 114.445 420.68 142.931 367.126L268.095 363.831V363.801Z" fill="black"/>
</g>
<path d="M285.689 258.67L270.309 367.845L142.961 367.096L151.698 281.254L285.689 258.67Z" fill="#E87758"/>
<path d="M248.616 162.945C253.912 168.246 285.51 226.772 286.617 253.788C287.844 283.68 275.097 309.139 275.097 309.139C275.097 309.139 160.645 314.95 157.593 316.178C148.796 235.997 121.956 214.522 143.44 201.822C143.44 201.822 182.339 169.294 188.443 165.58C188.443 165.58 201.459 182.054 216.689 182.952C227.222 183.581 238.532 171.541 248.586 162.915L248.616 162.945Z" fill="#F9D30E"/>
<path d="M183.206 165.76L221.895 419.991L188.473 668.95L50.9209 642.892L133.955 191.818L183.206 165.76Z" fill="#864DB6"/>
<g style="mix-blend-mode:soft-light" opacity="0.47">
<path d="M98.916 578.645C105.2 568.791 111.453 558.937 117.677 549.023C122.794 540.876 129.436 532.789 131.232 523.384C135.331 501.669 133.925 477.378 135.421 455.274C141.495 366.197 148.347 276.911 141.764 187.685L133.985 191.788L58.5811 639.627C72.435 619.56 85.8101 599.162 98.9459 578.645H98.916Z" fill="black"/>
</g>
<path d="M189.789 154.229L215.552 384.079L169.831 320.701L178.957 289.701L155.768 267.866L156.456 177.741L189.789 154.229Z" fill="#A56BDD"/>
<path d="M251.428 160.818L211.333 418.583L197.27 666.824C197.27 666.824 294.367 671.047 326.712 649.931L301.398 177.711L251.458 160.818H251.428Z" fill="#864DB6"/>
<g style="mix-blend-mode:soft-light" opacity="0.47">
<path d="M309.926 351.192L301.368 177.711L251.428 160.818L240.417 231.504C263.218 271.61 286.377 311.505 309.926 351.192Z" fill="black"/>
</g>
<path d="M243.409 149.766C241.284 148.358 277.4 168.366 277.4 168.366L265.491 270.681L247.897 286.885L260.554 308.72L215.521 384.079L243.379 149.766H243.409Z" fill="#A56BDD"/>
<path d="M200.83 425.622C200.83 419.751 196.073 415.019 190.238 415.019C184.403 415.019 179.646 419.781 179.646 425.622C179.646 431.462 184.403 436.225 190.238 436.225C196.073 436.225 200.83 431.462 200.83 425.622Z" fill="#FEFFFF"/>
<path d="M250.082 425.622C250.082 419.751 245.325 415.019 239.49 415.019C233.655 415.019 228.897 419.781 228.897 425.622C228.897 431.462 233.655 436.225 239.49 436.225C245.325 436.225 250.082 431.462 250.082 425.622Z" fill="#FEFFFF"/>
<path d="M398.137 181.964C398.137 181.964 380.512 329.926 374.558 349.574C368.603 369.223 347.389 390.249 322.045 359.039C296.701 327.829 364.714 169.654 364.714 169.654C364.714 169.654 357.682 151.683 356.964 147.459C356.246 143.236 345.713 129.159 350.979 128.44C356.246 127.721 365.043 145.692 366.808 144.285C368.574 142.877 367.018 97.5298 369.621 95.7027C376.652 90.7607 374.887 127.032 376.653 125.625C378.418 124.217 378.418 97.5598 382.278 96.7511C388.95 95.3433 382.996 129.488 386.138 128.799C389.31 128.111 395.623 98.1588 398.436 101.693C401.248 105.227 393.947 136.437 395.623 133.742C397.388 130.926 398.795 111.547 403.373 115.082C407.382 118.167 401.218 177.261 398.107 181.994L398.137 181.964Z" fill="#E87758"/>
<path d="M277.461 167.857C277.461 167.857 308.759 163.274 318.275 179.118C327.76 194.963 334.821 237.734 334.821 237.734L356.964 185.828L404.091 212.934C404.091 212.934 392.84 405.554 343.23 381.263C293.619 356.972 298.915 316.837 298.915 316.837L277.461 167.887V167.857Z" fill="#864DB6"/>
<path d="M114.805 377.07L133.536 296.619C133.536 296.619 163.518 204.218 134.194 198.108C94.0688 189.781 77.9708 261.546 71.1785 368.983C70.6997 376.591 69.1737 384.139 66.5705 391.297C59.8679 409.687 47.0314 454.615 49.5149 523.624C49.5149 523.624 36.6783 599.312 42.184 602.607C47.6897 605.902 43.2911 591.944 43.2911 591.944C43.2911 591.944 47.3306 613.629 50.622 611.413C53.9134 609.196 50.9811 598.563 50.9811 598.563C50.9811 598.563 50.9811 610.694 55.3796 611.802C62.7105 611.802 60.1372 593.801 60.1372 593.801C60.1372 593.801 63.0696 580.203 65.2838 573.584C67.4981 566.964 66.75 611.802 68.2162 611.413C78.1204 612.162 73.7218 585.684 78.1204 551.539C78.1204 551.539 89.4908 577.627 93.8893 569.9C96.2232 565.796 92.6625 552.737 88.8325 541.356C87.486 537.342 86.1395 534.017 85.0324 531.471C83.2071 527.248 82.7882 522.576 83.7756 518.113L114.835 377.04L114.805 377.07Z" fill="#E87758"/>
<path d="M143.44 184.061C143.44 184.061 105.798 181.934 90.6575 217.876C71.9263 262.355 63.5781 347.118 59.3591 356.613C55.1401 366.108 26.9834 496.068 26.9834 496.068L101.549 497.476C101.549 497.476 192.183 198.467 143.41 184.091L143.44 184.061Z" fill="#864DB6"/>
</g>
</g>
<defs>
<clipPath id="clip0_2_2494">
<rect width="400" height="450" fill="white"/>
</clipPath>
<clipPath id="clip1_2_2494">
<rect width="445.719" height="1137" fill="white" transform="translate(-41 -2)"/>
</clipPath>
</defs>
</svg>
