<svg width="400" height="450" viewBox="0 0 400 450" fill="none" xmlns="http://www.w3.org/2000/svg">
<g clip-path="url(#clip0_1_938)">
<g clip-path="url(#clip1_1_938)">
<path d="M218.05 44.4811C210.194 35.49 205.209 8.94366 184.442 1.99276C164.481 -4.67347 148.389 7.54399 148.389 7.54399C127.692 4.19902 118.341 19.5479 117.463 29.3456C116.584 39.1433 116.798 49.7951 110.793 59.3792C104.788 68.9397 91.4258 90.2906 99.899 103.528C103.222 108.747 108.087 111.879 115.445 113.8C109.986 104.026 114.638 90.8363 114.638 90.8363C114.425 104.548 118.982 111.76 122.186 115.105C133.317 116.718 148.84 116.695 170.771 116.695C196.333 116.695 218.501 103.884 232.647 93.1137C230.131 87.1829 225.313 76.6735 219.949 69.6988C219.949 69.6988 230.297 79.7338 237.346 89.3654C244.751 83.2211 248.976 78.4764 248.976 78.4764C242.971 63.5783 231.84 60.2333 218.05 44.4573V44.4811Z" fill="#5B40C9"/>
<path d="M210.763 68.8211C210.763 68.8211 221.04 82.6043 226.926 97.2652" stroke="#3F2D8C" stroke-width="0.5" stroke-miterlimit="10"/>
<path d="M213.445 83.055C213.445 83.055 218.596 90.7888 222.37 100.278" stroke="#3F2D8C" stroke-width="0.5" stroke-miterlimit="10"/>
<path d="M117.486 55.0379C114.828 65.0491 100.089 81.5842 103.459 107.751" stroke="#3F2D8C" stroke-width="0.5" stroke-miterlimit="10"/>
<path d="M118.483 83.055C118.483 83.055 116.798 99.7325 127.645 115.746" stroke="#3F2D8C" stroke-width="0.5" stroke-miterlimit="10"/>
<path d="M264.332 381.968C264.332 381.968 294.38 671.035 285.694 791.81H164.861C164.861 791.81 163.531 767.968 173.547 752.619C173.547 752.619 168.468 713.263 179.695 690.559C179.695 690.559 173.832 657.205 179.695 635.189L182.899 586.889C182.899 586.889 150.786 730.723 131.49 791.81H0C0 791.81 6.66943 760.638 24.7077 725.267C24.7077 725.267 30.7126 671.225 48.7272 640.527C48.7272 640.527 59.4077 572.916 73.4349 548.007C73.4349 548.007 84.78 439.686 114.163 381.968H264.356H264.332Z" fill="#11394F"/>
<path d="M264.333 381.968H114.14C104.86 400.187 97.407 423.46 91.4971 446.756C125.343 449.27 155.77 412.594 155.77 412.594C204.64 409.866 246.793 402.82 266.041 399.214C264.973 388.231 264.309 381.991 264.309 381.991L264.333 381.968Z" fill="#0D2A3B"/>
<path d="M182.899 586.889C182.899 586.889 214.941 457.36 210.93 389.986" stroke="#1E638A" stroke-width="0.54" stroke-miterlimit="10"/>
<path d="M226.618 389.986C226.618 389.986 229.561 448.986 207.393 457.36" stroke="#1E638A" stroke-width="0.54" stroke-miterlimit="10"/>
<path d="M247.884 389.986C247.884 389.986 249.403 429.082 270.361 445.095" stroke="#1E638A" stroke-width="0.54" stroke-miterlimit="10"/>
<path d="M26.7017 791.787C26.7017 791.787 105.738 567.768 131.181 391.955" stroke="#1E638A" stroke-width="0.54" stroke-miterlimit="10"/>
<path d="M166.878 391.979C166.878 391.979 157.455 442.936 121.901 446.874" stroke="#1E638A" stroke-width="0.54" stroke-miterlimit="10"/>
<path d="M78.894 168.459C78.894 168.459 95.9118 157.19 133.579 141.129L188.406 132.542C188.406 132.542 197.662 132.399 206.586 132.447C211.048 132.471 215.202 134.724 217.623 138.472C223.177 146.989 232.647 163.951 235.637 184.496C239.981 214.197 264.333 347.284 264.333 347.284C264.333 347.284 279.024 368.303 277.007 379.311C275.013 390.318 261.651 391.979 243.304 391.979H105.738L78.894 168.459Z" fill="#FFA3CB"/>
<path d="M136.403 88.3216L139.963 138.33L133.579 141.129C133.579 141.129 150.525 179.466 178.912 176.572C197.971 174.627 188.429 132.518 188.429 132.518H180.502L178.935 110.74L136.451 88.2979L136.403 88.3216Z" fill="#FF6969"/>
<path d="M178.888 110.74L139.014 89.6738V94.7268C139.014 94.7268 140.485 132.708 180.027 126.326L178.912 110.74H178.888Z" fill="#AB251D"/>
<path d="M264.332 347.284C264.332 347.284 262.552 337.605 259.894 322.873L221.206 257.017L142.692 298.035L110.223 225.442L88.5537 248.738L105.761 391.979H160.493L188.714 349.04L270.883 358.102C267.631 352.005 264.356 347.284 264.356 347.284H264.332Z" fill="#FF87BB"/>
<path d="M192.108 212.797C198.018 212.726 203.287 210.71 206.847 207.578C203.24 204.518 197.923 202.596 192.013 202.668C186.103 202.739 180.834 204.755 177.274 207.887C180.882 210.947 186.198 212.869 192.108 212.797Z" fill="#FF8630"/>
<path d="M200.439 330.963C198.516 335.28 198.16 340.903 199.869 346.573C201.578 352.243 204.996 356.726 209.007 359.241C210.929 354.923 211.285 349.301 209.576 343.631C207.868 337.961 204.45 333.477 200.439 330.963Z" fill="#FF8630"/>
<path d="M203.691 148.84C200.059 153.513 198.374 158.898 198.635 163.619C203.287 162.694 208.082 159.728 211.713 155.055C215.344 150.382 217.029 144.996 216.768 140.275C212.116 141.201 207.322 144.166 203.691 148.84Z" fill="#FF8630"/>
<path d="M127.218 167.889C132.202 171.068 137.708 172.254 142.408 171.59C141.055 167.059 137.661 162.552 132.676 159.349C127.692 156.17 122.186 154.984 117.486 155.648C118.839 160.179 122.233 164.687 127.218 167.889Z" fill="#FF8630"/>
<path d="M251.35 382.608C247.03 378.552 241.832 376.369 237.109 376.179C237.607 380.876 240.099 385.929 244.419 389.986C245.179 390.698 245.986 391.338 246.816 391.955C250.638 391.908 254.174 391.742 257.426 391.41C256.215 388.302 254.174 385.242 251.373 382.608H251.35Z" fill="#FF8630"/>
<path d="M154.583 269.425C149.86 269.543 144.615 271.631 140.224 275.593C135.833 279.555 133.246 284.584 132.676 289.281C137.399 289.162 142.645 287.075 147.036 283.113C151.427 279.151 154.014 274.122 154.583 269.425Z" fill="#FF8630"/>
<path d="M232.053 364.507C236.61 363.226 241.168 359.905 244.443 354.971C247.695 350.036 248.976 344.532 248.359 339.859C243.802 341.14 239.245 344.461 235.97 349.396C232.718 354.33 231.436 359.834 232.053 364.507Z" fill="#FF8630"/>
<path d="M205.921 388.919C209.007 383.866 210.075 378.338 209.268 373.665C204.758 375.112 200.32 378.599 197.258 383.652C195.597 386.356 194.552 389.203 194.03 391.979H203.714C204.497 391.03 205.257 390.01 205.921 388.919Z" fill="#FF8630"/>
<path d="M162.511 214.861C159.924 218.823 158.666 224.327 159.473 230.186C160.256 236.046 162.914 241.028 166.474 244.159C169.062 240.198 170.32 234.694 169.513 228.834C168.729 222.975 166.071 217.993 162.511 214.861Z" fill="#FF8630"/>
<path d="M136.949 204.067C132.7 206.155 128.832 210.259 126.529 215.692C124.227 221.148 123.99 226.77 125.438 231.278C129.686 229.19 133.555 225.086 135.857 219.653C138.159 214.197 138.397 208.575 136.949 204.067Z" fill="#FF8630"/>
<path d="M180.241 270.35C179.315 276.186 180.43 281.713 182.923 285.746C186.554 282.71 189.331 277.799 190.257 271.963C191.182 266.127 190.067 260.6 187.575 256.567C183.943 259.603 181.166 264.514 180.241 270.35Z" fill="#FF8630"/>
<path d="M248.359 339.859C243.802 341.14 239.245 344.461 235.969 349.396C234.973 350.89 234.189 352.432 233.572 353.998L244.3 355.184C244.3 355.184 244.395 355.066 244.443 354.994C247.694 350.06 248.976 344.556 248.359 339.883V339.859Z" fill="#C76925"/>
<path d="M209.553 343.631C207.844 337.961 204.426 333.477 200.415 330.963C198.493 335.28 198.137 340.903 199.846 346.573C200.249 347.925 200.771 349.23 201.365 350.44L210.621 351.46C210.669 348.945 210.336 346.312 209.553 343.655V343.631Z" fill="#C76925"/>
<path d="M135.358 281.618C133.911 284.109 133.009 286.743 132.7 289.257C134.528 289.21 136.427 288.878 138.325 288.237L135.358 281.595V281.618Z" fill="#C76925"/>
<path d="M180.241 278.392C180.691 281.144 181.617 283.635 182.899 285.723C186.222 282.923 188.832 278.534 189.948 273.315L180.217 278.392H180.241Z" fill="#C76925"/>
<path d="M210.764 133.182C228.28 136.456 252.655 158.139 271.999 181.815C291.366 205.491 321.058 254.218 332.071 275.569C343.084 296.92 336.082 326.954 310.045 336.609C284.009 346.264 185.225 342.611 185.225 342.611L202.575 313.597L274.325 291.582L242.022 223.069C242.022 223.069 231.935 155.15 210.74 133.206L210.764 133.182Z" fill="#FF6969"/>
<path d="M202.599 313.574L185.249 342.587C185.249 342.587 193.461 342.896 205.755 343.085C233.548 315.116 278.597 298.652 278.597 298.652L287.046 289.969L274.372 291.535L202.622 313.55L202.599 313.574Z" fill="#E64C4C"/>
<path d="M142.692 144.949L162.179 146.443" stroke="#AB251D" stroke-width="0.5" stroke-miterlimit="10"/>
<path d="M339.31 193.344C345.054 204.233 347.404 216.451 346.953 228.194C346.502 239.96 343.416 251.419 338.076 261.715C332.736 271.987 325.022 281.286 315.006 287.834C310.022 291.084 304.468 293.622 298.629 295.117C292.79 296.612 286.714 297.086 280.804 296.564C276.888 296.232 273.993 292.768 274.325 288.854C274.657 285.058 277.909 282.212 281.683 282.354H281.73C290.559 282.71 299.08 280.005 306.129 274.81C313.202 269.662 318.827 262.284 322.577 254.076C326.327 245.844 328.297 236.758 328.179 227.862C328.084 218.989 325.853 210.33 321.557 203.118C318.685 198.302 320.275 192.087 325.093 189.216C329.911 186.346 336.13 187.935 339.002 192.751C339.073 192.894 339.168 193.036 339.239 193.178L339.31 193.297V193.344Z" fill="#BA6528"/>
<path d="M203.382 316.563L281.065 297.964C284.792 297.062 287.497 293.907 287.853 290.111C288.755 280.361 289.301 261.169 282.561 244.373C273.067 220.65 251.136 206.44 251.136 206.44L250.804 189.501L214.086 201.956L208.746 231.752L192.084 234.836C188.477 235.5 185.723 238.466 185.32 242.119C184.893 245.891 184.608 250.019 185.249 250.019C186.483 250.019 190.803 242.689 190.803 242.689L215.938 246.816L210.051 290.942L203.382 316.61V316.563Z" fill="white"/>
<path d="M215.938 246.769L219.64 221.978L209.838 245.773L215.938 246.769Z" fill="#FCA750"/>
<path d="M234.142 229.522L230.463 251.039" stroke="#FCA750" stroke-width="0.5" stroke-miterlimit="10"/>
<path d="M282.537 244.349C275.867 227.672 263.074 215.739 256.049 210.093C255.503 216.807 254.577 232.938 257.164 242.523C260.511 254.859 277.22 256.543 277.22 256.543C277.22 256.543 281.659 266.554 288.019 269.472C287.402 261.454 285.86 252.629 282.56 244.373L282.537 244.349Z" fill="#BA6528"/>
<path d="M271.714 267.218C271.714 267.218 252.489 247.362 230.463 263.043" stroke="#FCA750" stroke-width="0.5" stroke-miterlimit="10"/>
<path d="M221.397 286.221C221.397 286.221 219.403 299.648 231.413 309.849L204.688 316.254L221.373 286.244L221.397 286.221Z" fill="#FCA750"/>
<path d="M243.873 287.763L265.021 301.238" stroke="#FCA750" stroke-width="0.5" stroke-miterlimit="10"/>
<path d="M250.946 197.638L250.78 189.477L214.062 201.932L212.235 212.062C229.822 221.172 247.481 210.069 250.922 197.638H250.946Z" fill="#FCA750"/>
<path d="M244.656 176.738C244.656 176.738 250.091 173.18 257.331 173.132C257.331 173.132 255.123 180.676 249.83 186.132L244.656 176.714V176.738Z" fill="#FCA750"/>
<path d="M221.207 161.864L228.635 151.947C228.635 151.947 230.487 159.278 229.704 163.619L221.207 161.864Z" fill="#FCA750"/>
<path d="M222.346 265.866L131.181 320.572C131.181 320.572 109.749 226.723 104.86 198.255C102.723 185.895 98.3326 177.806 94.0366 172.61C88.5777 166.015 78.443 166.063 72.8654 172.539C65.4364 181.174 56.7258 197.496 57.248 226.272C58.1262 276.091 61.2591 322.019 65.6975 355.326C70.1359 388.634 95.0572 424.669 135.572 399.309C176.063 373.949 228.137 281.002 228.137 281.002C228.137 281.002 234.807 280.907 240.313 267.883C240.313 267.883 244.016 265.178 249.166 263.375C252.513 262.213 253.984 260.623 253.676 259.698C253.177 258.275 244.039 260.101 240.028 262.118C245.368 257.777 248.003 256.709 252.346 254.526C256.69 252.344 253.509 249.521 247.718 251.656C243.612 253.151 236.326 258.702 236.326 258.702C236.326 258.702 238.984 252.866 244.68 249.521C250.353 246.176 254.364 244.183 253.035 242.19C251.706 240.198 243.968 243.187 240.455 245.868C236.943 248.525 232.67 253.53 232.67 253.53C232.67 253.53 234.166 246.864 236.183 244.349C238.177 241.858 243.185 240.008 243.683 238.347C244.182 236.687 241.025 235.5 235.495 239.51C229.965 243.519 228.327 250.517 228.327 250.517L222.393 265.866H222.346Z" fill="#FF6969"/>
<path d="M131.181 320.572L117.059 329.112C111.576 332.434 104.741 327.736 105.856 321.45L117.106 257.539L131.181 320.572Z" fill="#E64C4C"/>
<path d="M131.181 320.572L100.801 339.835" stroke="#AB251D" stroke-width="0.5" stroke-miterlimit="10"/>
<path d="M103.008 390.84C105.904 394.304 106.616 398.479 104.575 400.211C102.533 401.943 98.5222 400.519 95.6029 397.079C92.7073 393.616 91.9952 389.441 94.0364 387.709C96.0776 385.977 100.089 387.4 103.008 390.84Z" fill="#FF9696"/>
<path d="M324.429 314.784C322.625 318.911 319.159 321.402 316.715 320.335C314.27 319.267 313.748 315.044 315.576 310.917C317.379 306.789 320.845 304.298 323.289 305.365C325.734 306.433 326.256 310.656 324.429 314.784Z" fill="#FF9696"/>
<path d="M250.78 189.477C250.566 179.3 247.006 170.973 239.482 165.114C234.023 160.867 218.62 157.617 207.441 165.114C196.262 172.61 193.651 188.979 204.474 200.271C223.675 220.294 251.089 205.419 250.756 189.454L250.78 189.477Z" fill="white"/>
<path d="M218.382 174.698C218.643 175.931 217.836 177.141 216.602 177.402C215.368 177.663 214.157 176.857 213.896 175.623C213.635 174.389 214.442 173.18 215.676 172.919C216.911 172.658 218.121 173.464 218.382 174.698Z" fill="#4A1E1E"/>
<path d="M229.965 180.13C230.226 181.364 229.419 182.574 228.185 182.835C226.95 183.096 225.74 182.289 225.479 181.056C225.218 179.822 226.025 178.612 227.259 178.351C228.493 178.09 229.704 178.897 229.965 180.13Z" fill="#4A1E1E"/>
<path d="M210.74 186.631C210.74 186.631 214.371 188.552 216.934 185.184C216.934 185.184 216.768 189.074 220.02 190.901" stroke="#4A1E1E" stroke-width="0.5" stroke-miterlimit="10"/>
<path d="M216.008 180.7L220.945 183.547C220.945 183.547 219.83 185.207 216.934 185.184C216.934 185.184 215.391 183.997 216.008 180.7Z" fill="#E64C4C"/>
<path d="M234.142 190.379L246.247 200.841" stroke="#BA6528" stroke-width="0.5" stroke-miterlimit="10"/>
<path d="M230.463 192.704L236.61 207.744" stroke="#BA6528" stroke-width="0.5" stroke-miterlimit="10"/>
<path d="M226.072 194.815L227.734 209.856" stroke="#BA6528" stroke-width="0.5" stroke-miterlimit="10"/>
<path d="M205.589 179.632L197.591 182.954" stroke="#BA6528" stroke-width="0.5" stroke-miterlimit="10"/>
<path d="M205.589 175.172H199.252" stroke="#BA6528" stroke-width="0.5" stroke-miterlimit="10"/>
<path d="M205.589 182.882L199.252 191.802" stroke="#BA6528" stroke-width="0.5" stroke-miterlimit="10"/>
<path d="M156.696 45.5249C156.696 45.5249 165.051 63.6969 190.399 63.1987C183.231 60.5417 175.209 53.5196 173.548 48.6801C181.048 55.3463 192.227 59.8537 199.252 61.3483L194.244 86.7084C194.244 86.7084 195.929 101.749 185.391 111.072C179.552 116.244 164.196 120.585 150.501 111.902C136.806 103.22 135.809 84.0514 135.809 84.0514C135.809 84.0514 125.96 88.3927 123.467 77.7173C120.975 67.0418 130.635 54.8718 138.325 65.8794C138.325 65.8794 151.498 58.881 156.672 45.5249H156.696Z" fill="#FF6969"/>
<path d="M134.67 78.0494C137.518 74.2063 135.857 66.1166 131.49 65.6185C129.496 65.3812 127.36 67.8959 126.671 71.3358" stroke="#E64C4C" stroke-width="0.5" stroke-miterlimit="10"/>
<path d="M158.096 74.7756C161.775 70.2208 169.869 70.2919 172.076 75.3924" stroke="#AB251D" stroke-width="0.94" stroke-linecap="round" stroke-linejoin="round"/>
<path d="M179.932 75.4873C183.136 71.5493 190.138 71.6204 192.037 76.0329" stroke="#AB251D" stroke-width="0.94" stroke-linecap="round" stroke-linejoin="round"/>
<path d="M177.226 78.5002L177.677 86.4C177.677 86.4 180.739 87.3015 180.454 88.8435C179.932 91.7377 175.232 90.6227 175.232 90.6227" stroke="#AB251D" stroke-width="0.94" stroke-linecap="round" stroke-linejoin="round"/>
<path d="M183.16 95.6758L163.128 94.0152C163.128 94.0152 165.691 101.251 174.758 101.251C181.712 101.251 183.16 95.6995 183.16 95.6995V95.6758Z" fill="white"/>
<path d="M158.096 94.0151C161.242 94.0151 163.793 91.466 163.793 88.3216C163.793 85.1771 161.242 82.628 158.096 82.628C154.95 82.628 152.4 85.1771 152.4 88.3216C152.4 91.466 154.95 94.0151 158.096 94.0151Z" fill="#E64C4C"/>
<path d="M169.323 103.528C169.323 103.528 173.785 105.853 178.888 104.192" stroke="#AB251D" stroke-width="0.5" stroke-miterlimit="10"/>
<path d="M155.865 65.7371L170.771 64.5984" stroke="#3F2D8C" stroke-width="2" stroke-miterlimit="10"/>
<path d="M181.024 65.7371L193.817 68.8211" stroke="#3F2D8C" stroke-width="2" stroke-miterlimit="10"/>
</g>
</g>
<defs>
<clipPath id="clip0_1_938">
<rect width="400" height="450" fill="white"/>
</clipPath>
<clipPath id="clip1_1_938">
<rect width="347" height="792" fill="white"/>
</clipPath>
</defs>
</svg>
