<svg width="400" height="450" viewBox="0 0 400 450" fill="none" xmlns="http://www.w3.org/2000/svg">
<g clip-path="url(#clip0_1_36)">
<g clip-path="url(#clip1_1_36)">
<path d="M274.107 373.266C270.431 358.174 266.774 343.101 263.097 328.009L123.235 332.103C106.909 395.207 128.25 461.008 137.374 525.527C145.575 583.443 143.821 642.755 132.19 700.087C144.802 705.973 158.941 708.576 172.834 707.538C175.587 707.331 178.528 706.916 180.564 705.048C182.298 703.464 183.09 701.105 183.806 698.86C187.52 687.183 191.14 675.486 194.74 663.79C224.47 626.909 246.093 583.481 263.814 539.299C275.087 511.19 285.098 481.949 285.946 451.67C286.681 425.164 280.385 399.017 274.126 373.248L274.107 373.266Z" fill="#1A4056"/>
<path d="M377.51 156.845C373.532 155.468 369.177 156.524 365.105 157.6C363.069 158.147 361.014 158.675 358.978 159.222C357.451 159.618 355.905 160.033 354.548 160.826C351.305 162.731 349.647 166.447 348.478 170.032C347.177 174.031 346.234 178.144 345.669 182.313C345.612 182.804 345.556 183.313 345.782 183.747C346.046 184.2 346.555 184.426 347.045 184.615C352.192 186.633 357.206 188.972 362.07 191.632C363.899 187.369 368.875 185.577 373.362 184.369C377.849 183.162 382.845 181.747 385.145 177.71L385.767 172.541C386.445 166.202 383.505 158.958 377.472 156.864L377.51 156.845Z" fill="#EFB289"/>
<path d="M396.312 132.431L380.32 124.156C376.99 122.434 372.896 123.738 371.174 127.07L352.516 163.183C350.794 166.515 352.098 170.613 355.428 172.335L371.42 180.61C374.75 182.332 378.844 181.028 380.566 177.696L399.224 141.583C400.945 138.251 399.642 134.153 396.312 132.431Z" fill="#473D56"/>
<path d="M396.23 141.548L372.68 129.793L356.894 161.463L380.445 173.218L396.23 141.548Z" fill="#F0EBE4"/>
<path d="M368.442 149.412C368.291 149.186 368.103 148.959 367.857 148.846C367.594 148.714 367.273 148.714 366.971 148.733C364.596 148.903 362.409 149.997 360.204 150.921C357.3 152.129 354.265 153.034 351.155 153.6C351.155 153.6 345.914 155.487 345.179 162.429C344.613 167.693 346.329 172.956 347.196 175.201C347.497 175.465 347.78 175.71 348.082 175.955L351.192 164.391C356.414 163.259 361.523 161.127 365.614 157.694C366.839 156.656 368.008 155.487 368.649 154.015C369.29 152.544 369.347 150.733 368.442 149.393V149.412Z" fill="#EFB289"/>
<path d="M397.549 147.469C397.059 146.922 396.418 146.545 395.796 146.149C393.402 144.696 390.838 143.206 388.048 143.356C387.841 143.356 387.633 143.394 387.464 143.489C387.162 143.677 387.068 144.054 387.03 144.394C386.747 146.45 387.426 148.601 388.821 150.129C389.669 151.053 390.838 151.827 391.177 153.034C391.46 153.978 391.177 155.015 391.479 155.958C391.913 157.354 393.572 158.109 395.004 157.826C398.718 157.109 399.83 150.016 397.53 147.469H397.549Z" fill="#EFB289"/>
<path d="M392.949 152.638C392.346 151.94 391.573 151.45 390.8 150.959C387.897 149.129 384.749 147.224 381.355 147.394C381.11 147.394 380.865 147.431 380.658 147.563C380.3 147.79 380.187 148.28 380.13 148.714C379.791 151.318 380.62 154.053 382.336 155.996C383.391 157.185 384.786 158.147 385.22 159.694C385.559 160.901 385.22 162.222 385.597 163.41C386.125 165.165 388.161 166.146 389.895 165.787C394.439 164.882 395.758 155.883 392.968 152.638H392.949Z" fill="#EFB289"/>
<path d="M390.8 160.279C390.197 159.581 389.424 159.09 388.651 158.6C385.748 156.77 382.6 154.864 379.206 155.034C378.961 155.034 378.716 155.072 378.509 155.204C378.151 155.43 378.038 155.921 377.981 156.355C377.642 158.958 378.471 161.693 380.187 163.637C381.242 164.825 382.637 165.787 383.071 167.334C383.41 168.541 383.071 169.862 383.448 171.051C383.976 172.805 386.012 173.786 387.746 173.428C392.29 172.522 393.609 163.523 390.819 160.279H390.8Z" fill="#EFB289"/>
<path d="M385.974 168.957C385.541 168.447 384.956 168.089 384.391 167.73C382.241 166.372 379.923 164.976 377.415 165.089C377.227 165.089 377.057 165.127 376.906 165.221C376.642 165.391 376.548 165.749 376.511 166.07C376.265 167.994 376.869 170.013 378.132 171.447C378.905 172.315 379.942 173.031 380.262 174.163C380.507 175.05 380.262 176.031 380.545 176.899C380.941 178.2 382.43 178.917 383.712 178.653C387.049 177.974 388.029 171.352 385.974 168.957Z" fill="#EFB289"/>
<path d="M256.82 157.619C254.067 152.6 253.049 146.658 253.935 141.017C255.651 130.207 263.776 121.737 268.828 112.04C278.801 92.8733 276.218 69.1597 267.396 49.4456C263.135 39.8999 255.198 29.7315 244.811 30.8634L236.61 26.732C218.456 23.374 199.246 25.9585 182.619 33.9951C179.338 35.5797 176.115 37.4096 173.588 40.013C170.666 43.0315 168.819 46.8988 166.915 50.653C161.561 61.1609 154.586 71.8386 143.67 76.253C135.903 79.4035 127.156 78.9508 119.031 81.0448C111.302 83.0634 104.044 87.6287 99.7644 94.3825C92.1859 106.343 95.1079 121.963 91.7523 135.735C89.4712 145.111 84.0984 153.695 76.6896 159.845C70.5627 164.938 63.2105 168.315 56.6123 172.786C50.0142 177.257 46.5454 183.426 44.8299 191.217C42.4922 201.782 60.4581 214.969 69.2431 221.289C90.6023 236.664 67.4145 261.603 90.8286 275.79C126.515 297.391 135.055 214.629 165.388 208.007C174.588 205.989 183.58 202.989 192.931 201.82C202.262 200.65 212.273 201.48 220.19 206.574C226.317 210.535 230.653 216.667 235.932 221.704C241.21 226.741 248.431 230.853 255.538 229.174C260.684 227.948 264.775 223.816 267.075 219.044C269.375 214.271 270.11 208.913 270.506 203.631C271.43 191.312 270.506 178.238 263.833 167.806C261.608 164.335 258.799 161.241 256.82 157.619Z" fill="#1A4056"/>
<path d="M171.703 108.55C175.191 98.2876 174.305 87.1005 176.171 76.4228C179.414 57.9161 191.517 41.1638 208.087 32.2595C212.838 29.7127 218.022 27.7507 223.395 27.4111C232.237 26.8452 240.852 30.6936 247.997 35.9382C267.169 50.0116 270.299 64.4434 262.174 86.7987C254.048 109.154 233.029 135.131 211.537 124.925C207.861 129.755 209.577 137.244 214.101 141.281C218.626 145.318 225.13 146.432 231.181 145.922C226.6 155.826 213.423 157.354 202.507 157.505C186.596 157.732 169.573 157.619 156.433 148.658C149.967 144.243 140.616 131.792 148.308 125.944C151.023 123.869 158.054 124.755 161.806 122.171C166.406 119.02 169.912 113.795 171.703 108.569V108.55Z" fill="#EFB289"/>
<path d="M242.209 66.7261C235.574 68.0844 228.73 64.5566 222.019 65.4999C216.062 66.3488 211.179 70.5557 207.032 74.8947C198.662 83.6482 191.611 93.7033 182.373 101.513C173.136 109.324 161.372 127.359 149.59 124.586C158.563 115.908 160.468 90.2133 165.03 78.5923C172.552 59.4253 186.86 42.9937 204.788 32.882C215.044 27.1092 227.128 23.3362 238.571 26.0905C249.713 28.7694 258.818 37.5228 263.55 47.9553C268.282 58.3877 269.017 70.3105 267.339 81.6485C266.17 89.6284 263.569 97.8914 257.461 103.136C260.873 100.193 256.216 85.6668 255.406 82.0446C253.803 74.9891 252.54 68.3674 253.785 61.142C250.108 61.1043 246.281 65.8772 242.209 66.7072V66.7261Z" fill="#1A4056"/>
<path d="M220.85 85.3083C214.761 96.4765 201.282 100.872 190.725 95.1182C180.168 89.3643 176.548 75.6493 182.637 64.4812C188.727 53.313 202.206 48.9174 212.763 54.6713C223.32 60.4251 226.939 74.1401 220.85 85.3083Z" fill="#DB759F"/>
<path d="M198.021 93.892C207.766 93.892 215.666 85.0572 215.666 74.159C215.666 63.2608 207.766 54.426 198.021 54.426C188.275 54.426 180.375 63.2608 180.375 74.159C180.375 85.0572 188.275 93.892 198.021 93.892Z" fill="#FF8DBB"/>
<path d="M207.88 52.3509C207.88 52.3509 222.962 24.4681 238.533 24.4681C254.105 24.4681 256.575 34.7874 256.575 34.7874L250.448 33.8253C243.812 32.7877 237.025 34.6742 231.973 39.1264C227.354 43.1824 222.038 49.6154 217.721 59.6328L207.861 52.3697L207.88 52.3509Z" fill="#DB759F"/>
<path d="M161.749 141.696C161.749 141.696 194.835 155.996 215.911 148.469L261.043 337.385C261.043 337.385 133.792 380.586 118.899 335.876C118.145 333.612 161.768 141.696 161.768 141.696H161.749Z" fill="#F2D768"/>
<path d="M82.0247 46.6536C96.2391 35.0515 100.745 14.7337 113.074 1.45262C114.997 -0.603688 118.315 1.58467 117.278 4.18807C116.75 5.50863 116.034 6.81033 115.28 7.97997C113.545 10.7154 111.585 13.6395 111.339 16.7711C111.283 17.4314 112.112 17.8087 112.603 17.356L129.173 2.39587C130.286 1.39602 131.454 0.358436 132.906 0.0565929C134.358 -0.24525 136.149 0.490492 136.431 1.96198C136.601 2.81091 136.243 3.67871 135.828 4.45218C132.114 11.47 124.574 15.7147 120.313 22.4118C119.936 22.9966 119.578 23.7135 119.842 24.3549C120.37 25.7132 122.424 24.9775 123.556 24.0531C128.664 19.8273 133.773 15.6015 138.882 11.3946C140.07 10.4136 141.314 9.41372 142.803 9.05528C144.293 8.71571 146.121 9.24393 146.743 10.64C147.592 12.5831 145.838 14.6016 144.255 15.9788C139.655 19.9971 135.036 24.0154 130.436 28.0336C128.909 29.3731 127.269 31.5992 128.532 33.1838C134.848 29.8824 141.446 27.0904 148.233 24.8832C149.967 24.3172 151.984 25.0718 152.682 26.7697C153.662 29.1278 151.249 30.8446 149.232 31.8633C143.293 34.8628 137.355 37.8435 131.417 40.8431C129.475 41.8241 127.269 43.2012 127.194 45.3707C127.156 46.6347 127.891 47.8043 128.777 48.691C130.436 50.3511 132.604 51.351 134.622 52.5395C137.11 53.9921 139.561 55.9352 139.862 59.0291C140.013 60.5195 139.41 62.0476 138.166 62.8776C135.885 64.3868 133.415 62.8776 131.341 61.5382C126.704 58.5575 121.595 56.1805 116.128 55.4825C110.661 54.7845 104.836 55.9352 100.537 59.3687" fill="#EFB289"/>
<path d="M111.17 121.888C96.8989 124.397 82.9108 129.094 68.244 126.793C55.4624 124.793 38.4579 118.983 51.5977 104.928C67.6407 87.7608 91.9597 82.9313 107.098 63.6322C108.342 62.0476 109.586 60.1799 109.341 58.1802C109.153 56.5955 108.059 55.2938 107.022 54.0864C100.726 46.729 94.4104 39.3716 88.1139 32.0142C89.6409 33.8064 45.1315 64.6887 41.4554 67.4053C20.3035 83.0634 -17.9093 121.152 9.59564 147.941C28.1648 166.014 57.8754 167.655 81.5911 174.654C88.227 176.616 95.3907 178.842 99.4062 184.483C103.874 190.765 103.026 199.254 101.951 206.894C96.3522 246.756 88.7737 289.071 61.3253 318.482C58.0828 321.953 54.2935 326.103 55.2738 330.763C55.8205 333.404 57.8377 335.479 59.9303 337.177C68.112 343.78 78.5748 346.704 88.7549 349.251C101.141 352.345 115.694 354.684 125.422 346.402C129.06 343.308 131.511 339.045 133.811 334.857C164.596 278.261 179.15 212.95 175.323 148.62C174.248 130.698 148.647 123.567 134.471 121.209C126.534 119.888 118.824 120.605 111.207 121.944L111.17 121.888Z" fill="#8167B2"/>
<path d="M227.053 248.605C234.009 280.638 241.795 313.03 257.951 341.535C258.988 343.365 260.119 345.233 261.872 346.384C263.965 347.742 266.585 347.874 269.073 347.78C284.758 347.176 299.972 339.026 309.19 326.311C282.553 306.729 265.548 274.583 264.379 241.531C273.937 251.435 283.495 261.339 293.053 271.262C298.803 277.224 305.91 283.695 314.111 282.563C321.18 281.582 326.138 275.281 330.21 269.414C347.403 244.53 362.636 218.289 375.719 191.029C364.634 187.52 354.02 182.596 344.179 176.408C333.49 193.311 320.69 208.894 306.193 222.666C282.081 208.064 286.059 169.372 265.115 150.488C253.728 140.225 237.44 138.055 222.208 136.339C196.871 133.509 209.332 159.298 211.99 173.616C216.646 198.688 221.68 223.703 227.09 248.624L227.053 248.605Z" fill="#8167B2"/>
<path d="M233.406 118.888C233.406 118.888 221.227 111.663 219.549 102.645C219.549 102.645 213.46 110.474 216.778 115.889C220.096 121.303 233.406 118.888 233.406 118.888Z" fill="#F0EBE4"/>
<path d="M241.644 99.344C239.212 100.627 237.251 102.796 236.215 105.362C235.536 107.06 234.706 109.324 232.878 109.229C231.37 109.154 230.597 107.437 230.163 106.003" stroke="#D3845E" stroke-miterlimit="10"/>
<path d="M226.732 85.1197C230.917 84.9499 234.763 89.0059 234.386 93.1751" stroke="#2B2B2B" stroke-miterlimit="10"/>
<path d="M244.302 103.664C246.904 103.117 249.788 104.494 251.013 106.852" stroke="#2B2B2B" stroke-miterlimit="10"/>
<path d="M237.251 80.3656C234.989 79.1205 232.331 78.781 229.748 78.913L241.663 86.3836C241.323 83.818 239.514 81.6107 237.251 80.3656Z" fill="#964E38"/>
<path d="M252.635 97.9669C251.579 96.5331 249.995 95.5899 248.355 94.9107L253.445 102.985C254.143 101.344 253.69 99.3817 252.635 97.948V97.9669Z" fill="#964E38"/>
<path d="M192.912 94.6089C172.344 117.077 150.608 142.149 149.006 172.579C148.534 181.426 150.042 190.765 155.453 197.782C163.39 208.045 177.962 210.95 190.819 209.177C197.851 208.215 204.751 206.083 211.858 205.838C231.69 205.159 250.655 221.458 252.974 241.172C253.577 246.228 253.106 251.643 250.297 255.868C247.488 260.094 241.832 262.698 237.101 260.849C233.896 259.585 231.652 256.623 230.239 253.472C223.339 238.286 233.293 219.685 247.714 211.328C262.136 202.97 279.612 202.254 296.277 201.933C312.942 201.593 332.736 205.555 347.479 197.782C355.132 193.764 360.091 190.029 366.217 182.275" stroke="#FF8DBB" stroke-miterlimit="10"/>
<path d="M369.734 179.203L367.135 177.785L364.673 182.307L367.271 183.725L369.734 179.203Z" fill="#DB759F"/>
<path d="M217.532 407.469C222.566 436.314 227.599 465.498 225.808 494.72C224.621 513.982 220.454 532.941 216.326 551.788C208.974 585.273 201.621 618.74 194.25 652.226" stroke="#0C1F28" stroke-miterlimit="10"/>
</g>
</g>
<defs>
<clipPath id="clip0_1_36">
<rect width="400" height="450" fill="white"/>
</clipPath>
<clipPath id="clip1_1_36">
<rect width="400" height="777" fill="white"/>
</clipPath>
</defs>
</svg>
