<svg width="400" height="450" viewBox="0 0 400 450" fill="none" xmlns="http://www.w3.org/2000/svg">
<g clip-path="url(#clip0_8_148)">
<g clip-path="url(#clip1_8_148)">
<path d="M72.4297 437.432C72.4297 437.432 -12.6636 460.033 1.49801 687.529L127.342 735.499L72.4297 437.432Z" fill="#FACE57"/>
<path d="M264.499 386.074L416.436 433.135C438.566 441.894 439.475 466.396 437.617 492.757L401.821 946.179L54.511 946.468L35.5188 498.211C33.3719 472.098 48.2766 447.555 72.4297 437.432L199.554 386.735L264.499 386.115V386.074Z" fill="#FACE57"/>
<path d="M332.747 407.229L264.499 386.074L174.121 396.569L143.733 409.047L185.929 479.535L332.747 407.229Z" fill="#D08864"/>
<path d="M466.064 477.8C499.135 552.461 560.24 672.655 593.848 749.175C610.9 787.973 591.123 832.927 551.074 846.685C516.971 858.42 471.142 843.256 454.751 811.069L320.36 547.172C297.941 503.169 319.906 449.538 366.685 433.879C406.156 420.657 449.177 439.663 466.064 477.758V477.8Z" fill="#FACE57"/>
<path d="M335.018 148.91L274.201 288.812L254.507 228.942L335.018 148.91Z" fill="#252B4E"/>
<path d="M133.535 208.903C130.026 227.372 112.19 239.52 93.7341 236.008C75.2786 232.496 63.1402 214.646 66.6496 196.177C70.159 177.708 87.9952 165.561 106.451 169.073C124.906 172.585 137.045 190.434 133.535 208.903Z" fill="#BC7150"/>
<path d="M169.455 276.706L172.015 410.699L295.175 413.55L270.031 184.608L169.455 276.706Z" fill="#D08864"/>
<path d="M170.776 345.83C170.776 345.83 254.342 322.238 257.851 242.949L169.455 280.548L170.776 345.83Z" fill="#1E0A04"/>
<path d="M137.292 54.8288C107.153 67.9678 87.5823 97.634 85.2702 130.44C82.6278 168.246 81.1415 226.711 93.8167 254.931C113.428 298.521 152.692 323.106 210.247 305.38C210.247 305.38 277.958 294.762 284.275 191.839C291.748 70.0337 205.004 25.3691 137.292 54.8288Z" fill="#D08864"/>
<path d="M252.773 192.748C252.773 192.748 247.199 180.146 255.003 119.822C255.787 113.748 254.59 107.592 251.534 102.262C245.63 91.9323 233.698 85.8172 222.138 88.6681C152.527 105.608 129.613 103.419 94.0231 93.4197C94.0231 93.4197 107.813 20.0392 221.188 23.6339C400.623 29.2944 347.94 194.07 263.921 227.951L252.69 192.748H252.773Z" fill="#252B4E"/>
<path d="M288.618 240.687C311.443 240.635 329.905 222.076 329.853 199.234C329.801 176.392 311.256 157.917 288.431 157.969C265.605 158.02 247.144 176.579 247.196 199.421C247.247 222.263 265.793 240.738 288.618 240.687Z" fill="#D08864"/>
<path d="M305.786 185.352C305.786 185.352 274.738 179.898 270.279 213.944" stroke="#1E0A04" stroke-width="1.21" stroke-linecap="round" stroke-linejoin="round"/>
<path d="M399.591 55.9444C396.701 83.7927 371.763 103.997 343.936 101.105C316.108 98.2126 295.918 73.2566 298.808 45.4084C301.699 17.5601 326.636 -2.64429 354.464 0.247963C382.292 3.14021 402.481 28.0962 399.591 55.9444Z" fill="#252B4E"/>
<path d="M122.057 191.136L116.938 208.903C116.442 211.341 118.052 213.655 120.488 214.068L128.787 215.39" stroke="#1E0A04" stroke-width="1.21" stroke-linecap="round" stroke-linejoin="round"/>
<path d="M178.373 118.086C178.373 118.086 153.849 113.872 152.981 127.052C152.981 127.052 152.61 135.977 174.038 139.117C195.466 142.257 203.971 141.307 206.325 133.043C208.678 124.78 189.934 118.871 178.373 118.045V118.086Z" fill="#1E0A04"/>
<path d="M86.7152 139.613C86.7152 139.613 108.845 132.548 112.107 145.15C112.107 145.15 114.171 153.826 94.725 159.404C80.5634 163.453 75.2787 161.016 73.7923 155.231C72.0169 148.372 78.3339 141.472 86.7152 139.613Z" fill="#1E0A04"/>
<path d="M116.194 232.454L163.056 233.735C163.056 233.735 153.023 250.262 135.228 248.733C117.392 247.163 116.236 232.454 116.236 232.454H116.194Z" fill="white"/>
<path d="M176.722 180.311C176.722 185.352 172.552 189.401 167.515 189.36C162.478 189.36 158.431 185.187 158.473 180.146C158.473 175.105 162.643 171.056 167.68 171.097C172.717 171.097 176.763 175.27 176.722 180.311Z" fill="#1E0A04"/>
<path d="M106.657 180.972C106.657 185.6 102.817 189.318 98.1931 189.318C93.5689 189.318 89.853 185.476 89.853 180.848C89.853 176.221 93.6927 172.502 98.3169 172.502C102.941 172.502 106.657 176.345 106.657 180.972Z" fill="#1E0A04"/>
<path d="M134.732 183.203C135.723 204.275 153.27 220.555 173.873 219.563C194.475 218.571 210.33 200.681 209.339 179.65C208.348 158.578 190.801 142.299 170.198 143.29C149.596 144.282 133.7 162.173 134.732 183.203Z" stroke="#FACE57" stroke-width="1.17" stroke-miterlimit="10"/>
<path d="M51.3318 186.922C52.2815 207.168 67.3926 222.868 85.0636 222.001C102.735 221.133 116.236 204.069 115.286 183.823C114.336 163.577 99.2252 147.877 81.5542 148.744C63.8832 149.571 50.3822 166.676 51.3318 186.922Z" stroke="#FACE57" stroke-width="1.17" stroke-miterlimit="10"/>
<path d="M134.732 183.203C134.732 183.203 126.021 174.072 115.286 183.864" stroke="#FACE57" stroke-width="1.17" stroke-miterlimit="10"/>
<path d="M209.339 179.609L251.287 180.228" stroke="#FACE57" stroke-width="1.17" stroke-miterlimit="10"/>
</g>
</g>
<defs>
<clipPath id="clip0_8_148">
<rect width="400" height="450" fill="white"/>
</clipPath>
<clipPath id="clip1_8_148">
<rect width="889" height="1530" fill="white" transform="translate(-289)"/>
</clipPath>
</defs>
</svg>
