<svg width="400" height="450" viewBox="0 0 400 450" fill="none" xmlns="http://www.w3.org/2000/svg">
<g clip-path="url(#clip0_8_1128)">
<path d="M107.227 341.225C184.688 332.96 260.611 367.843 321.201 330.224C507.644 214.345 609.957 623.768 609.957 623.768L434.914 739.818L456.972 1089.51C456.972 1089.51 297.774 1155.97 -39.9444 1117.21C-54.6501 1115.5 -6.65696 888.528 5.08482 758.97C5.54081 753.954 -177.426 714.796 -177.426 714.796C-159.3 728.247 -118.603 512.792 -79.9576 428.547C-39.2034 339.686 -0.330097 352.739 107.227 341.282V341.225Z" fill="#FFD91E"/>
<path d="M384.247 309.648C369.028 363.455 366.52 421.365 367.09 477.11C367.945 556.738 368.287 640.184 385.273 718.216C395.818 766.836 414.228 812.378 442.044 852.619L434.919 739.761L609.963 623.712C609.963 623.712 530.506 306.114 384.19 309.591L384.247 309.648Z" fill="#32B8FF"/>
<path d="M97.1975 1038.32C169.073 972.089 292.134 993.178 378.031 1011.48C403.282 1016.89 428.361 1023.22 453.27 1030.17L447.969 946.553C445.632 944.273 443.238 942.164 440.958 939.828C355.517 853.303 322.913 740.844 315.788 621.888C310.259 529.834 301.026 425.925 319.607 331.022C259.302 367.159 183.95 332.96 107.229 341.111C73.8849 344.645 47.1524 345.842 24.9228 348.464C63.5111 373.144 100.275 400.732 133.107 432.423C181.955 479.504 230.062 545.794 222.823 617.499C215.812 686.98 148.668 740.16 98.9645 781.599C58.6092 815.228 18.7099 847.09 -11.7845 887.56C-29.1692 1000.59 -50.4297 1115.84 -39.9419 1117.04C-5.79959 1120.97 26.4048 1123.76 56.8992 1125.7C59.9772 1093.04 71.3199 1062.03 97.1975 1038.21V1038.32Z" fill="#F63691"/>
<path d="M5.14467 758.913C4.28969 768.432 3.20671 778.521 2.00974 789.009C8.62161 783.024 15.4045 777.153 22.3013 771.396C50.7438 747.798 79.8133 724.828 106.603 699.349C128.661 678.317 154.995 653.294 163.944 623.142C182.696 560.215 118.06 494.324 76.0513 457.332C39.686 425.298 -0.954219 398.053 -43.1334 373.828C-56.3572 385.513 -68.0419 402.727 -79.8977 428.49C-117.004 509.372 -155.934 710.977 -175.086 715.252C-154.11 719.755 5.54367 754.239 5.14467 758.913Z" fill="#864DB6"/>
<path d="M126.153 38.0476C124.272 43.7475 86.3682 261.711 86.3682 261.711L116.692 265.53L120.511 238.969C120.511 238.969 126.21 276.873 131.91 276.873C137.61 276.873 279.765 263.592 279.765 263.592C279.765 263.592 340.412 68.371 268.366 32.3477C196.319 -3.67566 126.21 38.0476 126.21 38.0476H126.153Z" fill="#FCD717"/>
<path d="M161.149 223.636L154.537 342.878C154.537 342.878 226.641 559.246 291.449 339.572L271.043 221.47L161.206 223.693L161.149 223.636Z" fill="#FFB0A9"/>
<path d="M149.123 87.5226L150.092 205.738C150.092 205.738 235.476 383.233 263.235 204.655L228.808 75.5529L149.123 87.5226Z" fill="#D87373"/>
<path d="M300.453 155.18L276.913 151.077L274.348 178.892L297.888 182.996C305.127 184.25 311.568 179.063 312.309 171.425C312.993 163.73 307.749 156.491 300.453 155.237V155.18Z" fill="#FFB0A9"/>
<path d="M299.088 162.248L289.398 160.538L288.315 171.995L298.005 173.705C300.969 174.218 303.648 172.109 303.933 168.917C304.218 165.725 302.052 162.761 299.031 162.248H299.088Z" fill="#FF7B7B"/>
<path d="M120.626 182.255L144.11 179.804L139.322 152.045L115.782 154.496C108.543 155.237 103.755 162.077 105.066 169.772C106.377 177.467 113.331 183.053 120.569 182.255H120.626Z" fill="#FFB0A9"/>
<path d="M117.028 163.445L126.718 162.248L128.884 173.705L119.194 174.902C116.23 175.244 113.323 173.021 112.696 169.829C112.126 166.694 114.007 163.787 117.028 163.445Z" fill="#FF7B7B"/>
<path d="M213.243 255.841C221.394 256.354 269.957 259.944 289.451 171.14L289.166 167.549C285.347 120.639 252.345 48.3074 208.627 49.2764V48.7634C164.965 49.7324 126.947 124.173 130.766 171.083L131.051 174.674C156.017 247.177 197.398 256.867 213.243 255.841Z" fill="#FFB0A9"/>
<path d="M230.179 160.196C230.521 163.616 232.801 166.181 235.309 165.953C237.817 165.725 239.584 162.761 239.242 159.341C238.9 155.921 236.62 153.356 234.112 153.584C231.604 153.812 229.837 156.776 230.179 160.196Z" fill="#001019"/>
<path d="M188.625 162.248C188.967 165.668 191.304 168.233 193.811 168.005C196.319 167.72 198.029 164.756 197.687 161.336C197.345 157.916 195.008 155.351 192.5 155.579C189.993 155.864 188.283 158.828 188.625 162.248Z" fill="#001019"/>
<path d="M207.834 192.058L217.808 191.602C219.062 191.545 211.938 154.154 211.938 154.154C211.311 152.615 206.523 192.115 207.834 192.058Z" fill="#FF7B7B"/>
<path d="M256.452 138.879C264.09 140.532 251.322 131.184 242.602 128.847C233.824 126.51 224.248 127.764 222.253 135.288C222.253 135.288 240.151 135.288 256.509 138.879H256.452Z" fill="#001019"/>
<path d="M167.134 146.289C159.496 147.941 170.269 137.568 178.99 135.231C187.768 132.894 196.374 134.832 198.426 142.413C198.426 142.413 183.493 142.755 167.134 146.346V146.289Z" fill="#001019"/>
<path d="M191.533 201.805C191.533 201.805 226.417 200.551 238.272 198.043C238.272 198.043 232.287 215.656 215.131 219.361C198.202 223.009 191.533 201.805 191.533 201.805Z" fill="white"/>
<path d="M111.617 147.314C118.286 151.418 128.887 109.011 128.488 110.265C125.81 118.701 125.069 165.326 128.09 163.103C138.976 155.066 153.568 105.648 153.568 105.648L142.567 140.988C161.491 135.345 190.218 87.0096 189.192 91.0565C188.166 95.1605 188.679 124.515 188.679 124.515C192.498 159.569 231.828 81.5377 231.828 81.5377C231.999 103.71 276.515 146.003 283.925 135.573C288.769 128.733 280.505 117.732 274.634 105.078C284.894 127.707 285.521 161.279 287.914 160.766C293.215 159.683 294.298 132.894 294.583 127.023C294.583 127.023 303.304 160.253 307.465 142.185C317.212 99.8344 293.443 14.222 258.389 18.9529C246.305 6.8691 223.962 -3.8467 202.359 1.34021C193.581 3.44917 184.746 5.55813 175.798 6.58411C120.281 13.025 105.518 66.832 111.617 147.143V147.314Z" fill="#FCD717"/>
<path d="M300.741 180.26C299.772 176.726 296.067 174.674 292.533 175.7C288.999 176.669 286.947 180.374 287.973 183.908C288.942 187.442 292.647 189.494 296.181 188.468C299.715 187.442 301.767 183.794 300.741 180.26Z" fill="#864DB6"/>
<path d="M307.239 159.17C308.094 158.315 309.12 157.46 310.26 156.719C314.307 154.04 318.582 153.413 319.779 155.294C320.976 157.175 318.696 160.823 314.649 163.445C310.602 166.124 309.177 166.808 305.13 164.87" stroke="#864DB6" stroke-miterlimit="10"/>
<path d="M-253.061 518.206C-253.061 518.206 -158.272 986.282 -20.7906 894.969C46.5252 850.282 -11.8417 734.346 -75.5666 624.794C-129.602 531.886 -182.326 452.43 -182.326 452.43C-182.326 452.43 -167.164 337.463 -182.326 342.479C-192.927 346.013 -202.845 372.289 -207.918 387.85C-209.343 392.182 -215.157 392.809 -217.494 388.876C-234.594 359.749 -281.561 281.034 -287.204 283.086C-304.873 289.413 -255.626 370.294 -255.626 370.294C-255.626 370.294 -306.07 290.895 -309.946 293.232C-318.439 298.304 -297.235 348.008 -282.416 379.984C-280.478 384.202 -286.007 387.736 -289.028 384.259C-309.889 360.376 -340.327 326.576 -342.778 329.882C-351.327 341.339 -303.619 410.763 -303.619 410.763C-303.619 410.763 -344.032 367.786 -351.612 375.367C-359.193 382.948 -253.061 518.149 -253.061 518.149V518.206Z" fill="#FFB0A9"/>
</g>
<defs>
<clipPath id="clip0_8_1128">
<rect width="400" height="450" fill="white"/>
</clipPath>
</defs>
</svg>
