<svg width="400" height="450" viewBox="0 0 400 450" fill="none" xmlns="http://www.w3.org/2000/svg">
<g clip-path="url(#clip0_8_1065)">
<path d="M125.937 247.134C125.937 247.134 126.821 348.774 120.858 354.184C119.478 355.399 104.13 358.104 98.8848 360.699C114.84 390.843 184.238 610.631 184.238 610.631L263.795 354.184L228.792 353.632L223.768 249.011L125.993 247.189L125.937 247.134Z" fill="#8F2A1F"/>
<path d="M127.814 250.833L221.449 252.654C221.449 252.654 209.358 290.252 175.57 289.81C138.856 289.369 127.814 250.777 127.814 250.777V250.833Z" fill="#3D1009"/>
<path d="M91.7047 131.746C91.7047 131.746 87.4536 160.676 88.613 164.099C89.7724 167.522 66.1429 153.996 68.296 176.521C69.621 190.268 76.6326 200.758 91.8703 200.758C91.8703 200.758 106.777 272.916 169.494 270.653C245.462 267.947 254.572 215.002 254.572 215.002C254.572 215.002 277.981 211.192 279.25 190.931C279.747 172.932 265.503 174.533 265.503 174.533C265.503 174.533 278.091 130.863 270.472 104.197C262.853 77.5308 263.847 31.2103 199.86 25.855C135.872 20.4997 95.8454 75.7089 93.5818 91.7196C91.3182 107.73 91.6495 131.691 91.6495 131.691L91.7047 131.746Z" fill="#8F2A1F"/>
<path d="M88.6155 164.154C88.7259 164.485 88.6154 164.596 88.2842 164.651C89.8852 165.258 91.4311 165.866 92.9218 166.473C121.299 151.622 108.712 98.0135 107.939 66.3787C99.3261 76.7028 94.3572 86.4196 93.5843 91.7197C91.3207 107.73 91.6519 131.691 91.6519 131.691C91.6519 131.691 87.4008 160.621 88.5602 164.044L88.6155 164.154Z" fill="#3D1009"/>
<path d="M244.362 108.061C246.46 122.195 251.208 157.75 258.109 170.006C260.317 173.871 264.347 173.705 265.893 173.263C267.826 166.086 277.377 128.268 270.531 104.197C266.445 89.7871 264.789 69.6357 254.078 53.2938C240.994 74.1629 240.718 83.4381 244.362 108.006V108.061Z" fill="#3D1009"/>
<path d="M235.366 40.9271C227.968 13.709 206.657 13.1569 177.341 15.3653C167.9 -26.8146 78.9583 18.2913 100.214 40.7063C65.432 46.3928 96.0179 134.065 100.932 128.986C121.193 124.403 125.058 92.4925 124.23 92.1061C141.124 115.956 178.445 101.05 183.911 81.6163C188.604 116.122 237.85 143.064 245.635 96.1915C237.85 141.96 258.167 134.12 259.658 120.704C269.982 109.773 321.051 42.6386 235.311 40.9823L235.366 40.9271Z" fill="#001019"/>
<path d="M197.103 153.002C197.103 153.002 200.415 147.702 206.875 148.64C224.873 151.235 224.321 159.572 224.321 159.572L197.103 153.002Z" fill="#000307"/>
<path d="M158.067 152.339C158.067 152.339 153.927 146.597 145.756 145.935C133.499 144.886 132.174 149.303 128.807 152.063L158.067 152.394V152.339Z" fill="#000307"/>
<path d="M190.146 217.1C190.753 216.879 184.846 231.785 168.614 230.295C153.818 228.914 151.334 212.462 151.334 212.462L190.146 217.1Z" fill="white"/>
<path d="M165.466 204.954L179.71 207.659C182.471 207.935 176.453 169.123 176.453 169.123C176.453 169.123 162.761 204.678 165.466 204.954Z" fill="#3D1009"/>
<path d="M88.0094 173.981C88.0094 173.981 89.3344 189.771 90.4938 193.194C91.6532 196.617 78.0165 190.158 78.1822 181.158C78.403 172.215 88.0094 173.926 88.0094 173.926V173.981Z" fill="#3D1009"/>
<path d="M258.992 203.463L264.9 182.484C264.9 182.484 273.181 184.25 270.807 192.311C267.55 203.463 258.992 203.463 258.992 203.463Z" fill="#3D1009"/>
<path d="M205.33 186.348C204.116 190.82 201.079 193.912 198.484 193.249C195.89 192.587 194.785 188.336 196 183.864C197.215 179.392 200.251 176.3 202.846 176.963C205.441 177.625 206.545 181.876 205.33 186.348Z" fill="#000307"/>
<path d="M156.69 181.434C156.414 186.072 154.04 189.716 151.39 189.55C148.74 189.385 146.808 185.52 147.084 180.827C147.36 176.19 149.734 172.546 152.384 172.711C155.034 172.877 156.966 176.742 156.69 181.434Z" fill="#000307"/>
<path opacity="0.68" d="M131.019 191.151C138.749 195.016 141.84 204.402 137.976 212.131C134.111 219.86 124.725 222.952 116.996 219.087C109.267 215.223 106.175 205.837 110.04 198.108C113.904 190.379 123.29 187.287 131.019 191.151Z" fill="#B54541"/>
<path opacity="0.68" d="M223.385 203.794C231.115 207.659 234.206 217.044 230.342 224.774C226.477 232.503 217.092 235.595 209.362 231.73C201.633 227.865 198.541 218.48 202.406 210.751C206.271 203.021 215.656 199.93 223.385 203.794Z" fill="#B54541"/>
<path d="M236.961 351.7C236.961 351.7 322.259 310.127 342.797 476.528C363.335 642.928 331.645 702.83 331.645 702.83C331.645 702.83 298.078 713.651 294.324 705.094C197.155 483.705 236.906 351.7 236.906 351.7H236.961Z" fill="#8F2A1F"/>
<path d="M231.058 351.313C231.058 351.313 324.251 301.294 342.746 476.473L279.752 502.807L231.058 351.313Z" fill="#F6D109"/>
<g style="mix-blend-mode:multiply">
<path d="M324.417 401.057C295.046 444.451 266.944 488.729 239.561 533.393C248.891 582.088 265.619 639.671 294.328 705.094C298.082 713.651 331.65 702.83 331.65 702.83C331.65 702.83 363.34 642.928 342.802 476.528C338.772 444.065 332.312 419.552 324.472 401.057H324.417Z" fill="#FDBF5B"/>
</g>
<path d="M238.121 341.376C247.948 351.203 317.457 515.782 319.499 565.691C321.763 620.845 311.66 668.601 311.66 668.601C311.66 668.601 20.8175 664.405 15.1861 666.668C-1.04538 518.652 -9.82367 381.292 29.8718 357.828C29.8718 357.828 114.452 326.248 125.549 333.426C156.743 353.632 197.763 381.789 238.176 341.376H238.121Z" fill="#F6D109"/>
<path d="M191.582 421.539V493.146" stroke="white" stroke-linecap="round" stroke-linejoin="round"/>
<path d="M223.161 438.599L158.235 468.798" stroke="white" stroke-linecap="round" stroke-linejoin="round"/>
<path d="M158.235 438.599L223.161 468.798" stroke="white" stroke-linecap="round" stroke-linejoin="round"/>
<g style="mix-blend-mode:multiply">
<path d="M15.5206 387.089C-6.8943 431.201 1.27667 540.57 15.1342 666.668C18.6676 665.288 133.116 666.392 218.746 667.386C149.789 574.8 81.8821 481.497 15.5206 387.034V387.089Z" fill="#FDBF5B"/>
</g>
<path d="M330.6 357.386C330.6 357.386 246.13 662.583 300.843 712.823C355.61 763.008 401.268 714.866 406.844 677.324C412.421 639.837 390.889 346.4 390.889 346.4L330.545 357.386H330.6Z" fill="#F6D109" stroke="#F6D109" stroke-miterlimit="10"/>
<path d="M328.006 359.208C328.006 359.208 293.556 190.323 301.782 187.397C326.571 182.98 326.571 262.261 338.275 257.071C352.519 252.93 349.98 185.575 368.033 197.059C375.983 194.629 361.629 265.849 361.629 265.849C361.629 265.849 391.276 285.725 393.319 291.466C395.362 297.208 391.718 346.676 391.718 346.676L328.006 359.208Z" fill="#8F2A1F"/>
<path d="M328.005 359.208C328.005 359.208 296.204 328.125 304.099 320.01C311.939 311.839 362.842 274.738 351.359 294.558C339.875 314.378 332.753 325.586 332.753 325.586L352.131 345.296" fill="#8F2A1F"/>
<path d="M324.748 300.466C324.748 300.466 335.845 279.1 347.439 281.75C359.033 284.4 324.748 300.466 324.748 300.466Z" fill="#3D1009"/>
<path d="M353.622 295.883C353.622 295.883 345.065 307.036 351.69 312.888C356.548 317.194 366.099 299.858 363.891 311.563C361.627 323.322 364.995 327.849 372.007 323.101C379.018 318.353 349.04 341.21 349.04 341.21L332.753 325.531L353.677 295.883H353.622Z" fill="#3D1009"/>
<path d="M-180.583 630.285C-196.208 610.796 -203.33 590.314 -194.772 568.893C-55.7002 392.334 52.6755 320.783 91.2115 374.115C141.949 444.341 -76.5141 595.172 -76.5141 595.172L9.33626 752.519L42.517 767.149L-7.2265 841.295L-180.528 630.285H-180.583Z" fill="#8F2A1F"/>
<path d="M-79.5506 753.291C-56.5836 740.869 -33.6718 728.282 -10.9256 715.473L-76.5693 595.172C-76.5693 595.172 141.894 444.341 91.1563 374.115C52.6203 320.783 -55.8106 392.334 -194.827 568.893C-203.33 590.314 -196.208 610.796 -180.639 630.285L-79.6058 753.347L-79.5506 753.291Z" fill="#F6D109" stroke="#F6D109" stroke-miterlimit="10"/>
<path d="M280.964 261.046C280.964 250.005 261.033 207.825 261.033 207.825C261.033 207.825 241.103 250.005 241.103 261.046C241.103 272.088 250.046 280.977 261.033 280.977C272.02 280.977 280.964 272.033 280.964 261.046Z" fill="#2FBCED"/>
<path d="M281.574 195.734C281.574 193.028 279.366 190.82 276.661 190.82C273.955 190.82 271.747 193.028 271.747 195.734C271.747 198.439 273.955 200.647 276.661 200.647C279.366 200.647 281.574 198.439 281.574 195.734Z" fill="#2FBCED"/>
</g>
<defs>
<clipPath id="clip0_8_1065">
<rect width="400" height="450" fill="white"/>
</clipPath>
</defs>
</svg>
