<svg width="400" height="450" viewBox="0 0 400 450" fill="none" xmlns="http://www.w3.org/2000/svg">
<g clip-path="url(#clip0_8_533)">
<g clip-path="url(#clip1_8_533)">
<path d="M309.898 109.799C290.518 87.6046 278.223 22.0768 226.992 4.91898C177.751 -11.5362 138.054 18.6218 138.054 18.6218C86.9989 10.365 63.9302 48.2528 61.7639 72.4378C59.5975 96.6227 60.1245 122.916 45.3113 146.574C30.4982 170.173 -2.46541 222.876 18.4369 255.552C26.6339 268.436 38.6366 276.165 56.7871 280.909C43.3206 256.782 54.7964 224.223 54.7964 224.223C54.2695 258.071 65.5111 275.873 73.4153 284.129C100.875 288.111 139.167 288.053 193.267 288.053C256.325 288.053 311.011 256.431 345.907 229.845C339.7 215.205 327.815 189.263 314.582 172.047C314.582 172.047 340.11 196.818 357.5 220.593C375.767 205.426 386.189 193.714 386.189 193.714C371.376 156.939 343.916 148.682 309.898 109.74V109.799Z" fill="#5B40C9"/>
<path d="M291.923 169.88C291.923 169.88 317.275 203.903 331.796 240.093" stroke="#3F2D8C" stroke-width="0.5" stroke-miterlimit="10"/>
<path d="M298.54 205.016C298.54 205.016 311.245 224.106 320.554 247.53" stroke="#3F2D8C" stroke-width="0.5" stroke-miterlimit="10"/>
<path d="M61.8221 135.857C55.2645 160.569 18.9049 201.385 27.219 265.976" stroke="#3F2D8C" stroke-width="0.5" stroke-miterlimit="10"/>
<path d="M64.2815 205.016C64.2815 205.016 60.1244 246.183 86.8817 285.711" stroke="#3F2D8C" stroke-width="0.5" stroke-miterlimit="10"/>
<path d="M-33.3799 415.829C-33.3799 415.829 8.6004 388.014 101.519 348.369L236.769 327.17C236.769 327.17 259.604 326.819 281.619 326.936C292.626 326.995 302.872 332.558 308.844 341.81C322.545 362.833 345.907 404.703 353.284 455.415C363.998 528.731 424.071 857.249 424.071 857.249C424.071 857.249 460.313 909.132 455.336 936.304C450.418 963.475 417.455 967.574 372.196 967.574H32.8401L-33.3799 415.829Z" fill="#FFA3CB"/>
<path d="M108.486 218.016L117.269 341.459L101.519 348.369C101.519 348.369 143.324 443.001 213.349 435.856C260.365 431.055 236.828 327.112 236.828 327.112H217.272L213.408 273.355L108.604 217.958L108.486 218.016Z" fill="#FF6969"/>
<path d="M213.291 273.354L114.927 221.354V233.827C114.927 233.827 118.557 327.58 216.101 311.828L213.349 273.354H213.291Z" fill="#AB251D"/>
<path d="M274.475 367.401C265.517 378.937 261.36 392.23 262.004 403.883C273.48 401.599 285.307 394.279 294.265 382.743C303.223 371.207 307.38 357.914 306.736 346.261C295.261 348.545 283.434 355.864 274.475 367.401Z" fill="#FF8630"/>
<path d="M85.8277 414.424C98.1232 422.271 111.707 425.199 123.3 423.559C119.962 412.374 111.59 401.248 99.2942 393.342C86.9987 385.495 73.4152 382.567 61.8223 384.207C65.1596 395.392 73.5322 406.518 85.8277 414.424Z" fill="#FF8630"/>
<path d="M291.924 328.751C335.133 336.833 395.264 390.356 442.982 448.798C490.759 507.24 564.005 627.521 591.172 680.224C618.339 732.927 601.067 807.063 536.838 830.897C472.609 854.73 228.924 845.712 228.924 845.712L271.724 774.094L448.72 719.751L369.034 550.632C369.034 550.632 344.15 382.977 291.865 328.81L291.924 328.751Z" fill="#FF6969"/>
<path d="M124.002 357.797L172.071 361.486" stroke="#AB251D" stroke-width="0.5" stroke-miterlimit="10"/>
<path d="M375.533 436.266C375.533 436.266 388.941 427.482 406.798 427.365C406.798 427.365 401.353 445.987 388.297 459.456L375.533 436.208V436.266Z" fill="#FCA750"/>
<path d="M317.686 399.55L336.012 375.072C336.012 375.072 340.579 393.167 338.646 403.883L317.686 399.55Z" fill="#FCA750"/>
<path d="M320.496 656.273L95.6053 791.311C95.6053 791.311 42.7347 559.651 30.6734 489.379C25.4039 458.87 14.5722 438.901 3.97462 426.077C-9.49187 409.797 -34.4927 409.915 -48.2519 425.901C-66.578 447.217 -88.0659 487.506 -86.7778 558.538C-84.6114 681.512 -76.8828 794.883 -65.934 877.1C-54.9852 959.317 6.49227 1048.27 106.437 985.669C206.323 923.069 334.782 693.634 334.782 693.634C334.782 693.634 351.234 693.4 364.818 661.251C364.818 661.251 373.952 654.575 386.657 650.124C394.913 647.255 398.543 643.332 397.781 641.048C396.552 637.534 374.01 642.043 364.115 647.021C377.289 636.305 383.788 633.669 394.503 628.282C405.217 622.894 397.372 615.926 383.085 621.196C372.956 624.885 354.981 638.588 354.981 638.588C354.981 638.588 361.539 624.183 375.591 615.926C389.584 607.669 399.479 602.75 396.201 597.831C392.922 592.912 373.835 600.291 365.169 606.908C356.504 613.466 345.965 625.822 345.965 625.822C345.965 625.822 349.653 609.367 354.63 603.16C359.548 597.011 371.902 592.444 373.132 588.345C374.361 584.245 366.574 581.317 352.932 591.214C339.29 601.11 335.25 618.385 335.25 618.385L320.613 656.273H320.496Z" fill="#FF6969"/>
<path d="M390.639 467.713C390.112 442.591 381.329 422.036 362.769 407.572C349.302 397.09 311.303 389.067 283.726 407.572C256.149 426.077 249.709 466.483 276.408 494.357C323.775 543.781 391.4 507.064 390.58 467.654L390.639 467.713Z" fill="white"/>
<path d="M310.718 431.23C311.362 434.275 309.371 437.262 306.327 437.906C303.282 438.55 300.296 436.559 299.652 433.514C299.008 430.469 300.999 427.482 304.043 426.838C307.088 426.194 310.074 428.185 310.718 431.23Z" fill="#4A1E1E"/>
<path d="M339.29 444.64C339.934 447.685 337.943 450.672 334.899 451.316C331.854 451.96 328.868 449.969 328.224 446.924C327.58 443.879 329.571 440.893 332.615 440.248C335.66 439.604 338.646 441.595 339.29 444.64Z" fill="#4A1E1E"/>
<path d="M304.863 446.046L317.041 453.073C317.041 453.073 314.289 457.172 307.146 457.113C307.146 457.113 303.341 454.185 304.863 446.046Z" fill="#E64C4C"/>
<path d="M279.16 443.411L259.428 451.609" stroke="#BA6528" stroke-width="0.5" stroke-miterlimit="10"/>
<path d="M279.16 432.401H263.527" stroke="#BA6528" stroke-width="0.5" stroke-miterlimit="10"/>
<path d="M158.547 112.375C158.547 112.375 179.156 157.231 241.688 156.002C224.006 149.443 204.216 132.11 200.117 120.163C218.619 136.619 246.196 147.745 263.527 151.434L251.173 214.034C251.173 214.034 255.33 251.16 229.334 274.174C214.93 286.94 177.048 297.657 143.265 276.224C109.482 254.791 107.023 207.475 107.023 207.475C107.023 207.475 82.7245 218.192 76.5768 191.84C70.4291 165.488 94.2589 135.447 113.229 162.619C113.229 162.619 145.724 145.344 158.488 112.375H158.547Z" fill="#FF6969"/>
<path d="M104.212 192.66C111.238 183.173 107.14 163.205 96.3666 161.975C91.4484 161.389 86.1789 167.597 84.481 176.088" stroke="#E64C4C" stroke-width="0.5" stroke-miterlimit="10"/>
<path d="M162.001 184.579C171.076 173.335 191.042 173.511 196.487 186.101" stroke="#AB251D" stroke-width="0.94" stroke-linecap="round" stroke-linejoin="round"/>
<path d="M215.867 186.335C223.771 176.615 241.044 176.79 245.728 187.682" stroke="#AB251D" stroke-width="0.94" stroke-linecap="round" stroke-linejoin="round"/>
<path d="M209.193 193.772L210.305 213.273C210.305 213.273 217.858 215.498 217.155 219.304C215.867 226.449 204.274 223.696 204.274 223.696" stroke="#AB251D" stroke-width="0.94" stroke-linecap="round" stroke-linejoin="round"/>
<path d="M223.83 236.169L174.414 232.07C174.414 232.07 180.737 249.931 203.103 249.931C220.258 249.931 223.83 236.228 223.83 236.228V236.169Z" fill="white"/>
<path d="M162.001 232.07C169.762 232.07 176.053 225.778 176.053 218.016C176.053 210.254 169.762 203.962 162.001 203.962C154.241 203.962 147.949 210.254 147.949 218.016C147.949 225.778 154.241 232.07 162.001 232.07Z" fill="#E64C4C"/>
<path d="M189.695 255.552C189.695 255.552 200.703 261.291 213.291 257.192" stroke="#AB251D" stroke-width="0.5" stroke-miterlimit="10"/>
<path d="M156.498 162.268L193.267 159.457" stroke="#3F2D8C" stroke-width="2" stroke-miterlimit="10"/>
<path d="M218.561 162.268L250.119 169.88" stroke="#3F2D8C" stroke-width="2" stroke-miterlimit="10"/>
</g>
</g>
<defs>
<clipPath id="clip0_8_533">
<rect width="400" height="450" fill="white"/>
</clipPath>
<clipPath id="clip1_8_533">
<rect width="856" height="1955" fill="white" transform="translate(-228)"/>
</clipPath>
</defs>
</svg>
