<svg width="400" height="450" viewBox="0 0 400 450" fill="none" xmlns="http://www.w3.org/2000/svg">
<g clip-path="url(#clip0_2_2389)">
<path d="M376.734 248.262C376.734 248.262 396.877 308.167 399.897 315.729C402.917 323.291 338.47 437.562 338.47 437.562C338.47 437.562 342.489 460.225 339.469 472.306C336.449 484.387 315.307 505.529 315.307 505.529L306.246 419.44L337.448 332.852L315.307 289.546L376.734 248.262Z" fill="#FFB0A9"/>
<path d="M133.863 840.051C138.541 824.269 210.686 544.52 215.614 532.189C221.655 517.088 226.196 518.337 229.217 528.17L254.696 631.631C255.105 633.992 254.718 657.178 254.9 659.562L254.696 849.112L287.919 850.634L330.407 659.085C331.678 651.024 333.064 625.704 332.678 617.551C330.793 577.311 315.805 454.911 301.725 368.278C296.162 334.078 159.115 348.544 159.115 348.544C127.322 471.92 90.2845 782.689 89.5352 840.846L133.885 840.097L133.863 840.051Z" fill="#864DB6"/>
<g style="mix-blend-mode:soft-light">
<path d="M326.639 547.813C323.438 494.833 310.516 422.347 301.728 368.255C296.164 334.055 159.117 348.521 159.117 348.521C151.374 378.587 144.266 406.769 137.816 432.975C199.175 468.06 266.439 510.797 326.639 547.813Z" fill="black"/>
</g>
<path d="M201.673 382.788L185.096 435.768C180.1 451.732 158.458 466.765 140.269 466.402L129.709 465.266" stroke="white" stroke-width="0.48" stroke-miterlimit="10"/>
<path d="M272.909 381.29L268.231 436.222C266.823 452.777 277.201 468.173 293.506 473.691L314.557 481.367" stroke="white" stroke-width="0.48" stroke-miterlimit="10"/>
<path d="M182.959 133.946C213.82 130.653 244.068 144.551 268.208 129.563C342.488 83.3965 383.25 246.513 383.25 246.513L313.512 292.748L322.3 432.066C322.3 432.066 258.874 458.545 124.325 443.103C118.466 442.421 137.587 351.995 142.265 300.378C142.447 298.38 69.5518 282.779 69.5518 282.779C76.7731 288.138 92.9872 202.299 108.384 168.736C124.62 133.333 140.108 138.533 182.959 133.969V133.946Z" fill="#FFD91E"/>
<path d="M293.325 121.365C287.262 142.803 286.263 165.875 286.49 188.084C286.831 219.808 286.967 253.053 293.734 284.142C297.935 303.512 305.27 321.656 316.352 337.689L313.513 292.726L383.252 246.491C383.252 246.491 351.596 119.958 293.303 121.343L293.325 121.365Z" fill="#32B8FF"/>
<path d="M178.963 411.674C207.599 385.286 256.627 393.689 290.849 400.978C300.909 403.135 310.901 405.656 320.825 408.427L318.713 375.113C317.782 374.204 316.828 373.364 315.92 372.433C281.879 337.961 268.89 293.157 266.051 245.764C263.848 209.089 260.17 167.691 267.573 129.881C243.547 144.279 213.526 130.653 182.96 133.901C169.675 135.309 159.025 135.786 150.169 136.83C165.542 146.663 180.189 157.654 193.27 170.28C212.731 189.037 231.897 215.448 229.013 244.015C226.22 271.697 199.469 292.885 179.667 309.394C163.589 322.792 147.693 335.486 135.544 351.609C128.618 396.641 120.148 442.558 124.326 443.035C137.929 444.602 150.759 445.714 162.908 446.486C164.134 433.474 168.653 421.121 178.963 411.628V411.674Z" fill="#F63691"/>
<path d="M185.593 447.599C271.818 450.233 315.986 434.496 321.663 432.316C275.179 418.123 193.291 399.343 185.593 447.599Z" fill="#F63691"/>
<path d="M142.288 300.356C141.948 304.148 141.516 308.168 141.039 312.346C143.674 309.962 146.376 307.623 149.124 305.329C160.455 295.928 172.037 286.776 182.71 276.625C191.498 268.246 201.99 258.276 205.555 246.264C213.026 221.193 187.274 194.942 170.538 180.204C156.05 167.442 139.859 156.587 123.054 146.936C117.786 151.591 113.13 158.449 108.407 168.713C93.6236 200.937 78.1135 281.258 70.4834 282.961C78.8402 284.755 142.447 298.494 142.288 300.356Z" fill="#864DB6"/>
<g style="mix-blend-mode:multiply" opacity="0.45">
<g style="mix-blend-mode:multiply">
<path d="M169.332 360.284C159.772 346.318 149.985 332.148 140.379 317.728C133.861 369.958 119.101 442.49 124.346 443.103C170.241 448.371 207.824 448.757 237.481 446.986C212.979 419.577 190.156 390.691 169.355 360.307L169.332 360.284Z" fill="#113C5E"/>
</g>
</g>
<path d="M190.499 13.1583C189.75 15.4292 174.648 102.267 174.648 102.267L186.729 103.789L188.251 93.2066C188.251 93.2066 190.522 108.308 192.793 108.308C195.064 108.308 251.699 103.017 251.699 103.017C251.699 103.017 275.861 25.2394 247.157 10.8875C218.454 -3.46445 190.522 13.1583 190.522 13.1583H190.499Z" fill="#FCD717"/>
<path d="M204.442 87.0979L201.808 134.605C201.808 134.605 230.534 220.807 256.354 133.287L248.224 86.235L204.465 87.1206L204.442 87.0979Z" fill="#FFB0A9"/>
<path d="M199.65 32.8695L200.036 79.9674C200.036 79.9674 234.054 150.682 245.113 79.536L231.397 28.1007L199.65 32.8695Z" fill="#D87373"/>
<path d="M259.942 59.8248L250.563 58.1898L249.541 69.2716L258.92 70.9067C261.804 71.4062 264.37 69.3397 264.665 66.2968C264.938 63.2311 262.848 60.3471 259.942 59.8475V59.8248Z" fill="#FFB0A9"/>
<path d="M259.397 62.6406L255.537 61.9594L255.105 66.5238L258.966 67.2051C260.147 67.4094 261.214 66.5692 261.328 65.2975C261.441 64.0258 260.578 62.845 259.375 62.6406H259.397Z" fill="#FF7B7B"/>
<path d="M188.297 70.6114L197.653 69.635L195.746 58.5758L186.367 59.5523C183.483 59.8475 181.576 62.5725 182.098 65.6382C182.62 68.7039 185.391 70.9294 188.275 70.6114H188.297Z" fill="#FFB0A9"/>
<path d="M186.864 63.1176L190.724 62.6407L191.587 67.2052L187.727 67.6821C186.546 67.8183 185.388 66.9327 185.138 65.661C184.911 64.412 185.66 63.2539 186.864 63.1176Z" fill="#FF7B7B"/>
<path d="M225.197 99.9284C228.444 100.133 247.792 101.563 255.558 66.1832L255.445 64.7526C253.923 46.0633 240.775 17.2459 223.357 17.632V17.4276C205.962 17.8136 190.816 47.4712 192.337 66.1605L192.451 67.5912C202.397 96.4767 218.884 100.337 225.197 99.9284Z" fill="#FFB0A9"/>
<path d="M231.944 61.8231C232.08 63.1856 232.988 64.2075 233.987 64.1167C234.987 64.0259 235.691 62.845 235.554 61.4825C235.418 60.12 234.51 59.0981 233.511 59.1889C232.511 59.2797 231.807 60.4606 231.944 61.8231Z" fill="#001019"/>
<path d="M215.388 62.6407C215.525 64.0032 216.456 65.0251 217.455 64.9343C218.454 64.8208 219.135 63.6399 218.999 62.2774C218.863 60.9149 217.932 59.893 216.933 59.9838C215.933 60.0973 215.252 61.2782 215.388 62.6407Z" fill="#001019"/>
<path d="M223.041 74.5173L227.015 74.3356C227.515 74.3129 224.676 59.416 224.676 59.416C224.427 58.8029 222.519 74.54 223.041 74.5173Z" fill="#FF7B7B"/>
<path d="M242.411 53.3301C245.454 53.9887 240.368 50.2645 236.893 49.3334C233.396 48.4023 229.581 48.9019 228.786 51.8995C228.786 51.8995 235.917 51.8995 242.434 53.3301H242.411Z" fill="#001019"/>
<path d="M206.826 56.2823C203.783 56.9408 208.075 52.8078 211.55 51.8768C215.047 50.9457 218.476 51.7178 219.293 54.7381C219.293 54.7381 213.344 54.8743 206.826 56.305V56.2823Z" fill="#001019"/>
<path d="M216.547 78.4005C216.547 78.4005 230.445 77.9009 235.168 76.9018C235.168 76.9018 232.784 83.9188 225.948 85.3948C219.204 86.8482 216.547 78.4005 216.547 78.4005Z" fill="white"/>
<path d="M184.708 56.691C187.364 58.326 191.588 41.4307 191.429 41.9303C190.362 45.2912 190.067 63.867 191.27 62.9813C195.608 59.7794 201.421 40.0909 201.421 40.0909L197.038 54.1703C204.578 51.9222 216.023 32.6652 215.614 34.2775C215.205 35.9125 215.41 47.6075 215.41 47.6075C216.931 61.5734 232.6 30.4851 232.6 30.4851C232.668 39.3188 250.404 56.1687 253.356 52.013C255.286 49.288 251.994 44.9052 249.655 39.8638C253.742 48.8792 253.992 62.2546 254.946 62.0503C257.058 61.6188 257.489 50.9457 257.603 48.6067C257.603 48.6067 261.077 61.8459 262.735 54.6472C266.618 37.7746 257.148 3.66612 243.183 5.55094C238.368 0.736693 229.466 -3.53255 220.86 -1.46605C217.363 -0.625831 213.843 0.214392 210.278 0.623149C188.159 3.18924 182.278 24.6263 184.708 56.6229V56.691Z" fill="#FCD717"/>
<path d="M260.056 69.8167C259.67 68.4087 258.194 67.5912 256.786 68C255.378 68.386 254.561 69.8621 254.97 71.27C255.356 72.678 256.832 73.4955 258.24 73.0867C259.648 72.678 260.465 71.2246 260.056 69.8167Z" fill="#864DB6"/>
<path d="M262.645 61.4144C262.986 61.0738 263.394 60.7331 263.848 60.4379C265.461 59.3706 267.164 59.1208 267.641 59.8702C268.118 60.6196 267.209 62.073 265.597 63.1176C263.985 64.1849 263.417 64.4574 261.805 63.6853" stroke="#864DB6" stroke-miterlimit="10"/>
<path d="M39.4178 204.457C39.4178 204.457 77.1824 390.941 131.956 354.561C158.775 336.758 135.521 290.568 110.133 246.922C88.6049 209.907 67.5994 178.251 67.5994 178.251C67.5994 178.251 73.6399 132.447 67.5994 134.446C63.3755 135.854 59.4242 146.322 57.4031 152.522C56.8354 154.248 54.5191 154.497 53.5881 152.931C46.7755 141.326 28.0635 109.966 25.8153 110.783C18.7756 113.304 38.3959 145.528 38.3959 145.528C38.3959 145.528 18.2987 113.894 16.7545 114.825C13.3709 116.846 21.8186 136.648 27.7228 149.388C28.4949 151.068 26.2922 152.476 25.0886 151.091C16.7772 141.576 4.65075 128.11 3.67428 129.427C0.267969 133.991 19.2752 161.651 19.2752 161.651C19.2752 161.651 3.17469 144.528 0.154425 147.549C-2.86584 150.569 39.4178 204.434 39.4178 204.434V204.457Z" fill="#FFB0A9"/>
</g>
<defs>
<clipPath id="clip0_2_2389">
<rect width="400" height="450" fill="white"/>
</clipPath>
</defs>
</svg>
