<svg width="400" height="450" viewBox="0 0 400 450" fill="none" xmlns="http://www.w3.org/2000/svg">
<g clip-path="url(#clip0_1_1948)">
<g clip-path="url(#clip1_1_1948)">
<path d="M338.06 94.6516C332.856 101.876 324.197 105.489 315.539 106.375C317.377 108.569 318.417 111.383 318.506 114.309C318.728 121.29 313.856 127.007 307.456 129.246C300.414 131.75 292.906 129.844 286.639 126.165C285.089 128.98 282.985 131.462 280.394 133.434C275.39 137.246 268.879 138.93 262.656 137.733C256.743 136.603 251.362 133.08 247.952 128.093C242.881 133.235 235.174 135.672 228.11 133.9C221.223 132.149 215.531 126.764 213.317 120.026C209.53 121.689 205.19 121.954 201.181 120.935C193.364 118.985 187.097 112.602 186.632 104.358C186.211 97.0228 189.976 89.5988 196.354 85.92C193.873 84.3908 191.947 82.1082 190.707 79.4488C187.85 73.2879 188.736 65.9968 192.589 60.4786C196.797 54.4729 203.706 50.927 210.704 49.2649C208.644 41.4419 209.264 33.1314 212.254 25.6186C217.901 11.2802 231.786 1.88373 246.889 0.288101C262.457 -1.35185 277.848 5.62901 288.145 17.153C288.212 17.2194 288.212 17.2416 288.234 17.3081C288.787 17.2195 289.319 17.0865 289.895 17.0643C295.874 16.6433 301.587 19.5242 304.975 24.3776C308.364 29.1866 309.515 35.1702 309.427 40.9765C312.97 38.8934 317 37.6301 321.141 37.6523C328.516 37.6966 335.846 42.3949 337.595 49.819C338.924 55.4258 336.045 61.5867 331.062 64.1796C334.318 65.3985 337.13 67.6589 339.167 70.5399C344.394 77.9197 343.198 87.6264 338.06 94.6959V94.6516Z" fill="#36344C"/>
<path d="M296.184 78.3186C295.719 82.6401 293.947 86.8729 290.803 89.8425C288.234 92.3025 284.735 93.8538 281.192 93.8759L279.951 136.382C279.951 136.382 278.8 138.819 276.74 142.653C268.525 157.967 245.782 195.619 223.481 190.123C202.842 185.026 214.601 157.989 222.108 144.315C224.744 139.529 226.803 136.16 226.803 136.16L231.919 136.382L234.133 120.891C235.418 121.334 236.768 121.689 238.119 121.954C239.492 122.22 240.887 122.376 242.327 122.442C243.633 122.486 244.918 122.442 246.18 122.309C246.645 122.309 247.11 122.22 247.553 122.154C248.461 122.043 249.347 121.844 250.233 121.622C250.653 121.533 251.074 121.423 251.473 121.29C251.561 121.29 251.606 121.29 251.672 121.223C252.491 120.979 253.267 120.691 254.064 120.359C254.374 120.248 254.684 120.115 254.994 119.96C255.171 119.893 255.37 119.805 255.548 119.694C255.858 119.561 256.168 119.406 256.478 119.229C257.496 118.697 258.493 118.098 259.401 117.434C259.822 117.145 260.22 116.857 260.619 116.547C260.729 116.458 260.818 116.392 260.907 116.325C261.35 115.971 261.792 115.594 262.213 115.195C262.678 114.796 263.121 114.375 263.542 113.932C263.941 113.533 264.317 113.112 264.693 112.669C264.693 112.625 264.738 112.602 264.782 112.558C265.181 112.093 265.557 111.605 265.934 111.118C266.997 109.721 267.949 108.192 268.68 106.574C268.945 106.087 269.167 105.599 269.366 105.09C269.588 104.58 269.765 104.092 269.942 103.56C269.942 103.516 269.942 103.472 269.986 103.45C270.318 102.452 270.628 101.433 270.85 100.369C270.961 99.8373 271.071 99.2833 271.16 98.7293C271.271 98.1752 271.337 97.599 271.381 97.045C271.448 96.491 271.492 95.9148 271.492 95.3386L271.558 93.4992L272.666 63.9358C275.146 66.2627 277.006 67.5703 277.228 67.7254C278.291 64.512 281.701 62.2737 285.111 62.2737C286.484 62.2737 287.835 62.5839 289.075 63.1823C291.157 64.1131 292.973 65.7309 294.169 67.7032C296.095 70.8058 296.649 74.6619 296.25 78.3186H296.184Z" fill="#E88846"/>
<path d="M234.111 120.891L231.896 136.382C258.803 136.116 267.882 108.015 267.882 108.015C262.9 116.946 253.2 122.819 242.305 122.42C239.448 122.309 236.68 121.777 234.111 120.891Z" fill="#C4532C"/>
<path d="M273.618 66.2849L272.533 95.1391L272.466 96.9342C272.466 97.5104 272.4 98.0423 272.356 98.5963C272.289 99.1503 272.245 99.6822 272.134 100.236C272.046 100.79 271.957 101.322 271.846 101.832C271.625 102.873 271.337 103.871 271.005 104.846C271.005 104.846 270.96 104.912 270.96 104.934C270.783 105.422 270.584 105.932 270.385 106.419C270.163 106.907 269.964 107.372 269.72 107.86C269.499 108.325 269.255 108.791 268.99 109.256C268.923 109.367 268.857 109.478 268.79 109.588C268.591 109.921 268.414 110.253 268.192 110.586C267.816 111.184 267.439 111.76 267.019 112.314C266.664 112.802 266.288 113.267 265.911 113.733C265.867 113.777 265.845 113.799 265.823 113.821C265.446 114.242 265.07 114.641 264.693 115.062C264.273 115.483 263.852 115.904 263.409 116.303C262.988 116.68 262.567 117.057 262.147 117.389C262.058 117.456 261.97 117.522 261.881 117.611C261.504 117.899 261.106 118.209 260.685 118.475C259.777 119.118 258.825 119.716 257.828 120.226C257.54 120.381 257.23 120.536 256.92 120.669C256.743 120.758 256.544 120.869 256.367 120.913C256.079 121.046 255.769 121.179 255.459 121.312C254.706 121.622 253.909 121.91 253.134 122.154C253.067 122.198 253.023 122.22 252.934 122.22C252.514 122.331 252.137 122.464 251.716 122.553C250.853 122.774 249.989 122.952 249.103 123.085C248.682 123.151 248.217 123.196 247.774 123.24C246.534 123.351 245.294 123.395 244.01 123.351C242.593 123.306 241.242 123.151 239.891 122.907C238.562 122.664 237.256 122.309 235.993 121.866C224.899 118.032 217.104 107.261 217.569 94.9175L219.185 50.9049C223.193 51.3259 226.847 51.4367 230.191 51.3481C231.631 51.2816 232.982 51.2373 234.31 51.1265C252.669 49.686 259.246 41.8187 259.246 41.8187C259.91 45.3867 261.084 48.6444 262.523 51.5919C265.712 58.1517 270.252 63.138 273.596 66.2627L273.618 66.2849Z" fill="#E88846"/>
<path d="M290.382 64.8666C274.659 33.907 253.112 23.4025 219.34 29.3418L219.097 19.2361C258.67 11.4796 282.277 25.397 290.382 64.8666Z" fill="#F2B34E"/>
<path d="M318.617 39.4917C317.332 36.8323 314.675 35.281 312.062 34.1286C306.968 31.8682 301.299 31.0039 295.741 31.4249C292.131 31.6909 288.588 32.5552 285.266 33.907C288.101 31.1812 290.847 28.3667 293.327 25.3084C295.409 22.7376 297.313 20.0118 298.93 17.1086C300.458 14.3606 302.096 11.258 302.606 8.11109C303.071 5.2301 301.941 2.39344 298.952 1.5513C295.763 0.664843 292.773 2.50424 290.315 4.34364C285.488 7.97812 281.679 12.898 279.176 18.3718C278.534 19.768 278.003 21.1863 277.538 22.649C277.449 21.6517 277.383 20.6323 277.272 19.635C276.895 16.5989 276.32 13.5628 275.456 10.6153C274.703 8.04461 273.861 4.8312 271.603 3.14692C269.72 1.75075 267.129 1.75075 265.535 3.56799C263.94 5.40739 263.741 8.15541 263.675 10.4602C263.498 15.6017 264.516 20.7653 266.576 25.4857C267.24 27.0148 268.037 28.4996 268.923 29.918C264.428 27.7461 259.356 26.7932 254.374 27.4359C252.381 27.6797 250.277 28.2558 248.837 29.7628C247.265 31.4028 247.066 33.8627 247.93 35.9016C249.812 40.2895 255.547 42.0846 259.866 42.683C264.007 43.237 268.192 42.8602 272.333 42.1954C269.211 44.1013 266.199 46.1401 263.52 48.6444C260.242 51.747 256.92 55.9355 256.145 60.5229C255.813 62.5396 256.212 64.7558 257.961 66.019C259.6 67.1935 261.77 67.0827 263.63 66.5508C267.904 65.3098 271.47 61.5867 273.817 57.9522C275.855 54.7831 277.183 51.2816 278.113 47.6471C278.512 50.927 279.021 54.1626 279.885 57.3538C280.571 59.9024 281.457 62.4066 282.697 64.7558C283.738 66.7281 285.178 68.5897 287.326 69.3875C291.843 71.0939 294.921 67.0384 295.342 62.9385C295.829 58.1073 294.058 53.1875 291.29 49.2871C289.518 46.7828 287.281 44.6996 284.823 42.9046C289.363 44.1899 293.903 45.4088 298.509 46.4282C302.008 47.2039 305.529 47.9352 309.094 48.3563C311.951 48.6887 315.073 48.5779 317.332 46.5612C319.392 44.744 319.768 41.9073 318.617 39.4695V39.4917ZM288.455 8.51C290.404 6.60411 292.818 4.47661 295.431 3.59015C296.804 3.12476 298.553 3.08044 299.727 4.09987C300.901 5.11929 300.878 6.75924 300.591 8.15541C300.015 10.9921 298.531 13.7844 297.136 16.2665C295.674 18.9037 293.925 21.3636 292.065 23.7127C288.012 28.7656 283.295 33.22 278.445 37.4972C278.268 37.2756 278.091 37.0539 277.892 36.8323C277.892 36.7437 277.892 36.655 277.87 36.5664C277.892 34.6383 277.914 32.7325 277.892 30.8044C278.623 22.4274 282.387 14.3828 288.455 8.48783V8.51ZM265.712 14.0725C265.535 11.8342 265.513 9.46294 265.978 7.26895C266.177 6.36034 266.509 5.36307 267.196 4.69823C268.237 3.72312 269.654 4.05554 270.673 4.91984C272.577 6.55979 273.241 9.88401 273.884 12.211C274.614 14.9368 275.102 17.7292 275.412 20.5437C275.788 23.8236 275.921 27.1478 275.965 30.4498C275.832 31.846 275.81 33.2643 275.832 34.6827C274.991 33.8849 274.105 33.1535 273.175 32.4887C268.923 27.3029 266.266 20.8318 265.734 14.0947L265.712 14.0725ZM264.273 41.0208C260.021 41.0652 255.127 40.3117 251.694 37.5858C250.011 36.2561 248.594 33.8627 249.768 31.7574C250.72 30.0731 253.001 29.6077 254.772 29.3861C258.714 28.9207 262.767 29.519 266.443 30.9817C268.347 31.7352 270.119 32.7325 271.758 33.907C273.02 35.414 274.393 36.8102 275.877 38.0955C275.877 38.4944 275.877 38.8712 275.877 39.2701C275.877 39.3809 275.899 39.4695 275.943 39.5582C272.09 40.3117 268.214 40.9765 264.273 41.0208ZM265.579 63.5369C264.051 64.4677 262.147 65.2876 260.331 64.933C258.072 64.512 257.74 62.2072 258.205 60.3013C259.179 56.2236 262.191 52.5448 265.225 49.7525C268.857 46.4282 273.131 43.924 277.405 41.4862C276.076 49.8411 273.219 58.8608 265.601 63.5369H265.579ZM293.371 59.8359C293.703 62.9828 292.685 69.4983 287.946 67.5703C285.931 66.7503 284.779 64.7114 283.915 62.8277C282.963 60.7889 282.232 58.6392 281.657 56.4452C280.394 51.6805 279.929 46.7607 279.464 41.8851C286.351 45.6526 292.508 51.6362 293.371 59.8138V59.8359ZM315.915 45.2315C313.59 47.1374 310.334 46.6277 307.588 46.2066C304.488 45.7191 301.41 45.1207 298.354 44.4337C291.976 42.9932 285.665 41.1981 279.398 39.3809C287.547 33.5081 298.487 31.713 308.098 34.7492C310.556 35.5248 313.191 36.5442 315.162 38.2285C317.244 40.0014 318.351 43.2592 315.937 45.2537L315.915 45.2315Z" fill="#F4E9DC"/>
<path d="M265.114 93.5213C268.991 93.5213 272.134 90.376 272.134 86.4961C272.134 82.6162 268.991 79.4709 265.114 79.4709C261.237 79.4709 258.094 82.6162 258.094 86.4961C258.094 90.376 261.237 93.5213 265.114 93.5213Z" fill="#C4532C"/>
<path d="M229.815 62.3623C229.549 61.7196 229.084 61.0991 228.42 60.811C228.176 60.7445 227.955 60.6559 227.711 60.5894C227.224 60.5008 226.737 60.5451 226.272 60.7224L220.071 62.2072C219.451 62.3623 218.787 63.0493 218.521 63.6034C218.233 64.2239 218.145 65.1103 218.41 65.753C218.676 66.3957 219.141 67.0162 219.805 67.3043C220.049 67.3708 220.271 67.4594 220.514 67.5259C221.001 67.6146 221.488 67.5703 221.954 67.393L228.154 65.9081C228.774 65.753 229.439 65.066 229.704 64.512C229.992 63.8915 230.081 63.005 229.815 62.3623Z" fill="#36344C"/>
<path d="M246.025 61.6088C246.313 60.9662 246.823 60.3678 247.487 60.124C247.73 60.0575 247.974 59.9911 248.196 59.9246C248.683 59.8581 249.17 59.9246 249.635 60.1019L255.769 61.8526C256.389 62.0299 257.009 62.7612 257.253 63.3153C257.519 63.958 257.563 64.8444 257.253 65.4649C256.965 66.1076 256.456 66.706 255.791 66.9498C255.548 67.0162 255.304 67.0827 255.083 67.1492C254.595 67.2157 254.108 67.1492 253.643 66.9719L247.509 65.2212C246.889 65.0439 246.269 64.3125 246.025 63.7585C245.76 63.1158 245.715 62.2294 246.025 61.6088Z" fill="#36344C"/>
<path d="M231.697 70.6064C228.154 72.7782 223.592 72.889 219.916 71.0275C218.676 70.4069 217.79 72.3571 219.03 72.9998C223.415 75.2381 228.796 74.95 232.96 72.3571C234.133 71.6258 232.871 69.8972 231.697 70.6064Z" fill="#36344C"/>
<path d="M245.56 70.1632C249.103 72.335 253.665 72.4458 257.341 70.5842C258.582 69.9637 259.467 71.9139 258.227 72.5566C253.843 74.7949 248.461 74.5068 244.298 71.9139C243.124 71.1826 244.387 69.454 245.56 70.1632Z" fill="#36344C"/>
<path d="M248.195 104.174C250.648 103.879 252.316 100.98 251.922 97.6985C251.528 94.4175 249.219 91.9972 246.766 92.2925C244.314 92.5878 242.645 95.4869 243.039 98.7679C243.434 102.049 245.742 104.469 248.195 104.174Z" fill="#C4532C"/>
<path d="M239.116 89.6652C236.924 89.5101 234.709 89.3328 232.517 89.1777C234.554 83.5043 236.569 77.8532 238.607 72.1798C239.027 71.0053 237.256 70.1853 236.835 71.3599C234.643 77.4543 232.472 83.5487 230.28 89.6431C230.081 90.1971 230.347 90.9727 231.011 91.0171C233.602 91.2165 236.215 91.3938 238.806 91.5933C240.046 91.6819 240.378 89.7539 239.116 89.6652Z" fill="#C4532C"/>
<path d="M253.865 94.0311C253.488 93.7208 252.78 93.7208 252.492 94.164C250.255 97.4439 246.69 99.7044 242.748 100.236C241.508 100.414 241.707 102.364 242.969 102.186C247.398 101.588 251.495 99.106 254.02 95.4051C254.308 94.9618 254.308 94.3856 253.887 94.0311H253.865Z" fill="#36344C"/>
<path d="M51.3918 343.436C44.9918 345.098 27.5858 328.521 27.5858 328.521L26.1906 335.635C26.1906 335.635 46.6084 349.22 44.8811 352.899C43.2202 356.445 39.0126 354.761 38.6362 354.605C39.1898 354.982 49.2658 361.852 46.5641 364.467C43.8403 367.127 36.1559 364.578 35.868 364.467C36.3995 365.11 46.5198 377.609 41.4265 378.806C36.2002 380.069 24.7069 367.503 24.7069 367.503C24.7069 367.503 24.6405 380.401 20.3886 379.626C16.1368 378.85 0.41373 331.713 -1.80078 313.74C-4.03743 295.745 13.9665 283.423 13.9665 283.423C13.9665 283.423 56.1087 251.488 98.738 219.11C99.203 219.221 114.417 222.723 123.208 255.278L34.9158 303.678C38.0604 310.859 36.3109 320.698 36.3109 320.698C36.3109 320.698 57.7474 341.73 51.3475 343.414L51.3918 343.436Z" fill="#F4E9DC"/>
<path d="M211.08 139.905C189.843 175.452 180.055 205.082 175.648 226.579L123.253 255.3C114.461 222.745 99.2473 219.243 98.7822 219.132C128.501 196.572 158.419 173.812 174.452 161.513C189.799 149.745 202.001 143.34 211.08 139.905Z" fill="#E88846"/>
<path d="M324.884 125.212C324.884 125.212 324.884 125.212 324.884 125.255" stroke="#E88846" stroke-width="0.91" stroke-miterlimit="10"/>
<path d="M321.54 244.264L296.317 286.392C254.02 261.66 215.199 219.132 215.199 219.132L172.592 264.94C172.592 264.94 170.621 251.045 175.648 226.579C180.055 205.082 189.843 175.452 211.08 139.905C218.122 137.246 223.349 136.382 226.803 136.16V136.382C226.803 136.382 224.744 139.529 222.109 144.315C214.624 157.989 202.842 185.026 223.482 190.123C245.76 195.619 268.525 157.945 276.741 142.653C278.8 138.797 279.952 136.382 279.952 136.382C279.952 136.382 280.705 135.938 282.122 135.229C287.946 132.26 305.042 124.614 324.884 125.257C323.887 127.473 276.586 232.03 321.584 244.286L321.54 244.264Z" fill="#F2B34E"/>
<path d="M334.849 472.349C334.849 472.349 261.482 510.755 145.309 491.009C146.261 470.332 147.612 447.728 149.539 424.17C149.539 424.17 221.865 469.978 328.981 449.988C330.996 457.39 332.945 464.881 334.827 472.349H334.849Z" fill="#F2B34E"/>
<path d="M149.539 424.17C153.813 372.113 160.877 315.49 172.592 264.962L215.199 219.155C215.199 219.155 254.02 261.682 296.317 286.415L284.292 306.515C284.292 306.515 303.182 364.024 308.939 381.221C315.406 402.031 322.404 425.677 328.981 449.988C221.865 469.978 149.539 424.17 149.539 424.17Z" fill="#36344C"/>
<path d="M395.836 279.655H395.814" stroke="#E88846" stroke-width="0.91" stroke-miterlimit="10"/>
<path d="M395.815 279.655C386.115 301.551 360.117 335.214 324.131 372.29C324.131 372.29 318.838 379.847 308.939 381.221C302.495 382.108 294.146 380.379 284.026 372.29C284.026 372.29 260.065 388.091 255.038 384.944C250.033 381.775 276.762 362.451 276.762 362.451L269.897 360.234C269.897 360.234 246.402 375.947 244.076 373.066C241.751 370.185 245.383 364.711 245.383 364.711C245.383 364.711 239.625 365.176 240.932 360.234C242.238 355.315 255.614 343.503 255.614 343.503L270.296 342.572L261.194 336.433C261.194 336.433 244.187 346.095 242.438 342.394C240.666 338.671 255.99 326.593 261.748 324.931C267.506 323.247 282.742 332.355 282.742 332.355L282.919 324L293.792 334.195L306.88 346.494L354.248 267.156C354.248 267.156 374.799 263.189 395.859 279.722L395.815 279.655Z" fill="#F4E9DC"/>
<path d="M399.911 266.359C399.491 270.082 398.118 274.536 395.815 279.655C374.755 263.123 354.204 267.09 354.204 267.09L332.192 226.468L321.54 244.264C276.541 232.008 323.843 127.473 324.84 125.234C326.678 125.301 328.538 125.434 330.442 125.633C357.459 128.692 402.126 246.613 399.911 266.336V266.359Z" fill="#E88846"/>
<path d="M153.813 424.746C152.683 443.118 151.377 461.49 149.893 479.862C149.472 485.092 149.029 490.322 148.587 495.552C148.476 496.838 150.447 497.148 150.557 495.862C152.152 477.513 153.547 459.163 154.787 440.769C155.141 435.539 155.474 430.287 155.806 425.057C155.894 423.771 153.901 423.461 153.835 424.746H153.813Z" fill="#36344C"/>
<path d="M161.032 428.27C160.434 446.642 159.836 464.992 159.239 483.363C159.061 488.549 158.906 493.713 158.729 498.899C158.685 500.162 160.656 500.494 160.7 499.209C161.298 480.837 161.896 462.487 162.494 444.116C162.671 438.93 162.826 433.766 163.003 428.58C163.048 427.317 161.077 426.985 161.032 428.27Z" fill="#36344C"/>
<path d="M172.858 434.963C171.352 454.952 170.643 475.009 170.754 495.065C170.754 496.35 172.747 496.128 172.747 494.843C172.658 474.964 173.345 455.085 174.851 435.273C174.939 433.988 172.968 433.677 172.88 434.963H172.858Z" fill="#36344C"/>
<path d="M185.813 436.824C183.886 456.858 182.358 476.937 181.229 497.015C181.162 498.3 183.133 498.611 183.2 497.325C184.329 477.225 185.857 457.169 187.784 437.135C187.917 435.849 185.923 435.539 185.813 436.824Z" fill="#36344C"/>
<path d="M196.043 443.118C194.693 461.69 193.32 480.283 191.969 498.854C191.88 500.14 193.851 500.45 193.94 499.165C195.29 480.593 196.663 462 198.014 443.428C198.103 442.143 196.132 441.833 196.043 443.118Z" fill="#36344C"/>
<path d="M207.537 445.357L203.307 499.608C203.196 500.893 205.19 501.203 205.278 499.918L209.508 445.667C209.619 444.382 207.625 444.071 207.537 445.357Z" fill="#36344C"/>
<path d="M220.669 450.21C219.362 465.745 218.056 481.302 216.749 496.838C216.638 498.123 218.609 498.433 218.72 497.148C220.027 481.613 221.333 466.055 222.64 450.52C222.75 449.235 220.757 448.925 220.669 450.21Z" fill="#36344C"/>
<path d="M231.697 449.08C230.169 465.922 228.641 482.765 227.113 499.608C227.003 500.893 228.974 501.203 229.084 499.918C230.612 483.075 232.14 466.233 233.668 449.39C233.779 448.105 231.808 447.794 231.697 449.08Z" fill="#36344C"/>
<path d="M293.615 450.786C293.482 449.501 291.489 449.722 291.622 451.008C292.929 464.194 294.235 477.402 295.542 490.588C295.675 491.873 297.668 491.652 297.535 490.366C296.228 477.18 294.922 463.972 293.615 450.786Z" fill="#36344C"/>
<path d="M305.507 450.609C305.33 449.323 303.337 449.545 303.514 450.83C305.131 462.842 306.725 474.876 308.342 486.887C308.519 488.172 310.512 487.951 310.335 486.666C308.718 474.654 307.124 462.62 305.507 450.609Z" fill="#36344C"/>
<path d="M317.93 450.409C317.731 449.146 315.738 449.346 315.937 450.631C317.775 461.822 318.927 473.125 319.392 484.471C319.436 485.757 321.429 485.535 321.385 484.25C320.92 472.903 319.768 461.623 317.93 450.409Z" fill="#36344C"/>
<path d="M331.926 476.383C329.468 467.075 327.032 457.745 324.574 448.437C324.241 447.196 322.381 447.927 322.713 449.168C325.171 458.476 327.607 467.806 330.066 477.114C330.398 478.355 332.258 477.624 331.926 476.383Z" fill="#36344C"/>
<path d="M298.265 342.971C293.393 339.225 288.522 335.502 283.65 331.757C282.631 330.981 281.346 332.533 282.387 333.308C287.259 337.054 292.131 340.777 297.003 344.522C298.022 345.298 299.306 343.746 298.265 342.971Z" fill="#E2CAB0"/>
<path d="M291.113 349.22C284.912 346.517 278.623 343.968 272.267 341.641C271.071 341.198 270.23 343.015 271.448 343.458C277.803 345.807 284.07 348.334 290.293 351.037C291.467 351.547 292.308 349.73 291.113 349.22Z" fill="#E2CAB0"/>
<path d="M281.568 353.874C278.135 352.921 274.681 351.99 271.248 351.037C268.192 350.195 264.848 348.821 261.637 349.021C258.426 349.22 256.433 351.813 254.374 353.963C251.827 356.6 249.28 359.259 246.734 361.896C245.848 362.827 247.398 364.09 248.284 363.16C250.587 360.766 252.912 358.351 255.215 355.957C257.363 353.719 259.379 350.727 262.833 351.037C265.779 351.303 268.746 352.434 271.603 353.209L281.214 355.846C282.454 356.179 282.764 354.206 281.524 353.874H281.568Z" fill="#E2CAB0"/>
<path d="M37.5733 352.234C32.0149 347.536 26.7443 342.55 21.7395 337.275C21.5181 337.031 21.1859 337.009 20.8759 337.098C22.5589 333.264 24.9949 329.674 26.5672 325.818C27.0544 324.621 25.2385 323.801 24.7513 324.998C22.2046 331.225 17.4212 336.765 17.0448 343.724C16.624 351.481 20.9423 358.24 23.0682 365.42C23.4447 366.661 25.3049 365.93 24.9284 364.689C22.8911 357.774 18.4399 351.015 19.0378 343.569C19.06 343.237 19.1486 342.904 19.1928 342.572C23.644 349.952 28.4716 357.087 33.6979 363.958C34.473 364.977 36.1117 363.802 35.3145 362.783C29.8668 355.647 24.8398 348.201 20.2337 340.489C20.1008 340.245 19.9015 340.134 19.7243 340.09C19.8793 339.58 20.0565 339.07 20.2558 338.561C20.3222 338.649 20.3665 338.738 20.4551 338.826C25.4378 344.101 30.7304 349.109 36.2889 353.785C37.2854 354.628 38.5477 353.076 37.5511 352.234H37.5733Z" fill="#E2CAB0"/>
<path d="M224.854 140.26C224.832 139.861 224.699 139.484 224.478 139.174C224.323 138.819 224.079 138.509 223.769 138.287C223.548 138.154 223.326 138.022 223.105 137.866C222.595 137.645 222.064 137.556 221.532 137.623C221.289 137.689 221.023 137.756 220.78 137.8C220.292 137.999 219.872 138.287 219.539 138.686C219.362 138.864 219.163 139.063 218.986 139.24C218.72 139.551 218.543 139.905 218.454 140.282C218.299 140.659 218.255 141.058 218.321 141.479C218.344 141.878 218.476 142.254 218.698 142.565C218.853 142.919 219.096 143.229 219.407 143.451C219.628 143.584 219.849 143.717 220.071 143.872C220.58 144.094 221.112 144.182 221.643 144.116C221.887 144.049 222.153 143.983 222.396 143.939C222.883 143.739 223.304 143.451 223.636 143.052C223.813 142.875 224.013 142.675 224.19 142.498C224.456 142.188 224.633 141.833 224.721 141.457C224.876 141.08 224.921 140.681 224.854 140.26Z" fill="#F4E9DC"/>
<path d="M214.313 152.958C210.46 152.958 211.147 158.942 214.978 158.942C218.809 158.942 218.144 152.958 214.313 152.958Z" fill="#F4E9DC"/>
<path d="M211.966 170.111C211.811 169.757 211.567 169.446 211.257 169.225C210.947 168.959 210.593 168.782 210.217 168.693C209.84 168.538 209.442 168.494 209.021 168.56C208.777 168.626 208.511 168.693 208.268 168.737C207.781 168.937 207.36 169.225 207.028 169.624C206.895 169.845 206.762 170.067 206.607 170.289C206.386 170.798 206.297 171.33 206.363 171.862V172.416C206.386 172.815 206.518 173.192 206.74 173.502C206.895 173.857 207.138 174.167 207.448 174.388C207.759 174.654 208.113 174.832 208.489 174.92C208.866 175.075 209.264 175.12 209.685 175.053C209.929 174.987 210.194 174.92 210.438 174.876C210.925 174.677 211.346 174.388 211.678 173.99C211.811 173.768 211.944 173.546 212.099 173.325C212.32 172.815 212.409 172.283 212.343 171.751V171.197C212.32 170.798 212.188 170.422 211.966 170.111Z" fill="#F4E9DC"/>
<path d="M206.784 186.134C202.931 186.134 203.617 192.118 207.448 192.118C211.279 192.118 210.615 186.134 206.784 186.134Z" fill="#F4E9DC"/>
<path d="M209.464 206.367C209.309 206.013 209.065 205.703 208.755 205.481C208.445 205.215 208.091 205.038 207.714 204.949C207.338 204.794 206.939 204.75 206.518 204.816C206.275 204.883 206.009 204.949 205.765 204.993C205.278 205.193 204.857 205.481 204.525 205.88C204.392 206.101 204.26 206.323 204.105 206.545C203.883 207.054 203.794 207.586 203.861 208.118V208.406C203.883 208.805 204.016 209.182 204.237 209.492C204.392 209.847 204.636 210.157 204.946 210.379C205.256 210.645 205.61 210.822 205.987 210.911C206.363 211.066 206.762 211.11 207.183 211.043C207.426 210.977 207.692 210.911 207.936 210.866C208.423 210.667 208.844 210.379 209.176 209.98C209.309 209.758 209.442 209.536 209.597 209.315C209.818 208.805 209.907 208.273 209.84 207.741V207.453C209.818 207.054 209.685 206.678 209.464 206.367Z" fill="#F4E9DC"/>
<path d="M213.915 226.712C213.76 226.357 213.516 226.047 213.206 225.825C212.896 225.559 212.542 225.382 212.165 225.293C211.789 225.138 211.39 225.094 210.97 225.16C210.726 225.227 210.46 225.293 210.217 225.338C209.729 225.537 209.309 225.825 208.976 226.224C208.844 226.446 208.711 226.667 208.556 226.889C208.334 227.399 208.246 227.931 208.312 228.462V228.751C208.334 229.149 208.467 229.526 208.689 229.836C208.844 230.191 209.087 230.501 209.397 230.723C209.707 230.989 210.062 231.166 210.438 231.255C210.814 231.41 211.213 231.454 211.634 231.388C211.877 231.321 212.143 231.255 212.387 231.21C212.874 231.011 213.295 230.723 213.627 230.324C213.76 230.102 213.893 229.881 214.048 229.659C214.269 229.149 214.358 228.618 214.291 228.086V227.798C214.269 227.399 214.136 227.022 213.915 226.712Z" fill="#F4E9DC"/>
<path d="M223.858 237.925C223.659 237.438 223.371 237.017 222.972 236.684C222.883 236.596 222.795 236.507 222.684 236.396C222.374 236.13 222.02 235.953 221.643 235.864C221.267 235.709 220.868 235.665 220.448 235.731C220.049 235.753 219.672 235.886 219.362 236.108C219.008 236.263 218.698 236.507 218.454 236.817C218.322 237.039 218.189 237.26 218.034 237.482C217.812 237.992 217.724 238.524 217.79 239.056C217.857 239.299 217.923 239.565 217.967 239.809C218.167 240.297 218.454 240.718 218.853 241.05L219.141 241.338C219.451 241.604 219.805 241.781 220.182 241.87C220.558 242.025 220.957 242.069 221.378 242.003C221.776 241.981 222.153 241.848 222.463 241.626C222.817 241.471 223.127 241.227 223.371 240.917C223.504 240.695 223.636 240.474 223.791 240.252C224.013 239.743 224.101 239.211 224.035 238.679C223.969 238.435 223.902 238.169 223.858 237.925Z" fill="#F4E9DC"/>
<path d="M231.299 227.376C227.445 227.376 228.132 233.36 231.963 233.36C235.794 233.36 235.13 227.376 231.299 227.376Z" fill="#F4E9DC"/>
<path d="M241.219 216.407C241.064 216.052 240.821 215.742 240.511 215.52C240.201 215.254 239.847 215.077 239.47 214.988C239.094 214.833 238.695 214.789 238.274 214.855C238.031 214.922 237.765 214.988 237.521 215.033C237.034 215.232 236.613 215.52 236.281 215.919C236.148 216.141 236.015 216.362 235.86 216.584C235.639 217.094 235.55 217.625 235.617 218.157V218.445C235.639 218.844 235.772 219.221 235.993 219.531C236.148 219.886 236.392 220.196 236.702 220.418C237.012 220.684 237.366 220.861 237.743 220.95C238.119 221.105 238.518 221.149 238.939 221.083C239.182 221.016 239.448 220.95 239.691 220.905C240.179 220.706 240.599 220.418 240.932 220.019C241.064 219.797 241.197 219.576 241.352 219.354C241.574 218.844 241.662 218.312 241.596 217.781V217.493C241.574 217.094 241.441 216.717 241.219 216.407Z" fill="#F4E9DC"/>
<path d="M248.904 202.511C248.771 202.135 248.572 201.824 248.262 201.558C248.018 201.248 247.708 201.027 247.332 200.871C247.066 200.805 246.823 200.716 246.557 200.65C246.025 200.561 245.494 200.628 244.985 200.827C244.763 200.96 244.542 201.071 244.32 201.204C243.899 201.514 243.567 201.913 243.346 202.401C243.257 202.578 243.169 202.777 243.058 202.955C242.881 203.331 242.792 203.73 242.814 204.129C242.77 204.528 242.814 204.905 242.991 205.282C243.124 205.658 243.324 205.969 243.634 206.234C243.877 206.545 244.187 206.766 244.564 206.921C244.83 206.988 245.073 207.077 245.339 207.143C245.87 207.232 246.402 207.165 246.911 206.966C247.133 206.833 247.354 206.722 247.575 206.589C247.996 206.279 248.328 205.88 248.55 205.392C248.638 205.215 248.727 205.016 248.838 204.838C249.015 204.462 249.104 204.063 249.081 203.664C249.126 203.265 249.081 202.888 248.904 202.511Z" fill="#F4E9DC"/>
<path d="M255.702 187.685C255.547 187.331 255.304 187.021 254.994 186.799C254.684 186.533 254.329 186.356 253.953 186.267C253.576 186.112 253.178 186.068 252.757 186.134C252.514 186.201 252.248 186.267 252.004 186.311C251.517 186.511 251.096 186.799 250.764 187.198C250.631 187.419 250.498 187.641 250.343 187.863C250.122 188.372 250.033 188.904 250.1 189.436V189.99C250.122 190.389 250.255 190.766 250.476 191.076C250.631 191.431 250.875 191.741 251.185 191.963C251.495 192.228 251.849 192.406 252.226 192.494C252.602 192.65 253.001 192.694 253.421 192.627C253.665 192.561 253.931 192.494 254.174 192.45C254.662 192.251 255.082 191.963 255.415 191.564C255.547 191.342 255.68 191.12 255.835 190.899C256.057 190.389 256.145 189.857 256.079 189.325V188.771C256.057 188.372 255.924 187.996 255.702 187.685Z" fill="#F4E9DC"/>
<path d="M259.999 174.411C256.146 174.411 256.832 180.394 260.663 180.394C264.494 180.394 263.83 174.411 259.999 174.411Z" fill="#F4E9DC"/>
<path d="M272.245 164.527C272.223 164.128 272.09 163.751 271.868 163.441C271.713 163.086 271.47 162.776 271.16 162.554L270.495 162.133C269.986 161.912 269.454 161.823 268.923 161.889C268.679 161.956 268.414 162.022 268.17 162.067C267.683 162.266 267.262 162.554 266.93 162.953L266.642 163.241C266.376 163.552 266.199 163.906 266.111 164.283C265.956 164.66 265.911 165.058 265.978 165.48C266 165.878 266.133 166.255 266.354 166.565C266.509 166.92 266.753 167.23 267.063 167.452C267.284 167.585 267.506 167.718 267.727 167.873C268.236 168.095 268.768 168.183 269.299 168.117C269.543 168.05 269.809 167.984 270.052 167.939C270.54 167.74 270.96 167.452 271.292 167.053L271.58 166.765C271.846 166.455 272.023 166.1 272.112 165.723C272.267 165.347 272.311 164.948 272.245 164.527Z" fill="#F4E9DC"/>
<path d="M276.164 150.72C272.311 150.72 272.998 156.704 276.829 156.704C280.66 156.704 279.995 150.72 276.164 150.72Z" fill="#F4E9DC"/>
<path d="M284.956 141.966C284.801 141.612 284.558 141.301 284.248 141.08C283.938 140.814 283.583 140.637 283.207 140.548C282.83 140.393 282.432 140.348 282.011 140.415C281.767 140.481 281.502 140.548 281.258 140.592C280.771 140.792 280.35 141.08 280.018 141.479C279.885 141.7 279.752 141.922 279.597 142.144C279.376 142.653 279.287 143.185 279.354 143.717V144.005C279.376 144.404 279.509 144.781 279.73 145.091C279.885 145.446 280.129 145.756 280.439 145.977C280.749 146.243 281.103 146.421 281.48 146.509C281.856 146.664 282.255 146.709 282.675 146.642C282.919 146.576 283.185 146.509 283.428 146.465C283.915 146.266 284.336 145.977 284.668 145.579C284.801 145.357 284.934 145.135 285.089 144.914C285.311 144.404 285.399 143.872 285.333 143.34V143.052C285.311 142.653 285.178 142.277 284.956 141.966Z" fill="#F4E9DC"/>
<path d="M287.016 131.484C283.163 131.484 283.849 137.467 287.68 137.467C291.511 137.467 290.847 131.484 287.016 131.484Z" fill="#F4E9DC"/>
</g>
</g>
<defs>
<clipPath id="clip0_1_1948">
<rect width="400" height="450" fill="white"/>
</clipPath>
<clipPath id="clip1_1_1948">
<rect width="402" height="859" fill="white" transform="translate(-2)"/>
</clipPath>
</defs>
</svg>
