<svg width="400" height="450" viewBox="0 0 400 450" fill="none" xmlns="http://www.w3.org/2000/svg">
<g clip-path="url(#clip0_8_703)">
<g clip-path="url(#clip1_8_703)">
<path d="M182.563 8.08663C182.563 8.08663 234.193 -11.1346 284.89 9.82836C335.587 30.7913 336.52 102.264 343.487 128.204C350.453 154.143 386.346 183.877 384.604 228.477C382.862 273.078 399.471 319.42 436.234 351.829C472.996 384.175 459.871 479.534 459.871 479.534H-47.5313C-47.5313 479.534 -65.0108 421.498 -44.0479 360.848C-23.085 300.199 -2.93066 273.078 1.42366 233.702C5.77798 194.327 19.774 170.751 39.0574 147.114C58.2786 123.476 66.9873 93.4934 67.0495 70.1045C67.0495 29.8582 92.4289 -15.6133 182.563 8.02443V8.08663Z" fill="#8C4D1E"/>
<path d="M352.257 239.798C351.698 283.901 370.359 316.185 385.475 337.708C405.878 366.696 429.764 397.051 407.06 436.676" stroke="#BA6528" stroke-width="0.5" stroke-miterlimit="10"/>
<path d="M320.222 239.798C319.662 283.901 338.324 316.185 353.44 337.708C373.843 366.696 397.729 397.051 375.025 436.676" stroke="#BA6528" stroke-width="0.5" stroke-miterlimit="10"/>
<path d="M288.187 239.798C287.627 283.901 306.289 316.185 321.404 337.708C341.807 366.696 365.694 397.051 342.989 436.676" stroke="#BA6528" stroke-width="0.5" stroke-miterlimit="10"/>
<path d="M29.7267 226.176C26.8031 258.833 12.2472 290.93 1.17481 319.482C-9.89761 348.034 -20.4102 382.433 -15.7448 433.192" stroke="#BA6528" stroke-width="0.5" stroke-miterlimit="10"/>
<path d="M65.2457 226.176C62.3221 258.833 47.7663 290.93 36.6938 319.482C25.6214 348.034 15.1089 382.433 19.7742 433.192" stroke="#BA6528" stroke-width="0.5" stroke-miterlimit="10"/>
<path d="M100.764 226.176C97.8407 258.833 83.2848 290.93 72.2124 319.482C61.14 348.034 50.6274 382.433 55.2928 433.192" stroke="#BA6528" stroke-width="0.5" stroke-miterlimit="10"/>
<path d="M210.556 290.184C254.285 290.682 300.628 295.845 299.757 355.374C299.757 355.374 392.442 382.744 453.713 419.258C499.807 446.691 507.956 512.005 519.588 538.815C531.22 565.626 576.754 581.177 593.051 643.381C609.349 705.586 604.684 737.061 626.891 775.566C649.098 814.07 678.209 843.058 678.209 910.86C678.209 941.216 695.689 998.631 687.54 1035.21L450.105 1057.79V1091.44H-205.842C-205.842 1091.44 -215.173 1046.16 -210.507 992.473C-205.842 938.79 -216.354 885.17 -193.028 823.339C-169.701 761.508 -188.362 704.404 -168.519 667.081C-148.676 629.758 -106.688 552.811 -100.903 509.641C-95.1177 466.472 -54.5603 383.491 105.554 349.838C105.554 349.838 100.889 288.878 210.556 290.184Z" fill="#11394F"/>
<path d="M193.449 284.026L204.397 296.28" stroke="#11394F" stroke-width="0.54" stroke-miterlimit="10"/>
<path d="M172.051 52.3762C172.051 52.3762 191.272 134.611 254.845 155.573C254.845 155.573 258.951 126.711 277.612 125.84C299.384 124.844 291.049 192.896 263.057 194.638L265.669 316.123C265.856 323.65 260.693 330.182 253.29 331.737C235.811 335.345 202.842 340.445 171.74 335.78C163.84 334.598 157.433 326.76 157.433 318.798V247.139C157.433 247.139 131.183 241.913 120.67 220.328C110.158 198.743 111.899 173.115 111.899 173.115L106.612 133.989C105.866 128.639 107.11 123.227 110.095 118.748C119.551 104.628 142.753 72.7793 171.989 52.4384L172.051 52.3762Z" fill="#FF6969"/>
<path d="M157.495 247.138C182.999 254.292 224.116 242.909 241.596 223.252C241.596 223.252 219.451 278.365 157.495 272.705V247.201V247.138Z" fill="#E64C4C"/>
<path d="M262.994 163.785C262.994 163.785 266.789 137.223 275.559 137.845C284.33 138.405 279.043 157.066 279.043 157.066" stroke="#E64C4C" stroke-width="0.5" stroke-miterlimit="10"/>
<path d="M138.212 181.264C138.212 181.264 157.433 186.054 186.607 177.781C183.683 195.073 170.496 202.165 158.926 201.107C139.705 199.365 138.212 181.264 138.212 181.264Z" fill="white"/>
<path d="M154.136 214.046C154.136 214.046 164.213 217.529 176.468 210.998" stroke="#FF9696" stroke-width="0.54" stroke-miterlimit="10"/>
<path d="M151.026 128.203V153.272C151.026 153.272 140.513 151.53 139.642 155.884C138.772 160.239 151.026 166.086 151.026 166.086" stroke="#AB251D" stroke-width="0.94" stroke-linecap="round" stroke-linejoin="round"/>
<path d="M138.212 132.682C138.212 138.467 135.786 143.195 132.8 143.195C129.814 143.195 127.388 138.467 127.388 132.682C127.388 126.897 129.814 122.17 132.8 122.17C135.786 122.17 138.212 126.897 138.212 132.682Z" fill="#11394F"/>
<path d="M181.817 132.682C181.817 138.467 179.391 143.195 176.405 143.195C173.42 143.195 170.994 138.467 170.994 132.682C170.994 126.897 173.42 122.17 176.405 122.17C179.391 122.17 181.817 126.897 181.817 132.682Z" fill="#11394F"/>
<path d="M210.804 164.282C210.804 171.747 204.771 177.78 197.306 177.78C189.841 177.78 183.808 171.747 183.808 164.282C183.808 156.818 189.841 150.784 197.306 150.784C204.771 150.784 210.804 156.818 210.804 164.282Z" fill="#E64C4C"/>
<path d="M162.409 109.107C162.409 109.107 178.645 102.762 199.483 109.107" stroke="#8C4D1E" stroke-width="2" stroke-miterlimit="10"/>
<path d="M141.447 109.107C141.447 109.107 132.24 102.575 111.277 109.107" stroke="#8C4D1E" stroke-width="2" stroke-miterlimit="10"/>
<path d="M110.842 360.848C110.842 360.848 140.638 400.721 238.983 384.175" stroke="#1E638A" stroke-width="0.54" stroke-miterlimit="10"/>
</g>
</g>
<defs>
<clipPath id="clip0_8_703">
<rect width="400" height="450" fill="white"/>
</clipPath>
<clipPath id="clip1_8_703">
<rect width="908" height="2184" fill="white" transform="translate(-212)"/>
</clipPath>
</defs>
</svg>
