<svg width="400" height="450" viewBox="0 0 400 450" fill="none" xmlns="http://www.w3.org/2000/svg">
<g clip-path="url(#clip0_8_610)">
<g clip-path="url(#clip1_8_610)">
<path d="M710.97 684.474C707.918 653.351 675.703 613.181 675.703 613.181C664.965 546.031 614.382 505.588 614.382 505.588C600.591 464.219 566.85 422.795 505.529 394.126C444.207 365.456 303.195 330.627 303.195 330.627C286.352 304.356 248.032 286.751 248.032 286.751L153.515 304.465C153.515 304.465 134.546 316.837 126.152 335.424C84.4534 354.773 -6.08466 385.078 -46.9113 412.603C-100.765 448.903 -110.958 526.3 -110.958 526.3C-145.626 585.165 -140.829 629.424 -140.829 629.424C-162.959 677.715 -161.596 724.753 -161.596 724.753L-1.83302 720.556L24.5489 1146.13L230.426 1156.38L239.638 1069.99L249.559 1142.59L579.169 1115.93L531.638 711.126L711.025 684.474H710.97Z" fill="#2886BA"/>
<path d="M375.091 421.378C369.095 421.378 364.189 426.283 364.189 432.279C364.189 433.696 364.516 467.653 393.515 484.386C395.259 485.367 397.112 485.857 398.966 485.857C402.727 485.857 406.379 483.895 408.396 480.407C411.394 475.174 409.595 468.525 404.416 465.527C386.483 455.171 385.993 433.26 385.993 432.224C385.993 426.229 381.087 421.378 375.091 421.378Z" fill="#FCC892"/>
<path d="M49.2959 483.623C55.2373 484.713 60.9061 480.788 61.9963 474.902C65.7573 454.517 86.2524 446.723 87.1791 446.396C92.7934 444.379 95.7368 438.165 93.7745 432.497C91.7577 426.828 85.5438 423.831 79.875 425.847C78.5123 426.338 46.6795 438.002 40.5746 470.923C40.193 472.885 40.4111 474.793 41.0106 476.537C42.2643 480.08 45.3168 482.86 49.2959 483.623Z" fill="#FCC892"/>
<path d="M184.639 421.323L191.071 458.605L187.474 514.799L200.719 674.227" stroke="#11394F" stroke-width="0.54" stroke-miterlimit="10"/>
<path d="M212.384 376.847L248.033 432.824C248.033 432.824 277.14 394.507 297.853 340.874C297.853 340.874 284.826 410.095 248.033 454.571C248.033 454.571 217.399 422.141 212.384 376.902V376.847Z" fill="#1E638A"/>
<path d="M150.081 364.093C150.081 364.093 139.18 393.744 132.039 429.009C121.301 396.306 128.442 343.654 128.442 343.654C128.442 343.654 105.984 383.497 132.039 450.429C142.777 424.866 150.081 364.093 150.081 364.093Z" fill="#1E638A"/>
<path d="M266.62 252.14C266.62 252.14 297.526 226.632 299.161 153.868C299.161 153.868 343.149 119.638 318.73 85.4638C318.73 85.4638 333.392 38.7531 288.859 37.663C288.859 37.663 269.836 -7.9577 219.361 20.2759C187.311 -17.2235 135.746 3.43384 129.75 32.7575C100.97 24.6363 75.0237 35.7553 71.6442 64.2614C67.2835 100.671 99.8794 117.295 99.8794 117.295L122.664 177.25L266.62 252.195V252.14Z" fill="#475911"/>
<path d="M228.082 117.295C228.082 117.295 220.397 145.91 244.926 168.42L256.699 221.563L266.892 177.632C266.892 177.632 269.454 154.631 285.807 157.192C302.159 159.754 294.473 208.809 273.052 212.896L265.911 326.866L202.573 374.395L184.694 421.378L166.815 370.252L153.515 353.41V297.216C153.515 297.216 126.479 282.445 120.32 254.266C113.942 225.16 124.408 202.159 124.408 202.159C124.408 202.159 115.905 177.087 120.156 139.587C121.083 131.193 127.787 124.598 136.236 123.999L228.137 117.349L228.082 117.295Z" fill="#FF6969"/>
<path d="M153.461 297.161C174.392 312.859 228.464 305.609 247.978 286.805C247.978 286.805 214.129 338.912 153.461 316.674V297.107V297.161Z" fill="#AB251D"/>
<path d="M175.21 329.319C175.21 329.319 172.92 335.86 187.474 345.78" stroke="#AB251D" stroke-width="0.5" stroke-miterlimit="10"/>
<path d="M283.79 186.788C287.387 176.814 284.008 154.194 266.62 178.776" stroke="#E64C4C" stroke-width="0.5" stroke-miterlimit="10"/>
<path d="M241.873 114.733C241.873 114.733 275.832 126.506 294.637 142.312" stroke="#728F1B" stroke-width="0.5" stroke-miterlimit="10"/>
<path d="M241.873 126.07C241.873 126.07 271.144 137.68 285.043 148.962" stroke="#728F1B" stroke-width="0.5" stroke-miterlimit="10"/>
<path d="M241.873 137.516L266.62 148.962" stroke="#728F1B" stroke-width="0.5" stroke-miterlimit="10"/>
<path d="M194.505 183.082C194.505 190.168 191.453 195.891 187.692 195.891C183.931 195.891 180.878 190.168 180.878 183.082C180.878 175.997 183.931 170.274 187.692 170.274C191.453 170.274 194.505 175.997 194.505 183.082Z" fill="#0A2330"/>
<path d="M162.672 184.227L158.094 221.999L177.226 219.219" stroke="#AB251D" stroke-width="0.94" stroke-linecap="round" stroke-linejoin="round"/>
<path d="M139.18 237.369C139.18 237.369 175.809 245.054 212.384 223.961" stroke="#AB251D" stroke-width="0.94" stroke-linecap="round" stroke-linejoin="round"/>
<path d="M188.728 256.5C188.728 259.607 183.168 262.114 176.354 262.114C169.541 262.114 163.981 259.607 163.981 256.5C163.981 253.394 169.541 250.886 176.354 250.886C183.168 250.886 188.728 253.394 188.728 256.5Z" fill="#FF9696"/>
<path d="M209.44 215.404L217.617 231.319" stroke="#AB251D" stroke-width="0.94" stroke-linecap="round" stroke-linejoin="round"/>
<path d="M175.754 153.05C175.754 153.05 191.616 146.4 206.388 160.19" stroke="#475911" stroke-width="2" stroke-miterlimit="10"/>
<path d="M150.081 183.082C150.081 190.168 147.029 195.891 143.268 195.891C139.507 195.891 136.454 190.168 136.454 183.082C136.454 175.997 139.507 170.274 143.268 170.274C147.029 170.274 150.081 175.997 150.081 183.082Z" fill="#0A2330"/>
<path d="M150.081 155.83C150.081 155.83 135.092 150.216 126.152 164.55" stroke="#475911" stroke-width="2" stroke-miterlimit="10"/>
</g>
</g>
<defs>
<clipPath id="clip0_8_610">
<rect width="400" height="450" fill="white"/>
</clipPath>
<clipPath id="clip1_8_610">
<rect width="983" height="1983" fill="white" transform="translate(-236)"/>
</clipPath>
</defs>
</svg>
