<svg width="400" height="450" viewBox="0 0 400 450" fill="none" xmlns="http://www.w3.org/2000/svg">
<g clip-path="url(#clip0_1_3)">
<g clip-path="url(#clip1_1_3)">
<path d="M263.893 376.503C263.893 376.503 283.847 523.155 275.314 572.63C266.781 622.105 273.603 813.21 273.603 813.21C273.603 813.21 222.381 828.576 203.604 814.92C203.604 814.92 195.07 652.838 189.937 591.416C184.805 529.994 173.256 460.985 173.256 460.985C173.256 460.985 159.204 555.597 150.671 617.019C142.138 678.441 138.716 828.576 138.716 828.576C138.716 828.576 87.494 835.394 72.1168 825.157C72.1168 825.157 72.1168 673.312 65.2943 613.599C58.4719 553.887 88.2425 376.525 88.2425 376.525H263.893V376.503Z" fill="#1A4056"/>
<path d="M109.317 94.4742L110.698 94.3126C115.907 93.703 119.635 88.9893 119.025 83.7842L115.614 54.6827C115.004 49.4777 110.287 45.7523 105.078 46.3619L103.697 46.5235C98.4886 47.1331 94.7606 51.8469 95.3707 57.0519L98.7814 86.1534C99.3915 91.3585 104.109 95.0838 109.317 94.4742Z" fill="#8167B2"/>
<path d="M117.97 144.13C117.692 143.254 116.687 139.492 117.094 140.304C123.06 141.074 129.669 139.962 133.861 135.624C138.031 131.286 138.395 123.229 133.519 119.724C130.674 117.693 126.889 117.565 123.745 116.026C119.082 113.74 116.473 108.76 114.377 104.015C108.517 90.8079 104.112 76.8308 103.064 62.4264C102.037 48.0219 104.518 33.1473 111.747 20.6236C113.693 17.2469 116.024 13.9984 119.04 11.5193C124.493 7.03126 131.722 5.3429 138.758 4.72313C153.58 3.44083 169.534 6.79617 180.249 17.14C188.526 25.133 192.91 36.5027 194.386 47.9151C195.862 59.3275 194.664 70.9109 193.274 82.3233C192.675 87.1961 192.012 92.1329 190.002 96.6209C189.189 98.4161 188.184 100.147 187.82 102.071C187.414 104.208 187.863 106.388 188.355 108.504C189.21 112.179 190.215 115.919 192.376 119.04C194.536 122.139 198.064 124.532 201.85 124.383C201.85 124.383 213.656 177.128 176.25 177.534C138.844 177.918 128.985 179.97 118.035 144.13H117.97Z" fill="#D18F5E"/>
<path d="M340.181 183.24C340.181 183.24 305.897 170.011 293.429 156.761C280.96 143.532 241.993 120.151 231.086 120.151C220.179 120.151 201.807 124.361 201.807 124.361C201.807 124.361 196.033 162.189 163.289 161.42C130.567 160.65 117.115 140.283 117.115 140.283C117.115 140.283 86.9165 140.39 76.0092 149.751C65.1019 159.09 46.3883 232.288 41.7259 235.408C37.0636 238.528 -1.64679 259.814 0.70577 266.055C3.03695 272.274 -4.256 293.047 14.4362 296.167C33.1284 299.288 57.2956 297.727 68.9943 283.708C80.6929 269.688 90.039 258.019 90.039 258.019C90.039 258.019 92.3702 318.757 86.9165 335.106C81.4629 351.456 76.4583 400.119 76.4583 400.119L272.876 394.113C272.876 394.113 263.038 342.907 262.268 297.749C261.498 252.591 261.498 206.642 261.498 206.642C261.498 206.642 291.889 225.321 302.796 230.792C313.704 236.241 353.74 261.802 367.77 261.032C381.8 260.263 402.181 247.291 399.829 223.931C397.476 200.572 340.181 183.304 340.181 183.304V183.24Z" fill="#F2D768"/>
<path d="M334.663 187.065C334.663 187.065 315.393 134.47 307.694 120.792C299.995 107.114 295.311 110.961 285.879 94.7188C276.469 78.4764 252.516 50.2446 257.649 46.8251C262.781 43.4057 283.762 69.5431 283.762 69.5431C283.762 69.5431 282.072 63.9651 286.671 61.7852C290.606 59.9259 295.632 64.2002 295.632 64.2002C295.632 64.2002 297.086 54.0273 305.577 57.917C305.577 57.917 302.155 28.8516 306.432 26.287C310.71 23.7224 314.131 51.0781 315.842 57.0621C317.553 63.0462 330.386 72.4497 330.386 89.5469C330.386 106.644 332.717 113.526 332.717 113.526C332.717 113.526 380.966 188.519 387.104 205.402C393.734 223.568 393.648 247.504 380.859 250.304C352.927 256.395 334.642 187.023 334.642 187.023L334.663 187.065Z" fill="#D18F5E"/>
<path d="M5.90279 210.852C5.90279 210.852 14.9495 155.564 14.9709 139.877C14.9709 124.169 9.0039 125.237 8.76864 106.473C8.53339 87.709 1.53986 51.3559 7.67791 50.9071C13.8373 50.4369 19.2482 83.4988 19.2482 83.4988C19.2482 83.4988 20.5101 77.8139 25.5788 78.1772C29.9417 78.4764 32.2087 84.6956 32.2087 84.6956C32.2087 84.6956 38.4751 76.553 43.9502 84.0972C43.9502 84.0972 55.2425 57.0835 60.247 56.9553C65.2302 56.827 54.772 82.3447 53.3176 88.3929C51.8633 94.441 58.4291 108.931 50.0241 123.848C41.619 138.744 40.2716 145.904 40.2716 145.904C40.2716 145.904 45.4686 234.895 42.5386 252.633C39.3947 271.718 27.5464 292.534 15.035 288.687C-12.2975 280.288 5.86002 210.895 5.86002 210.895L5.90279 210.852Z" fill="#D18F5E"/>
<path d="M146.714 47.4235C141.646 46.9747 136.791 45.2223 131.936 43.6621C129.926 43.021 127.851 42.4012 125.755 42.6363C122.59 42.9782 119.981 45.1368 117.265 46.8038C110.014 51.249 100.797 52.4031 92.6696 49.8813C84.5426 47.3594 77.6132 41.2044 74.1485 33.4251C80.7357 36.1821 88.2639 36.6095 95.1077 34.6433C90.3598 31.9078 86.446 27.7189 84.0507 22.8035C93.5465 26.6076 105.224 24.0644 112.281 16.6698C115.489 13.3145 117.863 9.0188 121.82 6.60381C125.392 4.42391 129.733 4.08197 133.904 3.93237C141.924 3.63316 149.987 3.86825 157.985 4.61626C165.514 5.32152 173.277 6.56107 179.672 10.6003C191.413 18.0376 195.819 33.0618 196.803 46.932C197.786 60.8021 196.354 75.057 200.417 88.3715C200.994 90.2949 201.7 92.3039 201.294 94.27C200.353 98.6512 194.75 99.9549 190.258 99.9121C187.628 99.8694 184.933 99.6557 182.452 98.7581C175.843 96.3217 171.972 89.5256 169.492 82.9431C166.005 73.7106 164.166 63.9865 162.755 54.2411C162.07 49.4752 163.054 45.842 158.798 45.2223C155.654 44.7735 150.628 47.8296 146.693 47.4663L146.714 47.4235Z" fill="#563922"/>
<path d="M173.277 92.3893H177.341C187.463 92.3893 195.669 84.1892 195.669 74.0739V53.8991C195.669 43.7838 187.463 35.5837 177.341 35.5837H173.277C163.154 35.5837 154.948 43.7838 154.948 53.8991V74.0739C154.948 84.1892 163.154 92.3893 173.277 92.3893Z" fill="#8167B2"/>
<path d="M180.613 83.0927C187.2 83.0927 192.568 77.7071 192.568 71.146V55.0746C192.568 48.4921 187.179 43.1278 180.613 43.1278C174.026 43.1278 168.657 48.5135 168.657 55.0746V71.146C168.657 77.7284 174.047 83.0927 180.613 83.0927Z" fill="#6A549E"/>
<path d="M159.953 0.619779C177.298 5.53524 179.522 36.0966 179.522 36.0966L167.695 36.4385C166.754 18.4009 154.221 4.35981 154.221 4.35981L145.56 4.01786C145.56 4.01786 151.227 -1.85932 159.974 0.619779H159.953Z" fill="#6A549E"/>
<path d="M133.797 94.1632C133.519 93.0946 132.856 91.9833 131.765 91.7695C131.359 91.6841 130.952 91.7696 130.546 91.8337C126.782 92.5603 123.338 94.7402 119.51 94.9753C118.441 95.0394 117.329 94.9325 116.281 95.2318C115.233 95.5096 114.228 96.3217 114.163 97.4117C114.099 98.4802 116.58 102.968 118.206 103.695L122.761 102.99C122.59 103.31 122.718 103.759 123.039 103.93C125.862 104.464 128.942 103.802 131.145 101.942C133.326 100.083 134.481 96.9842 133.775 94.2059L133.797 94.1632Z" fill="#35241D"/>
<path d="M130.246 95.6806C129.241 95.2745 128.065 95.5096 127.145 96.0653C126.204 96.6209 125.477 97.433 124.814 98.2879C121.991 97.1125 118.377 98.4375 116.987 101.152L116.794 101.194C116.794 101.194 110.121 108.418 112.346 114.509C114.57 120.621 115.126 114.082 120.687 110.064C130.311 103.097 131.615 99.5061 131.722 98.2452C131.979 97.198 131.252 96.0653 130.246 95.6806Z" fill="#ED917C"/>
<path d="M120.515 72.4283C119.788 75.8477 118.42 79.139 116.516 82.0882C115.981 82.9004 115.404 83.8835 115.832 84.7383C116.088 85.2512 116.666 85.5291 117.179 85.7855C118.804 86.5335 120.58 87.3029 122.333 86.9823C123.253 86.8114 124.173 86.3412 125.049 86.619" stroke="#AF7045" stroke-miterlimit="10"/>
<path d="M129.947 71.8299C130.118 71.1246 130.503 70.5048 130.931 69.9278C132.471 67.8334 134.674 66.145 137.219 65.6535C139.764 65.1619 142.63 65.9954 144.212 68.0685" stroke="#35241D" stroke-miterlimit="10"/>
<path d="M115.169 72.236C113.607 71.0605 111.747 70.2057 109.779 70.0774C107.812 69.9492 105.78 70.6117 104.454 72.065" stroke="#35241D" stroke-miterlimit="10"/>
<path d="M125.413 58.9001C125.413 58.9001 125.606 62.3195 128.086 61.7639C130.567 61.2082 139.315 56.827 143.314 58.5368C143.314 58.5368 140.277 53.5999 125.413 58.9214V58.9001Z" fill="#563922"/>
<path d="M113.415 62.3409C113.415 62.3409 113.971 64.7986 112.11 64.8841C110.25 64.9696 103.192 63.6232 100.711 65.6321C100.711 65.6321 101.887 61.5288 113.436 62.3409H113.415Z" fill="#563922"/>
<path d="M153.344 251.202L177.362 203.201L197.958 248.637L242.571 256.352L200.524 282.917L209.956 336.068L169.641 295.783L132.749 334.358L142.202 287.213L106.165 263.191L153.344 251.202Z" fill="#FF8DBB"/>
<path d="M91.5361 251.116C94.9367 228.419 98.0805 205.701 100.989 182.941" stroke="#DDBE3A" stroke-miterlimit="10"/>
<path d="M258.162 198.734C249.094 191.895 240.903 183.881 233.888 174.969" stroke="#DDBE3A" stroke-miterlimit="10"/>
</g>
</g>
<defs>
<clipPath id="clip0_1_3">
<rect width="400" height="450" fill="white"/>
</clipPath>
<clipPath id="clip1_1_3">
<rect width="400" height="900" fill="white"/>
</clipPath>
</defs>
</svg>
