<svg width="400" height="450" viewBox="0 0 400 450" fill="none" xmlns="http://www.w3.org/2000/svg">
<g clip-path="url(#clip0_8_766)">
<g clip-path="url(#clip1_8_766)">
<path d="M315.244 225.087C304.181 253.109 283.082 276.055 255.885 289.012C243.474 294.951 230.037 298.677 216.384 300.08C215.413 321.623 205.862 342.787 190.051 357.689C169.383 377.179 139.434 385.17 111.589 380.959C83.5287 376.747 57.3029 359.794 42.5712 335.39C27.1379 309.907 24.4937 277.026 37.6066 250.031C43.4885 237.937 52.1765 227.139 62.915 218.932C71.9268 212.022 83.9064 205.219 95.6163 205.975C94.3212 196.472 94.1053 186.862 94.9687 177.252C95.6163 158.679 100.149 140.322 108.999 123.855C122.49 98.641 144.884 78.1246 171.703 67.9743C200.411 57.0682 233.706 58.5799 261.281 72.1856C288.154 85.4673 308.067 110.141 317.672 138.324C327.223 166.453 326.09 197.552 315.19 225.141L315.244 225.087Z" fill="#F2B34E"/>
<path d="M277.416 363.79C277.416 363.79 277.416 363.79 277.416 363.898C277.416 364.005 277.416 364.059 277.416 364.167L276.984 365.949L228.904 557.832L154.921 370.376V370.268L155.353 349.914L156.108 316.494L156.486 297.543L157.241 265.094L157.349 260.235C148.715 260.235 140.135 256.402 133.93 250.463C126.213 243.12 121.842 232.808 120.763 222.334C119.791 213.425 121.194 204.085 125.889 196.472C128.803 191.667 133.174 187.726 138.247 185.512C141.269 184.054 144.56 183.298 147.96 183.245C153.896 183.245 159.94 186.052 163.771 190.641L177.154 256.132L179.096 265.58C180.121 270.44 181.578 275.029 183.467 279.348C196.148 308.341 227.77 325.456 259.986 318.869C263.332 318.167 266.677 317.196 269.861 316.062C270.131 315.954 270.293 315.846 270.563 315.792L274.232 341.329L277.47 363.736L277.416 363.79Z" fill="#F99958"/>
<path d="M279.035 311.904C276.337 313.416 273.477 314.712 270.563 315.792C270.347 315.9 270.131 315.954 269.915 316.062C266.732 317.196 263.44 318.167 259.986 318.869C232.573 324.484 205.646 312.876 190.321 291.442C187.677 287.717 185.356 283.613 183.468 279.294C181.579 274.921 180.122 270.386 179.097 265.526L177.154 256.078L163.717 190.587V190.425C170.678 181.409 179.798 167.263 184.925 149.77C187.245 141.888 188.81 133.411 189.026 124.341C189.026 124.341 208.398 140.916 254.212 136.975C257.504 136.651 260.904 136.273 264.465 135.787C272.668 134.599 281.625 132.817 291.339 130.118L313.409 237.775C319.615 267.956 304.883 297.651 279.089 311.689L279.035 311.904Z" fill="#F99958"/>
<path d="M274.988 346.944C211.474 346.296 191.508 294.843 190.375 291.604C190.375 291.604 190.375 291.496 190.375 291.442C205.7 312.876 232.627 324.43 260.04 318.869C263.44 318.167 266.785 317.195 269.969 316.062C270.185 315.9 270.401 315.846 270.617 315.792L275.096 346.944H274.988Z" fill="#D36D29"/>
<path d="M283.082 84.6574C214.334 91.3523 147.043 120.993 93.3501 164.456C84.3383 147.233 79.4277 127.634 79.4277 108.197C79.4277 96.7513 81.1545 85.3593 84.6621 74.5072C94.1595 45.2442 116.554 20.1925 144.884 8.09857C173.215 -3.99536 207.103 -2.64559 234.084 12.3098C260.364 26.8873 279.359 54.3146 283.082 84.1175C283.082 84.1175 283.082 84.2255 283.082 84.6034V84.6574Z" fill="#AF3737"/>
<path d="M335.588 93.9439C315.46 117.214 285.618 129.902 255.723 137.352C225.72 144.749 194.746 147.557 164.904 155.385C135.873 162.944 107.057 176.064 87.8999 198.902C88.1158 187.24 89.8965 175.632 93.2962 164.456C147.043 120.993 214.28 91.3523 283.028 84.6575C300.08 87.8969 317.402 91.6223 334.724 93.134L335.534 93.8899L335.588 93.9439Z" fill="#AF3737"/>
<path d="M281.679 82.0119C231.386 86.8711 182.334 102.906 138.732 128.39C144.938 119.535 151.09 110.627 156.594 101.287C159.94 95.6176 163.016 89.8406 165.768 83.8476C168.196 78.5025 171.38 72.2936 171.434 66.3006C171.434 61.3875 168.466 56.2584 163.285 55.5565C157.673 54.8006 153.141 59.6598 149.903 63.5471C142.51 72.5636 137.761 83.4157 134.577 94.5378C132.851 100.639 131.556 106.902 130.584 113.165C125.458 96.9674 116.77 81.9579 101.876 72.8335C98.0448 70.4579 93.0263 68.4063 88.6014 70.4579C84.2304 72.5096 83.4209 77.5307 84.3383 81.796C85.4715 86.8711 88.1157 91.7303 90.598 96.2115C93.2961 101.071 96.372 105.714 99.8795 110.033C104.412 115.648 109.539 120.561 115.151 125.043C100.149 122.505 84.3923 124.665 70.8477 131.791C67.4481 133.573 63.293 135.895 62.5375 140.052C61.8899 143.669 64.2643 146.693 67.556 147.881C71.819 149.5 76.9455 148.798 81.4244 148.475C87.1444 148.043 92.7565 147.179 98.3686 145.991C105.761 144.479 112.938 142.428 120.115 140.106C110.348 146.693 100.959 153.766 91.8931 161.324C89.4648 163.322 92.3248 167.317 94.7531 165.266C104.25 157.329 114.18 149.986 124.486 143.129C119.306 153.118 116.77 164.78 118.658 175.686C119.792 182.219 125.026 188.212 132.095 184.54C139.11 180.869 140.837 170.071 141.754 162.998C142.618 156.141 142.24 149.23 140.891 142.482C144.399 145.289 148.392 147.503 152.763 148.798C159.454 150.796 170.301 151.93 175.319 145.829C177.478 143.183 178.125 139.242 176.129 136.327C173.916 133.141 169.815 132.385 166.253 131.737C159.616 130.496 152.871 129.902 146.125 129.794C174.725 113.651 205.646 101.557 237.646 94.1059C252.324 90.7044 267.217 88.2749 282.219 86.8171C285.349 86.4932 284.809 81.634 281.679 81.9579V82.0119ZM135.225 114.838C135.926 110.087 136.844 105.336 137.977 100.639C140.297 91.0284 143.697 81.418 149.039 72.9955C151.576 68.9462 154.759 64.087 158.914 61.4955C161.343 59.9837 164.095 59.9297 165.66 62.6293C167.225 65.2208 166.469 68.5682 165.606 71.2678C162.26 81.418 157.026 91.0824 151.63 100.207C146.449 108.899 140.729 117.214 134.901 125.474C134.308 121.965 134.793 118.294 135.279 114.838H135.225ZM92.4327 89.3007C90.8678 86.0073 87.63 80.5542 89.087 76.7748C90.9217 71.9157 98.0448 76.1269 100.689 77.9086C108.406 83.0378 114.557 90.2725 119.144 98.2632C124.594 107.766 127.616 118.456 129.613 129.146C113.64 120.021 100.419 105.93 92.4867 89.3007H92.4327ZM81.4244 143.615C78.7262 143.831 68.6892 145.667 67.3941 141.834C66.045 137.838 77.539 134.005 80.0213 133.087C84.8779 131.251 89.9504 130.064 95.1308 129.416C105.546 128.174 116.068 129.416 125.889 133.033C116.878 136.273 107.758 139.08 98.3686 141.078C92.7565 142.266 87.1444 143.129 81.4244 143.615ZM136.898 162.242C136.358 166.561 135.387 170.935 133.768 174.984C132.419 178.277 127.832 183.838 124.756 178.817C122.814 175.632 122.922 170.935 123.029 167.317C123.137 163.43 123.731 159.489 124.702 155.709C126.483 148.744 129.883 142.374 134.308 136.759C137.006 144.965 137.977 153.604 136.898 162.188V162.242ZM168.844 137.298C170.247 137.73 171.865 138.324 172.297 139.782C172.891 141.672 171.326 143.237 169.761 144.047C164.688 146.747 157.026 145.397 151.953 143.399C147.151 141.564 142.996 138.54 139.704 134.599C145.802 134.437 151.899 134.599 157.943 135.355C161.505 135.787 165.336 136.165 168.79 137.19L168.844 137.298Z" fill="#F4E9DC"/>
<path d="M194.314 257.86C204 257.86 211.851 250.004 211.851 240.313C211.851 230.622 204 222.766 194.314 222.766C184.628 222.766 176.776 230.622 176.776 240.313C176.776 250.004 184.628 257.86 194.314 257.86Z" fill="#D36D29"/>
<path d="M271.966 166.075C272.29 164.348 273.153 162.62 274.664 161.594C275.204 161.27 275.743 161 276.283 160.676C277.47 160.244 278.657 160.083 279.898 160.298L295.817 160.946C297.436 161 299.379 162.404 300.296 163.646C301.321 164.996 301.969 167.155 301.591 168.883C301.267 170.611 300.404 172.338 298.893 173.364C298.353 173.688 297.814 173.958 297.274 174.282C296.087 174.714 294.9 174.876 293.659 174.66L277.74 174.012C276.121 173.958 274.178 172.554 273.261 171.313C272.236 169.963 271.588 167.803 271.966 166.075Z" fill="#36344C"/>
<path d="M230.307 171.906C229.605 170.287 228.418 168.775 226.745 168.127C226.152 167.965 225.558 167.749 224.964 167.587C223.723 167.371 222.536 167.533 221.349 167.965L205.97 172.014C204.405 172.446 202.84 174.174 202.192 175.578C201.491 177.144 201.329 179.357 202.03 180.977C202.732 182.597 203.919 184.108 205.592 184.756C206.185 184.918 206.779 185.134 207.373 185.296C208.614 185.512 209.801 185.35 210.988 184.918L226.367 180.869C227.932 180.437 229.497 178.709 230.145 177.306C230.846 175.74 231.008 173.526 230.307 171.906Z" fill="#36344C"/>
<path d="M244.243 275.284C250.394 274.813 254.873 267.78 254.246 259.574C253.619 251.368 248.124 245.097 241.973 245.567C235.822 246.038 231.344 253.071 231.97 261.277C232.597 269.483 238.092 275.754 244.243 275.284Z" fill="#C4532C"/>
<path d="M259.501 235.4C264.789 233.942 270.131 232.484 275.42 230.972C267.703 218.069 259.986 205.219 252.216 192.315C250.597 189.615 254.59 186.754 256.209 189.453C264.519 203.329 272.829 217.151 281.14 231.026C281.895 232.268 281.625 234.266 280.006 234.752C273.747 236.479 267.487 238.207 261.228 239.989C258.206 240.799 256.479 236.263 259.555 235.4H259.501Z" fill="#D36D29"/>
<path d="M225.558 253.271C226.314 252.299 228.04 252.029 229.012 252.947C236.081 259.911 245.902 263.691 255.831 263.097C258.961 262.935 259.393 267.794 256.263 267.956C245.147 268.604 233.868 264.555 225.936 256.726C225.018 255.808 224.695 254.35 225.612 253.271H225.558Z" fill="#36344C"/>
<path d="M222.536 211.59C228.437 211.59 233.221 206.127 233.221 199.388C233.221 192.649 228.437 187.186 222.536 187.186C216.635 187.186 211.852 192.649 211.852 199.388C211.852 206.127 216.635 211.59 222.536 211.59Z" fill="#36344C"/>
<path d="M285.457 205.219C291.357 205.219 296.141 199.756 296.141 193.017C296.141 186.278 291.357 180.815 285.457 180.815C279.556 180.815 274.772 186.278 274.772 193.017C274.772 199.756 279.556 205.219 285.457 205.219Z" fill="#36344C"/>
<path d="M666 722.666C666 670.133 460.996 314.172 386.366 373.076L324.363 359.956C324.363 359.956 313.517 335.498 274.232 341.383L277.47 363.79C277.47 363.79 277.47 363.79 277.47 363.898C277.47 364.006 277.47 364.059 277.47 364.167L277.038 365.949L228.958 557.832L154.975 370.376V370.268L155.407 349.914H154.921C154.921 349.914 131.501 353.369 130.53 383.928L47.6975 423.989C47.6975 423.989 5.22906 402.285 -12.0389 453.9C-29.3609 505.515 -33.0843 669.215 -33.0843 669.215L-121.313 599.297L-176.301 654.962C-176.301 654.962 -62.9256 805.758 -14.7371 819.363C32.8039 832.753 84.2301 743.29 85.6871 740.645C83.9064 746.8 -31.3575 1140.72 -73.772 1278.34C-116.564 1417.09 -129.461 1530.58 -129.461 1530.58C-129.461 1530.58 -118.291 1563.09 -56.8278 1563.09C-56.8278 1563.09 -2.1638 1623.56 93.1879 1599.8C93.1879 1599.8 181.417 1649.36 289.396 1595.7C289.396 1595.7 379.675 1622.53 439.411 1565.84L399.101 922.27C399.101 922.27 666.108 775.253 666.108 722.72L666 722.666ZM378.164 835.669L408.059 592.278L526.83 690.973L378.164 835.669Z" fill="#6BB2AB"/>
<path d="M228.85 557.832L381.941 805.11C381.941 805.11 180.014 636.605 143.967 523.17C94.1592 366.543 155.515 340.412 155.515 340.412L154.867 370.376L228.85 557.832Z" fill="#389688"/>
<path d="M324.31 359.902C324.31 359.902 336.397 491.208 253.187 618.464L216.115 578.619L277.308 363.843L274.124 341.329C274.124 341.329 306.124 324.106 324.256 359.902H324.31Z" fill="#389688"/>
<path d="M52.7161 504.273C49.4783 483.055 46.1866 461.891 42.8409 440.672C42.3553 437.595 37.4986 438.081 37.9843 441.212C50.0719 517.177 61.1882 593.25 71.2792 669.539C74.0852 690.811 76.8373 712.084 79.4815 733.356C79.8592 736.488 84.7158 735.948 84.3381 732.816C74.7867 656.473 64.264 580.292 52.7161 504.273Z" fill="#389688"/>
<path d="M379.135 376.693C366.13 413.461 363.918 453.576 373.092 491.478C373.847 494.501 378.704 494.015 377.948 490.938C368.99 453.9 370.825 414.649 383.56 378.691C384.586 375.721 380.161 373.724 379.135 376.693Z" fill="#389688"/>
<path d="M274.34 446.665C273.963 445.801 273.369 445.046 272.614 444.506C271.858 443.858 270.995 443.426 270.077 443.21C269.16 442.832 268.189 442.724 267.163 442.886C266.57 443.048 265.922 443.21 265.329 443.318C264.141 443.804 263.116 444.506 262.307 445.477C261.983 446.017 261.659 446.557 261.281 447.097C260.742 448.339 260.526 449.635 260.688 450.93V451.632C260.742 452.604 261.066 453.522 261.605 454.278C261.983 455.142 262.577 455.898 263.332 456.438C264.087 457.085 264.951 457.517 265.868 457.733C266.786 458.111 267.757 458.219 268.782 458.057C269.376 457.895 270.023 457.733 270.617 457.625C271.804 457.139 272.829 456.438 273.639 455.466C273.963 454.926 274.286 454.386 274.664 453.846C275.204 452.604 275.42 451.308 275.258 450.013V449.311C275.204 448.339 274.88 447.421 274.34 446.665Z" fill="#F4E9DC"/>
<path d="M305.692 348.294C296.303 348.294 297.976 362.872 307.311 362.872C316.647 362.872 315.028 348.294 305.692 348.294Z" fill="#F4E9DC"/>
<path d="M308.229 331.557C307.851 330.693 307.257 329.937 306.502 329.397C305.746 328.75 304.883 328.318 303.965 328.102C303.048 327.724 302.077 327.616 301.051 327.778C300.458 327.94 299.81 328.102 299.217 328.21C298.03 328.696 297.004 329.397 296.195 330.369C295.871 330.909 295.547 331.449 295.17 331.989C294.63 333.231 294.414 334.527 294.576 335.822V336.524C294.63 337.496 294.954 338.414 295.493 339.17C295.871 340.034 296.465 340.789 297.22 341.329C297.976 341.977 298.839 342.409 299.756 342.625C300.674 343.003 301.645 343.111 302.67 342.949C303.264 342.787 303.912 342.625 304.505 342.517C305.692 342.031 306.718 341.329 307.527 340.358C307.851 339.818 308.175 339.278 308.552 338.738C309.092 337.496 309.308 336.2 309.146 334.904V334.203C309.092 333.231 308.768 332.313 308.229 331.557Z" fill="#F4E9DC"/>
<path d="M293.605 319.301C293.227 318.437 292.634 317.682 291.878 317.142C291.123 316.494 290.259 316.062 289.342 315.846C288.425 315.468 287.453 315.36 286.428 315.522C285.834 315.684 285.187 315.846 284.593 315.954C283.406 316.44 282.381 317.142 281.571 318.113C281.248 318.653 280.924 319.193 280.546 319.733C280.006 320.975 279.791 322.271 279.952 323.566V324.268C280.006 325.24 280.33 326.158 280.87 326.914C281.248 327.778 281.841 328.534 282.597 329.074C283.352 329.721 284.216 330.153 285.133 330.369C286.05 330.747 287.022 330.855 288.047 330.693C288.64 330.531 289.288 330.369 289.882 330.261C291.069 329.775 292.094 329.074 292.903 328.102C293.227 327.562 293.551 327.022 293.929 326.482C294.468 325.24 294.684 323.944 294.522 322.649V321.947C294.468 320.975 294.145 320.057 293.605 319.301Z" fill="#F4E9DC"/>
<path d="M120.331 410.114C120.277 409.142 119.953 408.224 119.414 407.468C119.036 406.604 118.442 405.848 117.687 405.308C117.147 404.985 116.608 404.661 116.068 404.283C114.827 403.743 113.532 403.527 112.237 403.689C111.643 403.851 110.996 404.013 110.402 404.121C109.215 404.607 108.189 405.308 107.38 406.28C107.164 406.496 106.948 406.712 106.679 406.982C106.031 407.738 105.599 408.602 105.383 409.52C105.006 410.438 104.898 411.409 105.06 412.435C105.114 413.407 105.437 414.325 105.977 415.081C106.355 415.945 106.948 416.7 107.704 417.24C108.243 417.564 108.783 417.888 109.323 418.266C110.564 418.806 111.859 419.022 113.154 418.86C113.748 418.698 114.395 418.536 114.989 418.428C116.176 417.942 117.201 417.24 118.011 416.269C118.227 416.053 118.442 415.837 118.712 415.567C119.36 414.811 119.791 413.947 120.007 413.029C120.385 412.111 120.493 411.139 120.331 410.114Z" fill="#F4E9DC"/>
<path d="M128.911 391.595C119.522 391.595 121.195 406.172 130.53 406.172C139.866 406.172 138.247 391.595 128.911 391.595Z" fill="#F4E9DC"/>
<path d="M-5.94113 447.745C-15.3306 447.745 -13.6578 462.323 -4.32224 462.323C5.01327 462.323 3.39438 447.745 -5.94113 447.745Z" fill="#F4E9DC"/>
<path d="M17.4246 442.292C8.03513 442.292 9.70796 456.87 19.0435 456.87C28.379 456.87 26.7601 442.292 17.4246 442.292Z" fill="#F4E9DC"/>
<path d="M38.74 435.003C29.3506 435.003 31.0234 449.581 40.3589 449.581C49.6944 449.581 48.0755 435.003 38.74 435.003Z" fill="#F4E9DC"/>
<path d="M76.406 420.426C67.0166 420.426 68.6894 435.003 78.0249 435.003C87.3604 435.003 85.7416 420.426 76.406 420.426Z" fill="#F4E9DC"/>
<path d="M290.907 403.797C281.517 403.797 283.19 418.374 292.525 418.374C301.861 418.374 300.242 403.797 290.907 403.797Z" fill="#F4E9DC"/>
<path d="M298.623 386.142C289.234 386.142 290.907 400.719 300.242 400.719C309.578 400.719 307.959 386.142 298.623 386.142Z" fill="#F4E9DC"/>
<path d="M280.762 422.801C271.372 422.801 273.045 437.379 282.38 437.379C291.716 437.379 290.097 422.801 280.762 422.801Z" fill="#F4E9DC"/>
<path d="M305.207 366.921C295.817 366.921 297.49 381.499 306.826 381.499C316.161 381.499 314.542 366.921 305.207 366.921Z" fill="#F4E9DC"/>
<path d="M92.4324 413.353C83.0429 413.353 84.7158 427.931 94.0513 427.931C103.387 427.931 101.768 413.353 92.4324 413.353Z" fill="#F4E9DC"/>
<path d="M54.5511 427.931C45.1616 427.931 46.8344 442.508 56.1699 442.508C65.5054 442.508 63.8866 427.931 54.5511 427.931Z" fill="#F4E9DC"/>
</g>
</g>
<defs>
<clipPath id="clip0_8_766">
<rect width="400" height="450" fill="white"/>
</clipPath>
<clipPath id="clip1_8_766">
<rect width="892" height="2097" fill="white" transform="translate(-226)"/>
</clipPath>
</defs>
</svg>
