<svg width="400" height="450" viewBox="0 0 400 450" fill="none" xmlns="http://www.w3.org/2000/svg">
<g clip-path="url(#clip0_1_580)">
<g clip-path="url(#clip1_1_580)">
<path d="M181.298 474.034L188.735 474.475L208.651 571H292.428L261.724 399.12H101.578L98.5503 571H181.24L181.298 474.034Z" fill="#006334"/>
<path d="M157.929 100.232C158.164 108.486 151.668 115.371 143.408 115.606C135.162 115.842 128.284 109.339 128.049 101.071C127.814 92.8177 134.31 85.9325 142.57 85.6971C150.815 85.4617 157.694 91.9644 157.929 100.232Z" fill="#C77D69"/>
<path d="M134.516 98.5553C134.516 98.5553 140.453 95.6571 146.127 105.985" stroke="#AA523F" stroke-width="1.2" stroke-linecap="round" stroke-linejoin="round"/>
<path d="M156.827 34.9114C156.827 34.9114 140.071 36.9711 137.852 54.1105C134.751 77.9439 145.48 95.0392 145.48 95.0392L146.053 56.6998L156.827 34.9262V34.9114Z" fill="#1E0A04"/>
<path d="M227.434 115.621C235.69 115.621 242.382 108.922 242.382 100.659C242.382 92.3958 235.69 85.6971 227.434 85.6971C219.179 85.6971 212.487 92.3958 212.487 100.659C212.487 108.922 219.179 115.621 227.434 115.621Z" fill="#C77D69"/>
<path d="M235.856 98.3199C235.856 98.3199 229.83 95.5982 224.465 106.088" stroke="#AA523F" stroke-width="1.2" stroke-linecap="round" stroke-linejoin="round"/>
<path d="M204.388 135.129C204.388 135.129 195.967 141.088 188.28 142.544C180.608 144.015 173.141 139.558 173.038 139.499C172.95 139.44 164.073 134.335 164.073 134.335L160.398 178.927L161.398 179.751C174.42 190.505 193.174 190.623 206.343 180.06L208.269 178.515L204.388 135.129Z" fill="#C77D69"/>
<path d="M156.827 136.6C156.827 136.6 174.831 158.771 189.647 155.446C205.094 151.974 209.709 133.57 209.709 133.57L156.827 136.615V136.6Z" fill="#AA523F"/>
<path d="M225.568 74.619C225.656 91.523 223.319 106.132 220.953 116.504C218.645 126.655 212.046 133.776 202.698 139.528L200.993 140.573C191.102 146.663 178.285 146.869 168.173 141.102C157.988 135.291 150.83 127.597 148.581 116.725C144.495 96.9517 143.951 75.0456 143.951 75.0456C143.951 75.0456 138.219 29.3062 182.224 29.9241C226.229 30.542 225.553 74.6337 225.553 74.6337L225.568 74.619Z" fill="#C77D69"/>
<path d="M201.522 69.6905C201.522 69.6905 192.454 67.925 192.042 72.8094C192.042 72.8094 191.822 76.1196 199.744 77.4584C207.666 78.7972 210.826 78.5176 211.752 75.4723C212.693 72.4269 205.799 70.0877 201.522 69.6905Z" fill="#1E0A04"/>
<path d="M162.471 69.9112C162.471 69.9112 153.24 70.3231 153.975 75.1633C153.975 75.1633 154.548 78.4294 162.559 77.8703C170.569 77.3113 173.567 76.2961 173.773 73.1184C173.964 69.9406 166.718 69.2785 162.471 69.8964V69.9112Z" fill="#1E0A04"/>
<path d="M169.349 90.7727C169.349 92.7441 167.762 94.333 165.792 94.333C163.823 94.333 162.235 92.7441 162.235 90.7727C162.235 88.8013 163.823 87.2124 165.792 87.2124C167.762 87.2124 169.349 88.8013 169.349 90.7727Z" fill="#1E0A04"/>
<path d="M204.286 90.7727C204.286 92.7441 202.698 94.333 200.729 94.333C198.759 94.333 197.172 92.7441 197.172 90.7727C197.172 88.8013 198.759 87.2124 200.729 87.2124C202.698 87.2124 204.286 88.8013 204.286 90.7727Z" fill="#1E0A04"/>
<path d="M186.369 104.175H180.02V95.1127" stroke="#AA523F" stroke-width="1.2" stroke-linecap="round" stroke-linejoin="round"/>
<path d="M223.686 94.0093C223.686 94.0093 223.304 118.063 210.179 115.621C203.198 114.327 199.303 112.488 195.57 111.163C183.694 106.191 173.788 110.943 173.788 110.943C169.849 112.282 165.925 114.253 158.546 115.621C145.421 118.063 145.627 95.0392 145.627 95.0392C145.627 95.0392 136.573 109.251 144.613 125.831C149.669 136.247 156.988 141.455 163.999 143.956C164.234 144.045 164.455 144.118 164.69 144.206C164.705 144.206 164.719 144.206 164.734 144.221C183.885 151.018 200.743 145.133 200.743 145.133C208.842 143.294 218.101 138.263 224.127 125.831C232.167 109.266 223.701 94.0093 223.701 94.0093H223.686Z" fill="#1E0A04"/>
<path d="M175.405 115.621C175.405 115.621 181.519 119.284 188.956 116.739" stroke="white" stroke-width="1.2" stroke-linecap="round" stroke-linejoin="round"/>
<path d="M145.539 96.7457C145.539 96.7457 155.181 44.4889 148.787 37.4272C148.787 37.4272 126.696 57.4796 145.539 96.7457Z" fill="#1E0A04"/>
<path d="M223.907 94.642C223.907 94.642 208.269 49.5057 218.586 42.0909C218.586 42.0909 240.001 52.8012 223.907 94.642Z" fill="#1E0A04"/>
<path d="M207.46 34.6466C207.46 34.6466 230.536 28.2617 232.975 52.4775C234.695 69.6758 223.716 95.0392 223.716 95.0392L223.143 56.6999L207.475 34.6614L207.46 34.6466Z" fill="#1E0A04"/>
<path d="M201.934 33.8816C201.934 33.8816 201.434 64.4383 224.466 64.8061C224.466 64.8061 228.86 37.5155 201.934 33.8816Z" fill="#1E0A04"/>
<path d="M211.517 46.0484C211.517 46.0484 195.232 42.2969 177.874 50.1383C160.516 57.9798 132.223 64.2912 128.063 43.8416C123.742 22.5534 147.038 4.01637 190.073 18.081C224.069 29.1885 213.971 41.6789 213.971 41.6789L211.502 46.0484H211.517Z" fill="#1E0A04"/>
<path d="M207.46 34.6466C207.46 34.6466 224.936 22.9948 231.182 44.7684L217.91 49.3439L207.46 34.6466Z" fill="#1E0A04"/>
<path d="M214.971 36.5445C214.971 36.5445 214.206 17.2865 186.957 5.82593C184.664 4.86965 182.033 5.14918 179.99 6.54681C176.58 8.8713 175.742 13.535 178.123 16.904L183.209 24.0982L214.985 36.5445H214.971Z" fill="#1E0A04"/>
<path d="M53.443 244.63L7.79191 327.414C-0.203634 341.906 4.86707 360.134 19.1826 368.402C33.3218 376.567 51.3853 372.08 60.0569 358.221L107.457 282.513L53.443 244.63Z" fill="#C77D69"/>
<path d="M39.2891 256.164L104.797 298.241L134.721 249.868C145.803 231.949 147.082 206.865 129.357 195.492L122.757 197.067C104.797 185.547 80.9129 190.799 69.4487 208.807L39.2891 256.164Z" fill="#00CC87"/>
<path d="M162.662 178.897L98.4768 191.123L101.578 399.12H261.724L267.339 184.179L206.49 181.119L162.662 178.897Z" fill="#00CC87"/>
<path d="M100.49 295.475V239.172" stroke="#121E35" stroke-width="1.32" stroke-linecap="round" stroke-linejoin="round"/>
<path d="M160.413 177.72L184.811 220.782L208.283 178.5L160.413 177.72Z" fill="#C77D69"/>
<path d="M159.796 174.954L145.039 182.561L161.706 216.015L176.007 205.246L159.796 174.954Z" fill="white"/>
<path d="M209.018 174.954L225.626 182.075L208.077 216.015L193.703 204.776L209.018 174.954Z" fill="white"/>
<path d="M142.232 279.983C131.4 279.983 122.625 271.2 122.625 260.357V240.732H161.838V260.357C161.838 271.2 153.064 279.983 142.232 279.983Z" fill="#006334"/>
<path d="M397.972 183.017L339.872 66.8952L315.385 88.8307L350.939 208.086L397.972 183.017Z" fill="#C77D69"/>
<path d="M342.958 79.2533C348.852 65.4534 343.208 46.3279 343.208 46.3279L344.972 18.4488C345.31 15.8006 343.62 13.329 341.033 12.6964C338.255 12.0197 335.433 13.7115 334.728 16.4921L332.405 34.4848L329.936 34.4407L326.585 5.50227C326.32 1.98612 323.087 -0.544334 319.618 0.0882791C316.738 0.603197 314.65 3.16307 314.739 6.09075L316.943 37.4125L314.415 37.9127L305.553 6.70865C304.597 3.08952 300.82 1.00042 297.248 2.11853C293.971 3.14836 292.031 6.54682 292.824 9.88643L301.981 45.6217L298.762 46.4897L286.74 21.3912C285.343 18.4782 281.757 17.4189 278.994 19.0961C276.789 20.4349 275.819 23.1419 276.686 25.5841L288.871 58.9802L278.788 58.7301C274.07 58.7448 270.396 62.8347 270.866 67.5278C271.204 70.8527 273.556 73.6186 276.775 74.4572L290.047 77.6791C290.047 77.6791 303.627 90.1254 318.516 95.5394C318.516 95.5394 339.181 88.0804 342.958 79.2533Z" fill="#C77D69"/>
<path d="M288.885 58.9802C288.885 58.9802 303.51 56.3026 314.945 67.16" stroke="#AA523F" stroke-width="1.2" stroke-linecap="round" stroke-linejoin="round"/>
<path d="M300.394 243.13L378.042 222.857C393.812 218.428 403.145 202.172 399.015 186.297C394.768 169.938 379.467 160.287 363.226 164.906L283.947 182.811L300.394 243.13Z" fill="#C77D69"/>
<path d="M309.124 174.557L231.785 183.193L253.905 263.712L320.221 246.808L309.124 174.557Z" fill="#00CC87"/>
<path d="M264.972 259.96V233.214" stroke="#121E35" stroke-width="1.32" stroke-linecap="round" stroke-linejoin="round"/>
<path d="M237.576 301.051L301.687 295.695L310.329 415.745C311.196 430.28 300.188 441.3 285.681 442.3L256.212 450.995C242.264 451.966 230.609 440.505 231.3 426.529L237.561 301.036L237.576 301.051Z" fill="#FF8F29"/>
<path d="M237.576 301.051L259.872 307.068L301.687 295.681L275.995 292.503L237.576 301.051Z" fill="#E27113"/>
<path d="M237.576 301.051C237.576 301.051 228.595 216.133 242.382 182.016L254.184 180.707C254.184 180.707 242.382 233.685 250.539 304.567L237.576 301.065V301.051Z" fill="#1E0A04"/>
<path d="M301.966 275.246C303.936 279.792 308.83 282.322 313.666 281.278C319.942 279.909 329.128 278.6 338.667 279.601C345.031 280.263 350.425 274.952 349.984 268.552L349.896 267.257C349.587 262.638 346.251 258.754 341.724 257.812C334.581 256.326 322.793 255.694 307.816 261.417C302.29 263.535 299.615 269.832 301.966 275.261V275.246Z" fill="#00CC87"/>
<path d="M269.631 304.14C269.631 304.14 290.208 260.622 338.666 269.126" stroke="#121E35" stroke-width="0.87" stroke-linecap="round" stroke-linejoin="round"/>
<path d="M308.331 299.491C308.14 303.375 310.712 306.862 314.489 307.803C319.383 309.024 326.321 311.29 332.685 315.306C336.932 317.984 342.576 316.116 344.487 311.467L344.869 310.525C346.251 307.156 345.251 303.257 342.385 301.021C337.858 297.49 329.789 292.944 317.237 291.767C312.608 291.341 308.551 294.842 308.316 299.491H308.331Z" fill="#00CC87"/>
<path d="M270.219 303.905C270.219 303.905 295.367 284.573 333.846 305.552" stroke="#121E35" stroke-width="0.68" stroke-linecap="round" stroke-linejoin="round"/>
<path d="M275.996 292.503L273.82 258.827L284.829 255.841L287.548 293.93L275.996 292.503Z" fill="#1E0A04"/>
<path d="M30.2354 372.183L112.087 390.19L134.677 355.308L22.8718 312.967L30.2354 372.183Z" fill="#C77D69"/>
<path d="M75.5044 332.858L43.5369 321.706" stroke="#AA523F" stroke-width="1.2" stroke-linecap="round" stroke-linejoin="round"/>
<path d="M179.696 328.062L184.605 397.664C184.605 397.664 215.911 409.478 235.9 396.516L241.485 328.062C241.485 328.062 237.752 325.487 233.167 325.487L187.736 325.237C183.18 325.237 179.696 328.076 179.696 328.076V328.062Z" fill="white"/>
<path d="M192.704 384.967C191.175 384.703 155.445 378.391 157.032 355.72C157.473 349.394 159.898 344.701 164.234 341.758C172.818 335.933 185.59 339.905 186.134 340.081L183.738 347.629C181.063 346.79 173.126 345.275 168.658 348.32C166.409 349.85 165.19 352.454 164.925 356.279C163.852 371.58 193.732 377.126 194.041 377.17L192.718 384.967H192.704Z" fill="white"/>
<path d="M205.652 368.431C205.652 368.431 217.66 366.401 215.676 342.715C215.676 342.715 201.919 347.952 205.652 368.431Z" fill="#00CC87"/>
<path d="M208.577 372.712C208.577 372.712 214.706 362.826 232.093 370.285C232.093 370.285 220.159 379.745 208.577 372.712Z" fill="#00CC87"/>
<path d="M211.223 355.426C211.223 355.426 207.005 371.55 193.277 383.29" stroke="#121E35" stroke-width="0.58" stroke-linecap="round" stroke-linejoin="round"/>
<path d="M202.169 373.566L220.335 371.3" stroke="#121E35" stroke-width="0.58" stroke-linecap="round" stroke-linejoin="round"/>
<path d="M210.591 333.799C227.653 333.799 241.485 331.23 241.485 328.062C241.485 324.893 227.653 322.324 210.591 322.324C193.528 322.324 179.696 324.893 179.696 328.062C179.696 331.23 193.528 333.799 210.591 333.799Z" fill="#006334"/>
<path d="M121.773 352.837C121.773 352.837 137.117 332.078 155.166 352.763L147.993 367.019L121.787 352.837H121.773Z" fill="#C77D69"/>
<path d="M129.489 350.365L172.774 351.439C177.786 351.557 181.798 355.676 181.798 360.693C181.798 364.238 179.77 367.49 176.566 369.034L174.243 370.153C174.243 370.153 178.667 402.96 152.653 406.859C126.638 410.758 112.087 390.205 112.087 390.205L129.489 350.38V350.365Z" fill="#C77D69"/>
</g>
</g>
<defs>
<clipPath id="clip0_1_580">
<rect width="400" height="450" fill="white"/>
</clipPath>
<clipPath id="clip1_1_580">
<rect width="396" height="571" fill="white" transform="translate(4)"/>
</clipPath>
</defs>
</svg>
