<svg width="400" height="450" viewBox="0 0 400 450" fill="none" xmlns="http://www.w3.org/2000/svg">
<g clip-path="url(#clip0_8_442)">
<g clip-path="url(#clip1_8_442)">
<path d="M292.462 331.659L193.833 292.933L95.2044 331.659L47.0991 346.514V1078.97H189.602H198.115H340.617V346.514L292.462 331.659Z" fill="#11394F"/>
<path d="M356.031 409.965H31.6855V434.137H356.031V409.965Z" fill="#1E638A"/>
<path d="M116.865 318.112L128.652 392.541L123.01 1153.1H-112.177C-112.177 1153.1 -80.997 1128.22 -99.4332 1103.85C-117.869 1079.48 -106.032 1060.09 -106.032 1060.09C-106.032 1060.09 -232.567 1109.64 -283.594 983.141C-320.466 891.641 -279.362 750.89 -241.08 630.483C-202.847 510.077 -158.671 408.152 -113.588 376.628C-40.3971 325.464 116.865 318.112 116.865 318.112Z" fill="#BA6528"/>
<path d="M158.875 306.127L128.651 339.414V392.541C128.651 392.541 75.4082 400.548 74.8037 364.945C73.9474 311.364 153.435 284.926 153.435 284.926L158.875 306.177V306.127Z" fill="#FCA750"/>
<path d="M282.135 318.112L270.348 392.541L275.99 1153.1H511.177C511.177 1153.1 479.997 1128.22 498.433 1103.85C516.869 1079.48 505.032 1060.09 505.032 1060.09C505.032 1060.09 631.566 1109.64 682.593 983.141C719.466 891.641 678.362 750.89 640.079 630.483C601.847 510.077 557.671 408.152 512.588 376.628C439.397 325.464 282.135 318.112 282.135 318.112Z" fill="#BA6528"/>
<path d="M240.075 306.127L270.298 339.414V392.541C270.298 392.541 323.541 400.548 324.146 364.945C325.002 311.364 245.515 284.926 245.515 284.926L240.075 306.177V306.127Z" fill="#FCA750"/>
<path d="M152.276 238.143L145.677 327.378C145.677 327.378 149.908 350.039 191.969 350.039C234.03 350.039 251.005 322.191 251.005 322.191V235.777L152.326 238.143H152.276Z" fill="#FF6969"/>
<path d="M149.959 269.315C162.048 285.581 179.981 298.926 197.611 299.48C214.385 299.983 234.786 292.278 250.955 280.243V235.827L152.276 238.194L149.959 269.366V269.315Z" fill="#AB251D"/>
<path d="M114.85 101.472L120.894 157.067L288.684 167.693L296.34 145.132L251.005 62.5448L189.249 61.1348L114.85 101.472Z" fill="#11454F"/>
<path d="M133.135 153.693C133.135 153.693 126.738 137.578 113.54 138.082C100.343 138.535 98.2271 165.074 108.352 177.764C120.391 192.871 135.251 184.613 135.251 184.613L133.135 153.743V153.693Z" fill="#E64C4C"/>
<path d="M276.595 165.175C276.595 165.175 285.208 150.168 298.204 152.484C311.251 154.851 309.488 181.39 297.701 192.469C283.647 205.713 270.097 195.44 270.097 195.44L276.595 165.175Z" fill="#E64C4C"/>
<path d="M134.344 87.5727C134.344 87.5727 128.702 177.764 128.702 204.202C128.702 230.64 160.336 270.272 191.063 271.229C221.79 272.186 264.707 245.748 271.356 215.029C277.955 184.361 289.792 101.723 289.792 101.723L241.233 36.1571L134.445 87.5727H134.344Z" fill="#FF6969"/>
<path d="M194.538 153.693L190.66 190.706H205.57" stroke="#AB251D" stroke-linecap="round" stroke-linejoin="round"/>
<path d="M170.208 203.447C170.208 203.447 201.59 213.367 228.539 202.037" stroke="#AB251D" stroke-linecap="round" stroke-linejoin="round"/>
<path d="M194.689 236.784C202.701 236.784 209.196 233.289 209.196 228.978C209.196 224.667 202.701 221.173 194.689 221.173C186.677 221.173 180.182 224.667 180.182 228.978C180.182 233.289 186.677 236.784 194.689 236.784Z" fill="#FF9696"/>
<path d="M180.233 154.851C179.679 161.297 176.002 166.182 172.022 165.829C168.043 165.477 165.323 159.988 165.877 153.542C166.431 147.096 170.108 142.211 174.087 142.564C178.067 142.916 180.787 148.405 180.233 154.851Z" fill="#0A2330"/>
<path d="M238.815 160.088C238.261 166.534 234.584 171.419 230.605 171.066C226.625 170.714 223.905 165.225 224.459 158.779C225.013 152.333 228.691 147.449 232.67 147.801C236.649 148.154 239.369 153.643 238.815 160.088Z" fill="#0A2330"/>
<path d="M158.875 120.104C158.875 120.104 179.88 113.004 189.552 125.996" stroke="#11454F" stroke-width="2" stroke-miterlimit="10"/>
<path d="M220.984 128.161C220.984 128.161 236.347 122.118 249.092 134.053" stroke="#11454F" stroke-width="2" stroke-miterlimit="10"/>
<path d="M203.756 66.3216C203.756 66.3216 158.875 102.68 165.524 108.32C172.173 113.96 218.415 105.5 251.006 73.3718C251.006 73.3718 268.485 116.327 296.34 145.132C296.34 145.132 319.965 113.004 322.332 86.616C324.7 60.178 280.775 54.9911 280.775 54.9911C280.775 54.9911 279.818 16.7693 245.817 2.56829C211.816 -11.5823 102.055 36.1571 85.7347 63.9548C80.0426 73.6236 115.001 74.8322 115.001 74.8322C115.001 74.8322 73.4439 105.047 81.9568 118.241C90.4696 131.435 179.225 84.2491 203.807 66.3216H203.756Z" fill="#11454F"/>
</g>
</g>
<defs>
<clipPath id="clip0_8_442">
<rect width="400" height="450" fill="white"/>
</clipPath>
<clipPath id="clip1_8_442">
<rect width="995" height="1800" fill="white" transform="translate(-298)"/>
</clipPath>
</defs>
</svg>
