<svg width="400" height="450" viewBox="0 0 400 450" fill="none" xmlns="http://www.w3.org/2000/svg">
<g clip-path="url(#clip0_8_899)">
<g clip-path="url(#clip1_8_899)">
<path d="M386.555 216.189C374.671 232.691 354.898 240.941 335.125 242.966C339.323 247.977 341.699 254.406 341.902 261.087C342.407 277.032 331.282 290.091 316.667 295.204C300.586 300.923 283.443 296.57 269.131 288.168C265.591 294.596 260.787 300.265 254.871 304.77C243.442 313.477 228.574 317.324 214.364 314.59C200.862 312.009 188.573 303.96 180.785 292.571C169.205 304.315 151.606 309.883 135.474 305.833C119.747 301.835 106.751 289.534 101.694 274.147C93.0461 277.943 83.1343 278.55 73.9811 276.222C56.1298 271.768 41.8185 257.19 40.7565 238.36C39.7957 221.605 48.3926 204.648 62.9568 196.246C57.2929 192.753 52.8933 187.539 50.0614 181.465C43.5378 167.393 45.5607 150.74 54.3599 138.136C63.9682 124.419 79.7461 116.32 95.7263 112.524C91.0232 94.6555 92.4392 75.6738 99.2662 58.5143C112.162 25.7645 143.869 4.30256 178.358 0.65807C213.909 -3.08765 249.055 12.857 272.57 39.1783C272.722 39.3301 272.722 39.3808 272.772 39.5326C274.037 39.3301 275.25 39.0264 276.565 38.9758C290.219 38.0141 303.266 44.5944 311.003 55.6797C318.741 66.6638 321.37 80.3306 321.168 93.5925C329.259 88.8344 338.463 85.9492 347.92 85.9998C364.759 86.1011 381.498 96.8321 385.493 113.789C388.527 126.595 381.953 140.667 370.575 146.589C378.009 149.373 384.431 154.536 389.084 161.117C401.018 177.973 398.287 200.143 386.555 216.29V216.189Z" fill="#36344C"/>
<path d="M290.927 178.884C289.865 188.754 285.82 198.422 278.639 205.205C272.772 210.824 264.782 214.367 256.691 214.417L253.859 311.503C253.859 311.503 251.23 317.071 246.527 325.827C227.765 360.804 175.829 446.804 124.905 434.251C77.7739 422.609 104.627 360.855 121.77 329.624C127.788 318.69 132.491 310.996 132.491 310.996L144.172 311.503L149.23 276.121C152.163 277.133 155.247 277.943 158.332 278.55C161.467 279.158 164.653 279.512 167.94 279.664C170.924 279.765 173.857 279.664 176.74 279.36C177.802 279.36 178.864 279.158 179.875 279.006C181.948 278.753 183.971 278.297 185.994 277.791C186.955 277.589 187.916 277.335 188.826 277.032C189.028 277.032 189.129 277.032 189.281 276.88C191.152 276.323 192.922 275.665 194.743 274.906C195.451 274.653 196.159 274.349 196.867 273.995C197.271 273.843 197.726 273.64 198.131 273.387C198.839 273.084 199.547 272.729 200.255 272.324C202.581 271.109 204.857 269.743 206.93 268.224C207.891 267.566 208.801 266.908 209.711 266.2C209.964 265.997 210.167 265.845 210.369 265.693C211.38 264.883 212.392 264.023 213.352 263.112C214.414 262.201 215.426 261.239 216.387 260.227C217.297 259.316 218.157 258.354 219.016 257.341C219.016 257.24 219.117 257.19 219.219 257.088C220.129 256.025 220.989 254.912 221.848 253.798C224.276 250.609 226.45 247.117 228.119 243.421C228.726 242.308 229.232 241.194 229.687 240.03C230.192 238.866 230.597 237.752 231.001 236.537C231.001 236.436 231.001 236.335 231.103 236.284C231.861 234.007 232.569 231.678 233.075 229.248C233.328 228.034 233.581 226.768 233.783 225.503C234.036 224.237 234.187 222.921 234.289 221.656C234.44 220.39 234.541 219.074 234.541 217.758L234.693 213.557L237.222 146.033C242.885 151.348 247.133 154.334 247.639 154.688C250.066 147.349 257.854 142.236 265.642 142.236C268.777 142.236 271.862 142.945 274.694 144.312C279.448 146.438 283.594 150.133 286.325 154.638C290.725 161.724 291.989 170.532 291.079 178.884H290.927Z" fill="#E88846"/>
<path d="M149.179 276.121L144.122 311.502C205.565 310.895 226.299 246.712 226.299 246.712C214.92 267.111 192.771 280.524 167.89 279.613C161.366 279.36 155.045 278.145 149.179 276.121Z" fill="#C4532C"/>
<path d="M239.396 151.398L236.918 217.303L236.766 221.403C236.766 222.719 236.615 223.934 236.514 225.199C236.362 226.464 236.261 227.679 236.008 228.945C235.806 230.21 235.603 231.425 235.35 232.589C234.845 234.968 234.187 237.246 233.429 239.473C233.429 239.473 233.328 239.625 233.328 239.676C232.923 240.789 232.468 241.954 232.013 243.067C231.507 244.181 231.052 245.244 230.496 246.357C229.99 247.42 229.434 248.483 228.827 249.546C228.675 249.799 228.523 250.052 228.372 250.305C227.917 251.065 227.512 251.824 227.006 252.583C226.147 253.95 225.287 255.266 224.326 256.531C223.517 257.645 222.657 258.708 221.798 259.771C221.697 259.872 221.646 259.923 221.595 259.974C220.736 260.935 219.876 261.846 219.016 262.808C218.055 263.77 217.095 264.732 216.083 265.643C215.122 266.503 214.162 267.364 213.201 268.123C212.998 268.275 212.796 268.427 212.594 268.629C211.734 269.287 210.824 269.996 209.863 270.603C207.79 272.071 205.615 273.438 203.34 274.602C202.682 274.956 201.974 275.311 201.266 275.614C200.862 275.817 200.406 276.07 200.002 276.171C199.344 276.475 198.637 276.779 197.929 277.082C196.209 277.791 194.389 278.449 192.619 279.006C192.467 279.107 192.366 279.158 192.164 279.158C191.203 279.411 190.343 279.714 189.382 279.917C187.41 280.423 185.438 280.828 183.415 281.132C182.454 281.284 181.392 281.385 180.381 281.486C177.549 281.739 174.717 281.84 171.784 281.739C168.547 281.638 165.463 281.284 162.378 280.727C159.344 280.17 156.36 279.36 153.477 278.348C128.142 269.591 110.341 244.991 111.403 216.796L115.095 116.269C124.248 117.231 132.592 117.484 140.228 117.282C143.515 117.13 146.6 117.029 149.634 116.775C191.557 113.485 206.576 95.516 206.576 95.516C208.093 103.665 210.773 111.106 214.06 117.838C221.343 132.821 231.709 144.21 239.345 151.348L239.396 151.398Z" fill="#E88846"/>
<path d="M277.678 148.159C241.773 77.4453 192.568 53.4524 115.449 67.018L114.893 43.9363C205.261 26.22 259.169 58.0081 277.678 148.159Z" fill="#F2B34E"/>
<path d="M342.155 90.201C339.222 84.1269 333.153 80.5836 327.186 77.9515C315.555 72.7885 302.609 70.8144 289.916 71.7761C281.673 72.3835 273.582 74.3576 265.996 77.4453C272.469 71.2193 278.74 64.7908 284.404 57.8056C289.157 51.9339 293.506 45.7079 297.198 39.077C300.687 32.8003 304.429 25.7138 305.593 18.5261C306.655 11.9458 304.075 5.46668 297.248 3.5432C289.966 1.51848 283.139 5.71977 277.526 9.92105C266.502 18.2224 257.804 29.4596 252.089 41.9622C250.623 45.1511 249.409 48.3906 248.347 51.7314C248.145 49.4536 247.993 47.1252 247.74 44.8474C246.881 37.9127 245.566 30.9781 243.594 24.2459C241.874 18.3742 239.952 11.0346 234.794 7.18769C230.496 3.99876 224.579 3.99876 220.938 8.14943C217.297 12.3507 216.842 18.6273 216.69 23.8916C216.286 35.6349 218.612 47.4289 223.315 58.2105C224.832 61.7031 226.652 65.0945 228.675 68.3341C218.41 63.3735 206.829 61.197 195.451 62.6649C190.899 63.2217 186.095 64.5378 182.808 67.9798C179.218 71.7255 178.763 77.3441 180.735 82.0009C185.033 92.0233 198.131 96.1233 207.992 97.49C217.449 98.7554 227.006 97.8949 236.463 96.3764C229.333 100.73 222.455 105.386 216.336 111.106C208.852 118.193 201.266 127.759 199.496 138.237C198.738 142.844 199.648 147.905 203.643 150.791C207.385 153.473 212.341 153.22 216.589 152.005C226.349 149.171 234.491 140.667 239.851 132.366C244.504 125.127 247.538 117.13 249.662 108.828C250.572 116.32 251.735 123.71 253.708 130.999C255.275 136.82 257.298 142.54 260.13 147.905C262.507 152.41 265.794 156.662 270.699 158.485C281.015 162.382 288.045 153.119 289.006 143.755C290.118 132.72 286.072 121.483 279.751 112.574C275.706 106.854 270.598 102.096 264.985 97.9962C275.352 100.932 285.718 103.716 296.237 106.044C304.227 107.816 312.268 109.486 320.41 110.448C326.933 111.207 334.064 110.954 339.222 106.348C343.925 102.197 344.784 95.7184 342.155 90.1504V90.201ZM273.278 19.4372C277.728 15.0841 283.241 10.2248 289.208 8.20004C292.343 7.13707 296.338 7.03583 299.018 9.36426C301.699 11.6927 301.648 15.4384 300.991 18.6273C299.676 25.1064 296.288 31.4843 293.102 37.1535C289.764 43.177 285.769 48.7956 281.521 54.1611C272.267 65.702 261.495 75.8762 250.42 85.6454C250.016 85.1392 249.611 84.6331 249.156 84.1269C249.156 83.9244 249.156 83.7219 249.106 83.5195C249.156 79.1157 249.207 74.7626 249.156 70.3588C250.825 51.2252 259.422 32.851 273.278 19.3866V19.4372ZM221.343 32.1423C220.938 27.0299 220.888 21.6138 221.949 16.6026C222.405 14.5273 223.163 12.2495 224.731 10.7309C227.108 8.50375 230.344 9.26302 232.67 11.2371C237.019 14.9828 238.537 22.5755 240.003 27.8904C241.672 34.1164 242.784 40.4943 243.492 46.9227C244.352 54.4142 244.655 62.0069 244.757 69.5489C244.453 72.7378 244.403 75.9774 244.453 79.2169C242.532 77.3947 240.509 75.7243 238.385 74.2058C228.675 62.3612 222.607 47.5808 221.393 32.1929L221.343 32.1423ZM218.056 93.6937C208.346 93.7949 197.17 92.0739 189.332 85.8479C185.488 82.8108 182.252 77.3441 184.932 72.5354C187.107 68.6884 192.315 67.6254 196.361 67.1193C205.362 66.0563 214.617 67.423 223.011 70.7637C227.36 72.4848 231.406 74.7626 235.148 77.4453C238.031 80.8873 241.166 84.0763 244.554 87.0121C244.554 87.9232 244.554 88.7837 244.554 89.6948C244.554 89.9479 244.605 90.1504 244.706 90.3529C235.907 92.0739 227.057 93.5924 218.056 93.6937ZM221.039 145.121C217.55 147.247 213.201 149.12 209.054 148.31C203.896 147.349 203.137 142.084 204.199 137.731C206.424 128.418 213.302 120.015 220.23 113.637C228.524 106.044 238.284 100.325 248.044 94.7566C245.009 113.84 238.486 134.441 221.09 145.121H221.039ZM284.505 136.668C285.263 143.856 282.937 158.738 272.115 154.334C267.513 152.461 264.884 147.804 262.911 143.502C260.737 138.845 259.068 133.935 257.753 128.924C254.871 118.041 253.809 106.804 252.747 95.6677C268.474 104.273 282.533 117.94 284.505 136.618V136.668ZM335.985 103.311C330.675 107.664 323.242 106.5 316.971 105.538C309.891 104.425 302.862 103.058 295.883 101.489C281.319 98.1986 266.906 94.0986 252.595 89.9479C271.205 76.5342 296.186 72.4341 318.134 79.3688C323.747 81.1404 329.765 83.4688 334.266 87.3158C339.019 91.3652 341.548 98.8061 336.036 103.362L335.985 103.311Z" fill="#F4E9DC"/>
<path d="M219.977 213.607C228.831 213.607 236.008 206.424 236.008 197.562C236.008 188.7 228.831 181.516 219.977 181.516C211.124 181.516 203.946 188.7 203.946 197.562C203.946 206.424 211.124 213.607 219.977 213.607Z" fill="#C4532C"/>
<path d="M139.368 142.439C138.761 140.971 137.7 139.554 136.182 138.896C135.626 138.744 135.12 138.541 134.564 138.389C133.452 138.187 132.339 138.288 131.277 138.693L117.117 142.084C115.701 142.439 114.184 144.008 113.578 145.273C112.92 146.691 112.718 148.715 113.325 150.183C113.932 151.651 114.994 153.069 116.511 153.727C117.067 153.878 117.573 154.081 118.129 154.233C119.241 154.435 120.354 154.334 121.416 153.929L135.576 150.538C136.992 150.183 138.509 148.614 139.115 147.349C139.773 145.931 139.975 143.907 139.368 142.439Z" fill="#36344C"/>
<path d="M176.386 140.718C177.043 139.25 178.206 137.883 179.724 137.326C180.28 137.174 180.836 137.023 181.342 136.871C182.454 136.719 183.567 136.871 184.629 137.276L198.637 141.275C200.053 141.679 201.469 143.35 202.025 144.615C202.632 146.083 202.733 148.108 202.025 149.525C201.368 150.993 200.204 152.36 198.687 152.917C198.131 153.068 197.575 153.22 197.069 153.372C195.957 153.524 194.844 153.372 193.782 152.967L179.774 148.968C178.358 148.563 176.942 146.893 176.386 145.628C175.779 144.16 175.678 142.135 176.386 140.718Z" fill="#36344C"/>
<path d="M143.667 161.269C135.576 166.229 125.158 166.482 116.764 162.23C113.932 160.813 111.909 165.267 114.741 166.735C124.754 171.848 137.042 171.19 146.55 165.267C149.23 163.597 146.347 159.649 143.667 161.269Z" fill="#36344C"/>
<path d="M175.324 160.256C183.415 165.217 193.832 165.47 202.227 161.218C205.059 159.801 207.082 164.255 204.25 165.723C194.237 170.835 181.948 170.177 172.441 164.255C169.761 162.585 172.644 158.637 175.324 160.256Z" fill="#36344C"/>
<path d="M181.34 237.939C186.942 237.264 190.752 230.642 189.851 223.149C188.951 215.655 183.68 210.126 178.079 210.801C172.477 211.475 168.667 218.097 169.567 225.591C170.468 233.085 175.739 238.613 181.34 237.939Z" fill="#C4532C"/>
<path d="M160.608 204.8C155.602 204.446 150.545 204.041 145.538 203.686C150.191 190.728 154.792 177.821 159.445 164.862C160.406 162.18 156.36 160.307 155.399 162.99C150.393 176.91 145.437 190.829 140.431 204.749C139.975 206.015 140.582 207.786 142.099 207.888C148.016 208.343 153.983 208.748 159.9 209.204C162.732 209.406 163.491 205.002 160.608 204.8Z" fill="#C4532C"/>
<path d="M194.287 214.772C193.428 214.063 191.81 214.063 191.152 215.075C186.045 222.567 177.903 227.73 168.901 228.945C166.069 229.35 166.524 233.804 169.407 233.399C179.521 232.032 188.876 226.363 194.641 217.91C195.299 216.898 195.299 215.582 194.338 214.772H194.287Z" fill="#36344C"/>
<path d="M96.5863 319.551C48.0895 400.742 25.7375 468.418 15.674 517.517L-103.975 583.118C-124.051 508.76 -158.793 500.763 -159.855 500.51C-91.9898 448.981 -23.6696 396.996 12.9432 368.903C47.9883 342.025 75.8525 327.397 96.5863 319.551Z" fill="#E88846"/>
<path d="M356.466 285.991C356.466 285.991 356.466 285.991 356.466 286.089" stroke="#E88846" stroke-width="0.91" stroke-miterlimit="10"/>
<path d="M348.83 557.91L291.231 654.135C194.642 597.645 105.992 500.51 105.992 500.51L8.69506 605.137C8.69506 605.137 4.19434 573.399 15.6738 517.517C25.7372 468.418 48.0892 400.742 96.586 319.551C112.667 313.477 124.602 311.502 132.491 310.996V311.502C132.491 311.502 127.788 318.69 121.77 329.624C104.677 360.855 77.7739 422.609 124.905 434.251C175.779 446.804 227.765 360.754 246.527 325.827C251.23 317.02 253.859 311.502 253.859 311.502C253.859 311.502 255.579 310.49 258.815 308.87C272.115 302.088 311.155 284.624 356.466 286.092C354.19 291.154 246.172 529.969 348.931 557.961L348.83 557.91Z" fill="#F2B34E"/>
<path d="M527.798 608.376C526.837 616.88 523.702 627.054 518.442 638.747C470.35 600.986 423.421 610.047 423.421 610.047L373.154 517.264L348.83 557.91C246.071 529.919 354.089 291.154 356.365 286.042C360.562 286.194 364.81 286.497 369.159 286.953C430.855 293.938 532.855 563.276 527.798 608.326V608.376Z" fill="#E88846"/>
<path d="M128.041 320.361C127.99 319.449 127.687 318.589 127.181 317.88C126.827 317.07 126.271 316.362 125.563 315.856C125.057 315.552 124.551 315.248 124.046 314.894C122.883 314.388 121.669 314.185 120.455 314.337C119.899 314.489 119.292 314.641 118.736 314.742C117.623 315.198 116.662 315.856 115.904 316.767C115.499 317.172 115.044 317.627 114.64 318.032C114.033 318.741 113.628 319.551 113.426 320.411C113.072 321.272 112.971 322.183 113.122 323.145C113.173 324.056 113.476 324.916 113.982 325.625C114.336 326.435 114.892 327.143 115.6 327.65C116.106 327.953 116.612 328.257 117.118 328.611C118.281 329.117 119.494 329.32 120.708 329.168C121.264 329.016 121.871 328.864 122.427 328.763C123.54 328.308 124.501 327.65 125.259 326.738C125.664 326.334 126.119 325.878 126.524 325.473C127.13 324.764 127.535 323.954 127.737 323.094C128.091 322.233 128.192 321.322 128.041 320.361Z" fill="#F4E9DC"/>
<path d="M103.969 349.365C95.1699 349.365 96.7376 363.031 105.486 363.031C114.235 363.031 112.718 349.365 103.969 349.365Z" fill="#F4E9DC"/>
<path d="M98.6087 388.543C98.2547 387.733 97.6984 387.024 96.9904 386.518C96.2825 385.911 95.4733 385.506 94.6136 385.303C93.754 384.949 92.8437 384.848 91.8829 385C91.3266 385.152 90.7197 385.303 90.1634 385.405C89.0509 385.86 88.0901 386.518 87.3315 387.429C87.0281 387.936 86.7247 388.442 86.3707 388.948C85.865 390.112 85.6627 391.327 85.8144 392.542V393.807C85.865 394.718 86.1684 395.579 86.6741 396.288C87.0281 397.097 87.5844 397.806 88.2924 398.312C89.0004 398.92 89.8095 399.325 90.6692 399.527C91.5289 399.881 92.4391 399.983 93.3999 399.831C93.9562 399.679 94.5631 399.527 95.1193 399.426C96.2319 398.97 97.1927 398.312 97.9513 397.401C98.2547 396.895 98.5581 396.389 98.9121 395.883C99.4178 394.718 99.6201 393.504 99.4684 392.289V391.023C99.4178 390.112 99.1144 389.252 98.6087 388.543Z" fill="#F4E9DC"/>
<path d="M86.7753 425.14C77.9761 425.14 79.5438 438.807 88.2924 438.807C97.041 438.807 95.5239 425.14 86.7753 425.14Z" fill="#F4E9DC"/>
<path d="M198.485 428.683C198.131 427.873 197.575 427.164 196.867 426.658C196.159 426.051 195.35 425.646 194.49 425.443C193.63 425.089 192.72 424.988 191.759 425.14C191.203 425.291 190.596 425.443 190.04 425.545C188.927 426 187.967 426.658 187.208 427.569C186.905 428.075 186.601 428.582 186.247 429.088C185.741 430.252 185.539 431.467 185.691 432.682V433.947C185.741 434.858 186.045 435.719 186.551 436.427C186.905 437.237 187.461 437.946 188.169 438.452C188.877 439.06 189.686 439.464 190.546 439.667C191.405 440.021 192.316 440.123 193.276 439.971C193.833 439.819 194.44 439.667 194.996 439.566C196.108 439.11 197.069 438.452 197.828 437.541C198.131 437.035 198.435 436.529 198.789 436.022C199.294 434.858 199.497 433.643 199.345 432.429V431.163C199.294 430.252 198.991 429.392 198.485 428.683Z" fill="#F4E9DC"/>
<path d="M208.295 398.363C199.496 398.363 201.064 412.03 209.812 412.03C218.561 412.03 217.044 398.363 208.295 398.363Z" fill="#F4E9DC"/>
<path d="M236.261 375.787C236.21 374.876 235.907 374.016 235.401 373.307C235.047 372.497 234.491 371.788 233.783 371.282L232.266 370.32C231.103 369.814 229.889 369.612 228.675 369.764C228.119 369.916 227.512 370.067 226.956 370.169C225.844 370.624 224.883 371.282 224.124 372.193L223.467 372.851C222.86 373.56 222.455 374.37 222.253 375.23C221.899 376.091 221.798 377.002 221.95 377.964C222 378.875 222.304 379.735 222.809 380.444C223.163 381.254 223.72 381.963 224.428 382.469C224.933 382.772 225.439 383.076 225.945 383.43C227.108 383.937 228.321 384.139 229.535 383.987C230.091 383.835 230.698 383.684 231.255 383.582C232.367 383.127 233.328 382.469 234.086 381.558L234.744 380.9C235.351 380.191 235.755 379.381 235.958 378.521C236.312 377.66 236.413 376.749 236.261 375.787Z" fill="#F4E9DC"/>
<path d="M245.212 344.252C236.413 344.252 237.98 357.919 246.729 357.919C255.478 357.919 253.96 344.252 245.212 344.252Z" fill="#F4E9DC"/>
<path d="M265.288 324.258C264.934 323.448 264.378 322.74 263.67 322.233C262.962 321.626 262.152 321.221 261.293 321.019C260.433 320.664 259.523 320.563 258.562 320.715C258.006 320.867 257.399 321.019 256.843 321.12C255.73 321.575 254.769 322.233 254.011 323.145C253.707 323.651 253.404 324.157 253.05 324.663C252.544 325.827 252.342 327.042 252.494 328.257V328.915C252.544 329.826 252.848 330.687 253.353 331.395C253.707 332.205 254.264 332.914 254.972 333.42C255.68 334.027 256.489 334.432 257.348 334.635C258.208 334.989 259.118 335.09 260.079 334.939C260.635 334.787 261.242 334.635 261.798 334.534C262.911 334.078 263.872 333.42 264.63 332.509C264.934 332.003 265.237 331.497 265.591 330.99C266.097 329.826 266.299 328.611 266.148 327.397V326.738C266.097 325.827 265.794 324.967 265.288 324.258Z" fill="#F4E9DC"/>
<path d="M269.991 300.316C261.192 300.316 262.76 313.983 271.508 313.983C280.257 313.983 278.74 300.316 269.991 300.316Z" fill="#F4E9DC"/>
</g>
</g>
<defs>
<clipPath id="clip0_8_899">
<rect width="400" height="450" fill="white"/>
</clipPath>
<clipPath id="clip1_8_899">
<rect width="918" height="1962" fill="white" transform="translate(-390)"/>
</clipPath>
</defs>
</svg>
