<svg width="400" height="450" viewBox="0 0 400 450" fill="none" xmlns="http://www.w3.org/2000/svg">
<g clip-path="url(#clip0_1_694)">
<g clip-path="url(#clip1_1_694)">
<path d="M173.615 502.861C174.543 500.707 177.655 500.99 178.268 503.254C180.328 510.769 181.192 538.565 182.041 594H261.362L261.975 587.79C262.525 581.894 284.563 469.767 229.184 395.434H121.726C121.726 395.434 86.8126 447.929 74.0641 561.582C73.4353 567.131 72.838 588.434 72.2563 594.016H156.623C163.508 557.635 169.984 511.178 173.6 502.877L173.615 502.861Z" fill="#FF8DBB"/>
<path d="M172.421 56.0638C187.9 56.0638 200.449 43.5135 200.449 28.0319C200.449 12.5503 187.9 0 172.421 0C156.942 0 144.393 12.5503 144.393 28.0319C144.393 43.5135 156.942 56.0638 172.421 56.0638Z" fill="#1E0A04"/>
<path d="M175.235 91.6736C190.714 91.6736 203.262 79.1233 203.262 63.6417C203.262 48.1601 190.714 35.6098 175.235 35.6098C159.755 35.6098 147.207 48.1601 147.207 63.6417C147.207 79.1233 159.755 91.6736 175.235 91.6736Z" fill="#FF8DBB"/>
<path d="M162.439 167.578L158.179 222.605H201.942L195.764 166.949L162.439 167.578Z" fill="#C77D69"/>
<path d="M161.873 174.936C161.873 174.936 167.469 187.812 180.249 187.812C193.029 187.812 198.625 170.424 198.625 170.424L161.873 174.936Z" fill="#AA523F"/>
<path d="M144.302 141.884C149.342 135.278 148.074 125.837 141.469 120.795C134.865 115.754 125.424 117.022 120.384 123.628C115.343 130.234 116.611 139.675 123.216 144.716C129.821 149.758 139.261 148.49 144.302 141.884Z" fill="#C77D69"/>
<path d="M123.879 130.396C123.879 130.396 129.931 127.661 135.339 138.194" stroke="#AA523F" stroke-width="1.27" stroke-linecap="round" stroke-linejoin="round"/>
<path d="M238.746 143.372C244.621 137.496 244.621 127.969 238.746 122.094C232.871 116.218 223.346 116.218 217.471 122.094C211.597 127.969 211.597 137.496 217.471 143.372C223.346 149.247 232.871 149.247 238.746 143.372Z" fill="#C77D69"/>
<path d="M236.587 130.396C236.587 130.396 230.535 127.661 225.128 138.194" stroke="#AA523F" stroke-width="1.27" stroke-linecap="round" stroke-linejoin="round"/>
<path d="M180.06 152.061C211.106 152.061 236.273 127.516 236.273 97.2391C236.273 66.9619 211.106 42.4173 180.06 42.4173C149.015 42.4173 123.848 66.9619 123.848 97.2391C123.848 127.516 149.015 152.061 180.06 152.061Z" fill="#1E0A04"/>
<path d="M132.556 91.1077C132.556 91.1077 126.63 178.458 178.111 178.458C233.79 178.458 227.958 91.1077 227.958 91.1077C227.958 91.1077 227.643 52.9981 179.825 52.9981C135.983 52.9981 132.556 91.1077 132.556 91.1077Z" fill="#C77D69"/>
<path d="M169.025 149.624C169.025 149.624 177.31 154.246 185.578 149.624" stroke="#AA523F" stroke-width="1.27" stroke-linecap="round" stroke-linejoin="round"/>
<path d="M199.505 102.38C199.505 102.38 189.272 100.384 188.8 105.902C188.8 105.902 188.565 109.644 197.509 111.153C206.453 112.662 210.022 112.348 211.075 108.905C212.128 105.462 204.347 102.836 199.505 102.38Z" fill="#1E0A04"/>
<path d="M155.397 102.616C155.397 102.616 144.975 103.072 145.808 108.543C145.808 108.543 146.452 112.238 155.491 111.609C164.545 110.98 167.941 109.832 168.161 106.248C168.381 102.663 160.191 101.924 155.397 102.616Z" fill="#1E0A04"/>
<path d="M163.162 124.328C163.162 126.545 161.354 128.353 159.138 128.353C156.922 128.353 155.114 126.545 155.114 124.328C155.114 122.111 156.922 120.303 159.138 120.303C161.354 120.303 163.162 122.111 163.162 124.328Z" fill="#1E0A04"/>
<path d="M202.634 124.328C202.634 126.545 200.826 128.353 198.61 128.353C196.393 128.353 194.585 126.545 194.585 124.328C194.585 122.111 196.393 120.303 198.61 120.303C200.826 120.303 202.634 122.111 202.634 124.328Z" fill="#1E0A04"/>
<path d="M175.234 131.057V141.292H180.548" stroke="#AA523F" stroke-width="1.27" stroke-linecap="round" stroke-linejoin="round"/>
<path d="M147.285 60.9847C147.285 60.9847 163.131 78.7818 130.198 103.151C130.198 103.151 115.563 74.2382 147.285 60.9847Z" fill="#1E0A04"/>
<path d="M144.613 61.1577C144.613 61.1577 138.624 82.162 188.062 89.8028C236.258 97.2549 228.131 80.1968 228.131 80.1968C228.131 80.1968 209.267 50.4197 195.607 49.6494C146.672 46.9138 144.613 61.1577 144.613 61.1577Z" fill="#1E0A04"/>
<path d="M188.077 89.787C188.077 89.787 243.158 100.179 240.282 70.4807C237.484 41.5055 201.549 48.2501 192.762 51.0957C183.975 53.9414 188.077 89.8027 188.077 89.8027V89.787Z" fill="#1E0A04"/>
<path d="M286.214 279.832C286.214 279.832 312.733 372.952 314.257 383.69C315.829 394.805 311.711 405.795 300.927 408.923C291.228 411.737 280.963 406.801 277.081 397.478L236.179 294.516L286.214 279.832Z" fill="#D18069"/>
<path d="M266.109 239.223C266.109 239.223 300.016 249.803 305.675 300.585L241.476 320.441L239.826 288.227L266.093 239.223H266.109Z" fill="white"/>
<path d="M388.746 279.441C399.845 268.34 399.845 250.343 388.746 239.242C377.647 228.141 359.652 228.141 348.553 239.242C337.454 250.343 337.454 268.34 348.553 279.441C359.652 290.542 377.647 290.542 388.746 279.441Z" fill="#FF8F29"/>
<path d="M341.39 286.624L344.848 274.864C344.848 274.864 350.554 280.948 355.301 283.542C368.506 290.79 384.634 280.555 384.634 265.478C384.634 261.595 386.866 258.089 390.356 256.438L395.292 254.111C399.787 251.989 405.572 255.479 403.591 260.038C395.386 278.873 404.566 296.874 361.165 304.672L339.22 323.46L341.39 286.624Z" fill="#D18069"/>
<path d="M367.971 236.471L367.374 214.492" stroke="#772619" stroke-width="1.94" stroke-linecap="round" stroke-linejoin="round"/>
<path d="M366.384 222.117C366.384 222.117 357.502 212.951 341.405 223.045C341.405 223.045 352.833 236.849 366.384 222.117Z" fill="#00CC87"/>
<path d="M341.389 286.624L283.62 370.877C276.374 377.244 273.717 393.39 279.235 401.298C286.261 411.36 300.943 413.137 309.07 403.955L361.165 304.688L341.389 286.624Z" fill="#D18069"/>
<path d="M303.6 342.027L291.04 361.601" stroke="#AA523F" stroke-width="1.27" stroke-linecap="round" stroke-linejoin="round"/>
<path d="M235.173 227.447L266.612 239.348L229.2 395.434H121.757L93.3677 228.94L130.623 220.278L235.173 227.447Z" fill="white"/>
<path d="M193.815 210.955L235.173 227.447C235.173 227.447 240.376 259.378 185.578 255.573C143.403 252.649 130.623 220.278 130.623 220.278L170.802 210.955H193.815Z" fill="#C77D69"/>
<path d="M247.481 319.199L255.263 283.133" stroke="#121E35" stroke-width="1.35" stroke-linecap="round" stroke-linejoin="round"/>
<path d="M53.8646 316.684C53.8646 316.684 73.8598 361.098 147.93 361.601C147.93 361.601 161.747 522.89 95.1125 518.677C14.2987 513.567 17.8828 440.618 53.8646 316.684Z" fill="#0B87AD"/>
<path d="M147.93 361.601C147.93 361.601 145.855 260.447 112.671 224.46L102.375 226.849C102.375 226.849 133.248 249.001 136.58 361.601H147.93Z" fill="#1E0A04"/>
<path d="M93.3675 228.94C93.3675 228.94 66.6444 229.208 50.1704 285.586L108.883 320.441L124.901 277.945L93.3675 228.94Z" fill="white"/>
<path d="M98.7436 313.932C98.7436 313.932 57.9987 392.808 51.0193 401.11C43.7883 409.694 32.8476 413.954 23.3216 408.011C14.7545 402.65 11.5792 391.724 15.9492 382.605L56.3639 289.406L98.7436 313.932Z" fill="#D18069"/>
<path d="M104.639 324.78C104.639 324.78 105.236 314.09 111.178 303.682C114.966 297.031 121.081 291.938 128.359 289.579C131.99 288.4 136.392 286.168 138.027 282.064C138.027 282.064 144.126 282.646 145.132 289.123C145.132 289.123 149.628 291.12 150.618 297.11C150.618 297.11 162.596 312.58 149.125 329.544C135.653 346.508 116.208 347.813 116.208 347.813L104.623 324.796L104.639 324.78Z" fill="#D18069"/>
<path d="M114.605 318.743L24.8306 373.156C16.5779 378.156 11.7049 390.23 15.7448 398.987C20.885 410.118 35.0326 414.473 44.6372 406.864L123.093 343.725L114.605 318.727V318.743Z" fill="#D18069"/>
<path d="M87.7557 335.015L56.3796 354.039" stroke="#AA523F" stroke-width="1.27" stroke-linecap="round" stroke-linejoin="round"/>
</g>
</g>
<defs>
<clipPath id="clip0_1_694">
<rect width="400" height="450" fill="white"/>
</clipPath>
<clipPath id="clip1_1_694">
<rect width="390" height="594" fill="white" transform="translate(14)"/>
</clipPath>
</defs>
</svg>
