<svg width="400" height="450" viewBox="0 0 400 450" fill="none" xmlns="http://www.w3.org/2000/svg">
<g clip-path="url(#clip0_2_2264)">
<path d="M197.937 137.039C197.937 137.039 198.43 193.763 195.102 196.782C194.332 197.46 185.766 198.97 182.839 200.418C191.743 217.241 230.474 339.903 230.474 339.903L274.873 196.782L255.339 196.474L252.535 138.086L197.967 137.069L197.937 137.039Z" fill="#8F2A1F"/>
<path d="M198.984 139.103L251.241 140.12C251.241 140.12 244.493 161.103 225.636 160.856C205.147 160.61 198.984 139.072 198.984 139.072V139.103Z" fill="#3D1009"/>
<path d="M178.832 72.6423C178.832 72.6423 176.46 88.7876 177.107 90.6979C177.754 92.6083 164.566 85.0594 165.768 97.6306C166.507 105.303 170.42 111.157 178.924 111.157C178.924 111.157 187.244 151.428 222.246 150.164C264.642 148.655 269.726 119.106 269.726 119.106C269.726 119.106 282.791 116.98 283.499 105.672C283.776 95.6278 275.827 96.5213 275.827 96.5213C275.827 96.5213 282.852 72.1493 278.6 57.2673C274.348 42.3853 274.903 16.5343 239.192 13.5456C203.481 10.5568 181.143 41.3685 179.88 50.3039C178.616 59.2392 178.801 72.6115 178.801 72.6115L178.832 72.6423Z" fill="#8F2A1F"/>
<path d="M177.108 90.7288C177.169 90.9136 177.108 90.9753 176.923 91.0061C177.816 91.345 178.679 91.6839 179.511 92.0229C195.348 83.7345 188.323 53.8164 187.892 36.1613C183.085 41.9231 180.312 47.346 179.881 50.3039C178.617 59.2393 178.802 72.6115 178.802 72.6115C178.802 72.6115 176.43 88.7568 177.077 90.6671L177.108 90.7288Z" fill="#3D1009"/>
<path d="M264.028 59.4241C265.199 67.3119 267.849 87.1546 271.7 93.9947C272.933 96.1516 275.182 96.0591 276.044 95.8126C277.123 91.8071 282.453 70.7011 278.633 57.2673C276.353 49.2254 275.428 37.9792 269.451 28.8589C262.148 40.5057 261.994 45.6821 264.028 59.3933V59.4241Z" fill="#3D1009"/>
<path d="M259.008 21.9572C254.879 6.76701 242.986 6.45889 226.625 7.69136C221.356 -15.8487 171.718 9.32438 183.581 21.8339C164.169 25.0075 181.239 73.9364 183.981 71.1017C195.289 68.5444 197.446 50.7352 196.984 50.5196C206.412 63.8302 227.241 55.511 230.291 44.6653C232.91 63.9226 260.394 78.9587 264.739 52.7996C260.394 78.3425 271.733 73.9672 272.565 66.48C278.327 60.3793 306.827 22.9123 258.977 21.988L259.008 21.9572Z" fill="#001019"/>
<path d="M237.653 84.5048C237.653 84.5048 239.502 81.5469 243.107 82.0707C253.152 83.5189 252.843 88.1714 252.843 88.1714L237.653 84.5048Z" fill="#000307"/>
<path d="M215.868 84.135C215.868 84.135 213.557 80.9306 208.997 80.5609C202.157 79.9755 201.418 82.4404 199.538 83.981L215.868 84.1658V84.135Z" fill="#000307"/>
<path d="M233.771 120.277C234.11 120.154 230.813 128.473 221.754 127.641C213.497 126.871 212.11 117.689 212.11 117.689L233.771 120.277Z" fill="white"/>
<path d="M219.997 113.499L227.947 115.008C229.487 115.162 226.129 93.5018 226.129 93.5018C226.129 93.5018 218.488 113.345 219.997 113.499Z" fill="#3D1009"/>
<path d="M176.77 96.2132C176.77 96.2132 177.509 105.025 178.156 106.936C178.803 108.846 171.193 105.241 171.285 100.219C171.408 95.2272 176.77 96.1824 176.77 96.1824V96.2132Z" fill="#3D1009"/>
<path d="M272.193 112.667L275.49 100.958C275.49 100.958 280.112 101.944 278.787 106.443C276.969 112.667 272.193 112.667 272.193 112.667Z" fill="#3D1009"/>
<path d="M242.245 103.115C241.567 105.611 239.873 107.336 238.424 106.967C236.976 106.597 236.36 104.224 237.038 101.729C237.716 99.2328 239.41 97.5073 240.859 97.8771C242.307 98.2468 242.923 100.619 242.245 103.115Z" fill="#000307"/>
<path d="M215.1 100.373C214.945 102.961 213.621 104.995 212.142 104.902C210.663 104.81 209.584 102.653 209.738 100.034C209.892 97.4457 211.217 95.4121 212.696 95.5046C214.175 95.597 215.254 97.7538 215.1 100.373Z" fill="#000307"/>
<path opacity="0.68" d="M200.773 105.796C205.086 107.953 206.812 113.191 204.655 117.504C202.498 121.818 197.26 123.543 192.947 121.386C188.633 119.23 186.907 113.992 189.064 109.678C191.221 105.364 196.459 103.639 200.773 105.796Z" fill="#B54541"/>
<path opacity="0.68" d="M252.322 112.851C256.635 115.008 258.361 120.246 256.204 124.56C254.047 128.874 248.809 130.599 244.495 128.442C240.182 126.285 238.456 121.047 240.613 116.734C242.77 112.42 248.008 110.695 252.322 112.851Z" fill="#B54541"/>
<path d="M149.164 389.386C128.89 425.251 118.168 451.502 106.521 497.104C92.9946 549.976 16.212 996.776 9.83398 1092.94C18.3072 1094.97 44.682 1095.9 70.0091 1096.27C101.036 1096.7 127.719 1074.36 132.772 1043.76C154.68 911.027 187.371 711.029 199.757 658.926C201.975 649.621 203.639 649.375 203.855 658.926C205.858 746.955 204.009 934.721 195.382 1058.4C194.088 1076.92 208.446 1092.79 226.994 1093.37C257.097 1094.33 292.408 1094.91 299.402 1094.05C310.371 975.609 369.406 536.08 281.5 390.742C241.291 385.196 189.959 388.184 149.195 389.386H149.164Z" fill="#32B8FF"/>
<path d="M106.485 497.104L166.013 407.657" stroke="white" stroke-width="0.51" stroke-miterlimit="10"/>
<path d="M269.452 404.946L313.544 482.776" stroke="white" stroke-width="0.51" stroke-miterlimit="10"/>
<path d="M142.354 406.178H291.266" stroke="white" stroke-width="0.51" stroke-miterlimit="10"/>
<g style="mix-blend-mode:multiply">
<path d="M279.186 386.582L99.4307 528.686C99.4307 528.686 120.691 445.186 150.085 390.002L279.186 386.582Z" fill="#32B8FF"/>
</g>
<path d="M287.907 367.633L281.468 390.742L150.087 389.972L150.487 368.034L287.907 367.633Z" fill="#8F2A1F"/>
<path d="M259.898 195.396C259.898 195.396 307.502 172.195 318.964 265.061C330.426 357.927 312.74 391.358 312.74 391.358C312.74 391.358 294.007 397.397 291.911 392.621C237.683 269.067 259.867 195.396 259.867 195.396H259.898Z" fill="#8F2A1F"/>
<path d="M256.604 195.18C256.604 195.18 308.614 167.265 318.935 265.03L283.779 279.727L256.604 195.18Z" fill="#F6D109"/>
<g style="mix-blend-mode:multiply">
<path d="M308.706 222.942C292.314 247.16 276.631 271.87 261.349 296.797C266.556 323.973 275.892 356.11 291.914 392.621C294.009 397.397 312.742 391.358 312.742 391.358C312.742 391.358 330.428 357.927 318.966 265.061C316.717 246.944 313.112 233.263 308.737 222.942H308.706Z" fill="#FDBF5B"/>
</g>
<path d="M260.545 189.634C266.03 195.119 304.822 286.968 305.962 314.822C307.225 345.603 301.587 372.255 301.587 372.255C301.587 372.255 139.271 369.913 136.128 371.176C127.069 288.57 122.17 211.911 144.324 198.816C144.324 198.816 191.527 181.192 197.72 185.197C215.129 196.474 238.022 212.188 260.576 189.634H260.545Z" fill="#F6D109"/>
<path d="M242.309 341.073C260.481 336.804 271.753 318.612 267.483 300.439C263.214 282.266 245.022 270.995 226.849 275.264C208.676 279.533 197.405 297.726 201.674 315.898C205.943 334.071 224.136 345.342 242.309 341.073Z" stroke="white" stroke-miterlimit="10"/>
<path d="M234.572 234.373V274.335" stroke="white" stroke-linecap="round" stroke-linejoin="round"/>
<path d="M252.196 243.893L215.962 260.747" stroke="white" stroke-linecap="round" stroke-linejoin="round"/>
<path d="M215.962 243.893L252.196 260.747" stroke="white" stroke-linecap="round" stroke-linejoin="round"/>
<g style="mix-blend-mode:multiply">
<path d="M136.315 215.146C123.805 239.765 128.365 300.803 136.099 371.176C138.071 370.406 201.944 371.022 249.732 371.577C211.249 319.906 173.35 267.834 136.315 215.115V215.146Z" fill="#FDBF5B"/>
</g>
<path d="M312.157 198.569C312.157 198.569 265.015 368.896 295.55 396.935C326.115 424.943 351.596 398.075 354.708 377.123C357.82 356.202 345.803 192.438 345.803 192.438L312.126 198.569H312.157Z" fill="#F6D109" stroke="#F6D109" stroke-miterlimit="10"/>
<path d="M310.709 199.586C310.709 199.586 291.483 105.334 296.074 103.7C309.908 101.236 309.908 145.481 316.44 142.585C324.39 140.274 322.972 102.684 333.048 109.093C337.484 107.737 329.473 147.484 329.473 147.484C329.473 147.484 346.019 158.576 347.159 161.78C348.299 164.985 346.266 192.592 346.266 192.592L310.709 199.586Z" fill="#8F2A1F"/>
<path d="M310.708 199.586C310.708 199.586 292.961 182.239 297.367 177.71C301.742 173.15 330.151 152.445 323.742 163.506C317.333 174.567 313.358 180.822 313.358 180.822L324.173 191.822" fill="#8F2A1F"/>
<path d="M308.891 166.803C308.891 166.803 315.084 154.879 321.554 156.358C328.025 157.837 308.891 166.803 308.891 166.803Z" fill="#3D1009"/>
<path d="M325.005 164.245C325.005 164.245 320.229 170.469 323.927 173.735C326.638 176.139 331.969 166.464 330.736 172.996C329.473 179.559 331.352 182.085 335.265 179.436C339.179 176.786 322.448 189.542 322.448 189.542L313.358 180.791L325.036 164.245H325.005Z" fill="#3D1009"/>
<path d="M26.8708 350.872C18.1511 339.995 14.1764 328.564 18.9523 316.609C96.5668 218.073 157.05 178.141 178.557 207.905C206.873 247.098 84.9508 331.275 84.9508 331.275L132.863 419.089L151.381 427.254L123.619 468.634L26.9017 350.872H26.8708Z" fill="#8F2A1F"/>
<path d="M83.2561 419.52C96.0738 412.587 108.861 405.562 121.555 398.414L84.92 331.275C84.92 331.275 206.842 247.098 178.526 207.905C157.019 178.141 96.5052 218.073 18.9214 316.609C14.1764 328.564 18.1511 339.995 26.84 350.872L83.2254 419.551L83.2561 419.52Z" fill="#F6D109" stroke="#F6D109" stroke-miterlimit="10"/>
<path d="M284.455 144.803C284.455 138.641 273.332 115.101 273.332 115.101C273.332 115.101 262.209 138.641 262.209 144.803C262.209 150.966 267.2 155.926 273.332 155.926C279.464 155.926 284.455 150.935 284.455 144.803Z" fill="#2FBCED"/>
<path d="M284.796 108.353C284.796 106.843 283.564 105.611 282.054 105.611C280.544 105.611 279.312 106.843 279.312 108.353C279.312 109.863 280.544 111.095 282.054 111.095C283.564 111.095 284.796 109.863 284.796 108.353Z" fill="#2FBCED"/>
</g>
<defs>
<clipPath id="clip0_2_2264">
<rect width="400" height="450" fill="white"/>
</clipPath>
</defs>
</svg>
