<svg width="400" height="450" viewBox="0 0 400 450" fill="none" xmlns="http://www.w3.org/2000/svg">
<g clip-path="url(#clip0_8_44)">
<g clip-path="url(#clip1_8_44)">
<path d="M98.1442 211.832L101.24 211.47C112.921 210.103 121.281 199.534 119.913 187.863L112.264 122.611C110.896 110.94 100.318 102.587 88.6377 103.954L85.5414 104.316C73.8607 105.683 65.5006 116.252 66.8687 127.923L74.5174 193.175C75.8854 204.846 86.4635 213.199 98.1442 211.832Z" fill="#8167B2"/>
<path d="M117.549 323.171C116.925 321.207 114.671 312.773 115.582 314.594C128.963 316.319 143.783 313.827 153.183 304.099C162.535 294.372 163.351 276.306 152.416 268.447C146.037 263.895 137.548 263.607 130.498 260.157C120.043 255.029 114.191 243.864 109.491 233.226C96.3502 203.611 86.4703 172.272 84.1203 139.974C81.8182 107.676 87.3816 74.3237 103.592 46.2427C107.957 38.6713 113.184 31.3875 119.947 25.8288C132.176 15.7657 148.387 11.98 164.166 10.5903C197.402 7.71513 233.181 15.2385 257.209 38.4317C275.769 56.3538 285.601 81.8471 288.91 107.436C292.22 133.025 289.534 158.998 286.417 184.587C285.074 195.513 283.587 206.582 279.079 216.646C277.256 220.671 275.002 224.552 274.187 228.865C273.275 233.657 274.283 238.545 275.386 243.289C277.304 251.531 279.558 259.917 284.402 266.913C289.246 273.862 297.16 279.229 305.649 278.893C305.649 278.893 332.123 397.16 248.24 398.07C164.358 398.933 142.248 403.533 117.692 323.171H117.549Z" fill="#D18F5E"/>
<path d="M615.855 410.865C615.855 410.865 538.975 381.202 511.014 351.492C483.053 321.83 395.67 269.405 371.21 269.405C346.75 269.405 305.553 278.845 305.553 278.845C305.553 278.845 292.603 363.664 219.176 361.938C145.797 360.213 115.63 314.546 115.63 314.546C115.63 314.546 47.9103 314.785 23.4506 335.774C-1.00909 356.715 -42.9743 520.841 -53.4296 527.837C-63.8849 534.833 -150.693 582.561 -145.417 596.554C-140.19 610.499 -156.544 657.077 -114.627 664.073C-72.7096 671.069 -18.5146 667.571 7.71966 636.136C33.9539 604.7 54.9125 578.536 54.9125 578.536C54.9125 578.536 60.1402 714.724 47.9103 751.383C35.6805 788.042 24.4578 897.155 24.4578 897.155L464.924 883.69C464.924 883.69 442.863 768.874 441.136 667.619C439.41 566.365 439.41 463.337 439.41 463.337C439.41 463.337 507.561 505.219 532.021 517.486C556.481 529.706 646.262 587.018 677.724 585.293C709.186 583.568 754.892 554.48 749.616 502.104C744.341 449.728 615.855 411.008 615.855 411.008V410.865Z" fill="#F2D768"/>
<path d="M182.007 106.334C170.641 105.328 159.754 101.398 148.867 97.9002C144.358 96.4626 139.706 95.073 135.006 95.6001C127.908 96.3668 122.057 101.207 115.966 104.944C99.7074 114.912 79.0365 117.499 60.8116 111.845C42.5868 106.19 27.0476 92.3895 19.2781 74.9466C34.0498 81.1283 50.9318 82.0867 66.2791 77.6781C55.6319 71.5443 46.8552 62.152 41.4837 51.1305C62.778 59.6602 88.9643 53.9577 104.791 37.3775C111.985 29.8541 117.309 20.2222 126.181 14.8072C134.191 9.91941 143.927 9.15269 153.279 8.81725C171.264 8.14638 189.345 8.67349 207.282 10.3507C224.164 11.932 241.574 14.7114 255.914 23.7682C282.244 40.4443 292.124 74.132 294.33 105.232C296.536 136.332 293.323 168.294 302.435 198.149C303.73 202.461 305.313 206.966 304.402 211.374C302.291 221.198 289.726 224.121 279.654 224.025C273.755 223.929 267.712 223.45 262.149 221.438C247.329 215.975 238.648 200.736 233.085 185.977C225.267 165.276 221.143 143.472 217.977 121.621C216.443 110.934 218.649 102.788 209.105 101.398C202.054 100.392 190.784 107.245 181.959 106.43L182.007 106.334Z" fill="#563922"/>
<path d="M241.574 207.157H250.686C273.386 207.157 291.788 188.771 291.788 166.09V120.854C291.788 98.173 273.386 79.7866 250.686 79.7866H241.574C218.874 79.7866 200.472 98.173 200.472 120.854V166.09C200.472 188.771 218.874 207.157 241.574 207.157Z" fill="#8167B2"/>
<path d="M258.024 186.312C272.796 186.312 284.834 174.237 284.834 159.525V123.489C284.834 108.73 272.748 96.7023 258.024 96.7023C243.252 96.7023 231.214 108.778 231.214 123.489V159.525C231.214 174.284 243.3 186.312 258.024 186.312Z" fill="#6A549E"/>
<path d="M211.695 1.38969C250.59 12.4112 255.578 80.9366 255.578 80.9366L229.056 81.7033C226.946 41.259 198.841 9.77566 198.841 9.77566L179.417 9.00894C179.417 9.00894 192.127 -4.16901 211.742 1.38969H211.695Z" fill="#6A549E"/>
<path d="M153.039 211.135C152.416 208.739 150.929 206.247 148.483 205.768C147.572 205.576 146.66 205.768 145.749 205.912C137.308 207.541 129.587 212.429 121.002 212.956C118.604 213.1 116.11 212.86 113.76 213.531C111.41 214.154 109.156 215.975 109.012 218.419C108.868 220.815 114.431 230.878 118.076 232.507L128.292 230.926C127.908 231.644 128.196 232.651 128.915 233.034C135.246 234.232 142.152 232.747 147.092 228.578C151.984 224.409 154.574 217.46 152.991 211.231L153.039 211.135Z" fill="#35241D"/>
<path d="M145.078 214.537C142.824 213.627 140.186 214.154 138.124 215.4C136.013 216.646 134.383 218.466 132.896 220.383C126.565 217.748 118.46 220.719 115.342 226.805L114.911 226.9C114.911 226.9 99.9472 243.097 104.935 256.754C109.923 270.459 111.17 255.796 123.64 246.787C145.222 231.165 148.147 223.115 148.387 220.287C148.963 217.939 147.332 215.4 145.078 214.537Z" fill="#ED917C"/>
<path d="M123.256 162.4C121.625 170.068 118.556 177.447 114.287 184.06C113.088 185.881 111.793 188.085 112.753 190.002C113.328 191.152 114.623 191.775 115.774 192.35C119.419 194.027 123.4 195.753 127.332 195.034C129.395 194.65 131.457 193.596 133.423 194.219" stroke="#AF7045" stroke-miterlimit="10"/>
<path d="M144.406 161.059C144.79 159.477 145.653 158.088 146.612 156.794C150.066 152.098 155.006 148.312 160.713 147.21C166.42 146.108 172.847 147.976 176.396 152.625" stroke="#35241D" stroke-miterlimit="10"/>
<path d="M111.266 161.969C107.765 159.333 103.592 157.417 99.1798 157.129C94.7675 156.842 90.2113 158.327 87.2377 161.586" stroke="#35241D" stroke-miterlimit="10"/>
<path d="M134.239 132.067C134.239 132.067 134.67 139.734 140.234 138.488C145.797 137.242 165.413 127.419 174.381 131.252C174.381 131.252 167.571 120.183 134.239 132.115V132.067Z" fill="#563922"/>
<path d="M107.333 139.782C107.333 139.782 108.58 145.293 104.407 145.485C100.235 145.676 84.4081 142.657 78.8447 147.162C78.8447 147.162 81.4825 137.961 107.381 139.782H107.333Z" fill="#563922"/>
<path d="M58.2698 563.058C65.8954 512.167 72.9456 461.228 79.4682 410.194" stroke="#DDBE3A" stroke-miterlimit="10"/>
<path d="M431.928 445.607C411.593 430.272 393.224 412.302 377.493 392.32" stroke="#DDBE3A" stroke-miterlimit="10"/>
</g>
</g>
<defs>
<clipPath id="clip0_8_44">
<rect width="400" height="450" fill="white"/>
</clipPath>
<clipPath id="clip1_8_44">
<rect width="897" height="2018" fill="white" transform="translate(-147)"/>
</clipPath>
</defs>
</svg>
