<svg width="400" height="450" viewBox="0 0 400 450" fill="none" xmlns="http://www.w3.org/2000/svg">
<g clip-path="url(#clip0_8_1004)">
<g clip-path="url(#clip1_8_1004)">
<path d="M135.491 371.002L134.322 486.587L129.987 912.362L128.38 1076.49C28.7242 1136.13 -43.2171 1063.39 -43.2171 1063.39L-21.1525 821.705L-17.8891 566.094C-17.8891 566.094 -67.3274 448.075 -60.3622 411.753C-53.4457 375.384 116.106 316.617 116.106 316.617C122.048 311.748 129.793 308.146 138.122 305.662C129.062 324.894 130.913 349.774 135.491 371.05V371.002Z" fill="#8E2323"/>
<path d="M467.24 966.162C465.827 975.657 460.469 983.739 451.702 987.926C442.253 992.503 430.855 992.356 420.724 990.458C409.521 988.413 398.854 984.177 388.382 979.892C362.08 968.986 336.995 955.256 313.275 939.481C289.359 924.778 272.311 912.362 272.311 912.362L267.976 486.538L266.807 370.953C271.386 349.676 273.188 324.748 264.177 305.565C272.506 308.097 280.202 311.651 286.193 316.52C286.193 316.52 455.745 375.286 462.661 411.656C469.626 448.026 420.188 565.997 420.188 565.997L423.5 821.608L430.514 898.486C443.373 908.224 453.942 920.931 460.956 935.538C465.437 944.934 468.847 955.5 467.24 966.016V966.162Z" fill="#8E2323"/>
<path d="M266.808 371.002C261.45 395.881 252.244 415.795 252.244 415.795C249.37 407.274 241.869 398.851 233.492 391.645C219.853 379.814 203.78 370.904 201.15 369.492C198.617 370.856 182.397 379.766 168.71 391.597C160.333 398.9 152.88 407.274 150.007 415.795C150.007 415.795 140.849 395.881 135.443 371.002C130.864 349.725 129.062 324.797 138.073 305.614C165.885 297.191 200.711 299.82 200.711 299.82H201.442C201.442 299.82 236.268 297.191 264.08 305.614C273.14 324.846 271.289 349.725 266.71 371.002H266.808Z" fill="#F4E9DC"/>
<path d="M239.824 516.871L201.539 557.963H200.809L162.524 516.871L183.42 425.922L168.759 391.694C182.446 379.814 198.666 370.904 201.198 369.541C203.829 370.953 219.951 379.863 233.54 391.694L218.879 425.922L239.775 516.871H239.824Z" fill="#AF3737"/>
<path d="M267.976 486.587L239.823 516.871L218.928 425.922L233.589 391.694C241.966 398.9 249.467 407.323 252.341 415.843C252.341 415.843 261.498 395.93 266.905 371.05L268.074 486.635L267.976 486.587Z" fill="#F4E9DC"/>
<path d="M183.469 425.922L162.573 516.871L134.42 486.635L135.589 371.002C140.947 395.881 150.153 415.794 150.153 415.794C153.026 407.274 160.479 398.9 168.856 391.597L183.517 425.873L183.469 425.922Z" fill="#F4E9DC"/>
<path d="M-53.7377 426.214L-200.445 1023.42C-200.445 1023.42 -171.416 1096.11 -107.316 1079.75L38.5634 628.95L-53.7377 426.214Z" fill="#8E2323"/>
<path d="M453.991 426.214C453.991 426.214 549.605 651.006 545.903 690.199C542.201 729.393 427.007 958.47 427.007 958.47C427.007 958.47 352.874 918.059 348.588 867.813L422.088 715.761L375.572 565.218C375.572 565.218 392.717 458.64 453.991 426.165V426.214Z" fill="#8E2323"/>
<path d="M100.861 636.302C90.4371 594.284 78.9421 552.559 66.4729 511.125C59.6538 488.437 52.4938 465.797 45.0902 443.303C58.6797 437.071 72.2691 430.839 85.8586 424.607C87.3685 423.925 87.7095 421.978 86.4431 420.858C72.8049 408.735 59.1667 396.612 45.5286 384.488C60.1896 366.62 75.9222 349.725 92.7751 333.902C94.8208 332.003 92.2393 328.4 90.1936 330.347C72.5614 346.901 56.0495 364.575 40.804 383.32C40.0246 384.293 40.2195 385.608 41.0962 386.436C54.4421 398.267 67.7393 410.147 81.0852 421.978C67.9341 428.015 54.7344 434.052 41.5833 440.09C40.463 440.625 39.9272 441.745 40.3169 442.962C53.8576 483.909 66.4242 525.147 77.9679 566.678C89.5604 608.355 100.13 650.324 109.677 692.536C115.034 716.15 120.051 739.861 124.727 763.621C125.263 766.396 129.647 765.909 129.111 763.134C120.685 720.678 111.284 678.417 100.812 636.399L100.861 636.302Z" fill="#771818"/>
<path d="M300.66 636.302C311.083 594.284 322.578 552.559 335.047 511.125C341.866 488.437 349.026 465.797 356.43 443.303C342.84 437.071 329.251 430.839 315.662 424.607C314.152 423.925 313.811 421.978 315.077 420.858C328.715 408.735 342.353 396.612 355.991 384.488C341.33 366.62 325.598 349.725 308.745 333.902C306.699 332.003 309.281 328.4 311.327 330.347C328.959 346.901 345.471 364.575 360.716 383.32C361.495 384.293 361.301 385.608 360.424 386.436C347.078 398.267 333.781 410.147 320.435 421.978C333.586 428.015 346.786 434.052 359.937 440.09C361.057 440.625 361.593 441.745 361.203 442.962C347.662 483.909 335.096 525.147 323.552 566.678C311.96 608.355 301.39 650.324 291.843 692.536C286.486 716.15 281.469 739.861 276.793 763.621C276.257 766.396 271.873 765.909 272.409 763.134C280.835 720.678 290.236 678.417 300.708 636.399L300.66 636.302Z" fill="#771818"/>
<path d="M213.521 426.262C204.949 426.262 196.328 425.97 187.755 425.532C186.586 425.483 185.417 426.116 185.222 427.382C185.027 428.453 185.855 429.817 187.073 429.914C196.035 430.401 205.046 430.644 214.009 430.693C215.178 430.693 216.054 429.33 215.957 428.259C215.811 426.944 214.739 426.311 213.521 426.311V426.262Z" fill="#8E2323"/>
<path d="M201.052 436.049C193.502 449.097 185.953 462.194 178.403 475.242C176.991 477.677 181.033 479.478 182.397 477.044L205.046 437.85C206.459 435.416 202.416 433.614 201.052 436.049Z" fill="#8E2323"/>
<path d="M202.562 451.629L187.998 482.01C186.781 484.59 190.775 486.392 191.992 483.811C196.863 473.684 201.685 463.557 206.556 453.43C207.774 450.85 203.78 449.048 202.562 451.629Z" fill="#8E2323"/>
<path d="M161.258 399.776C154.682 392.132 148.107 384.44 141.531 376.796C140.752 375.87 139.485 375.578 138.463 376.309C137.537 376.942 137.196 378.5 137.976 379.376C144.551 387.02 151.127 394.713 157.702 402.357C158.481 403.282 159.748 403.574 160.771 402.844C161.696 402.211 162.037 400.653 161.258 399.776Z" fill="#E2CAB0"/>
<path d="M262.911 372.316C255.215 381.908 247.519 391.499 239.823 401.091C238.07 403.33 241.479 406.106 243.233 403.866L266.32 375.091C268.074 372.852 264.664 370.077 262.911 372.316Z" fill="#E2CAB0"/>
<path d="M242.454 399.484C230.374 387.604 217.126 376.99 202.903 367.74C202.221 367.301 201.539 367.301 200.906 367.496C200.517 367.496 200.127 367.593 199.737 367.837C185.027 377.477 170.951 387.994 157.508 399.338C155.365 401.139 157.946 404.742 160.089 402.892C173.24 391.791 187.024 381.47 201.393 372.024C215.08 381.08 227.89 391.353 239.629 402.843C241.675 404.84 244.451 401.383 242.405 399.435L242.454 399.484Z" fill="#E2CAB0"/>
<path d="M277.572 152.49C267.636 166.22 252.926 175.569 236.268 178.782C221.461 181.654 205.825 179.61 192.626 172.306C181.325 174.4 169.733 174.643 158.384 172.939C148.545 171.43 138.852 168.606 129.89 164.273C121.61 160.281 113.914 154.73 108.946 146.843C98.8146 130.873 102.419 111.495 108.507 94.6006C101.786 82.7207 97.5482 68.5526 102.76 55.3095C104.903 49.8077 108.556 45.1337 113.476 41.8716C118.346 38.6582 124.045 36.9541 129.695 35.5909C135.832 34.0815 142.018 32.8157 147.912 30.4299C154.439 27.7521 160.625 24.2466 167.103 21.4714C178.452 16.7 191.7 14.4603 202.27 22.153C210.404 28.0442 215.47 38.1713 214.593 48.2497C224.675 45.2797 235.44 43.8191 245.912 45.4258C255.848 46.9351 264.859 51.317 272.214 58.2307C297.688 82.2338 297.347 125.177 277.572 152.442V152.49Z" fill="#36344C"/>
<path d="M266.808 320.074L199.835 369.298L134.712 328.741L139.729 260.237C153.611 275.573 177.77 290.18 199.883 289.985C221.948 289.839 245.328 275.671 259.014 260.237L266.759 320.025L266.808 320.074Z" fill="#E88846"/>
<path d="M259.112 260.285C259.112 260.285 224.383 338.576 136.125 310.483L139.827 260.285C153.66 275.573 177.867 290.228 200.029 290.034C222.094 289.888 245.474 275.719 259.161 260.285H259.112Z" fill="#C4532C"/>
<path d="M274.26 200.01L274.357 214.665C274.406 224.305 272.604 233.556 269.34 242.027C266.126 250.353 261.401 257.997 255.605 264.619C241.918 280.15 222.045 289.936 199.981 290.082C177.867 290.277 157.849 280.637 144.016 265.349C137.635 258.289 132.569 250.061 129.16 240.956C126.237 233.02 124.63 224.549 124.581 215.639L124.484 200.984C82.7413 201.276 80.3059 148.741 97.9381 137.008C98.3764 136.667 98.9122 136.423 99.3506 136.131C111.43 129.218 120.051 138.322 123.023 142.217C122 112.566 134.615 98.3008 134.615 98.3008C147.815 102.488 160.333 104.63 171.828 105.458C190.093 106.773 205.874 104.63 217.808 101.855C233.297 98.2521 248.153 91.5332 248.153 91.5332C248.153 91.5332 269.876 116.9 273.919 142.85C273.919 142.85 273.919 142.899 273.919 142.948C273.919 142.948 280.495 131.457 291.454 132.528C294.035 132.772 296.86 133.697 299.978 135.693C317.805 147.183 316.1 199.766 274.26 200.01Z" fill="#E88846"/>
<path d="M204.078 120.728C276.651 112.77 334.006 92.8632 332.184 76.2643C330.363 59.6654 270.054 52.6603 197.482 60.6179C124.909 68.5755 67.5538 88.4824 69.3753 105.081C71.1969 121.68 131.505 128.685 204.078 120.728Z" fill="#F2B34E"/>
<path d="M285.073 13.8274C286.388 25.9993 244.353 40.6057 191.116 46.4482C137.927 52.2908 93.7001 47.1786 92.385 34.9579C91.0699 22.7372 133.105 8.22825 186.293 2.43439C239.531 -3.40815 283.758 1.70407 285.073 13.876V13.8274Z" fill="#EA8C11"/>
<path d="M289.067 50.1973L291.502 72.2042C292.818 84.3762 250.783 98.9825 197.545 104.825C144.356 110.668 100.13 105.555 98.8148 93.3347L96.3794 71.3278C97.6945 83.4998 141.921 88.612 195.11 82.8181C248.347 76.9756 290.382 62.4179 289.067 50.1973Z" fill="#AF3737"/>
<path d="M285.073 13.8274L289.067 50.1972C290.382 62.3692 248.347 76.9756 195.11 82.8181C141.921 88.6607 97.6944 83.5484 96.3793 71.3278L92.3853 34.9579C93.7004 47.1299 137.927 52.2421 191.116 46.4483C244.353 40.6057 286.388 26.048 285.073 13.8274Z" fill="#F2B34E"/>
<path d="M160.82 203.856C160.284 211.111 153.952 216.612 146.646 216.125C139.388 215.59 133.884 209.26 134.371 201.957C134.907 194.654 141.239 189.201 148.545 189.688C155.851 190.175 161.307 196.553 160.82 203.856Z" fill="#C4532C"/>
<path d="M267.197 203.856C266.662 211.159 260.33 216.661 253.023 216.174C245.717 215.639 240.213 209.309 240.7 202.006C241.236 194.703 247.617 189.201 254.874 189.688C262.18 190.224 267.684 196.602 267.197 203.856Z" fill="#C4532C"/>
<path d="M242.551 169.093C242.113 175.568 237.485 180.486 232.225 180.096C226.965 179.756 223.165 174.205 223.604 167.73C224.091 161.254 228.718 156.337 233.978 156.726C239.19 157.116 243.038 162.617 242.551 169.093Z" fill="#36344C"/>
<path d="M170.902 169.093C170.415 175.52 165.788 180.486 160.576 180.096C155.315 179.707 151.468 174.156 151.955 167.73C152.393 161.254 157.02 156.337 162.281 156.726C167.541 157.067 171.389 162.617 170.902 169.093Z" fill="#36344C"/>
<path d="M173.484 141C174.068 142.607 173.727 144.749 172.948 146.21C172.266 147.524 170.561 149.18 169.002 149.423L153.708 152.296C152.539 152.637 151.37 152.685 150.201 152.442C149.617 152.198 149.081 152.004 148.545 151.809C146.938 151.03 145.915 149.472 145.331 147.865C144.746 146.258 145.038 144.116 145.818 142.656C146.548 141.341 148.253 139.686 149.763 139.393L165.008 136.521C166.177 136.18 167.395 136.131 168.564 136.424C169.1 136.618 169.684 136.813 170.22 137.056C171.828 137.835 172.85 139.393 173.435 141H173.484Z" fill="#36344C"/>
<path d="M250.198 149.861C249.37 151.371 248.104 152.734 246.399 153.269C245.815 153.416 245.23 153.513 244.646 153.659C243.477 153.805 242.259 153.562 241.187 153.026L226.526 148.011C225.016 147.476 223.604 145.674 223.068 144.214C222.484 142.656 222.484 140.513 223.312 138.955C224.091 137.446 225.406 136.083 227.062 135.547C227.695 135.401 228.231 135.304 228.864 135.158C230.033 135.012 231.202 135.255 232.323 135.791L247.032 140.805C248.542 141.341 249.955 143.142 250.491 144.603C251.075 146.161 251.075 148.303 250.247 149.861H250.198Z" fill="#36344C"/>
<path d="M201.832 214.081L186.099 214.47C189.314 198.744 191.7 182.872 193.162 166.853C193.405 164.029 189.07 163.348 188.827 166.172C187.317 183.066 184.784 199.815 181.228 216.369C180.887 217.878 182.3 218.949 183.664 218.901C189.898 218.755 196.133 218.56 202.367 218.414C205.192 218.365 204.705 213.983 201.88 214.032L201.832 214.081Z" fill="#C4532C"/>
<path d="M222.629 221.919C218.83 231.511 209.673 238.425 199.396 239.398C196.571 239.642 197.058 244.024 199.883 243.78C211.621 242.66 222.288 234.724 226.623 223.721C227.646 221.092 223.652 219.242 222.629 221.919Z" fill="#36344C"/>
</g>
</g>
<defs>
<clipPath id="clip0_8_1004">
<rect width="400" height="450" fill="white"/>
</clipPath>
<clipPath id="clip1_8_1004">
<rect width="865" height="2026" fill="white" transform="translate(-319)"/>
</clipPath>
</defs>
</svg>
