<svg width="400" height="450" viewBox="0 0 400 450" fill="none" xmlns="http://www.w3.org/2000/svg">
<g clip-path="url(#clip0_1_482)">
<g clip-path="url(#clip1_1_482)">
<path d="M181.3 535.387L189.49 535.045L189.456 617.017H276.655L278.451 577.844C278.451 577.844 289.958 476.251 243.708 408.733C243.708 408.733 190.157 373.443 129.151 408.733C129.151 408.733 80.217 464.02 89.8945 605.505C90.151 609.217 90.4074 613.049 90.6639 617.017H179.231L181.3 535.387Z" fill="#D68676"/>
<path d="M129.151 384.135V408.733C129.151 408.733 186.429 402.267 243.708 408.733V384.135L189.49 361.127L129.151 384.135Z" fill="#1E0A04"/>
<path d="M147.292 47.6405C147.292 47.6405 110.942 76.7038 110.224 182.984H265.918C265.918 182.984 265.388 88.028 233.381 50.9249L147.31 47.6405H147.292Z" fill="#872D2D"/>
<path d="M199.217 30.312C206.148 23.3778 206.148 12.1353 199.217 5.20109C192.286 -1.73311 181.049 -1.73312 174.118 5.20109C167.187 12.1353 167.187 23.3779 174.118 30.3121C181.049 37.2463 192.286 37.2463 199.217 30.312Z" fill="#872D2D"/>
<path d="M203.932 44.9776C206.194 35.4358 200.296 25.8663 190.758 23.6037C181.221 21.3411 171.656 27.2421 169.395 36.7839C167.133 46.3257 173.031 55.8952 182.569 58.1578C192.106 60.4204 201.671 54.5195 203.932 44.9776Z" fill="#7B628A"/>
<path d="M171.007 156.897L166.698 214.476H211.033L204.776 156.264L171.007 156.897Z" fill="#FACEBA"/>
<path d="M170.426 164.355C170.426 164.355 176.102 177.407 189.045 177.407C201.989 177.407 207.665 159.788 207.665 159.788L170.426 164.355Z" fill="#DE9D8C"/>
<path d="M151.287 132.362C157.236 126.409 157.236 116.759 151.287 110.807C145.337 104.855 135.692 104.855 129.742 110.807C123.793 116.759 123.793 126.409 129.742 132.362C135.692 138.314 145.337 138.314 151.287 132.362Z" fill="#FACEBA"/>
<path d="M131.938 119.212C131.938 119.212 138.077 116.424 143.548 127.115" stroke="#DC9282" stroke-width="1.31" stroke-linecap="round" stroke-linejoin="round"/>
<path d="M251.633 127.383C254.835 119.599 251.123 110.691 243.343 107.488C235.562 104.284 226.659 107.997 223.457 115.781C220.255 123.566 223.966 132.473 231.747 135.677C239.527 138.88 248.43 135.167 251.633 127.383Z" fill="#FACEBA"/>
<path d="M246.136 119.212C246.136 119.212 239.997 116.424 234.526 127.115" stroke="#DC9282" stroke-width="1.31" stroke-linecap="round" stroke-linejoin="round"/>
<path d="M188.858 141.16C220.312 141.16 245.811 116.284 245.811 85.599C245.811 54.9137 220.312 30.0383 188.858 30.0383C157.403 30.0383 131.904 54.9137 131.904 85.599C131.904 116.284 157.403 141.16 188.858 141.16Z" fill="#872D2D"/>
<path d="M140.727 79.3894C140.727 79.3894 134.725 167.931 186.891 167.931C243.314 167.931 237.399 79.3894 237.399 79.3894C237.399 79.3894 237.074 40.7639 188.635 40.7639C144.215 40.7639 140.727 79.3894 140.727 79.3894Z" fill="#FACEBA"/>
<path d="M177.675 138.713C177.675 138.713 186.07 143.4 194.448 138.713" stroke="#DC9282" stroke-width="1.31" stroke-linecap="round" stroke-linejoin="round"/>
<path d="M208.571 90.8163C208.571 90.8163 198.193 88.7978 197.714 94.3915C197.714 94.3915 197.475 98.1719 206.537 99.7115C215.599 101.234 219.206 100.926 220.284 97.4364C221.361 93.9467 213.461 91.2782 208.571 90.8334V90.8163Z" fill="#872D2D"/>
<path d="M163.877 91.0558C163.877 91.0558 153.328 91.5176 154.166 97.06C154.166 97.06 154.816 100.806 163.98 100.156C173.145 99.5062 176.581 98.3601 176.821 94.7165C177.043 91.0729 168.75 90.3373 163.877 91.0387V91.0558Z" fill="#872D2D"/>
<path d="M171.742 113.054C171.742 115.312 169.913 117.125 167.673 117.125C165.433 117.125 163.604 115.295 163.604 113.054C163.604 110.813 165.433 108.983 167.673 108.983C169.913 108.983 171.742 110.813 171.742 113.054Z" fill="#1E0A04"/>
<path d="M211.735 113.054C211.735 115.312 209.905 117.125 207.665 117.125C205.425 117.125 203.596 115.295 203.596 113.054C203.596 110.813 205.425 108.983 207.665 108.983C209.905 108.983 211.735 110.813 211.735 113.054Z" fill="#1E0A04"/>
<path d="M183.968 123.626V130.263H189.37" stroke="#DC9282" stroke-width="1.31" stroke-linecap="round" stroke-linejoin="round"/>
<path d="M135.272 89.0544C135.272 89.0544 215.257 88.3359 217.189 46.0838C217.189 46.0838 194.842 25.9842 166.698 38.2834C138.555 50.5998 135.272 89.0544 135.272 89.0544Z" fill="#872D2D"/>
<path d="M216.471 39.9427C216.471 39.9427 193.577 72.4272 243.537 94.6823C243.537 94.6823 248.051 58.0068 216.471 39.9427Z" fill="#872D2D"/>
<path d="M141.838 211.671L101.521 221.182C101.521 221.182 118.277 325.837 129.134 384.135C129.134 384.135 187.302 374.504 243.691 384.135C243.691 384.135 272.757 273.749 285.598 221.182L239.262 208.831L141.838 211.671Z" fill="#7B628A"/>
<path d="M189.302 189.963L141.855 211.654C141.855 211.654 143.309 232.403 192.345 232.489C234.133 232.557 239.279 208.831 239.279 208.831L189.302 189.963Z" fill="#FACEBA"/>
<path d="M124.056 219.146C124.056 219.146 92.1514 208.9 71.4116 255.001C50.6547 301.119 29.6243 353.788 29.6243 353.788L68.1288 364.155L129.921 272.346L124.056 219.146Z" fill="#7B628A"/>
<path d="M263.37 219.146C263.37 219.146 295.275 208.9 316.015 255.001C336.772 301.102 357.802 353.788 357.802 353.788L319.298 364.155L257.506 272.346L263.37 219.146Z" fill="#7B628A"/>
<path d="M357.802 378.336L260.806 489.679L251.521 462.908L319.298 364.155L357.802 378.336Z" fill="#FACEBA"/>
<path d="M357.802 353.788C357.802 353.788 369.48 369.098 357.802 378.336C346.124 387.556 320.768 381.791 320.768 381.791L319.281 364.155L357.785 353.788H357.802Z" fill="#FACEBA"/>
<path d="M128.382 340.411C128.382 340.411 127.92 348.811 139.41 348.52C150.9 348.229 150.319 334.099 158.697 332.97C167.075 331.841 146.745 324.725 146.181 324.982C145.617 325.238 133.546 329.549 128.382 340.394V340.411Z" fill="#04B273"/>
<path d="M211.444 311.998C209.58 311.468 207.768 310.732 206.212 309.603C196.5 302.607 199.099 289.008 199.749 280.882C200.963 265.487 202.861 256.694 208.879 243.779C220.01 219.916 236.783 205.068 254.069 204.64C260.532 204.486 267.286 204.521 273.338 207.001C279.391 209.481 284.555 214.664 284.914 220.446C284.999 221.815 284.794 223.235 283.905 224.295C282.845 225.561 281.049 226.091 279.374 226.639C262.96 231.959 250.974 238.681 244.101 256.01C239.98 266.393 239.587 280.403 235.672 290.855C231.773 301.324 224.455 314.154 211.529 311.998H211.444Z" fill="#00CC87"/>
<path d="M96.6141 289.11C96.6141 289.11 89.3132 298.108 89.2107 307.636C89.1081 315.847 95.7079 322.33 103.881 322.963C104.342 322.997 104.821 323.032 105.317 323.032C113.507 323.151 120.534 317.301 122.74 309.415C123.338 307.294 123.749 304.831 124.159 302.145C126.313 288.118 136.196 289.35 136.196 289.35C136.196 289.35 119.782 270.978 96.597 289.11H96.6141Z" fill="#04B273"/>
<path d="M96.614 289.11C96.614 289.11 108.719 283.209 120.038 288.768C129.664 293.489 138.589 304.95 150.473 302.282C155.722 301.102 159.945 296.825 160.099 291.454C160.201 288.289 159.056 284.44 155.021 280.437C143.479 269.011 110.925 269.472 96.614 289.093V289.11Z" fill="#00CC87"/>
<path d="M296.198 281.755C296.198 281.755 307.927 286.715 307.449 296.432C307.226 301.016 304.115 305.139 299.686 306.319C296.061 307.277 291.018 306.678 285.324 300.417C285.324 300.417 275.082 289.623 264.755 291.146L273.441 278.607L296.198 281.772V281.755Z" fill="#04B273"/>
<path d="M296.198 281.755C296.198 281.755 287.205 275.682 266.721 273.236C260.19 272.449 253.471 273.886 248.136 277.735C244.614 280.284 240.716 284.064 237.039 289.709C224.934 308.355 216.949 330.096 228.525 336.34C240.083 342.601 253.317 326.59 259.865 311.827C263.575 303.462 274.74 277.872 296.215 281.738L296.198 281.755Z" fill="#0EE296"/>
<path d="M119.679 228.469C122.757 232.455 129.63 236.971 133.511 240.187C144.317 249.15 150.849 256.694 157.825 271.474C168.853 294.841 177.333 304.677 190.054 302.607C202.775 300.537 211.649 276.52 192.619 242.359C175.47 211.602 143.309 184.729 124.261 194.616C120.038 196.806 116.892 200.689 115.131 205.119C112.789 211.021 112.874 219.677 119.662 228.469H119.679Z" fill="#0EE296"/>
<path d="M132.725 206.146C132.725 206.146 162.321 212.047 185.079 267.95C205.049 317.01 207.289 388.36 207.289 388.36" stroke="#121E35" stroke-width="0.87" stroke-linecap="round" stroke-linejoin="round"/>
<path d="M259.045 217.008C260.412 217.059 225.003 223.85 216.385 283.209C207.597 343.816 204.092 408.802 204.092 408.802" stroke="#121E35" stroke-width="0.87" stroke-linecap="round" stroke-linejoin="round"/>
<path d="M280.143 276.092C280.143 276.092 257.54 269.626 239.878 307.14C225.498 337.709 210.691 393.611 210.691 393.611" stroke="#121E35" stroke-width="0.87" stroke-linecap="round" stroke-linejoin="round"/>
<path d="M110.72 277.598C110.72 277.598 123.39 273.099 140.966 284.628C154.063 293.216 174.256 313.367 182.788 345.971C191.32 378.575 195.611 402.37 195.611 402.37" stroke="#121E35" stroke-width="0.87" stroke-linecap="round" stroke-linejoin="round"/>
<path d="M195.235 342.721C190.533 348.503 180.633 349.888 173.982 347.237C164.715 343.542 159.278 337.692 149.31 335.074C145.583 334.099 138.59 333.723 135.05 335.177C130.006 337.264 128.399 340.411 128.399 340.411C132.52 323.391 144.625 314.119 157.397 312.255C175.248 309.655 188.652 318.926 193.85 328.865C196.158 333.261 198.296 338.957 195.235 342.721Z" fill="#00CC87"/>
<path d="M152.097 321.56C152.097 321.56 171.144 316.309 187.216 336.768C202.143 355.773 201.39 380.987 201.39 380.987" stroke="#121E35" stroke-width="0.87" stroke-linecap="round" stroke-linejoin="round"/>
<path d="M149.532 364.514L170.682 465.149H232.132L253.283 364.514H149.532Z" fill="white"/>
<path d="M151.84 375.479L153.824 384.921H248.991L251.521 375.479H151.84Z" fill="#E4F7F2"/>
<path d="M36.6516 377.617L155.021 441.064L156.594 412.924L74.8826 352.984L36.6516 377.617Z" fill="#FACEBA"/>
<path d="M29.7098 354.079C29.7098 354.079 22.8365 372.075 36.6516 377.617C50.4496 383.16 73.1557 370.467 73.1557 370.467L74.8997 353.002L29.7269 354.079H29.7098Z" fill="#FACEBA"/>
<path d="M127.1 423.513L149.361 438.19C149.361 438.19 171.469 455.21 192.089 463.661C193.2 464.123 194.466 463.764 195.184 462.84C196.158 461.574 195.765 459.675 194.346 458.837L180.787 450.831C180.787 450.831 195.201 457.691 207.682 461.574C209.358 462.104 211.119 461.283 211.752 459.675C212.384 458.033 211.632 456.134 210.008 455.33L186.618 443.784L211.085 452.08C213 452.73 215.034 451.755 215.684 449.856C216.334 447.957 215.342 445.836 213.444 445.067L190.824 436.017L211.119 440.551C213.769 441.149 216.214 439.182 216.214 436.479C216.214 434.444 214.812 432.648 212.829 432.134C205.049 430.15 186.019 424.625 178.65 416.345C178.65 416.345 183.472 415.49 189.781 415.901C192.824 416.106 195.235 413.54 194.79 410.495C194.5 408.442 192.944 406.749 190.926 406.287L174.837 404.132C171.948 403.465 168.938 403.824 166.339 405.175L149.207 413.01L127.1 403.807V423.496V423.513Z" fill="#FACEBA"/>
</g>
</g>
<defs>
<clipPath id="clip0_1_482">
<rect width="400" height="450" fill="white"/>
</clipPath>
<clipPath id="clip1_1_482">
<rect width="335" height="617" fill="white" transform="translate(28)"/>
</clipPath>
</defs>
</svg>
