<svg width="400" height="450" viewBox="0 0 400 450" fill="none" xmlns="http://www.w3.org/2000/svg">
<g clip-path="url(#clip0_1_2099)">
<g clip-path="url(#clip1_1_2099)">
<path d="M98.1831 432.125C98.1831 432.125 64.2403 697.334 61.9614 717.24C59.7066 737.146 80.0723 948.057 80.0723 948.057C80.0723 948.057 129.775 959.713 156.929 945.035L150.093 727.793L190.32 564.465L201.595 945.827C201.595 945.827 227.549 959.905 265.162 943.404C265.162 943.404 302.775 515.683 292.533 435.722L98.1831 432.101V432.125Z" fill="#771818"/>
<path d="M162.831 180.754L162.255 237.691L160.12 447.426L159.328 528.274C110.249 557.654 74.8193 521.823 74.8193 521.823L85.6858 402.769L87.293 276.856C87.293 276.856 62.9454 218.72 66.3756 200.828C69.7819 182.913 153.284 153.964 153.284 153.964C156.21 151.566 160.024 149.791 164.126 148.568C159.664 158.042 160.576 170.297 162.831 180.778V180.754Z" fill="#8E2323"/>
<path d="M326.212 473.928C325.516 478.605 322.878 482.586 318.56 484.649C313.906 486.903 308.293 486.831 303.303 485.896C297.786 484.888 292.533 482.802 287.376 480.691C274.422 475.319 262.068 468.556 250.386 460.785C238.608 453.542 230.213 447.426 230.213 447.426L228.078 237.667L227.502 180.73C229.757 170.249 230.644 157.97 226.207 148.52C230.308 149.767 234.099 151.518 237.049 153.917C237.049 153.917 320.551 182.865 323.957 200.78C327.387 218.696 303.04 276.808 303.04 276.808L304.671 402.721L308.125 440.591C314.458 445.388 319.663 451.647 323.117 458.842C325.324 463.471 327.003 468.676 326.212 473.856V473.928Z" fill="#8E2323"/>
<path d="M227.502 180.754C224.863 193.01 220.33 202.819 220.33 202.819C218.914 198.622 215.22 194.473 211.094 190.923C204.378 185.095 196.462 180.706 195.166 180.011C193.919 180.682 185.931 185.071 179.19 190.899C175.065 194.497 171.394 198.622 169.979 202.819C169.979 202.819 165.469 193.01 162.807 180.754C160.552 170.273 159.664 157.994 164.102 148.544C177.799 144.395 194.95 145.69 194.95 145.69H195.31C195.31 145.69 212.462 144.395 226.159 148.544C230.62 158.018 229.709 170.273 227.454 180.754H227.502Z" fill="#F4E9DC"/>
<path d="M214.212 252.608L195.358 272.85H194.998L176.144 252.608L186.434 207.807L179.214 190.947C185.955 185.095 193.943 180.706 195.19 180.034C196.485 180.73 204.425 185.119 211.118 190.947L203.897 207.807L214.188 252.608H214.212Z" fill="#AF3737"/>
<path d="M228.078 237.691L214.213 252.609L203.922 207.807L211.142 190.947C215.268 194.497 218.962 198.646 220.378 202.843C220.378 202.843 224.887 193.034 227.55 180.778L228.126 237.715L228.078 237.691Z" fill="#F4E9DC"/>
<path d="M186.459 207.807L176.168 252.608L162.303 237.715L162.878 180.754C165.517 193.01 170.051 202.819 170.051 202.819C171.466 198.622 175.136 194.497 179.262 190.899L186.482 207.783L186.459 207.807Z" fill="#F4E9DC"/>
<path d="M230.213 447.426V447.45L216.108 463.495L195.358 440.591H194.998L174.225 463.495L160.168 447.426H160.144L162.279 237.715L176.144 252.608L194.998 272.827H195.358L214.213 252.608L228.078 237.691L230.213 447.426Z" fill="#F2B34E"/>
<path d="M69.6376 207.951L-2.61377 502.132C-2.61377 502.132 11.683 537.94 43.251 529.881L115.095 307.818L69.6376 207.951Z" fill="#8E2323"/>
<path d="M319.687 207.951C319.687 207.951 366.775 318.683 364.952 337.99C363.129 357.296 306.398 470.139 306.398 470.139C306.398 470.139 269.888 450.232 267.777 425.481L303.975 350.581L281.067 276.424C281.067 276.424 289.51 223.924 319.687 207.927V207.951Z" fill="#8E2323"/>
<path d="M268.689 434.235C268.689 434.235 285.361 461.169 300.833 467.884L294.02 503.643L281.211 526.572C281.211 526.572 268.833 506.425 267.778 491.867C266.722 477.31 267.778 472.105 267.778 472.105C267.778 472.105 261.037 503.38 254.704 505.154C248.371 506.929 253.553 473.832 253.553 473.832C253.553 473.832 251.178 445.627 268.689 434.259V434.235Z" fill="#E88846"/>
<path d="M87.1488 246.397C86.2612 265.104 85.5416 283.811 84.9659 302.518C84.3902 321.153 83.9824 339.788 83.7185 358.424C83.5746 369.048 83.4786 379.673 83.4307 390.298C83.4307 391.689 85.5896 391.449 85.5896 390.058C85.6615 371.423 85.9014 352.787 86.3092 334.152C86.693 315.517 87.2447 296.906 87.9644 278.295C88.3722 267.766 88.8039 257.237 89.3077 246.733C89.3796 245.341 87.2207 245.006 87.1728 246.397H87.1488Z" fill="#771818"/>
<path d="M145.775 311.44C140.642 290.742 134.981 270.188 128.84 249.778C125.481 238.602 121.955 227.45 118.309 216.369C125.002 213.3 131.694 210.23 138.387 207.16C139.131 206.824 139.298 205.865 138.675 205.313C131.958 199.341 125.242 193.369 118.525 187.397C125.745 178.596 133.493 170.273 141.793 162.479C142.801 161.543 141.529 159.768 140.522 160.728C131.838 168.882 123.706 177.588 116.198 186.822C115.814 187.302 115.91 187.949 116.342 188.357C122.915 194.185 129.463 200.037 136.036 205.865C129.559 208.839 123.059 211.813 116.582 214.787C116.03 215.05 115.766 215.602 115.958 216.202C122.627 236.372 128.816 256.686 134.501 277.144C140.21 297.673 145.415 318.347 150.117 339.141C152.756 350.773 155.226 362.453 157.529 374.157C157.793 375.524 159.952 375.284 159.688 373.917C155.538 353.003 150.909 332.186 145.751 311.488L145.775 311.44Z" fill="#771818"/>
<path d="M244.173 311.44C249.306 290.742 254.968 270.188 261.108 249.778C264.467 238.602 267.993 227.45 271.639 216.369C264.947 213.3 258.254 210.23 251.561 207.16C250.818 206.824 250.65 205.865 251.273 205.313C257.99 199.341 264.707 193.369 271.423 187.397C264.203 178.596 256.455 170.273 248.155 162.479C247.148 161.543 248.419 159.768 249.426 160.728C258.11 168.882 266.242 177.588 273.75 186.822C274.134 187.302 274.038 187.949 273.606 188.357C267.033 194.185 260.485 200.037 253.912 205.865C260.389 208.839 266.89 211.813 273.366 214.787C273.918 215.05 274.182 215.602 273.99 216.202C267.321 236.372 261.132 256.686 255.447 277.144C249.738 297.673 244.533 318.347 239.831 339.141C237.193 350.773 234.722 362.453 232.419 374.157C232.155 375.524 229.996 375.284 230.26 373.917C234.41 353.003 239.04 332.186 244.197 311.488L244.173 311.44Z" fill="#771818"/>
<path d="M303.807 355.857C298.482 335.256 292.988 314.702 287.327 294.172C285.72 288.32 284.089 282.444 282.434 276.592C282.05 275.249 280.035 276.04 280.419 277.383C286.176 297.865 291.765 318.419 297.186 338.997C298.649 344.585 300.113 350.197 301.576 355.785C292.509 374.924 283.417 394.063 274.35 413.202C271.759 418.67 269.168 424.138 266.578 429.606C265.978 430.878 267.945 431.765 268.545 430.494C277.636 411.331 286.728 392.144 295.819 372.981C298.338 367.681 300.856 362.357 303.375 357.056C303.735 356.793 303.975 356.361 303.831 355.833L303.807 355.857Z" fill="#771818"/>
<path d="M313.258 448.985C309.204 454.573 305.126 460.161 301.072 465.726C300.257 466.853 301.936 468.22 302.751 467.093C306.805 461.504 310.883 455.916 314.937 450.352C315.753 449.225 314.074 447.858 313.258 448.985Z" fill="#771818"/>
<path d="M249.499 442.797C243.286 430.974 238.968 418.214 236.737 405.047C236.497 403.68 234.338 403.896 234.578 405.287C236.833 418.646 241.175 431.597 247.46 443.589C248.107 444.812 250.122 444.044 249.475 442.797H249.499Z" fill="#771818"/>
<path d="M253.025 438.025C250.602 426.393 248.755 414.641 247.508 402.841C247.364 401.45 245.205 401.69 245.349 403.081C246.62 414.881 248.467 426.633 250.89 438.265C251.178 439.608 253.337 439.392 253.049 438.025H253.025Z" fill="#771818"/>
<path d="M194.111 275.057C194.039 296.306 193.991 317.532 193.919 338.781C193.847 360.03 193.799 381.256 193.727 402.505C193.703 414.425 193.655 426.369 193.631 438.288C193.631 439.68 195.79 439.44 195.79 438.049C195.862 416.799 195.91 395.574 195.982 374.325C196.054 353.075 196.102 331.85 196.174 310.6C196.198 298.681 196.246 286.737 196.27 274.817C196.27 273.426 194.111 273.666 194.111 275.057Z" fill="#EA8C11"/>
<path d="M201.259 207.975C197.037 207.975 192.791 207.831 188.569 207.615C187.994 207.591 187.418 207.903 187.322 208.527C187.226 209.054 187.634 209.726 188.234 209.774C192.647 210.014 197.085 210.134 201.499 210.158C202.075 210.158 202.506 209.486 202.458 208.959C202.386 208.311 201.859 207.999 201.259 207.999V207.975Z" fill="#8E2323"/>
<path d="M195.118 212.796C191.4 219.223 187.682 225.675 183.964 232.103C183.268 233.302 185.259 234.189 185.931 232.99L197.085 213.683C197.781 212.484 195.79 211.597 195.118 212.796Z" fill="#8E2323"/>
<path d="M195.862 220.471L188.69 235.436C188.09 236.707 190.057 237.595 190.657 236.324C193.055 231.335 195.43 226.347 197.829 221.358C198.429 220.087 196.462 219.199 195.862 220.471Z" fill="#8E2323"/>
<path d="M175.52 194.928C172.282 191.163 169.043 187.373 165.805 183.608C165.421 183.152 164.797 183.008 164.294 183.368C163.838 183.68 163.67 184.447 164.054 184.879C167.292 188.645 170.531 192.434 173.769 196.199C174.153 196.655 174.776 196.799 175.28 196.439C175.736 196.127 175.904 195.36 175.52 194.928Z" fill="#E2CAB0"/>
<path d="M225.583 181.402C221.793 186.126 218.003 190.851 214.213 195.576C213.349 196.679 215.028 198.046 215.892 196.943L227.262 182.769C228.126 181.665 226.446 180.298 225.583 181.402Z" fill="#E2CAB0"/>
<path d="M215.508 194.784C209.559 188.932 203.034 183.704 196.03 179.147C195.694 178.931 195.358 178.931 195.046 179.027C194.854 179.027 194.662 179.075 194.471 179.195C187.226 183.944 180.294 189.124 173.673 194.712C172.618 195.6 173.889 197.375 174.944 196.463C181.421 190.995 188.21 185.91 195.286 181.258C202.027 185.719 208.335 190.779 214.117 196.439C215.124 197.423 216.491 195.72 215.484 194.76L215.508 194.784Z" fill="#E2CAB0"/>
<path d="M209.559 305.444C209.271 302.878 207.088 301.559 204.69 301.559C202.291 301.559 200.564 304.245 200.803 306.427C201.091 308.994 203.274 310.313 205.673 310.313C208.072 310.313 209.799 307.627 209.559 305.444Z" fill="#F4E9DC"/>
<path d="M209.559 343.961C209.271 341.395 207.088 340.076 204.69 340.076C202.291 340.076 200.564 342.762 200.803 344.945C201.091 347.511 203.274 348.83 205.673 348.83C208.072 348.83 209.799 346.144 209.559 343.961Z" fill="#F4E9DC"/>
<path d="M209.559 378.282C209.271 375.716 207.088 374.396 204.69 374.396C202.291 374.396 200.564 377.083 200.803 379.265C201.091 381.831 203.274 383.15 205.673 383.15C208.072 383.15 209.799 380.464 209.559 378.282Z" fill="#F4E9DC"/>
<path d="M209.559 415.552C209.271 412.986 207.088 411.667 204.69 411.667C202.291 411.667 200.564 414.353 200.803 416.535C201.091 419.102 203.274 420.421 205.673 420.421C208.072 420.421 209.799 417.735 209.559 415.552Z" fill="#F4E9DC"/>
<path d="M232.803 73.1162C227.909 79.8795 220.665 84.4844 212.461 86.0673C205.169 87.4823 197.469 86.475 190.968 82.8775C185.403 83.9088 179.694 84.0287 174.105 83.1893C169.259 82.4458 164.486 81.0547 160.072 78.9202C155.994 76.9536 152.204 74.2195 149.757 70.3341C144.768 62.4676 146.543 52.9221 149.541 44.5999C146.231 38.7479 144.144 31.7687 146.711 25.2452C147.766 22.5351 149.565 20.2327 151.988 18.6258C154.387 17.0429 157.193 16.2034 159.976 15.5319C162.998 14.7884 166.045 14.1649 168.947 12.9897C172.162 11.6706 175.208 9.94376 178.399 8.5767C183.988 6.22632 190.512 5.12308 195.718 8.91247C199.724 11.8145 202.218 16.803 201.787 21.7676C206.752 20.3046 212.053 19.5851 217.211 20.3766C222.104 21.1201 226.542 23.2786 230.164 26.6842C242.71 38.5081 242.542 59.6615 232.803 73.0922V73.1162Z" fill="#36344C"/>
<path d="M227.502 155.667L194.519 179.915L162.447 159.936L164.918 126.192C171.754 133.746 183.652 140.941 194.542 140.846C205.409 140.774 216.923 133.794 223.664 126.192L227.478 155.643L227.502 155.667Z" fill="#E88846"/>
<path d="M223.712 126.216C223.712 126.216 206.609 164.781 163.143 150.943L164.966 126.216C171.778 133.746 183.7 140.965 194.615 140.87C205.481 140.798 216.995 133.818 223.736 126.216H223.712Z" fill="#C4532C"/>
<path d="M231.172 96.5241L231.22 103.743C231.244 108.492 230.356 113.049 228.749 117.222C227.166 121.323 224.839 125.088 221.985 128.35C215.244 136.001 205.457 140.822 194.591 140.894C183.7 140.989 173.841 136.241 167.029 128.71C163.886 125.232 161.391 121.179 159.712 116.694C158.273 112.785 157.481 108.612 157.457 104.223L157.409 97.0038C136.852 97.1477 135.652 71.2695 144.336 65.4895C144.552 65.3216 144.816 65.2017 145.032 65.0578C150.981 61.6521 155.227 66.137 156.69 68.0557C156.186 53.4498 162.399 46.4226 162.399 46.4226C168.9 48.4852 175.064 49.5405 180.726 49.9482C189.721 50.5958 197.493 49.5405 203.37 48.1734C210.998 46.3986 218.315 43.0889 218.315 43.0889C218.315 43.0889 229.013 55.5843 231.004 68.3675C231.004 68.3675 231.004 68.3915 231.004 68.4155C231.004 68.4155 234.242 62.7554 239.64 63.283C240.911 63.4029 242.302 63.8586 243.838 64.8419C252.617 70.502 251.778 96.4042 231.172 96.5241Z" fill="#E88846"/>
<path d="M196.608 57.47C232.349 53.5501 260.596 43.744 259.699 35.5675C258.802 27.391 229.101 23.9403 193.36 27.8601C157.619 31.78 129.372 41.5861 130.269 49.7626C131.166 57.9392 160.867 61.3899 196.608 57.47Z" fill="#F2B34E"/>
<path d="M236.497 4.8113C237.145 10.8072 216.443 18.0022 190.225 20.8802C164.03 23.7582 142.249 21.24 141.601 15.2201C140.954 9.20027 161.655 2.0532 187.85 -0.800833C214.068 -3.67885 235.849 -1.16059 236.497 4.83528V4.8113Z" fill="#EA8C11"/>
<path d="M238.464 22.727L239.664 33.5675C240.311 39.5634 219.61 46.7584 193.391 49.6364C167.196 52.5144 145.415 49.9962 144.768 43.9763L143.568 33.1358C144.216 39.1316 165.997 41.6499 192.192 38.7959C218.41 35.9179 239.112 28.7468 238.464 22.727Z" fill="#AF3737"/>
<path d="M236.497 4.81131L238.464 22.727C239.112 28.7228 218.41 35.9179 192.191 38.7959C165.997 41.6739 144.216 39.1556 143.568 33.1358L141.601 15.2201C142.249 21.216 164.03 23.7343 190.224 20.8802C216.443 18.0022 237.145 10.8312 236.497 4.81131Z" fill="#F2B34E"/>
<path d="M175.304 98.4188C175.04 101.992 171.922 104.702 168.324 104.463C164.75 104.199 162.039 101.081 162.279 97.4834C162.543 93.8859 165.661 91.1997 169.259 91.4396C172.858 91.6794 175.544 94.8212 175.304 98.4188Z" fill="#C4532C"/>
<path d="M227.694 98.4188C227.43 102.016 224.311 104.726 220.713 104.487C217.115 104.223 214.404 101.105 214.644 97.5074C214.908 93.9099 218.05 91.1997 221.625 91.4396C225.223 91.7034 227.933 94.8452 227.694 98.4188Z" fill="#C4532C"/>
<path d="M215.556 81.2946C215.34 84.4844 213.061 86.9067 210.47 86.7148C207.88 86.547 206.009 83.8128 206.224 80.623C206.464 77.4332 208.743 75.0109 211.334 75.2028C213.901 75.3946 215.796 78.1048 215.556 81.2946Z" fill="#36344C"/>
<path d="M180.27 81.2946C180.03 84.4604 177.751 86.9067 175.184 86.7148C172.594 86.523 170.699 83.7888 170.938 80.623C171.154 77.4332 173.433 75.0109 176.024 75.2028C178.615 75.3706 180.51 78.1048 180.27 81.2946Z" fill="#36344C"/>
<path d="M181.541 67.4561C181.829 68.2476 181.661 69.3028 181.277 70.0223C180.941 70.6699 180.102 71.4853 179.334 71.6053L171.802 73.0203C171.226 73.1882 170.65 73.2121 170.075 73.0922C169.787 72.9723 169.523 72.8764 169.259 72.7804C168.467 72.3967 167.964 71.6292 167.676 70.8378C167.388 70.0463 167.532 68.9911 167.916 68.2715C168.276 67.624 169.115 66.8086 169.859 66.6647L177.367 65.2496C177.943 65.0817 178.542 65.0578 179.118 65.2017C179.382 65.2976 179.67 65.3935 179.934 65.5134C180.725 65.8972 181.229 66.6647 181.517 67.4561H181.541Z" fill="#36344C"/>
<path d="M219.322 71.8211C218.914 72.5646 218.29 73.2362 217.451 73.5C217.163 73.5719 216.875 73.6199 216.587 73.6918C216.012 73.7638 215.412 73.6439 214.884 73.3801L207.664 70.9098C206.92 70.6459 206.225 69.7586 205.961 69.039C205.673 68.2716 205.673 67.2163 206.081 66.4488C206.464 65.7053 207.112 65.0338 207.928 64.77C208.24 64.698 208.503 64.6501 208.815 64.5781C209.391 64.5062 209.967 64.6261 210.518 64.8899L217.763 67.3602C218.506 67.624 219.202 68.5114 219.466 69.2309C219.754 69.9984 219.754 71.0537 219.346 71.8211H219.322Z" fill="#36344C"/>
<path d="M195.502 103.455L187.754 103.647C189.337 95.9005 190.512 88.0819 191.232 80.1913C191.352 78.8003 189.217 78.4645 189.097 79.8556C188.353 88.1778 187.106 96.4281 185.355 104.583C185.187 105.326 185.883 105.854 186.554 105.83C189.625 105.758 192.695 105.662 195.766 105.59C197.157 105.566 196.917 103.407 195.526 103.431L195.502 103.455Z" fill="#C4532C"/>
<path d="M205.745 107.317C203.873 112.041 199.364 115.447 194.302 115.927C192.911 116.047 193.151 118.205 194.542 118.085C200.323 117.534 205.577 113.624 207.712 108.204C208.215 106.909 206.248 105.998 205.745 107.317Z" fill="#36344C"/>
</g>
</g>
<defs>
<clipPath id="clip0_1_2099">
<rect width="400" height="450" fill="white"/>
</clipPath>
<clipPath id="clip1_1_2099">
<rect width="426" height="998" fill="white" transform="translate(-61 -2)"/>
</clipPath>
</defs>
</svg>
