<svg width="400" height="450" viewBox="0 0 400 450" fill="none" xmlns="http://www.w3.org/2000/svg">
<g clip-path="url(#clip0_1_205)">
<g clip-path="url(#clip1_1_205)">
<path d="M228.675 13.6133C228.675 13.6133 250.663 28.1394 253.084 68.1854C253.143 69.1975 253.163 70.2294 253.203 71.2216C253.302 74.8531 254.274 86.8392 262.073 98.1902C278.127 121.527 270.606 148.178 270.606 148.178L142.61 148.02L228.675 13.6133Z" fill="#914E4F"/>
<path d="M129.354 22.9005C129.354 22.9005 119.372 33.8347 114.471 54.2348C109.569 74.6349 103.338 68.2648 95.9756 89.7762C92.1456 100.909 95.0429 112.181 88.4148 124.067C81.7868 135.954 84.7238 148.178 84.7238 148.178L225.897 147.781C225.897 147.781 228.516 141.074 222.385 130.021C216.253 118.967 222.96 111.823 217.761 101.703C212.562 91.582 239.729 89.161 236.256 71.7177C232.763 54.2745 129.374 22.9005 129.374 22.9005H129.354Z" fill="#914E4F"/>
<path d="M176.365 2.40118C176.365 2.40118 196.15 -6.33037 222.722 9.54517C255.981 29.4094 230.104 53.1037 230.104 53.1037L176.365 2.40118Z" fill="#914E4F"/>
<path d="M178.403 121.328C212.794 120.067 239.697 92.4355 238.493 59.6111C237.29 26.7868 208.435 1.19963 174.044 2.46068C139.654 3.72172 112.75 31.3534 113.954 64.1778C115.158 97.0022 144.012 122.589 178.403 121.328Z" fill="#914E4F"/>
<path d="M219.983 87.3154C222.881 95.7295 232.049 100.214 240.463 97.3369C248.877 94.4396 253.362 85.2715 250.484 76.8574C247.587 68.4434 238.419 63.9586 230.005 66.836C221.591 69.7333 217.106 78.9014 220.003 87.3154H219.983Z" fill="#F2A37C"/>
<path d="M200.774 119.404L201.766 180.882L153.346 179.949L159.617 86.7003L200.774 119.404Z" fill="#FFC09B"/>
<path d="M201.171 145.023C201.171 145.023 163.228 135.22 163.962 101.028L200.655 118.431L201.171 145.023Z" fill="#1E0A04"/>
<path d="M229.112 24.7262C233.299 28.0203 236.057 32.7433 237.288 37.9028C240.939 53.2029 247.984 80.1516 243.122 96.7019C236.811 118.233 220.083 133.97 191.963 129.663C191.963 129.663 158.386 127.5 149.952 85.3707C136.518 18.2569 193.233 -3.41323 229.112 24.7262Z" fill="#FFC09B"/>
<path d="M225.798 79.9532L228.636 86.859C228.854 87.7322 228.358 88.6252 227.504 88.8832L223.555 89.7563" stroke="#360C22" stroke-width="1.38" stroke-linecap="round" stroke-linejoin="round"/>
<path d="M196.488 44.7492C196.488 44.7492 210.16 41.8122 211.113 48.1029C211.113 48.1029 211.669 52.3893 199.702 54.6912C187.736 56.9932 182.914 56.8543 181.287 52.9846C179.66 49.0951 189.998 45.5826 196.468 44.7492H196.488Z" fill="#914E4F"/>
<path d="M236.573 44.392C236.573 44.392 226.532 42.5861 225.282 47.6663C225.282 47.6663 224.508 51.1391 233.319 52.4885C239.729 53.4609 242.07 52.2702 242.626 49.9484C243.301 47.19 240.344 44.769 236.554 44.392H236.573Z" fill="#914E4F"/>
<path d="M231.87 95.154L203.612 96.5034C203.612 96.5034 204.643 108.708 217.741 108.231C230.759 107.755 231.89 95.154 231.89 95.154H231.87Z" fill="#1E0A04"/>
<mask id="mask0_1_205" style="mask-type:luminance" maskUnits="userSpaceOnUse" x="203" y="95" width="29" height="14">
<path d="M231.87 95.154L203.612 96.5034C203.612 96.5034 204.643 108.708 217.741 108.231C230.759 107.755 231.89 95.154 231.89 95.154H231.87Z" fill="white"/>
</mask>
<g mask="url(#mask0_1_205)">
<path d="M203.294 116.626C205.775 121.547 211.768 123.512 216.689 121.031C221.611 118.551 223.575 112.558 221.095 107.636C218.614 102.715 212.621 100.75 207.7 103.231C202.778 105.711 200.814 111.704 203.294 116.626Z" fill="#FF7AC7"/>
<path d="M233.914 98.8848L201.826 100.016L201.627 94.5984L233.676 92.2369L233.914 98.8848Z" fill="white"/>
</g>
<path d="M210.815 74.0594C210.815 74.0594 203.572 68.0663 196.368 74.5952" stroke="#360C22" stroke-width="1.38" stroke-linecap="round" stroke-linejoin="round"/>
<path d="M242.011 71.9757C242.011 71.9757 236.573 67.0543 231.553 73.2854" stroke="#360C22" stroke-width="1.38" stroke-linecap="round" stroke-linejoin="round"/>
<path d="M154.556 83.1481C154.556 83.1481 168.15 87.6925 170.154 62.113C172.158 36.5336 190.673 17.6615 208.632 14.4467C208.632 14.4467 191.665 -6.31052 154.457 22.5433C117.249 51.3971 154.556 83.1481 154.556 83.1481Z" fill="#914E4F"/>
<path d="M163.865 92.5781C166.224 82.6396 160.079 72.6709 150.141 70.3124C140.202 67.9539 130.233 74.0986 127.875 84.0371C125.516 93.9756 131.661 103.944 141.6 106.303C151.538 108.661 161.507 102.517 163.865 92.5781Z" fill="#FFC09B"/>
<path d="M137.331 83.2077C137.331 83.2077 149.694 78.5839 152.711 92.3163" stroke="#360C22" stroke-width="1.31" stroke-linecap="round" stroke-linejoin="round"/>
<path d="M208.632 14.4467C208.632 14.4467 206.251 10.9938 197.5 8.11636C197.5 8.11636 205.021 12.5218 208.037 19.4277L208.632 14.4467Z" fill="#FFC09B"/>
<path d="M262.609 365.673C262.609 365.673 304.223 415.225 309.005 514.407C313.788 613.589 305.413 703.961 305.413 703.961H231.374L205.576 365.653H262.589L262.609 365.673Z" fill="#252B4D"/>
<path d="M144.495 365.673C144.495 365.673 121.515 422.071 114.133 538.915C103.755 703.167 106.632 703.981 106.632 703.981H183.986L230.679 488.748L242.983 365.673H144.495Z" fill="#252B4D"/>
<path d="M220.043 540.423L230.898 463.109L259.097 443.92" stroke="#0E1326" stroke-width="1.77" stroke-linecap="round" stroke-linejoin="round"/>
<path d="M153.643 175.246H100.322C94.4277 175.246 95.1223 180.068 95.3009 185.962C96.0351 211.621 112.03 290.701 144.515 365.673H262.609L249.512 198.524C249.294 190.566 252.548 183.918 244.769 182.211L201.032 175.226H153.643V175.246Z" fill="#00ABF2"/>
<path d="M140.903 175.246H201.032L213.593 177.25C213.593 177.25 227.088 200.627 191.645 200.627C156.203 200.627 141.717 178.957 140.903 175.246Z" fill="#FFC09B"/>
<path d="M204.624 341.443C204.624 341.443 247.388 348.408 258.323 331.838L220.837 321.043L209.525 316.935L204.644 341.463L204.624 341.443Z" fill="#FFC09B"/>
<path d="M125.464 197.631C128.56 223.885 142.412 282.545 155.211 317.372C158.247 325.627 156.839 334.835 151.242 341.602C140.229 354.917 118.995 352.953 111.038 337.613C102.723 321.599 86.6488 284.589 81.6678 255.04C77.6791 231.247 75.8137 214.221 75.0597 202.195C74.1468 187.589 85.6963 175.246 100.341 175.246C113.201 175.246 123.976 184.851 125.484 197.631H125.464Z" fill="#00ABF2"/>
<path d="M134.89 350.274H210.498L214.05 308.144L158.704 294.352L134.89 303.699V350.274Z" fill="#00ABF2"/>
<path d="M144.971 283.696L131.14 215.411" stroke="#0B87AD" stroke-width="1.06" stroke-linecap="round" stroke-linejoin="round"/>
<path d="M149.952 301.913L134.89 303.699" stroke="#0B87AD" stroke-width="1.06" stroke-linecap="round" stroke-linejoin="round"/>
<path d="M138.998 349.54L210.716 347.754L211.133 342.892" stroke="#0B87AD" stroke-width="1.06" stroke-linecap="round" stroke-linejoin="round"/>
<path d="M235.899 182.092C235.899 182.092 268.324 178.064 279.675 209.835C289.32 236.823 323.214 298.42 325.02 331.382C325.139 333.605 324.603 336.026 323.611 338.367C319.622 347.694 309.224 352.556 299.301 350.433L286.899 347.773L231.513 243.531L235.918 182.092H235.899Z" fill="#00ABF2"/>
<path d="M260.823 291.832C260.823 291.832 282.93 246.031 250.563 213.645" stroke="#0B87AD" stroke-width="1.06" stroke-linecap="round" stroke-linejoin="round"/>
<path d="M218.515 288.756L177.556 280.997C177.556 280.997 155.549 273.456 144.971 285.462L149.952 301.913C149.952 301.913 161.542 298.797 167.773 301.913C174.004 305.029 220.817 320.507 220.837 321.023C220.876 321.539 218.515 288.776 218.515 288.776V288.756Z" fill="#FFC09B"/>
<path d="M286.879 347.754L212.224 329.894L209.089 286.236L292.634 297.428L286.879 347.754Z" fill="#00ABF2"/>
<path d="M209.089 286.236L292.634 297.428" stroke="#0B87AD" stroke-width="1.06" stroke-linecap="round" stroke-linejoin="round"/>
</g>
</g>
<defs>
<clipPath id="clip0_1_205">
<rect width="400" height="450" fill="white"/>
</clipPath>
<clipPath id="clip1_1_205">
<rect width="250" height="703.981" fill="white" transform="translate(75)"/>
</clipPath>
</defs>
</svg>
