<svg width="400" height="450" viewBox="0 0 400 450" fill="none" xmlns="http://www.w3.org/2000/svg">
<g clip-path="url(#clip0_1_1816)">
<g clip-path="url(#clip1_1_1816)">
<path d="M302.202 193.141C301.513 196.638 299.897 199.825 297.163 202.132C294.525 204.392 291.126 205.605 287.751 206.414C279.075 208.531 269.972 209.316 261.106 210.1C251.67 210.909 242.186 211.337 232.702 211.742C223.575 212.075 214.353 212.574 205.273 211.195C197.715 210.053 190.251 207.508 184.071 202.917C181.029 200.657 178.414 197.898 176.299 194.759C174.112 191.5 172.353 187.956 169.953 184.84C167.695 181.938 164.628 179.536 160.897 178.917C157.117 178.323 154.17 180.154 152.364 183.413C150.676 186.481 149.749 189.978 147.134 192.475C144.9 194.64 141.501 196.162 138.554 194.426C135.725 192.784 135.179 189.264 135.179 186.267C135.179 184.911 135.44 179.369 135.654 178.441C135.844 176.8 136.058 175.159 136.32 173.542C137.27 167.809 138.839 162.196 140.883 156.749C144.163 145.308 148.965 134.295 157.973 126.089C163.678 120.88 170.666 117.74 178.295 116.741C187.019 115.623 195.861 116.86 204.536 117.431C214.115 118.073 223.718 118.406 233.344 118.406C242.257 118.406 251.29 117.645 260.179 118.501C268.047 119.262 275.51 121.784 281.666 126.85C287.204 131.441 291.411 137.482 294.383 144C297.948 151.825 299.707 160.388 300.848 168.856C301.442 173.28 301.893 177.704 302.321 182.128C302.654 185.768 302.892 189.502 302.202 193.117V193.141Z" fill="#36344C"/>
<path d="M325.71 935.212C325.71 935.212 283.544 955.406 246.75 935.212L199.212 639.84L159.756 935.212C159.756 935.212 104.113 945.987 72.7378 925.341C72.7378 925.341 91.3013 505.521 121.63 389.279C122.32 386.615 123.033 384.094 123.722 381.715C123.841 381.287 123.983 380.883 124.102 380.455C125.766 375.008 127.454 370.37 129.213 366.635C129.308 366.445 129.331 366.326 129.331 366.326H281.286C281.286 366.326 308.192 450.861 308.644 524.93C309.095 598.975 325.686 935.212 325.686 935.212H325.71Z" fill="#36344C"/>
<path d="M282.95 391.158C204.346 405.24 123.247 389.565 121.678 389.255C122.296 386.687 123.009 384.142 123.794 381.692C123.912 381.263 124.055 380.859 124.174 380.431C126.384 373.557 128.714 367.92 129.284 366.611C129.379 366.421 129.403 366.302 129.403 366.302H276.651L282.974 391.135L282.95 391.158Z" fill="#8E2323"/>
<path d="M348.433 357.953C338.878 383.69 269.497 459.091 269.497 459.091C269.497 459.091 242.662 454.001 236.981 421.39L267.286 366.326C267.286 366.326 247.201 369.608 218.584 370.964C215.066 371.131 211.429 371.297 207.674 371.392C189.918 371.868 169.786 371.487 149.535 369.228C145.994 368.847 142.452 368.395 138.91 367.872C135.702 367.396 132.517 366.873 129.332 366.326C129.332 366.326 118.683 383.095 101.118 375.15C83.5528 367.23 83.7192 353.077 85.1453 340.138C86.5714 327.198 102.829 245.446 102.829 245.446L136.938 253.224C136.938 253.224 135.916 188.313 159.875 159.437C163.487 155.036 167.695 151.492 172.567 149.114C174.279 148.281 176.085 147.591 177.939 147.068L239.31 139.718C239.31 139.718 248.77 139.718 259.965 150.398C262.461 152.777 266.739 152.325 270.281 153.419C295.262 161.03 323.547 172.495 328.705 186.196C338.284 211.623 358.012 332.217 348.433 357.953Z" fill="#F4E9DC"/>
<path d="M258.824 148.757C246.322 207.27 238.692 266.806 236.149 326.556C235.84 333.478 235.626 340.423 235.483 347.345C238.05 347.178 240.617 346.917 243.185 346.679C244.23 346.584 245.252 346.584 246.298 346.56C247.463 296.491 252.145 246.469 260.464 197.09C263.127 181.486 266.074 165.906 269.449 150.446C265.812 149.803 262.247 149.256 258.848 148.78L258.824 148.757Z" fill="#36344C"/>
<path d="M159.874 159.413C150.676 213.74 144.353 268.614 140.978 323.63C140.598 329.957 140.265 336.284 139.956 342.611C143.498 342.54 147.087 342.826 150.676 342.873C153.1 293.779 157.83 244.78 164.961 196.138C167.266 180.439 169.81 164.765 172.567 149.114C167.694 151.492 163.487 155.036 159.874 159.437V159.413Z" fill="#36344C"/>
<path d="M137.104 254.865C135.345 283.313 133.61 311.761 131.851 340.209C131.352 348.249 130.853 356.312 130.354 364.352C130.259 365.731 132.398 366.064 132.469 364.685C134.228 336.237 135.963 307.789 137.722 279.341C138.221 271.301 138.72 263.238 139.219 255.198C139.315 253.819 137.175 253.486 137.104 254.865Z" fill="#E2CAB0"/>
<path d="M280.858 346.037C276.294 316.447 271.707 286.881 267.143 257.292C265.836 248.8 264.505 240.285 263.198 231.793C262.984 230.437 260.845 230.651 261.058 232.031C265.693 261.977 270.305 291.9 274.939 321.846C276.247 330.338 277.554 338.829 278.885 347.345C275.51 353.125 271.968 358.81 268.26 364.399C267.5 365.541 269.164 366.921 269.924 365.755C273.894 359.737 277.697 353.624 281.333 347.392C281.69 346.774 281.333 346.251 280.858 346.037Z" fill="#E2CAB0"/>
<path d="M319.91 338.52C308.145 340.352 296.403 342.159 284.637 343.991C283.282 344.205 283.496 346.346 284.875 346.132C296.641 344.3 308.382 342.492 320.148 340.661C321.503 340.447 321.289 338.306 319.91 338.52Z" fill="#E2CAB0"/>
<path d="M312.138 352.102C304.865 351.174 297.592 350.27 290.318 349.343C288.94 349.176 288.607 351.293 289.986 351.46C297.259 352.387 304.532 353.291 311.805 354.219C313.184 354.385 313.517 352.268 312.138 352.102Z" fill="#E2CAB0"/>
<path d="M243.779 147.353C237.955 162.338 229.565 176.229 219.035 188.36C214.852 182.366 210.193 176.729 205.059 171.52C204.822 170.973 204.251 170.64 203.657 170.997C203.633 170.997 203.609 171.02 203.586 171.044C203.562 171.044 203.538 171.044 203.514 171.092C196.479 177.038 189.847 183.437 183.596 190.239C178.557 177.205 175.277 163.528 173.875 149.613C173.732 148.233 171.593 148.471 171.735 149.851C173.209 164.503 176.727 178.941 182.194 192.618C182.503 193.403 183.501 193.498 184.024 192.903C190.251 186.005 196.907 179.536 203.966 173.518C209.148 178.846 213.878 184.602 218.061 190.763C218.465 191.357 219.321 191.31 219.772 190.81C230.848 178.299 239.667 163.861 245.704 148.257C246.203 146.973 244.254 146.069 243.755 147.377L243.779 147.353Z" fill="#E2CAB0"/>
<path d="M225.429 176.681C225.072 179.274 224.692 181.867 224.312 184.436C224.027 186.481 223.67 188.55 221.887 189.859C220.224 191.048 218.061 191.333 216.064 191.119C211.952 190.691 208.672 188.217 206.224 185.054C205.487 185.435 204.631 185.672 203.728 185.672H203.443C202.54 185.672 201.684 185.435 200.923 185.054C198.499 188.217 195.195 190.715 191.083 191.119C189.11 191.31 186.923 191.024 185.283 189.859C183.501 188.574 183.168 186.481 182.859 184.436C182.502 181.867 182.075 179.274 181.742 176.681C181.457 174.445 181.457 172.186 182.669 170.188C184.879 166.596 189.586 165.24 193.484 166.596C197.334 167.952 199.806 171.282 201.85 174.683C202.349 174.517 202.872 174.422 203.419 174.422C203.467 174.422 203.514 174.422 203.562 174.422C203.609 174.422 203.657 174.422 203.704 174.422C204.275 174.422 204.798 174.517 205.273 174.683C207.317 171.282 209.789 167.952 213.64 166.596C217.538 165.24 222.244 166.596 224.454 170.188C225.667 172.186 225.643 174.469 225.381 176.681H225.429Z" fill="#AF3737"/>
<path d="M199.854 175.635C199.402 175.254 198.713 175.349 198.332 175.777C197.572 176.681 197.049 177.752 196.764 178.893C195.837 177.894 194.933 176.895 194.006 175.896C193.626 175.492 192.984 175.278 192.509 175.659C192.105 175.992 191.867 176.729 192.271 177.157C193.222 178.18 194.173 179.203 195.124 180.249C194.838 180.392 194.553 180.558 194.268 180.701C193.555 181.058 192.842 181.391 192.129 181.7C191.606 181.914 191.273 182.556 191.511 183.104C191.748 183.627 192.343 183.96 192.913 183.722C194.149 183.175 195.361 182.556 196.574 181.914C196.645 182.628 196.835 183.318 197.12 183.984C197.334 184.531 197.952 184.816 198.523 184.602C199.045 184.388 199.354 183.746 199.141 183.199C199.022 182.937 198.927 182.652 198.855 182.39V182.342C198.855 182.271 198.832 182.176 198.808 182.081C198.784 181.938 198.76 181.795 198.736 181.653C198.713 181.367 198.689 181.082 198.689 180.796C198.689 180.796 198.689 180.796 198.689 180.749C198.689 180.677 198.689 180.606 198.689 180.535C198.689 180.368 198.713 180.202 198.736 180.059C198.784 179.773 198.832 179.488 198.927 179.226C198.927 179.226 198.927 179.203 198.927 179.179C198.927 179.107 198.974 179.036 198.998 178.965C199.045 178.822 199.093 178.703 199.164 178.56C199.236 178.418 199.283 178.299 199.354 178.18C199.402 178.108 199.45 178.013 199.473 177.942C199.473 177.942 199.592 177.752 199.545 177.823C199.497 177.894 199.616 177.728 199.616 177.704C199.663 177.633 199.687 177.585 199.735 177.538C199.83 177.395 199.925 177.276 200.044 177.157C200.424 176.705 200.329 176.015 199.901 175.635H199.854Z" fill="#8E2323"/>
<path d="M215.328 181.962C213.996 181.391 212.689 180.844 211.358 180.273C212.38 179.012 213.378 177.728 214.401 176.467C214.757 176.015 214.71 175.326 214.258 174.945C213.806 174.588 213.117 174.636 212.737 175.088C211.857 176.206 210.978 177.3 210.075 178.418C209.789 177.157 209.243 175.968 208.482 174.897C207.65 173.779 205.915 175.04 206.747 176.158C208.244 178.204 208.648 180.963 207.769 183.246C207.555 183.793 207.769 184.412 208.316 184.673C208.815 184.911 209.528 184.673 209.742 184.126C209.98 183.46 210.146 182.77 210.241 182.081C211.643 182.675 213.046 183.27 214.448 183.865C214.971 184.079 215.66 183.865 215.874 183.318C216.088 182.794 215.874 182.128 215.328 181.89V181.962Z" fill="#8E2323"/>
<path d="M145.233 343.182C147.325 343.301 149.417 343.42 151.508 343.539C152.079 343.563 152.649 343.254 152.744 342.635C152.839 342.112 152.435 341.446 151.841 341.398C147.61 341.161 143.379 340.899 139.148 340.661C138.578 340.637 138.007 340.947 137.912 341.565C137.817 342.088 138.221 342.754 138.816 342.802C140.099 342.873 141.359 342.945 142.642 343.016C137.223 358.263 133.634 374.056 130.092 389.803C129.783 391.158 131.923 391.491 132.208 390.136C135.488 375.507 138.816 360.855 143.641 346.655C146.279 362.14 148.917 377.624 151.556 393.109C151.793 394.465 153.933 394.251 153.695 392.871C150.866 376.316 148.038 359.737 145.209 343.182H145.233Z" fill="#F2B34E"/>
<path d="M248.295 346.203C245.157 346.275 241.996 346.346 238.859 346.393C238.74 346.393 238.645 346.393 238.526 346.393C237.052 346.417 235.555 346.465 234.081 346.489C232.702 346.512 232.94 348.653 234.319 348.629C235.293 348.629 236.244 348.582 237.218 348.558C232.607 364.161 228.662 379.979 225.453 395.939C225.168 397.295 227.307 397.628 227.568 396.272C230.587 381.264 234.271 366.397 238.526 351.698C241.758 366.041 244.563 380.479 246.845 395.012C247.059 396.368 249.198 396.153 248.984 394.774C246.536 379.242 243.517 363.828 239.999 348.51C242.828 348.439 245.656 348.391 248.509 348.32C249.887 348.296 249.65 346.156 248.271 346.179L248.295 346.203Z" fill="#F2B34E"/>
<path d="M201.042 188.241C199.616 211.314 198.285 234.362 197.097 257.458C195.908 280.435 194.839 303.436 193.888 326.437C193.365 339.424 192.866 352.387 192.414 365.375C192.367 366.73 194.482 367.087 194.53 365.708C195.338 342.611 196.265 319.515 197.335 296.443C198.38 273.442 199.569 250.465 200.852 227.488C201.589 214.525 202.35 201.561 203.158 188.598C203.253 187.218 201.114 186.885 201.042 188.265V188.241Z" fill="#E2CAB0"/>
<path d="M283.497 466.322C265.694 461.683 250.387 449.386 242.115 432.95C239.762 428.264 237.955 423.317 236.791 418.227C236.482 416.895 234.343 417.109 234.652 418.465C238.954 437.208 251.147 453.406 268.071 462.563C272.848 465.156 277.935 467.107 283.188 468.486C284.519 468.843 284.851 466.702 283.52 466.369L283.497 466.322Z" fill="#1C1C30"/>
<path d="M161.895 217.807C161.135 221.042 159.067 223.563 156.88 225.942C151.556 231.674 146.208 237.383 140.907 243.068C140.788 243.21 140.622 243.306 140.479 243.353C139.22 246.636 137.936 249.894 136.676 253.153L134.537 252.653L107.227 246.445L105.111 245.946C105.183 241.974 105.23 237.954 105.301 233.981C105.397 228.297 105.468 222.612 105.587 216.927C105.706 211.551 105.706 206.081 106.371 200.729C106.918 196.305 108.391 191.69 111.981 188.788C114.096 187.076 116.829 186.338 119.396 186.695C119.682 185.458 120.228 184.317 121.084 183.413C122.225 182.223 123.675 181.486 125.244 181.224C125.362 179.179 126.028 177.228 127.359 175.587C129.26 173.256 132.232 171.9 135.203 171.996C141.288 172.162 145.043 177.181 147.776 182.152C148.133 180.915 148.585 179.726 149.203 178.584C150.296 176.491 152.815 173.97 155.264 175.777C156.357 176.586 156.809 177.918 157.07 179.179C157.403 180.82 157.617 182.461 157.854 184.126C159.09 191.904 160.279 199.682 161.491 207.484C162.014 210.862 162.68 214.406 161.895 217.807Z" fill="#F99958"/>
<path d="M148.68 205.367C148.68 205.89 148.394 206.247 148.014 206.414C147.396 206.699 146.564 206.461 146.54 205.605C146.469 202.703 146.422 199.777 146.35 196.875C145.518 198.612 144.449 200.277 143.142 201.752C142.904 201.989 142.642 202.085 142.381 202.085C142.595 203.512 142.547 204.963 142.096 206.39C141.383 208.745 139.743 210.766 137.366 211.48C137.176 211.551 137.009 211.528 136.819 211.48C136.867 211.647 136.914 211.837 136.938 212.027C137.104 213.835 136.32 215.761 134.513 216.451C132.683 217.117 130.663 216.261 128.999 215.452C126.194 214.096 123.604 212.384 121.227 210.386C119.991 209.363 118.826 208.221 117.709 207.056C116.782 206.033 118.517 204.772 119.444 205.795C120.347 206.77 121.322 207.698 122.32 208.554C124.388 210.315 126.646 211.837 129.047 213.097C130.306 213.74 132.992 215.405 134.276 214.049C135.678 212.574 133.991 210.077 133.254 208.673C131.756 205.819 130.116 203.012 128.334 200.301C125.648 196.114 122.629 192.118 119.373 188.336C118.469 187.29 120.205 186.029 121.108 187.076C124.269 190.786 127.193 194.64 129.855 198.731C129.997 198.945 130.14 199.183 130.283 199.397C131.566 201.395 132.802 203.464 133.967 205.581C134.704 206.842 135.583 208.245 136.201 209.696C136.296 209.625 136.367 209.577 136.51 209.53C138.792 208.864 140.028 206.723 140.265 204.463C140.574 201.68 139.172 199.016 137.651 196.78C137.009 195.781 136.32 194.83 135.654 193.855C132.612 189.573 129.379 185.411 126.289 181.201C125.481 180.083 127.216 178.822 128.025 179.94C130.354 183.127 132.683 186.315 135.013 189.502C135.797 190.525 136.581 191.595 137.389 192.642C138.673 194.378 139.956 196.186 140.931 198.136C141.24 198.731 141.501 199.373 141.715 199.991C143.427 197.97 144.71 195.567 145.447 193.022C145.756 191.999 145.97 190.905 146.089 189.835C146.089 188.955 146.041 188.051 146.018 187.171C146.018 186.933 146.089 186.767 146.16 186.6C146.089 185.268 145.899 183.96 145.542 182.652C145.186 181.32 147.182 180.535 147.539 181.867C148.299 184.483 148.513 187.218 148.228 189.906C148.347 195.068 148.442 200.253 148.561 205.438L148.68 205.367Z" fill="#D36D29"/>
<path d="M148.014 206.437C148.014 207.365 148.014 208.293 148.014 209.197C147.895 214.429 147.016 219.591 145.423 224.586C143.926 229.391 141.787 234.338 138.126 237.882C134.917 241.022 130.52 243.02 125.98 242.211C121.488 241.426 118.469 238.096 117.352 233.767C115.379 226.061 117.305 217.379 121.25 210.386C123.627 212.384 126.218 214.096 129.023 215.452C130.687 216.237 132.707 217.117 134.537 216.451C136.344 215.785 137.152 213.835 136.962 212.027C136.962 211.861 136.89 211.67 136.843 211.48C137.009 211.48 137.175 211.528 137.389 211.48C139.766 210.766 141.406 208.745 142.119 206.39C142.571 204.963 142.619 203.512 142.405 202.085C142.666 202.085 142.928 201.966 143.165 201.752C144.473 200.277 145.542 198.636 146.374 196.876C146.445 199.777 146.493 202.703 146.564 205.605C146.564 206.461 147.396 206.699 148.038 206.414L148.014 206.437Z" fill="#36344C"/>
<path d="M247.011 69.8828C242.163 76.5905 234.984 81.1573 226.855 82.7272C219.63 84.1306 212 83.1316 205.559 79.5637C200.044 80.5865 194.387 80.7054 188.849 79.8729C184.048 79.1356 179.318 77.756 174.944 75.639C170.904 73.6886 167.148 70.977 164.724 67.1237C159.78 59.3219 161.539 49.8552 164.51 41.6015C161.23 35.7977 159.162 28.876 161.705 22.4063C162.751 19.7185 164.533 17.435 166.934 15.8414C169.311 14.2715 172.092 13.439 174.849 12.773C177.844 12.0356 180.863 11.4172 183.739 10.2517C186.924 8.94349 189.942 7.23091 193.104 5.87511C198.642 3.5441 205.107 2.44995 210.265 6.20811C214.234 9.0862 216.706 14.0337 216.278 18.9573C221.198 17.5064 226.451 16.7928 231.562 17.5778C236.411 18.3151 240.808 20.4558 244.397 23.8334C256.828 35.5599 256.662 56.539 247.011 69.8591V69.8828Z" fill="#36344C"/>
<path d="M239.762 145.355L203.99 171.115L177.963 147.068L179.769 122.545C186.543 130.037 198.333 137.173 209.124 137.078C219.891 137.007 231.3 130.085 237.979 122.545L239.738 145.355H239.762Z" fill="#F99958"/>
<path d="M237.979 122.545C237.979 122.545 221.032 160.792 177.963 147.068L179.769 122.545C186.52 130.013 198.333 137.173 209.148 137.078C219.915 137.007 231.324 130.085 238.003 122.545H237.979Z" fill="#D36D29"/>
<path d="M245.371 93.0979L245.419 100.257C245.443 104.967 244.563 109.486 242.971 113.625C241.402 117.692 239.096 121.427 236.268 124.662C229.589 132.249 219.891 137.03 209.124 137.102C198.333 137.197 188.564 132.487 181.813 125.018C178.7 121.57 176.228 117.55 174.564 113.102C173.138 109.225 172.353 105.086 172.33 100.733L172.282 93.5736C151.912 93.7163 150.724 68.0513 159.328 62.319C159.542 62.1525 159.803 62.0335 160.017 61.8908C165.912 58.5132 170.119 62.9612 171.569 64.864C171.07 50.3785 177.226 43.4092 177.226 43.4092C183.667 45.4548 189.776 46.5014 195.385 46.9057C204.299 47.5479 212 46.5014 217.823 45.1456C225.382 43.3854 232.631 40.103 232.631 40.103C232.631 40.103 243.232 52.4954 245.205 65.1733C245.205 65.1733 245.205 65.197 245.205 65.2208C245.205 65.2208 248.414 59.6074 253.762 60.1307C255.021 60.2496 256.4 60.7015 257.921 61.6767C266.621 67.2902 265.789 92.9789 245.371 93.0979Z" fill="#F99958"/>
<path d="M190.037 94.9769C189.776 98.521 186.686 101.209 183.121 100.971C179.579 100.709 176.893 97.6171 177.131 94.0493C177.392 90.4814 180.482 87.8174 184.048 88.0552C187.613 88.2931 190.275 91.409 190.037 94.9769Z" fill="#D36D29"/>
<path d="M241.948 94.9769C241.687 98.5448 238.597 101.233 235.032 100.995C231.466 100.733 228.78 97.6409 229.018 94.0731C229.28 90.5052 232.393 87.8174 235.935 88.0552C239.5 88.3169 242.186 91.4328 241.948 94.9769Z" fill="#D36D29"/>
<path d="M229.922 77.9938C229.708 81.1573 227.45 83.5597 224.883 83.3694C222.316 83.2029 220.462 80.4913 220.675 77.3278C220.913 74.1643 223.171 71.7619 225.738 71.9522C228.282 72.1425 230.159 74.8303 229.922 77.9938Z" fill="#36344C"/>
<path d="M194.934 77.9938C194.696 81.1336 192.438 83.5597 189.895 83.3694C187.328 83.1791 185.45 80.4675 185.688 77.3278C185.902 74.1643 188.16 71.7619 190.727 71.9522C193.294 72.1187 195.172 74.8303 194.934 77.9938Z" fill="#36344C"/>
<path d="M196.217 64.2694C196.502 65.0543 196.336 66.1009 195.956 66.8145C195.623 67.4567 194.791 68.2654 194.03 68.3843L186.567 69.7877C185.996 69.9542 185.426 69.978 184.856 69.859C184.57 69.7401 184.309 69.645 184.047 69.5498C183.263 69.1693 182.764 68.4081 182.479 67.6232C182.193 66.8382 182.336 65.7917 182.716 65.0781C183.073 64.4359 183.905 63.6272 184.642 63.4844L192.081 62.0811C192.652 61.9146 193.246 61.8908 193.816 62.0335C194.078 62.1286 194.363 62.2238 194.625 62.3427C195.409 62.7233 195.908 63.4844 196.193 64.2694H196.217Z" fill="#36344C"/>
<path d="M233.629 68.5984C233.225 69.3358 232.607 70.0018 231.775 70.2634C231.49 70.3348 231.205 70.3823 230.92 70.4537C230.349 70.5251 229.755 70.4061 229.232 70.1445L222.078 67.6945C221.341 67.4329 220.651 66.5528 220.39 65.8392C220.105 65.0781 220.105 64.0315 220.509 63.2704C220.889 62.533 221.531 61.867 222.339 61.6054C222.648 61.534 222.909 61.4864 223.218 61.4151C223.789 61.3437 224.359 61.4627 224.906 61.7243L232.084 64.1742C232.821 64.4359 233.51 65.316 233.772 66.0295C234.057 66.7907 234.057 67.8373 233.653 68.5984H233.629Z" fill="#36344C"/>
<path d="M210.051 99.972L202.373 100.162C203.942 92.4794 205.107 84.7252 205.82 76.8997C205.939 75.5201 203.823 75.1871 203.704 76.5667C202.967 84.8204 201.731 93.0027 199.996 101.09C199.83 101.827 200.519 102.351 201.185 102.327C204.227 102.255 207.27 102.16 210.312 102.089C211.691 102.065 211.453 99.9244 210.074 99.9482L210.051 99.972Z" fill="#D36D29"/>
<path d="M220.176 103.801C218.322 108.487 213.854 111.865 208.838 112.341C207.46 112.46 207.697 114.6 209.076 114.481C214.804 113.934 220.01 110.057 222.125 104.682C222.624 103.397 220.675 102.493 220.176 103.801Z" fill="#36344C"/>
<path d="M251.836 53.2803C245.918 49.094 230.872 40.6262 205.582 40.6262C180.292 40.6262 166.221 49.4746 161.324 53.5895C159.066 51.5677 140.123 33.4191 163.083 14.7234C187.47 -5.06638 206.414 0.83251 206.414 0.83251C206.414 0.83251 225.358 -5.06638 249.745 14.7472C271.85 32.7531 255.116 50.2357 251.836 53.3041V53.2803Z" fill="#8E2323"/>
<path d="M261.13 56.7531C257.636 55.9919 254.118 55.3259 250.6 54.7313C218.061 49.4032 184.951 52.3765 167.457 54.7313C159.565 55.8016 154.835 56.7531 154.835 56.7531C154.835 56.7531 155.596 55.873 157.236 54.5172C162.679 49.9503 177.749 40.103 206.461 40.103C235.174 40.103 251.337 49.546 257.921 54.1842C260.084 55.7303 261.13 56.7531 261.13 56.7531Z" fill="#771818"/>
</g>
</g>
<defs>
<clipPath id="clip0_1_1816">
<rect width="400" height="450" fill="white"/>
</clipPath>
<clipPath id="clip1_1_1816">
<rect width="334" height="981" fill="white" transform="translate(17)"/>
</clipPath>
</defs>
</svg>
