<svg width="400" height="450" viewBox="0 0 400 450" fill="none" xmlns="http://www.w3.org/2000/svg">
<g clip-path="url(#clip0_8_189)">
<g clip-path="url(#clip1_8_189)">
<path d="M294.909 25.6029C294.909 25.6029 336.246 52.9227 340.798 128.239C340.909 130.142 340.947 132.083 341.021 133.949C341.208 140.779 343.036 163.321 357.698 184.67C387.88 228.56 373.74 278.684 373.74 278.684L133.107 278.385L294.909 25.6029Z" fill="#914E4F"/>
<path d="M108.185 43.0697C108.185 43.0697 89.4196 63.6342 80.2046 102.001C70.9896 140.368 59.2751 128.388 45.434 168.845C38.2337 189.783 43.6805 210.982 31.2198 233.338C18.7591 255.693 24.2806 278.684 24.2806 278.684L289.686 277.937C289.686 277.937 294.611 265.323 283.083 244.534C271.555 223.746 284.165 210.31 274.39 191.276C264.616 172.241 315.69 167.688 309.161 134.882C302.595 102.076 108.223 43.0697 108.223 43.0697H108.185Z" fill="#914E4F"/>
<path d="M196.567 4.51598C196.567 4.51598 233.762 -11.9057 283.717 17.9519C346.244 55.3113 297.595 99.8738 297.595 99.8738L196.567 4.51598Z" fill="#914E4F"/>
<path d="M200.398 228.186C265.052 225.814 315.63 173.847 313.367 112.113C311.105 50.3788 256.858 2.25623 192.203 4.62792C127.549 6.99961 76.9708 58.9674 79.2336 120.701C81.4964 182.435 135.743 230.558 200.398 228.186Z" fill="#914E4F"/>
<path d="M278.569 164.217C284.016 180.042 301.252 188.476 317.07 183.065C332.888 177.616 341.32 160.373 335.91 144.548C330.463 128.724 313.227 120.289 297.409 125.701C281.591 131.15 273.159 148.393 278.606 164.217H278.569Z" fill="#F2A37C"/>
<path d="M242.455 224.567L244.32 340.191L153.29 338.436L165.079 163.06L242.455 224.567Z" fill="#FFC09B"/>
<path d="M243.201 272.75C243.201 272.75 171.869 254.312 173.25 190.007L242.231 222.738L243.201 272.75Z" fill="#1E0A04"/>
<path d="M295.73 46.5033C303.602 52.6988 308.788 61.5814 311.101 71.2852C317.965 100.06 331.21 150.744 322.069 181.87C310.205 222.365 278.755 251.961 225.89 243.862C225.89 243.862 162.766 239.794 146.91 160.56C121.653 34.3363 228.278 -6.41937 295.73 46.5033Z" fill="#FFC09B"/>
<path d="M289.5 150.371L294.835 163.359C295.245 165.001 294.312 166.68 292.708 167.166L285.284 168.808" stroke="#360C22" stroke-width="1.38" stroke-linecap="round" stroke-linejoin="round"/>
<path d="M234.397 84.1612C234.397 84.1612 260.102 78.6375 261.892 90.4686C261.892 90.4686 262.937 98.5302 240.44 102.86C217.944 107.189 208.878 106.928 205.819 99.6499C202.76 92.3347 222.197 85.7287 234.359 84.1612H234.397Z" fill="#914E4F"/>
<path d="M309.758 83.4895C309.758 83.4895 290.88 80.0932 288.53 89.6476C288.53 89.6476 287.075 96.179 303.639 98.7169C315.69 100.546 320.092 98.3063 321.137 93.9397C322.405 88.7519 316.846 84.1986 309.72 83.4895H309.758Z" fill="#914E4F"/>
<path d="M300.916 178.959L247.79 181.497C247.79 181.497 249.73 204.45 274.353 203.554C298.827 202.659 300.953 178.959 300.953 178.959H300.916Z" fill="#1E0A04"/>
<mask id="mask0_8_189" style="mask-type:luminance" maskUnits="userSpaceOnUse" x="247" y="178" width="54" height="26">
<path d="M300.916 178.959L247.79 181.497C247.79 181.497 249.73 204.45 274.353 203.554C298.827 202.659 300.953 178.959 300.953 178.959H300.916Z" fill="white"/>
</mask>
<g mask="url(#mask0_8_189)">
<path d="M247.193 219.342C251.856 228.598 263.123 232.292 272.376 227.627C281.628 222.962 285.321 211.691 280.658 202.435C275.994 193.179 264.728 189.484 255.475 194.149C246.223 198.815 242.53 210.086 247.193 219.342Z" fill="#FF7AC7"/>
<path d="M304.759 185.976L244.432 188.103L244.059 177.914L304.311 173.473L304.759 185.976Z" fill="white"/>
</g>
<path d="M261.332 139.286C261.332 139.286 247.715 128.015 234.173 140.294" stroke="#360C22" stroke-width="1.38" stroke-linecap="round" stroke-linejoin="round"/>
<path d="M319.98 135.367C319.98 135.367 309.758 126.111 300.319 137.83" stroke="#360C22" stroke-width="1.38" stroke-linecap="round" stroke-linejoin="round"/>
<path d="M155.566 156.379C155.566 156.379 181.121 164.926 184.889 116.818C188.657 68.7099 223.465 33.2167 257.229 27.1705C257.229 27.1705 225.331 -11.8684 155.379 42.3979C85.4276 96.6642 155.566 156.379 155.566 156.379Z" fill="#914E4F"/>
<path d="M173.067 174.115C177.501 155.423 165.949 136.675 147.264 132.239C128.58 127.803 109.839 139.36 105.405 158.051C100.971 176.743 112.523 195.492 131.207 199.927C149.892 204.363 168.633 192.806 173.067 174.115Z" fill="#FFC09B"/>
<path d="M123.183 156.491C123.183 156.491 146.425 147.795 152.096 173.622" stroke="#360C22" stroke-width="1.31" stroke-linecap="round" stroke-linejoin="round"/>
<path d="M257.229 27.1705C257.229 27.1705 252.752 20.6765 236.299 15.2648C236.299 15.2648 250.439 23.5503 256.11 36.5383L257.229 27.1705Z" fill="#FFC09B"/>
<path d="M153.85 329.591H53.6043C42.524 329.591 43.8297 338.66 44.1655 349.745C45.5459 398.002 75.6157 546.731 136.688 687.733H358.705L334.082 373.37C333.672 358.404 339.79 345.901 325.166 342.691L242.94 329.554H153.85V329.591Z" fill="#00ABF2"/>
<path d="M129.898 329.591H242.94L266.556 333.361C266.556 333.361 291.925 377.326 225.293 377.326C158.662 377.326 131.428 336.57 129.898 329.591Z" fill="#FFC09B"/>
<path d="M100.873 371.69C106.693 421.067 132.734 531.391 156.797 596.892C162.505 612.418 159.856 629.735 149.335 642.462C128.63 667.505 88.7107 663.81 73.7504 634.96C58.1186 604.841 27.8995 535.236 18.5353 479.663C11.0365 434.914 7.52957 402.892 6.11189 380.274C4.39574 352.805 26.1087 329.591 53.6417 329.591C77.8169 329.591 98.0749 347.655 100.91 371.69H100.873Z" fill="#00ABF2"/>
<path d="M137.546 533.556L111.543 405.131" stroke="#0B87AD" stroke-width="1.06" stroke-linecap="round" stroke-linejoin="round"/>
<path d="M308.489 342.467C308.489 342.467 369.45 334.891 390.79 394.643C408.921 445.401 472.642 561.249 476.037 623.241C476.261 627.421 475.254 631.974 473.389 636.378C465.89 653.92 446.341 663.064 427.687 659.07L404.37 654.069L300.244 458.016L308.527 342.467H308.489Z" fill="#00ABF2"/>
<path d="M355.348 548.858C355.348 548.858 396.908 462.719 336.06 401.809" stroke="#0B87AD" stroke-width="1.06" stroke-linecap="round" stroke-linejoin="round"/>
</g>
</g>
<defs>
<clipPath id="clip0_8_189">
<rect width="400" height="450" fill="white"/>
</clipPath>
<clipPath id="clip1_8_189">
<rect width="470" height="1324" fill="white" transform="translate(6)"/>
</clipPath>
</defs>
</svg>
