<svg width="400" height="450" viewBox="0 0 400 450" fill="none" xmlns="http://www.w3.org/2000/svg">
<g clip-path="url(#clip0_1_1429)">
<g clip-path="url(#clip1_1_1429)">
<path d="M288.126 410.514C288.126 410.514 351.542 553.765 285.218 836.976H198.844C198.844 836.976 200.799 611.861 194.815 539.461H181.679L136.978 836.976H43.1175C43.1175 836.976 34.6302 581.251 83.5748 446.821V407.534L288.126 410.49V410.514Z" fill="#FFA3CB"/>
<path d="M288.126 410.514L83.5746 407.558V446.845C76.6609 465.845 70.8915 487.3 66.0757 510.091C161.414 500.078 256.8 432.374 256.8 432.374C275.109 463.08 294.158 472.091 305.411 474.618C297.615 431.969 288.126 410.514 288.126 410.514Z" fill="#FF87BB"/>
<path d="M187.949 539.461V431.731" stroke="#AB251D" stroke-width="0.5" stroke-miterlimit="10"/>
<path d="M171.856 439.502C171.856 439.502 175.885 485.369 187.949 499.673" stroke="#AB251D" stroke-width="0.5" stroke-miterlimit="10"/>
<path d="M177.221 3.09912C177.221 3.09912 197.008 -4.26725 216.438 3.76662C235.868 11.8005 236.226 39.1919 238.896 49.1329C241.566 59.0739 255.322 70.4692 254.655 87.562C253.987 104.655 260.352 122.415 274.442 134.835C288.532 147.232 283.502 183.778 283.502 183.778H89.0345C89.0345 183.778 82.3354 161.536 90.3696 138.292C98.4039 115.049 106.128 104.655 107.797 89.5645C109.466 74.4742 114.83 65.439 122.221 56.3801C129.587 47.3211 132.925 35.8306 132.949 26.867C132.949 11.4429 142.676 -5.98368 177.221 3.07528V3.09912Z" fill="#8C4D1E"/>
<path d="M242.257 91.9008C242.043 108.803 249.195 121.175 254.988 129.424C262.808 140.533 271.962 152.167 263.261 167.352" stroke="#BA6528" stroke-width="0.5" stroke-miterlimit="10"/>
<path d="M229.979 91.9008C229.765 108.803 236.917 121.175 242.71 129.424C250.53 140.533 259.685 152.167 250.983 167.352" stroke="#BA6528" stroke-width="0.5" stroke-miterlimit="10"/>
<path d="M217.701 91.9008C217.487 108.803 224.639 121.175 230.432 129.424C238.252 140.533 247.407 152.167 238.705 167.352" stroke="#BA6528" stroke-width="0.5" stroke-miterlimit="10"/>
<path d="M118.644 86.6799C117.524 99.1956 111.945 111.497 107.702 122.439C103.458 133.381 99.4289 146.564 101.217 166.017" stroke="#BA6528" stroke-width="0.5" stroke-miterlimit="10"/>
<path d="M132.257 86.6799C131.137 99.1956 125.558 111.497 121.314 122.439C117.071 133.381 113.042 146.564 114.83 166.017" stroke="#BA6528" stroke-width="0.5" stroke-miterlimit="10"/>
<path d="M145.87 86.6799C144.749 99.1956 139.171 111.497 134.927 122.439C130.684 133.381 126.654 146.564 128.443 166.017" stroke="#BA6528" stroke-width="0.5" stroke-miterlimit="10"/>
<path d="M187.948 111.211C204.708 111.401 222.469 113.38 222.136 136.194C222.136 136.194 257.658 146.684 281.141 160.677C298.807 171.19 301.93 196.222 306.388 206.497C310.846 216.771 328.297 222.731 334.544 246.571C340.79 270.41 339.002 282.473 347.513 297.229C356.024 311.986 367.181 323.095 367.181 349.08C367.181 360.713 373.881 382.717 370.757 396.735L279.758 405.388V418.285H28.36C28.36 418.285 24.7839 400.93 26.5719 380.357C28.36 359.784 24.3309 339.234 33.2711 315.538C42.2113 291.841 35.0592 269.957 42.6643 255.653C50.2694 241.35 66.3618 211.86 68.5789 195.316C70.7961 178.771 86.3401 146.97 147.706 134.073C147.706 134.073 145.918 110.71 187.948 111.211Z" fill="#11394F"/>
<path d="M266.813 310.841L250.959 214.626L175.861 318.255L266.813 310.841Z" fill="#0D2A3B"/>
<path d="M278.853 352.322H230.409V418.285H278.853V352.322Z" fill="#0D2A3B"/>
<path d="M181.393 108.851L185.589 113.547" stroke="#11394F" stroke-width="0.54" stroke-miterlimit="10"/>
<path d="M173.191 20.0727C173.191 20.0727 180.558 51.5884 204.923 59.6222C204.923 59.6222 206.496 48.5608 213.648 48.227C221.993 47.8456 218.798 73.9259 208.07 74.5934L209.071 121.152C209.143 124.036 207.164 126.539 204.327 127.135C197.628 128.518 184.992 130.473 173.072 128.685C170.044 128.232 167.589 125.228 167.589 122.177V94.7138C167.589 94.7138 157.528 92.7113 153.499 84.439C149.47 76.1668 150.137 66.3449 150.137 66.3449L148.111 51.35C147.825 49.2998 148.302 47.2258 149.446 45.5093C153.07 40.0978 161.962 27.8921 173.167 20.0966L173.191 20.0727Z" fill="#FF6969"/>
<path d="M167.613 94.7138C177.387 97.4553 193.146 93.0927 199.845 85.5594C199.845 85.5594 191.358 106.681 167.613 104.512V94.7376V94.7138Z" fill="#E64C4C"/>
<path d="M208.046 62.7691C208.046 62.7691 209.501 52.5896 212.862 52.828C216.224 53.0426 214.197 60.1944 214.197 60.1944" stroke="#E64C4C" stroke-width="0.5" stroke-miterlimit="10"/>
<path d="M160.222 69.4679C160.222 69.4679 167.589 71.3035 178.77 68.1329C177.65 74.7602 172.595 77.4779 168.161 77.0727C160.794 76.4052 160.222 69.4679 160.222 69.4679Z" fill="white"/>
<path d="M166.325 82.0312C166.325 82.0312 170.187 83.3662 174.884 80.8631" stroke="#FF9696" stroke-width="0.54" stroke-miterlimit="10"/>
<path d="M165.133 49.1329V58.7402C165.133 58.7402 161.104 58.0727 160.77 59.7414C160.437 61.4102 165.133 63.6511 165.133 63.6511" stroke="#AB251D" stroke-width="0.94" stroke-linecap="round" stroke-linejoin="round"/>
<path d="M160.222 50.8493C160.222 53.0664 159.292 54.8782 158.148 54.8782C157.004 54.8782 156.074 53.0664 156.074 50.8493C156.074 48.6323 157.004 46.8205 158.148 46.8205C159.292 46.8205 160.222 48.6323 160.222 50.8493Z" fill="#11394F"/>
<path d="M176.934 50.8493C176.934 53.0664 176.005 54.8782 174.86 54.8782C173.716 54.8782 172.786 53.0664 172.786 50.8493C172.786 48.6323 173.716 46.8205 174.86 46.8205C176.005 46.8205 176.934 48.6323 176.934 50.8493Z" fill="#11394F"/>
<path d="M188.044 62.9598C188.044 65.8205 185.732 68.1329 182.871 68.1329C180.01 68.1329 177.697 65.8205 177.697 62.9598C177.697 60.099 180.01 57.7866 182.871 57.7866C185.732 57.7866 188.044 60.099 188.044 62.9598Z" fill="#E64C4C"/>
<path d="M169.496 41.8142C169.496 41.8142 175.718 39.3826 183.705 41.8142" stroke="#8C4D1E" stroke-width="2" stroke-miterlimit="10"/>
<path d="M161.462 41.8142C161.462 41.8142 157.933 39.3111 149.899 41.8142" stroke="#8C4D1E" stroke-width="2" stroke-miterlimit="10"/>
<path d="M196.436 298.54L234.438 259.658L369.757 369.272C369.757 369.272 382.416 405.412 364.083 427.964C345.749 450.516 306.865 453.425 282.739 434.091C258.612 414.757 196.46 298.54 196.46 298.54H196.436Z" fill="#11394F"/>
<path d="M262.069 282.043L344.223 348.603" stroke="#0D2A3B" stroke-width="0.54" stroke-miterlimit="10"/>
<path d="M243.259 365.6C259.685 370.082 286.291 355.993 293.872 337.208C301.453 318.422 302.145 300.757 300.118 286.573C298.116 272.389 312.42 263.663 317.999 284.451C323.577 305.239 316.02 333.203 300.786 353.276C288.651 369.272 264.143 380.667 244.236 375.136L243.235 365.577L243.259 365.6Z" fill="#BA6528"/>
<path d="M109.728 193.504C109.728 193.504 94.9704 247.596 112.398 292.294C112.398 292.294 107.916 310.961 108.154 327.553C108.393 344.145 96.3055 381.692 97.6644 392.42H79.3311C79.3311 392.42 95.4234 327.291 95.8764 309.792C96.3293 292.294 88.7242 217.653 109.728 193.504Z" fill="#0D2A3B"/>
<path d="M149.732 138.292C149.732 138.292 161.152 153.573 198.844 147.232" stroke="#1E638A" stroke-width="0.54" stroke-miterlimit="10"/>
<path d="M320.692 324.931L351.542 330.175" stroke="#1E638A" stroke-width="0.54" stroke-miterlimit="10"/>
<path d="M262.069 245.14C262.069 245.14 270.413 227.475 286.291 216.747" stroke="#1E638A" stroke-width="0.54" stroke-miterlimit="10"/>
<path d="M273.107 246.475L303.146 244.234" stroke="#1E638A" stroke-width="0.54" stroke-miterlimit="10"/>
<path d="M93.1828 385.482C93.1828 385.482 69.2707 369.844 67.6973 359.116" stroke="#1E638A" stroke-width="0.54" stroke-miterlimit="10"/>
<path d="M91.8235 249.384C91.8235 249.384 73.2755 271.745 60.7593 274.868" stroke="#1E638A" stroke-width="0.54" stroke-miterlimit="10"/>
<path d="M71.2729 277.991C71.2729 277.991 86.2448 271.292 95.8525 271.745" stroke="#1E638A" stroke-width="0.54" stroke-miterlimit="10"/>
<path d="M320.597 434.091C320.597 438.501 321.145 442.768 322.123 446.845C338.382 446.487 354.212 440.098 364.058 427.964C374.119 415.568 374.834 399.095 373.452 386.77C370.162 385.84 366.729 385.292 363.176 385.292C339.67 385.292 320.597 407.152 320.597 434.115V434.091Z" fill="#2886BA"/>
<path d="M150.4 195.507C142.533 190.477 128.991 190.524 122.793 194.72C116.594 198.916 104.793 204.542 96.9256 199.702L86.4358 203.397C86.4358 203.397 78.4254 222.04 103.124 227.07C108.655 228.19 120.289 233.864 120.289 233.864L129.945 252.673C129.945 252.673 130.445 280.327 132.114 294.082C132.114 294.082 126.083 333.131 128.92 394.994L195.792 414.304L233.389 401.526L245.69 379.737C245.69 379.737 251.841 352.25 235.63 320.067C219.418 287.884 193.766 269.528 185.565 259.658C177.364 249.813 170.307 241.946 164.609 218.821L150.352 195.53L150.4 195.507Z" fill="#FCC892"/>
<path d="M166.015 396.663C166.015 396.663 165.801 385.244 175.862 386.579C185.922 387.938 208.714 392.396 208.714 392.396" stroke="#FF8630" stroke-width="0.54" stroke-miterlimit="10"/>
<path d="M179.891 387.175L189.26 388.772C189.26 388.772 179.009 381.239 181.56 359.116C183.586 341.57 196.317 329.174 208.738 327.553C208.738 327.553 179.915 325.264 175.886 359.116C173.335 380.524 179.915 387.175 179.915 387.175H179.891Z" fill="#FF8630"/>
<path d="M166.015 322.666L156.789 398.213" stroke="#FF8630" stroke-width="0.54" stroke-miterlimit="10"/>
<path d="M142.699 396.663L141.34 318.255L136.978 394.994L142.699 396.663Z" fill="#FF8630"/>
<path d="M167.994 230.36L125.987 244.973L129.945 252.673L170.927 237.798C169.925 235.557 168.948 233.101 167.994 230.36Z" fill="#2886BA"/>
<path d="M132.066 205.233C132.066 207.259 130.421 208.928 128.371 208.928C126.321 208.928 124.676 207.283 124.676 205.233C124.676 203.183 126.321 201.538 128.371 201.538C130.421 201.538 132.066 203.183 132.066 205.233Z" fill="#4A1E1E"/>
<path d="M96.9254 199.702C92.9678 196.842 88.8196 195.507 88.8196 195.507C88.8196 195.507 86.6024 196.627 86.4355 203.374C86.4355 203.374 91.7281 206.234 96.9254 199.678V199.702Z" fill="#4A1E1E"/>
<path d="M150.4 195.507C150.4 195.507 161.629 201.705 165.658 214.626C169.687 227.523 167.827 244.139 168.328 251.505C168.829 258.872 156.432 261.899 147.706 253.842C138.98 245.784 143.844 230.884 146.037 222.159C148.207 213.434 153.571 201.705 150.4 195.507Z" fill="#BA6528"/>
<path d="M226.928 267.358C226.928 267.358 209.834 257.251 193.575 252.745C193.575 252.745 183.848 246.666 176.815 244.926C169.782 243.185 163.226 245.212 163.226 246.88C163.226 248.549 176.815 250.742 176.815 250.742L185.541 257.68C185.541 257.68 175.647 256.225 168.781 257.68C161.915 259.134 155.883 263.496 156.551 265.499C157.218 267.501 168.28 263.997 168.28 263.997L184.206 264.831C184.206 264.831 172.643 267.692 168.614 271.53C164.585 275.368 163.75 278.563 166.111 278.897C168.447 279.23 175.003 273.533 175.003 273.533L188.402 271.197C188.402 271.197 180.534 276.56 176.839 280.756C173.144 284.952 174.836 287.288 176.839 286.454C178.842 285.619 186.399 280.089 186.399 280.089L192.168 278.253C192.168 278.253 198.462 283.712 211.193 283.545L226.952 267.406L226.928 267.358Z" fill="#FF6969"/>
<path d="M194.814 407.057L209.405 405.388C209.405 405.388 212.766 399.19 219.466 394.661C226.165 390.131 226.904 382.288 229.741 383.265C232.983 384.386 230.671 391.609 226.499 398.689L236.774 391.991C236.774 391.991 244.76 374.063 247.287 375.232C249.815 376.4 248.527 383.17 248.527 383.17C248.527 383.17 250.148 379.976 251.316 381.835C252.485 383.695 250.864 390.989 250.864 390.989C250.864 390.989 253.271 387.7 254.44 389.201C255.608 390.703 252.532 398.26 252.532 398.26C252.532 398.26 255.226 397.021 254.535 400.549C253.2 407.272 248.432 414.042 244.57 418.643C241.208 422.648 236.655 425.485 231.553 426.725C225.664 428.131 217.368 429.252 210.192 426.987L195.506 432.398L194.838 407.081L194.814 407.057Z" fill="#FF6969"/>
<path d="M248.504 383.146C248.504 383.146 244.928 397.664 233.413 403.767" stroke="#AB251D" stroke-width="0.5" stroke-miterlimit="10"/>
<path d="M250.864 390.942C250.864 390.942 247.741 403.934 235.677 410.514" stroke="#AB251D" stroke-width="0.5" stroke-miterlimit="10"/>
<path d="M252.533 398.213C252.533 398.213 248.837 410.061 238.896 416.879" stroke="#AB251D" stroke-width="0.5" stroke-miterlimit="10"/>
<path d="M28.3603 418.262C35.9416 446.44 54.2749 476.859 109.704 466.369C165.133 455.88 205.352 441.576 205.352 441.576L198.82 395.996L26.1908 386.579C26.1908 386.579 25.0703 405.984 28.3603 418.262Z" fill="#11394F"/>
<path d="M106.152 390.942L198.844 395.996L204.804 437.667" stroke="#0D2A3B" stroke-width="0.54" stroke-miterlimit="10"/>
<path d="M26.4292 405.984C26.763 410.252 27.359 414.566 28.3603 418.262C33.7721 438.382 44.691 459.647 70.6772 466.322C71.2255 463.175 71.5354 459.909 71.5354 456.571C71.5354 428.751 51.3664 406.199 26.4292 405.96V405.984Z" fill="#2886BA"/>
</g>
</g>
<defs>
<clipPath id="clip0_1_1429">
<rect width="400" height="450" fill="white"/>
</clipPath>
<clipPath id="clip1_1_1429">
<rect width="348" height="837" fill="white" transform="translate(26)"/>
</clipPath>
</defs>
</svg>
