<svg width="400" height="450" viewBox="0 0 400 450" fill="none" xmlns="http://www.w3.org/2000/svg">
<g clip-path="url(#clip0_8_281)">
<g clip-path="url(#clip1_8_281)">
<path d="M119.365 95.976C119.365 95.976 46.1222 154.526 44.6753 368.637H358.387C358.387 368.637 357.319 177.34 292.826 102.593L119.4 95.976H119.365Z" fill="#872D2D"/>
<path d="M223.99 61.0663C237.955 47.0968 237.955 24.4476 223.99 10.4781C210.025 -3.49145 187.382 -3.49145 173.417 10.4781C159.452 24.4476 159.452 47.0968 173.417 61.0663C187.382 75.0359 210.025 75.0359 223.99 61.0663Z" fill="#872D2D"/>
<path d="M233.49 90.6114C238.047 71.3885 226.163 52.1101 206.946 47.5518C187.729 42.9935 168.456 54.8815 163.9 74.1044C159.343 93.3273 171.227 112.606 190.444 117.164C209.661 121.722 228.933 109.834 233.49 90.6114Z" fill="#7B628A"/>
<path d="M167.149 316.083L158.467 432.081H247.799L235.19 314.808L167.149 316.083Z" fill="#FACEBA"/>
<path d="M165.978 331.108C165.978 331.108 177.415 357.403 203.495 357.403C229.574 357.403 241.012 321.907 241.012 321.907L165.978 331.108Z" fill="#DE9D8C"/>
<path d="M127.413 266.654C139.401 254.662 139.401 235.221 127.413 223.23C115.426 211.238 95.9904 211.238 84.0029 223.23C72.0154 235.221 72.0154 254.662 84.0029 266.654C95.9904 278.645 115.426 278.645 127.413 266.654Z" fill="#FACEBA"/>
<path d="M88.4282 240.164C88.4282 240.164 100.796 234.546 111.821 256.085" stroke="#DC9282" stroke-width="1.31" stroke-linecap="round" stroke-linejoin="round"/>
<path d="M329.603 256.624C336.055 240.942 328.577 222.997 312.9 216.543C297.223 210.089 279.283 217.57 272.831 233.252C266.379 248.934 273.858 266.878 289.535 273.332C305.212 279.786 323.151 272.306 329.603 256.624Z" fill="#FACEBA"/>
<path d="M318.527 240.164C318.527 240.164 306.159 234.546 295.135 256.085" stroke="#DC9282" stroke-width="1.31" stroke-linecap="round" stroke-linejoin="round"/>
<path d="M203.116 284.378C266.494 284.378 317.872 234.265 317.872 172.446C317.872 110.628 266.494 60.5148 203.116 60.5148C139.737 60.5148 88.3591 110.628 88.3591 172.446C88.3591 234.265 139.737 284.378 203.116 284.378Z" fill="#872D2D"/>
<path d="M106.136 159.937C106.136 159.937 94.0436 338.311 199.154 338.311C312.842 338.311 300.922 159.937 300.922 159.937C300.922 159.937 300.268 82.1223 202.668 82.1223C113.164 82.1223 106.136 159.937 106.136 159.937Z" fill="#FACEBA"/>
<path d="M180.585 279.45C180.585 279.45 197.5 288.893 214.381 279.45" stroke="#DC9282" stroke-width="1.31" stroke-linecap="round" stroke-linejoin="round"/>
<path d="M242.838 182.957C242.838 182.957 221.926 178.891 220.961 190.16C220.961 190.16 220.479 197.776 238.738 200.877C256.997 203.945 264.266 203.324 266.437 196.294C268.607 189.264 252.691 183.888 242.838 182.992V182.957Z" fill="#872D2D"/>
<path d="M152.783 183.44C152.783 183.44 131.527 184.37 133.215 195.536C133.215 195.536 134.524 203.083 152.99 201.773C171.455 200.464 178.38 198.155 178.862 190.815C179.31 183.474 162.601 181.992 152.783 183.405V183.44Z" fill="#872D2D"/>
<path d="M168.63 227.758C168.63 232.306 164.944 235.959 160.431 235.959C155.918 235.959 152.231 232.272 152.231 227.758C152.231 223.243 155.918 219.556 160.431 219.556C164.944 219.556 168.63 223.243 168.63 227.758Z" fill="#1E0A04"/>
<path d="M249.211 227.758C249.211 232.306 245.525 235.959 241.012 235.959C236.499 235.959 232.812 232.272 232.812 227.758C232.812 223.243 236.499 219.556 241.012 219.556C245.525 219.556 249.211 223.243 249.211 227.758Z" fill="#1E0A04"/>
<path d="M193.263 249.055V262.426H204.149" stroke="#DC9282" stroke-width="1.31" stroke-linecap="round" stroke-linejoin="round"/>
<path d="M95.146 179.408C95.146 179.408 256.308 177.96 260.201 92.8399C260.201 92.8399 215.174 52.3473 158.467 77.1253C101.761 101.938 95.146 179.408 95.146 179.408Z" fill="#872D2D"/>
<path d="M258.754 80.4681C258.754 80.4681 212.624 145.911 313.29 190.746C313.29 190.746 322.385 116.86 258.754 80.4681Z" fill="#872D2D"/>
<path d="M108.375 426.429L27.1396 445.59C27.1396 445.59 60.9017 656.427 82.7781 773.872C82.7781 773.872 199.981 754.471 313.6 773.872C313.6 773.872 372.167 551.491 398.04 445.59L304.678 420.709L108.375 426.429Z" fill="#7B628A"/>
<path d="M204.011 382.698L108.41 426.395C108.41 426.395 111.338 468.197 210.144 468.369C294.342 468.507 304.712 420.709 304.712 420.709L204.011 382.698Z" fill="#FACEBA"/>
<path d="M72.5463 441.489C72.5463 441.489 8.26055 420.847 -33.5286 513.721C-75.3522 606.63 -117.727 712.737 -117.727 712.737L-40.1432 733.621L84.363 548.665L72.5463 441.489Z" fill="#7B628A"/>
<path d="M353.254 441.489C353.254 441.489 417.539 420.847 459.328 513.721C501.152 606.595 543.527 712.737 543.527 712.737L465.943 733.621L341.437 548.665L353.254 441.489Z" fill="#7B628A"/>
<path d="M248.626 628.547C244.87 627.479 241.219 625.997 238.084 623.723C218.515 609.628 223.752 582.231 225.061 565.862C227.507 534.846 231.331 517.133 243.458 491.114C265.886 443.04 299.682 413.127 334.512 412.266C347.535 411.956 361.143 412.024 373.339 417.021C385.534 422.018 395.938 432.46 396.662 444.108C396.834 446.865 396.421 449.726 394.629 451.862C392.493 454.412 388.876 455.481 385.5 456.583C352.427 467.301 328.277 480.845 314.427 515.754C306.124 536.673 305.332 564.897 297.443 585.953C289.588 607.043 274.843 632.89 248.798 628.547H248.626Z" fill="#00CC87"/>
<path d="M63.7267 460.271C69.9279 468.3 83.7772 477.398 91.5976 483.877C113.371 501.935 126.531 517.133 140.587 546.908C162.808 593.982 179.896 613.798 205.527 609.628C231.159 605.458 249.039 557.074 210.695 488.254C176.141 426.291 111.338 372.152 72.9596 392.071C64.4501 396.482 58.1111 404.305 54.5627 413.231C49.8429 425.12 50.0151 442.557 63.6922 460.271H63.7267Z" fill="#0EE296"/>
<path d="M90.0129 415.298C90.0129 415.298 149.648 427.188 195.502 539.809C235.741 638.645 240.254 782.385 240.254 782.385" stroke="#121E35" stroke-width="0.87" stroke-linecap="round" stroke-linejoin="round"/>
<path d="M344.537 437.182C347.293 437.285 275.945 450.966 258.582 570.548C240.874 692.646 233.812 823.566 233.812 823.566" stroke="#121E35" stroke-width="0.87" stroke-linecap="round" stroke-linejoin="round"/>
</g>
</g>
<defs>
<clipPath id="clip0_8_281">
<rect width="400" height="450" fill="white"/>
</clipPath>
<clipPath id="clip1_8_281">
<rect width="675" height="1243" fill="white" transform="translate(-121)"/>
</clipPath>
</defs>
</svg>
