<svg width="400" height="450" viewBox="0 0 400 450" fill="none" xmlns="http://www.w3.org/2000/svg">
<g clip-path="url(#clip0_1_1105)">
<g clip-path="url(#clip1_1_1105)">
<path d="M193.969 571.028L188.371 682.478L337.891 673.694C338.068 659.998 333.975 639.464 333.975 639.464C344.551 605.235 330.368 567.908 330.368 567.908C334.218 530.559 325.656 507.547 325.656 507.547C329.771 457.763 320.501 428.202 320.501 428.202L197.708 421.52L125.536 432.34C106.354 451.767 96.5528 506.928 96.5528 506.928C74.1624 521.243 65.7992 578.285 65.7992 578.285C38.829 603.177 37.5457 643.823 37.5457 643.823C29.8241 661.878 19.7573 692.368 19.7573 692.368L164.764 683.85L193.991 571.005L193.969 571.028Z" fill="#BA6528"/>
<path d="M197.708 421.542L125.537 432.362C117.461 440.526 111.067 455.019 106.354 469.069L190.606 483.297L193.571 469.6L199.367 483.297L326.696 478.451C326.232 446.478 320.501 428.224 320.501 428.224L197.708 421.542Z" fill="#8C4D1E"/>
<path d="M327.515 513.964C326.497 509.782 325.656 507.547 325.656 507.547C325.723 506.795 325.767 506.065 325.833 505.312C297.491 486.837 296.031 445.439 296.031 444.996L289.394 445.173C289.394 445.704 289.77 458.604 294.969 473.694C301.452 492.59 312.669 506.419 327.515 513.986V513.964Z" fill="#FCC892"/>
<path d="M384.375 275.862C383.137 263.228 370.061 246.921 370.061 246.921C365.702 219.662 345.17 203.244 345.17 203.244C339.573 186.45 325.877 169.634 300.987 157.995C276.096 146.357 218.859 132.218 218.859 132.218C212.023 121.553 196.469 114.407 196.469 114.407L158.104 121.598C158.104 121.598 150.405 126.62 146.998 134.165C130.072 142.02 93.3228 154.323 76.7512 165.496C54.8919 180.232 50.7545 211.652 50.7545 211.652C36.6831 235.548 38.6301 253.515 38.6301 253.515C29.6474 273.119 30.2005 292.214 30.2005 292.214L95.0485 290.51L105.757 463.272L189.323 467.432L193.062 432.362L197.088 461.834L330.878 451.014L311.585 286.682L384.398 275.862H384.375Z" fill="#2886BA"/>
<path d="M131.577 231.034C131.422 231.831 131.51 232.605 131.754 233.313C132.262 234.752 133.501 235.88 135.117 236.19C137.528 236.632 139.829 235.039 140.272 232.65C141.798 224.374 150.117 221.21 150.493 221.078C152.772 220.259 153.967 217.737 153.17 215.435C152.352 213.134 149.83 211.939 147.529 212.736C146.975 212.935 134.055 217.67 131.577 231.034Z" fill="#FCC892"/>
<path d="M171.158 458.272C173.216 456.944 173.791 454.201 172.464 452.143C172.154 451.656 164.521 440.172 150.958 440.903C150.162 440.947 149.409 441.19 148.79 441.611C147.507 442.452 146.688 443.912 146.777 445.549C146.909 447.983 148.989 449.864 151.423 449.731C159.808 449.289 164.83 456.634 165.074 456.988C166.401 459.024 169.145 459.599 171.18 458.272H171.158Z" fill="#FCC892"/>
<path d="M137.019 335.338C136.665 336.068 136.51 336.82 136.555 337.573C136.643 339.099 137.528 340.538 138.988 341.268C141.179 342.352 143.834 341.489 144.918 339.299C148.679 331.776 157.551 331.068 157.972 331.045C160.405 330.891 162.242 328.811 162.109 326.377C161.976 323.943 159.874 322.084 157.441 322.217C156.865 322.261 143.126 323.191 137.019 335.338Z" fill="#FCC892"/>
<path d="M60.7326 230.747C62.7681 232.097 65.5115 231.566 66.8612 229.53C71.5295 222.538 80.4237 222.914 80.822 222.936C83.2557 223.091 85.3354 221.233 85.5124 218.799C85.6673 216.365 83.8309 214.263 81.3751 214.086C80.7998 214.041 67.0382 213.289 59.4936 224.596C59.0511 225.26 58.8077 226.012 58.7635 226.764C58.675 228.291 59.3608 229.818 60.7326 230.747Z" fill="#FCC892"/>
<path d="M211.425 209.926C211.735 209.174 211.846 208.399 211.735 207.669C211.558 206.142 210.585 204.771 209.058 204.129C206.801 203.177 204.213 204.217 203.261 206.474C199.987 214.218 191.181 215.502 190.761 215.568C188.349 215.878 186.645 218.091 186.933 220.502C187.243 222.936 189.433 224.64 191.867 224.352C192.442 224.286 206.093 222.449 211.403 209.926H211.425Z" fill="#FCC892"/>
<path d="M83.4105 189.127C85.446 187.777 86.0213 185.034 84.6717 182.998C84.4062 182.578 78.7864 174.325 68.8081 172.333C66.3523 174.944 64.2061 177.754 62.3477 180.631C62.7459 180.719 63.1663 180.786 63.6088 180.763C71.9941 180.255 77.0607 187.578 77.3041 187.91C78.6537 189.924 81.3972 190.499 83.4327 189.149L83.4105 189.127Z" fill="#FCC892"/>
<path d="M131.621 281.106C129.298 280.31 126.798 281.549 126.001 283.872C125.802 284.425 121.488 297.502 130.448 307.746C130.979 308.344 131.643 308.786 132.351 309.03C133.789 309.517 135.471 309.251 136.687 308.167C138.524 306.552 138.723 303.764 137.108 301.927C131.577 295.599 134.254 287.103 134.386 286.726C135.161 284.425 133.922 281.925 131.621 281.128V281.106Z" fill="#FCC892"/>
<path d="M42.9001 282.323C45.2232 283.053 47.7012 281.77 48.4313 279.447C49.1836 277.124 47.9003 274.623 45.5551 273.893C45.179 273.783 39.161 271.924 32.1917 273.451C31.4394 277.146 30.9527 280.509 30.665 283.319C36.3511 280.398 42.5461 282.213 42.9001 282.323Z" fill="#FCC892"/>
<path d="M95.2696 263.361C87.8577 259.378 87.3931 250.484 87.3931 250.085C87.3046 247.651 85.2691 245.748 82.8354 245.815C80.4017 245.881 78.4768 247.917 78.5432 250.373C78.5432 250.948 79.1184 264.711 91.088 271.172C91.796 271.548 92.5703 271.725 93.3226 271.703C94.8492 271.658 96.3095 270.818 97.0838 269.379C98.2343 267.233 97.4378 264.534 95.2917 263.383L95.2696 263.361Z" fill="#FCC892"/>
<path d="M229.059 291.307C231.249 292.391 233.904 291.528 234.988 289.337C238.749 281.814 247.622 281.106 248.042 281.084C250.476 280.929 252.312 278.849 252.179 276.416C252.047 273.982 249.945 272.123 247.511 272.256C246.936 272.3 233.196 273.229 227.09 285.377C226.736 286.107 226.581 286.859 226.625 287.611C226.714 289.138 227.599 290.576 229.059 291.307Z" fill="#FCC892"/>
<path d="M248.042 169.059C245.608 169.059 243.617 171.05 243.617 173.484C243.617 174.059 243.75 187.844 255.52 194.637C256.228 195.035 256.981 195.234 257.733 195.234C259.259 195.234 260.742 194.438 261.56 193.021C262.777 190.897 262.047 188.198 259.945 186.981C252.666 182.777 252.467 173.882 252.467 173.462C252.467 171.028 250.476 169.059 248.042 169.059Z" fill="#FCC892"/>
<path d="M115.802 194.327C118.213 194.769 120.514 193.176 120.957 190.787C122.483 182.511 130.802 179.347 131.178 179.215C133.457 178.396 134.652 175.874 133.855 173.572C133.037 171.271 130.515 170.054 128.214 170.873C127.661 171.072 114.74 175.807 112.262 189.171C112.107 189.968 112.195 190.742 112.439 191.45C112.947 192.889 114.186 194.017 115.802 194.327Z" fill="#FCC892"/>
<path d="M348.091 268.893C349.485 269.534 351.166 269.424 352.494 268.472C354.485 267.056 354.95 264.29 353.534 262.299C348.666 255.44 352.184 247.275 352.361 246.899C353.357 244.686 352.383 242.076 350.171 241.058C347.958 240.04 345.325 241.013 344.307 243.248C344.064 243.779 338.444 256.347 346.321 267.432C346.785 268.096 347.405 268.583 348.091 268.893Z" fill="#FCC892"/>
<path d="M301.031 158.018C298.221 161.912 295.389 167.886 296.451 175.342C296.562 176.139 296.893 176.847 297.358 177.444C298.309 178.639 299.836 179.325 301.473 179.104C303.885 178.75 305.566 176.515 305.235 174.103C304.482 168.793 307.005 164.589 308.996 162.155C306.474 160.717 303.841 159.345 301.031 158.018Z" fill="#FCC892"/>
<path d="M271.937 221.454C271.804 223.888 273.662 225.99 276.118 226.122C276.694 226.145 290.455 226.786 297.889 215.391C298.332 214.727 298.553 213.975 298.597 213.223C298.686 211.696 297.978 210.169 296.606 209.262C294.57 207.935 291.827 208.51 290.477 210.545C285.875 217.582 276.981 217.294 276.561 217.272C274.127 217.139 272.047 219.02 271.915 221.454H271.937Z" fill="#FCC892"/>
<path d="M310.81 266.591C312.669 264.998 312.868 262.21 311.275 260.352C310.899 259.909 301.827 249.554 288.464 252.054C287.667 252.209 286.982 252.563 286.406 253.05C285.256 254.046 284.636 255.617 284.946 257.232C285.389 259.644 287.712 261.215 290.123 260.772C298.376 259.223 304.327 265.839 304.615 266.149C306.208 267.985 308.996 268.185 310.832 266.614L310.81 266.591Z" fill="#FCC892"/>
<path d="M294.239 422.029C293.11 419.861 290.433 419.02 288.265 420.148C287.756 420.414 275.587 426.875 274.99 440.46C274.946 441.257 275.145 442.031 275.477 442.695C276.185 444.045 277.579 444.996 279.216 445.085C281.65 445.195 283.729 443.292 283.84 440.858C284.216 432.45 292.026 428.18 292.38 427.981C294.526 426.852 295.367 424.197 294.239 422.029Z" fill="#FCC892"/>
<path d="M329.86 442.407L326.386 412.758L217.2 402.403L103.898 433.313L105.491 459.024C118.125 457.431 151.998 452.408 192.221 440.15L193.04 432.384L194.035 439.575C210.253 434.552 227.466 428.379 244.679 420.768C244.679 420.768 281.451 436.499 329.86 442.429V442.407Z" fill="#1E638A"/>
<path d="M285.964 434.066C288.42 430.127 292.115 428.114 292.358 427.981C294.504 426.852 295.345 424.197 294.216 422.029C293.088 419.861 290.411 419.02 288.243 420.148C287.845 420.347 280.853 424.087 277.158 431.72C279.946 432.495 282.866 433.291 285.942 434.088L285.964 434.066Z" fill="#FF8630"/>
<path d="M150.936 440.903C150.139 440.947 149.387 441.19 148.767 441.611C147.484 442.452 146.666 443.912 146.754 445.549C146.887 447.983 148.967 449.864 151.4 449.731C152.661 449.665 153.856 449.797 154.962 450.041C159.056 449.089 163.326 448.072 167.728 446.943C164.1 443.801 158.436 440.504 150.936 440.903Z" fill="#FF8630"/>
<path d="M281.495 290.51L264.481 292.878C264.481 292.878 254.104 258.847 254.525 245.173C254.525 245.173 246.538 230.437 248.042 220.392L233.063 379.259L306.54 368.926L281.495 290.532V290.51Z" fill="#1E638A"/>
<path d="M170.738 169.036L173.349 184.171L171.888 206.983L177.265 271.703" stroke="#11394F" stroke-width="0.54" stroke-miterlimit="10"/>
<path d="M181.999 150.981L196.469 173.705C196.469 173.705 208.283 158.15 216.691 136.378C216.691 136.378 211.403 164.478 196.469 182.534C196.469 182.534 184.035 169.368 181.999 151.004V150.981Z" fill="#1E638A"/>
<path d="M156.71 145.804C156.71 145.804 152.285 157.841 149.387 172.156C145.029 158.881 147.927 137.506 147.927 137.506C147.927 137.506 138.811 153.681 149.387 180.852C153.746 170.475 156.71 145.804 156.71 145.804Z" fill="#1E638A"/>
<path d="M38.4088 291.992L117.372 288.12L125.514 379.037L269.569 411.718C269.569 411.718 162.131 433.181 117.372 440.969C72.6138 448.757 40.8868 440.969 34.9794 403C29.0721 365.031 38.4088 291.97 38.4088 291.97V291.992Z" fill="#FF6969"/>
<path d="M269.57 411.718L125.515 379.037L117.373 288.12L38.4089 291.992C38.4089 291.992 38.0549 294.78 37.5239 299.493L48.5864 301.949C54.7813 303.321 59.7152 307.99 61.463 314.075C67.3483 334.608 81.7958 380.962 95.2477 392.269C108.169 403.155 141.931 413.223 163.016 425.857C168.503 429.154 175.03 430.26 181.313 429.043C225.01 420.635 269.57 411.718 269.57 411.718Z" fill="#E64C4C"/>
<path d="M66.6623 418.71C69.627 423.135 69.3837 428.468 66.1534 430.636C62.9232 432.804 57.9009 430.968 54.9361 426.543C51.9714 422.117 52.2148 416.785 55.445 414.617C58.6752 412.448 63.6976 414.285 66.6623 418.71Z" fill="#FF9696"/>
<path d="M114.541 379.214L78.5435 381.471" stroke="#AB251D" stroke-width="0.5" stroke-miterlimit="10"/>
<path d="M231.315 220.37C231.315 220.37 234.435 236.544 251.847 248.382" stroke="#11394F" stroke-width="0.54" stroke-miterlimit="10"/>
<path d="M229.855 245.771C229.855 245.771 239.192 253.648 251.848 256.347" stroke="#11394F" stroke-width="0.54" stroke-miterlimit="10"/>
<path d="M117.372 288.12C117.372 288.12 116.775 284.669 116.487 283.739C115.315 279.956 112.77 271.99 112.593 258.206C112.593 258.206 106.797 245.306 110.425 230.437L101.664 288.895L117.372 288.12Z" fill="#1E638A"/>
<path d="M106.022 245.771L58.0112 271.703" stroke="#11394F" stroke-width="0.54" stroke-miterlimit="10"/>
<path d="M248.064 281.084C250.498 280.929 252.334 278.849 252.202 276.416C252.069 273.982 249.967 272.123 247.533 272.256C247.334 272.256 245.564 272.389 243.108 273.052L242.201 282.699C245.21 281.35 247.865 281.106 248.086 281.106L248.064 281.084Z" fill="#FF8630"/>
<path d="M204.014 100.356C204.014 100.356 216.558 90.0013 217.222 60.4626C217.222 60.4626 235.077 46.5673 225.165 32.6941C225.165 32.6941 231.117 13.7318 213.041 13.2893C213.041 13.2893 205.319 -5.23045 184.831 6.23099C171.822 -8.99193 150.892 -0.606049 148.458 11.2979C136.776 8.00109 126.245 12.5149 124.873 24.0869C123.103 38.8673 136.334 45.6158 136.334 45.6158L145.582 69.9548L204.014 100.379V100.356Z" fill="#475911"/>
<path d="M188.371 45.6158C188.371 45.6158 185.251 57.2322 195.208 66.3703L199.987 87.9435L204.124 70.1097C204.124 70.1097 205.164 60.7724 211.801 61.8123C218.439 62.8523 215.319 82.7659 206.624 84.4254L203.726 130.692L178.017 149.986L170.76 169.059L163.503 148.304L158.104 141.467V118.655C158.104 118.655 147.13 112.659 144.63 101.219C142.042 89.4038 146.29 80.0665 146.29 80.0665C146.29 80.0665 142.838 69.8884 144.564 54.6655C144.94 51.2581 147.661 48.5808 151.091 48.3374L188.393 45.638L188.371 45.6158Z" fill="#FF6969"/>
<path d="M158.082 118.633C166.578 125.005 188.526 122.062 196.447 114.429C196.447 114.429 182.707 135.581 158.082 126.554V118.611V118.633Z" fill="#AB251D"/>
<path d="M166.91 131.687C166.91 131.687 165.981 134.342 171.888 138.369" stroke="#AB251D" stroke-width="0.5" stroke-miterlimit="10"/>
<path d="M210.983 73.8269C212.443 69.7778 211.072 60.5954 204.014 70.5744" stroke="#E64C4C" stroke-width="0.5" stroke-miterlimit="10"/>
<path d="M193.969 44.5759C193.969 44.5759 207.753 49.3552 215.386 55.7719" stroke="#728F1B" stroke-width="0.5" stroke-miterlimit="10"/>
<path d="M193.969 49.1782C193.969 49.1782 205.85 53.8911 211.492 58.4713" stroke="#728F1B" stroke-width="0.5" stroke-miterlimit="10"/>
<path d="M193.969 53.8247L204.013 58.4712" stroke="#728F1B" stroke-width="0.5" stroke-miterlimit="10"/>
<path d="M174.742 72.3223C174.742 75.1988 173.503 77.522 171.977 77.522C170.45 77.522 169.211 75.1988 169.211 72.3223C169.211 69.4459 170.45 67.1227 171.977 67.1227C173.503 67.1227 174.742 69.4459 174.742 72.3223Z" fill="#0A2330"/>
<path d="M161.821 72.787L159.963 88.1205L167.729 86.9921" stroke="#AB251D" stroke-width="0.94" stroke-linecap="round" stroke-linejoin="round"/>
<path d="M152.286 94.3602C152.286 94.3602 167.154 97.48 181.999 88.9171" stroke="#AB251D" stroke-width="0.94" stroke-linecap="round" stroke-linejoin="round"/>
<path d="M172.397 102.126C172.397 103.388 170.141 104.405 167.375 104.405C164.609 104.405 162.353 103.388 162.353 102.126C162.353 100.865 164.609 99.8475 167.375 99.8475C170.141 99.8475 172.397 100.865 172.397 102.126Z" fill="#FF9696"/>
<path d="M180.805 85.4432L184.123 91.9041" stroke="#AB251D" stroke-width="0.94" stroke-linecap="round" stroke-linejoin="round"/>
<path d="M167.131 60.1307C167.131 60.1307 173.57 57.4313 179.566 63.0293" stroke="#475911" stroke-width="2" stroke-miterlimit="10"/>
<path d="M375.216 277.234L281.495 290.51L293.11 350.118L158.082 368.881C158.082 368.881 151.246 359.456 145.847 355.097C140.449 350.738 129.674 344.299 129.674 344.299C129.674 344.299 127.594 348.857 131.953 352.176C136.311 355.495 139.011 359.854 137.55 362.133C136.09 364.412 123.236 360.053 123.236 360.053C123.236 360.053 116.598 352.796 114.12 350.295C111.642 347.795 107.903 339.918 106.023 341.998C104.164 344.078 106.023 351.114 106.023 351.114C106.023 351.114 102.018 346.423 100.159 347.441C98.301 348.459 102.084 358.394 102.084 358.394C102.084 358.394 98.5665 353.836 97.3053 355.694C96.0663 357.553 101.664 368.859 101.664 368.859C101.664 368.859 96.7301 364.611 97.1283 367.111C97.5266 369.612 107.483 382.467 107.483 382.467C107.483 382.467 129.254 394.902 155.604 392.424C155.604 392.424 226.094 416.785 320.501 428.202C384.796 435.991 400.394 386.87 398.912 367.465C396.434 334.94 375.216 277.212 375.216 277.212V277.234Z" fill="#FF6969"/>
<path d="M106.022 351.158L113.899 363.815C113.899 363.815 123.236 370.143 128.723 372.422" stroke="#AB251D" stroke-width="0.5" stroke-miterlimit="10"/>
<path d="M102.084 358.416L109.96 370.231L123.125 376.559" stroke="#AB251D" stroke-width="0.5" stroke-miterlimit="10"/>
<path d="M101.664 368.881L107.881 376.05L119.186 381.449" stroke="#AB251D" stroke-width="0.5" stroke-miterlimit="10"/>
<path d="M375.216 277.234L281.495 290.51L293.11 350.118C293.11 350.118 314.195 348.304 330.236 346.003C355.502 342.374 362.472 299.184 379.242 288.74C376.853 281.659 375.216 277.234 375.216 277.234Z" fill="#E64C4C"/>
<path d="M293.11 350.118L357.626 342.972" stroke="#AB251D" stroke-width="0.5" stroke-miterlimit="10"/>
<path d="M382.429 402.912C380.504 407.735 375.88 410.435 372.096 408.93C368.313 407.426 366.808 402.292 368.733 397.447C370.658 392.623 375.282 389.924 379.066 391.428C382.849 392.933 384.353 398.066 382.429 402.912Z" fill="#FF9696"/>
<path d="M309.46 346.622C309.151 346.622 308.841 346.622 308.531 346.578C304.748 346.202 302.248 343.06 302.137 338.613C302.071 336.223 302.734 333.678 304.018 331.488C302.889 331.377 301.695 331.422 300.5 331.731C297.402 332.528 295.057 334.763 293.575 338.369C293.11 339.498 291.805 340.029 290.699 339.586C289.57 339.122 289.017 337.838 289.482 336.71C292.026 330.492 296.296 328.235 299.416 327.439C302.226 326.731 305.035 326.952 307.425 327.704C308.752 326.753 310.301 326.067 312.071 325.824C320.235 324.629 324.439 329.497 325.545 332.24C326.01 333.369 325.457 334.652 324.306 335.117C323.178 335.559 321.895 335.028 321.43 333.878C321.231 333.413 319.262 329.209 312.735 330.205C312.558 330.227 312.381 330.271 312.204 330.315C315.545 333.324 317.094 339.033 315.523 342.817C314.505 345.295 312.337 346.645 309.505 346.645L309.46 346.622ZM308.31 332.926C307.071 334.63 306.518 336.798 306.562 338.502C306.584 339.542 306.872 341.954 308.974 342.175C310.876 342.374 311.208 341.511 311.385 341.091C312.248 339.011 311.031 335.095 309.04 333.435C308.819 333.258 308.575 333.081 308.31 332.926Z" fill="#FF87BB"/>
<path d="M297.889 349.809C297.889 349.809 297.801 322.505 274.238 305.003C251.516 288.12 217.753 285.288 217.753 285.288L229.125 271.725L207.288 274.535L195.85 264.578L200.828 255.55L187.442 258.029C187.442 258.029 181.734 252.121 170.738 256.789C159.742 261.458 162.242 266.746 146.356 265.817L134.542 277.256C134.542 277.256 139.033 296.927 156.711 316.84C156.711 316.84 157.463 343.104 174.012 366.691L297.889 349.831V349.809Z" fill="#FFA3CB"/>
<path d="M217.753 285.288C217.753 285.288 217.819 306.773 201.425 322.549C216.204 317.947 228.815 298.608 232.931 287.766C223.992 285.819 217.753 285.288 217.753 285.288Z" fill="#FF87BB"/>
<path d="M231.625 358.836C231.625 358.836 231.116 341.423 242.931 328.147C227.178 339.343 223.218 359.876 223.218 359.876L231.625 358.836Z" fill="#FF87BB"/>
<path d="M210.762 334.342V361.779" stroke="#FF87BB" stroke-width="0.5" stroke-miterlimit="10"/>
<path d="M190.584 364.412L178.216 328.966L185.672 364.854L190.584 364.412Z" fill="#FF87BB"/>
<path d="M154.233 284.337C150.582 288.076 143.192 286.793 137.75 281.482C132.307 276.15 130.847 268.804 134.497 265.065C138.148 261.325 145.538 262.609 150.98 267.919C156.423 273.251 157.883 280.597 154.233 284.337Z" fill="#FF87BB"/>
<path d="M141.953 272.344C140.405 273.937 138.59 274.668 137.905 274.004C137.219 273.34 137.905 271.504 139.475 269.91C141.024 268.317 142.838 267.587 143.524 268.251C144.21 268.915 143.524 270.751 141.953 272.344Z" fill="#4A1E1E"/>
<path d="M149.255 279.469C147.706 281.062 145.892 281.792 145.206 281.128C144.52 280.465 145.206 278.628 146.777 277.035C148.348 275.442 150.14 274.712 150.826 275.376C151.511 276.039 150.826 277.876 149.255 279.469Z" fill="#4A1E1E"/>
<path d="M172.419 266.791C172.419 268.362 171.136 269.645 169.565 269.645C167.994 269.645 166.711 268.362 166.711 266.791C166.711 265.22 167.994 263.936 169.565 263.936C171.136 263.936 172.419 265.22 172.419 266.791Z" fill="#4A1E1E"/>
<path d="M183.482 277.234C183.482 278.805 182.198 280.089 180.628 280.089C179.057 280.089 177.773 278.805 177.773 277.234C177.773 275.663 179.057 274.38 180.628 274.38C182.198 274.38 183.482 275.663 183.482 277.234Z" fill="#4A1E1E"/>
<path d="M195.827 264.556L192.42 261.834L200.805 255.528L195.827 264.556Z" fill="#FF87BB"/>
<path d="M156.71 72.3223C156.71 75.1988 155.471 77.522 153.945 77.522C152.418 77.522 151.179 75.1988 151.179 72.3223C151.179 69.4459 152.418 67.1227 153.945 67.1227C155.471 67.1227 156.71 69.4459 156.71 72.3223Z" fill="#0A2330"/>
<path d="M156.71 61.2592C156.71 61.2592 150.626 58.9802 146.998 64.7994" stroke="#475911" stroke-width="2" stroke-miterlimit="10"/>
</g>
</g>
<defs>
<clipPath id="clip0_1_1105">
<rect width="400" height="450" fill="white"/>
</clipPath>
<clipPath id="clip1_1_1105">
<rect width="399" height="805" fill="white" transform="translate(0 -2)"/>
</clipPath>
</defs>
</svg>
