<svg width="400" height="450" viewBox="0 0 400 450" fill="none" xmlns="http://www.w3.org/2000/svg">
<g clip-path="url(#clip0_1_131)">
<g clip-path="url(#clip1_1_131)">
<path d="M219.75 51.5421C219.75 51.5421 218.927 83.6786 198.747 117.051C195.736 122.051 197.55 128.363 202.787 131.172C223.247 142.127 308.419 155.461 346.853 133.25C351.248 130.703 354.352 126.658 353.623 121.902C351.753 109.766 345.974 86.0382 328.262 65.3068L219.731 51.5421H219.75Z" fill="#FF9B53"/>
<path d="M339.201 58.0561C340.719 26.5157 315.195 -0.344374 282.19 -1.9376C249.185 -3.53082 221.199 20.7461 219.68 52.2865C218.162 83.8269 243.686 110.687 276.691 112.28C309.696 113.873 337.682 89.5965 339.201 58.0561Z" fill="#FF9B53"/>
<path d="M317.022 82.9857C319.098 91.282 327.514 96.3384 335.818 94.2409C344.103 92.1622 349.153 83.7348 347.058 75.4198C344.982 67.1234 336.566 62.067 328.262 64.1645C319.977 66.2432 314.927 74.6707 317.022 82.9857Z" fill="#F2A37C"/>
<path d="M295.626 113.568L290.371 176.942L242.829 169.282L258.128 76.4123L295.626 113.568Z" fill="#FFC09B"/>
<path d="M293.924 134.206C293.924 134.206 263.944 124.654 262.354 91.9187L295.271 117.987L293.924 134.206Z" fill="#1E0A04"/>
<path d="M330.843 23.7504C334.584 27.2337 336.847 31.9905 337.595 37.047C339.839 52.0103 344.403 78.3787 338.399 93.8477C330.6 113.961 313.319 127.67 286.78 121.265C286.78 121.265 254.817 116.471 250.179 75.4197C242.773 10.0231 298.806 -6.13879 330.843 23.7504Z" fill="#FFC09B"/>
<path d="M321.118 76.1876L323.269 83.0418C323.418 83.9033 322.857 84.7086 322.016 84.8959L318.163 85.4202" stroke="#1E0A04" stroke-width="1.22" stroke-linecap="round" stroke-linejoin="round"/>
<path d="M297.403 45.0436C297.403 45.0436 308.475 43.6203 308.812 48.7142C308.812 48.7142 308.961 52.1601 299.292 53.1714C289.623 54.2014 285.807 53.7707 284.779 50.5683C283.75 47.3658 292.204 45.2684 297.403 45.0436Z" fill="#1E0A04"/>
<path d="M337.333 45.774C337.333 45.774 327.87 43.2271 326.28 48.0026C326.28 48.0026 325.251 51.2612 333.574 53.265C339.633 54.7258 341.971 53.7707 342.701 51.5983C343.561 49.0139 340.924 46.4482 337.333 45.7927V45.774Z" fill="#1E0A04"/>
<path d="M293.55 67.704C293.55 67.704 300.47 71.0937 305.557 66.9362" stroke="#1E0A04" stroke-width="1.22" stroke-linecap="round" stroke-linejoin="round"/>
<path d="M327.682 66.6178C327.682 66.6178 332.583 69.558 336.155 66.1121" stroke="#1E0A04" stroke-width="1.22" stroke-linecap="round" stroke-linejoin="round"/>
<path d="M302.715 91.6565C302.715 91.6565 311.898 98.0052 322.184 93.6791" stroke="#1E0A04" stroke-width="1.22" stroke-linecap="round" stroke-linejoin="round"/>
<path d="M254.574 65.2507C257.08 66.4492 297.945 40.2868 275.689 8.44998C275.689 8.44998 246.962 15.323 246.644 64.8387L254.593 65.2507H254.574Z" fill="#FF9B53"/>
<path d="M265.16 49.5944L260.54 81.8433L250.815 51.6545L265.16 49.5944Z" fill="#FF9B53"/>
<path d="M226.726 83.4726C229.251 93.548 239.462 99.6719 249.524 97.125C259.586 94.578 265.702 84.3715 263.159 74.2961C260.634 64.2206 250.422 58.0967 240.36 60.6437C230.298 63.1906 224.182 73.3971 226.726 83.4726Z" fill="#FFC09B"/>
<path d="M236.751 72.9851C236.751 72.9851 250.703 69.6891 253.62 85.027" stroke="#1E0A04" stroke-width="1.22" stroke-linecap="round" stroke-linejoin="round"/>
<path d="M282.179 -1.9251C282.179 -1.9251 338.455 -4.11622 346.946 36.6162L270.266 38.8823L264.374 11.9708L282.179 -1.9251Z" fill="#FF9B53"/>
<path d="M289.548 352.906C289.548 352.906 337.801 414.407 333.91 527.147C330.02 639.887 319.266 661.105 319.266 661.105H258.408L233.309 474.373L223.977 472.5L162.782 661.105H92.7594C92.7594 661.105 106.861 601.664 121.617 521.96C135.42 447.461 151.953 412.591 185.225 350.565L289.548 352.906Z" fill="#42585C"/>
<path d="M157.377 370.997C143.687 376.821 131.193 368.956 125.134 356.895L83.7822 224.304L106.543 219.865L173.068 329.328C176.453 340.602 168.187 366.409 157.377 370.997Z" fill="#FFC09B"/>
<path d="M108.039 225.221C108.039 225.221 105.496 195.763 94.4239 187.111C86.999 181.324 75.7587 174.02 69.5121 169.563C67.3426 168.009 64.3502 169.544 64.2941 172.204C64.1819 176.736 65.8277 181.156 68.8575 184.527L76.6378 193.141C76.6378 193.141 76.0393 197.561 57.505 180.95C43.4968 168.402 34.2203 163.233 27.3565 163.627C23.9152 163.833 24.177 168.683 28.5721 173.889C59.0573 209.902 93.1334 237.338 93.1334 237.338L108.039 225.221Z" fill="#FFC09B"/>
<path d="M166.41 226.177L127.041 343.973C123.114 355.696 129.622 368.356 141.424 371.989C151.99 375.248 163.343 370.135 167.906 360.041L219.039 247.058L166.429 226.177H166.41Z" fill="#FFC09B"/>
<path d="M225.174 164.881C225.174 164.881 161.23 175.069 161.23 248.107L189.676 265.748L225.155 164.9L225.174 164.881Z" fill="#AB5DAD"/>
<path d="M224.108 166.66L207.78 175.069C207.78 175.069 165.045 208.31 173.106 267.527L168.729 379.331L314.609 398.245L288.295 342.868L321.679 169.994L224.089 166.66H224.108Z" fill="#AB5DAD"/>
<path d="M225.174 164.881L253.92 155.218L286.967 157.091L321.679 169.994C321.679 169.994 280.72 223.18 234.039 213.292C197.793 205.614 225.155 164.9 225.155 164.9L225.174 164.881Z" fill="#FFC09B"/>
<path d="M190.181 199.452C190.181 199.452 167.383 232.656 176.042 285.075" stroke="#8A3F8E" stroke-width="1.09" stroke-linecap="round" stroke-linejoin="round"/>
<path d="M303.444 249.118L264.075 366.914C260.148 378.638 266.656 391.297 278.457 394.931C289.024 398.189 300.377 393.077 304.94 382.982L356.073 269.999L303.463 249.118H303.444Z" fill="#FFC09B"/>
<path d="M321.623 169.994C321.623 169.994 376.571 176.005 374.963 213.76C373.354 251.515 356.054 269.98 356.054 269.98L303.444 249.099L321.623 169.994Z" fill="#AB5DAD"/>
<path d="M303.444 249.118L312.758 216.214" stroke="#8A3F8E" stroke-width="1.09" stroke-linecap="round" stroke-linejoin="round"/>
<path d="M158.2 255.186C158.2 255.186 164.839 240.11 179.427 244.998C194.015 249.886 204.863 266.029 195.53 294.064L158.181 255.186H158.2Z" fill="#FFC09B"/>
<path d="M121.917 203.048C124.18 219.116 130.595 266.029 132.465 279.775C132.764 282.003 134.616 283.67 136.86 283.745L176.061 285.093C178.96 285.187 181.223 282.621 180.755 279.756L168.467 202.992C168.112 200.819 166.279 199.19 164.091 199.115L126.649 197.842C123.787 197.748 121.543 200.239 121.935 203.067L121.917 203.048Z" fill="#332C30"/>
<path d="M156.068 306.05C170.992 312.361 189.246 308.99 195.549 294.064C201.852 279.119 194.876 261.909 179.951 255.598C165.026 249.286 145.314 250.747 139.011 265.673C132.708 280.618 141.162 299.738 156.068 306.05Z" fill="#FFC09B"/>
<path d="M137.477 284.532C137.477 284.532 141.985 308.278 170.263 309.065" stroke="#EFA57F" stroke-linecap="round" stroke-linejoin="round"/>
<path d="M300.62 390.099C289.398 399.875 275.091 396.279 265.609 386.691L164.746 300.038L186.59 279.644L305.857 344.554C312.552 354.217 309.466 382.364 300.601 390.099H300.62Z" fill="#FFC09B"/>
<path d="M276.812 328.747L294.691 338.467" stroke="#EFA57F" stroke-linecap="round" stroke-linejoin="round"/>
</g>
</g>
<defs>
<clipPath id="clip0_1_131">
<rect width="400" height="450" fill="white"/>
</clipPath>
<clipPath id="clip1_1_131">
<rect width="350" height="663.105" fill="white" transform="translate(25 -2)"/>
</clipPath>
</defs>
</svg>
