<svg width="400" height="450" viewBox="0 0 400 450" fill="none" xmlns="http://www.w3.org/2000/svg">
<g clip-path="url(#clip0_1_1584)">
<g clip-path="url(#clip1_1_1584)">
<path d="M237.833 90.5931C233.38 101.871 224.889 111.106 213.943 116.322C208.947 118.712 203.54 120.211 198.045 120.776C197.654 129.447 193.81 137.965 187.447 143.962C179.129 151.807 167.075 155.023 155.868 153.328C144.575 151.633 134.02 144.81 128.091 134.988C121.88 124.731 120.815 111.498 126.093 100.632C128.46 95.7649 131.957 91.4188 136.279 88.1159C139.906 85.3344 144.727 82.5964 149.44 82.9006C148.919 79.0761 148.832 75.2081 149.179 71.3402C149.44 63.865 151.264 56.4767 154.826 49.849C160.256 39.701 169.269 31.4436 180.062 27.3583C191.616 22.9688 205.017 23.5772 216.114 29.0532C226.93 34.3989 234.944 44.3296 238.81 55.6727C242.654 66.9941 242.198 79.5107 237.811 90.6148L237.833 90.5931Z" fill="#F2B34E"/>
<path d="M222.608 146.418C222.608 146.418 222.608 146.418 222.608 146.461C222.608 146.505 222.608 146.527 222.608 146.57L222.434 147.287L203.083 224.516L173.308 149.069V149.026L173.482 140.833L173.786 127.382L173.938 119.755L174.242 106.695L174.285 104.739C170.81 104.739 167.357 103.197 164.86 100.806C161.754 97.851 159.995 93.7005 159.56 89.4848C159.169 85.8994 159.734 82.14 161.624 79.0761C162.796 77.1421 164.555 75.5558 166.597 74.6649C167.813 74.0782 169.138 73.7739 170.506 73.7522C172.895 73.7522 175.328 74.8822 176.87 76.7292L182.256 103.088L183.038 106.891C183.45 108.846 184.037 110.694 184.797 112.432C189.9 124.101 202.627 130.989 215.593 128.338C216.939 128.056 218.286 127.665 219.567 127.208C219.676 127.165 219.741 127.122 219.85 127.1L221.327 137.378L222.63 146.396L222.608 146.418Z" fill="#F99958"/>
<path d="M223.26 125.535C222.174 126.144 221.023 126.665 219.85 127.1C219.763 127.143 219.676 127.165 219.589 127.208C218.308 127.665 216.983 128.056 215.593 128.338C204.56 130.598 193.723 125.926 187.555 117.299C186.491 115.8 185.557 114.149 184.797 112.41C184.037 110.65 183.45 108.825 183.038 106.869L182.256 103.066L176.848 76.7075V76.6423C179.65 73.0134 183.32 67.3201 185.383 60.2795C186.317 57.1069 186.947 53.6953 187.034 50.0446C187.034 50.0446 194.831 56.7158 213.269 55.1294C214.594 54.9991 215.962 54.847 217.396 54.6514C220.697 54.1733 224.302 53.4562 228.211 52.3697L237.094 95.6997C239.592 107.847 233.663 119.798 223.281 125.448L223.26 125.535Z" fill="#F99958"/>
<path d="M221.631 139.638C196.068 139.377 188.033 118.668 187.577 117.365C187.577 117.365 187.577 117.321 187.577 117.299C193.745 125.926 204.582 130.577 215.615 128.338C216.983 128.056 218.329 127.665 219.611 127.208C219.698 127.143 219.785 127.122 219.871 127.1L221.674 139.638H221.631Z" fill="#D36D29"/>
<path d="M224.888 34.0729C197.22 36.7675 170.137 48.6973 148.528 66.1901C144.901 59.2582 142.924 51.3701 142.924 43.5473C142.924 38.9405 143.619 34.3554 145.031 29.9876C148.853 18.2099 157.866 8.12708 169.268 3.25952C180.67 -1.60804 194.309 -1.06478 205.168 4.95447C215.745 10.8216 223.39 21.8605 224.888 33.8556C224.888 33.8556 224.888 33.8991 224.888 34.0512V34.0729Z" fill="#AF3737"/>
<path d="M246.02 37.8105C237.919 47.1762 225.909 52.2828 213.877 55.2816C201.802 58.2586 189.336 59.3886 177.326 62.5394C165.641 65.5817 154.044 70.8621 146.334 80.054C146.421 75.3602 147.138 70.6882 148.506 66.1901C170.137 48.6973 197.198 36.7674 224.867 34.0729C231.73 35.3767 238.701 36.8761 245.673 37.4845L245.998 37.7888L246.02 37.8105Z" fill="#AF3737"/>
<path d="M224.324 33.0081C204.082 34.9639 184.341 41.4177 166.792 51.6744C169.29 48.1106 171.766 44.5251 173.981 40.7658C175.328 38.4841 176.566 36.159 177.673 33.747C178.65 31.5957 179.932 29.0967 179.954 26.6847C179.954 24.7072 178.759 22.6428 176.674 22.3604C174.415 22.0561 172.591 24.0119 171.288 25.5764C168.313 29.2054 166.401 33.5731 165.12 38.0495C164.425 40.5051 163.904 43.0257 163.513 45.5464C161.45 39.0274 157.953 32.9864 151.959 29.314C150.417 28.3579 148.397 27.5321 146.616 28.3579C144.857 29.1836 144.531 31.2045 144.901 32.9212C145.357 34.9639 146.421 36.9196 147.42 38.7232C148.506 40.6789 149.744 42.5477 151.155 44.2861C152.98 46.546 155.043 48.5235 157.302 50.3271C151.264 49.3058 144.922 50.175 139.471 53.0434C138.103 53.7605 136.431 54.6949 136.126 56.3681C135.866 57.824 136.821 59.0409 138.146 59.519C139.862 60.1709 141.925 59.8884 143.728 59.758C146.03 59.5841 148.289 59.2365 150.547 58.7584C153.523 58.15 156.411 57.3242 159.3 56.3898C155.369 59.0409 151.59 61.8875 147.941 64.9298C146.964 65.7338 148.115 67.3418 149.092 66.5161C152.915 63.3217 156.911 60.3664 161.059 57.6067C158.974 61.6268 157.953 66.3205 158.713 70.71C159.169 73.3394 161.276 75.7514 164.121 74.2737C166.944 72.7961 167.639 68.4501 168.009 65.6034C168.356 62.8437 168.204 60.0622 167.661 57.3459C169.073 58.4759 170.68 59.3668 172.439 59.8884C175.132 60.6924 179.498 61.1487 181.517 58.6932C182.386 57.6284 182.647 56.0421 181.843 54.8687C180.953 53.5866 179.302 53.2824 177.869 53.0216C175.197 52.5218 172.483 52.2828 169.768 52.2393C181.278 45.742 193.723 40.8745 206.602 37.8757C212.509 36.5067 218.503 35.5288 224.541 34.9421C225.8 34.8117 225.583 32.856 224.324 32.9864V33.0081ZM165.381 46.2201C165.663 44.3078 166.032 42.3956 166.488 40.5051C167.422 36.6371 168.79 32.7691 170.941 29.3792C171.961 27.7494 173.243 25.7937 174.915 24.7507C175.892 24.1422 177 24.1205 177.63 25.207C178.26 26.2501 177.956 27.5973 177.608 28.6838C176.262 32.7691 174.155 36.6588 171.983 40.3312C169.898 43.8298 167.596 47.1762 165.25 50.5009C165.012 49.0885 165.207 47.6108 165.402 46.2201H165.381ZM148.158 35.9417C147.528 34.6162 146.225 32.4214 146.812 30.9003C147.55 28.9446 150.417 30.6396 151.481 31.3566C154.587 33.421 157.063 36.3329 158.909 39.5489C161.102 43.3734 162.319 47.676 163.122 51.9786C156.694 48.3062 151.373 42.6346 148.18 35.9417H148.158ZM143.728 57.8023C142.642 57.8892 138.602 58.628 138.081 57.0852C137.538 55.4771 142.164 53.9343 143.163 53.5649C145.118 52.8261 147.159 52.348 149.244 52.0872C153.436 51.5874 157.671 52.0872 161.624 53.5432C157.997 54.847 154.326 55.9769 150.547 56.781C148.289 57.259 146.03 57.6067 143.728 57.8023ZM166.054 65.2992C165.837 67.0376 165.446 68.7977 164.794 70.4275C164.251 71.753 162.405 73.9913 161.167 71.9703C160.386 70.6883 160.429 68.7977 160.472 67.3418C160.516 65.7772 160.755 64.1909 161.146 62.6698C161.862 59.8666 163.231 57.3025 165.012 55.0425C166.097 58.3455 166.488 61.8224 166.054 65.2775V65.2992ZM178.911 55.2598C179.476 55.4337 180.127 55.6727 180.301 56.2594C180.54 57.02 179.91 57.6502 179.28 57.9761C177.239 59.0626 174.155 58.5194 172.113 57.7154C170.18 56.9765 168.508 55.7596 167.183 54.1733C169.637 54.1081 172.092 54.1733 174.524 54.4776C175.957 54.6514 177.499 54.8035 178.889 55.2164L178.911 55.2598Z" fill="#F4E9DC"/>
<path d="M189.162 103.783C193.061 103.783 196.221 100.621 196.221 96.721C196.221 92.8206 193.061 89.6587 189.162 89.6587C185.264 89.6587 182.104 92.8206 182.104 96.721C182.104 100.621 185.264 103.783 189.162 103.783Z" fill="#D36D29"/>
<path d="M220.414 66.842C220.545 66.1466 220.892 65.4513 221.5 65.0384C221.717 64.908 221.935 64.7994 222.152 64.669C222.63 64.4951 223.107 64.43 223.607 64.5169L230.014 64.7776C230.665 64.7994 231.447 65.3644 231.816 65.8641C232.229 66.4074 232.49 67.2766 232.338 67.972C232.207 68.6673 231.86 69.3627 231.252 69.7756C231.035 69.906 230.817 70.0146 230.6 70.145C230.122 70.3188 229.645 70.384 229.145 70.2971L222.738 70.0363C222.087 70.0146 221.305 69.4496 220.936 68.9498C220.523 68.4066 220.262 67.5374 220.414 66.842Z" fill="#36344C"/>
<path d="M203.648 69.1889C203.366 68.537 202.888 67.9285 202.215 67.6678C201.976 67.6026 201.737 67.5157 201.498 67.4505C200.999 67.3636 200.521 67.4287 200.043 67.6026L193.853 69.2323C193.224 69.4062 192.594 70.1016 192.333 70.6665C192.051 71.2967 191.986 72.1877 192.268 72.8396C192.55 73.4915 193.028 74.0999 193.701 74.3607C193.94 74.4259 194.179 74.5128 194.418 74.578C194.918 74.6649 195.395 74.5997 195.873 74.4259L202.063 72.7961C202.693 72.6223 203.322 71.9269 203.583 71.3619C203.865 70.7317 203.931 69.8408 203.648 69.1889Z" fill="#36344C"/>
<path d="M209.257 110.796C211.733 110.607 213.535 107.776 213.283 104.473C213.03 101.171 210.819 98.6466 208.343 98.8359C205.868 99.0252 204.065 101.856 204.318 105.159C204.57 108.461 206.781 110.985 209.257 110.796Z" fill="#C4532C"/>
<path d="M215.397 94.7436C217.526 94.1569 219.676 93.5701 221.804 92.9617C218.699 87.7682 215.593 82.5964 212.465 77.4029C211.814 76.3164 213.421 75.1647 214.073 76.2512C217.417 81.8358 220.762 87.3988 224.106 92.9834C224.41 93.4832 224.302 94.2872 223.65 94.4828C221.131 95.1782 218.612 95.8735 216.092 96.5906C214.876 96.9166 214.181 95.0913 215.419 94.7436H215.397Z" fill="#D36D29"/>
<path d="M201.737 101.936C202.041 101.545 202.736 101.436 203.127 101.806C205.972 104.609 209.925 106.13 213.921 105.891C215.181 105.826 215.354 107.782 214.095 107.847C209.621 108.108 205.082 106.478 201.889 103.327C201.52 102.958 201.39 102.371 201.759 101.936H201.737Z" fill="#36344C"/>
<path d="M200.521 85.1605C202.896 85.1605 204.821 82.9618 204.821 80.2495C204.821 77.5372 202.896 75.3385 200.521 75.3385C198.146 75.3385 196.221 77.5372 196.221 80.2495C196.221 82.9618 198.146 85.1605 200.521 85.1605Z" fill="#36344C"/>
<path d="M225.844 82.5964C228.219 82.5964 230.144 80.3977 230.144 77.6854C230.144 74.9731 228.219 72.7744 225.844 72.7744C223.469 72.7744 221.544 74.9731 221.544 77.6854C221.544 80.3977 223.469 82.5964 225.844 82.5964Z" fill="#36344C"/>
<path d="M379 290.858C379 269.715 296.493 126.448 266.457 150.156L241.503 144.875C241.503 144.875 237.138 135.031 221.327 137.4L222.63 146.418C222.63 146.418 222.63 146.418 222.63 146.461C222.63 146.505 222.63 146.527 222.63 146.57L222.456 147.287L203.105 224.516L173.33 149.069V149.026L173.504 140.833H173.308C173.308 140.833 163.882 142.224 163.491 154.523L130.154 170.647C130.154 170.647 113.062 161.912 106.112 182.686C99.1408 203.46 97.6422 269.346 97.6422 269.346L62.1332 241.205L40.0024 263.609C40.0024 263.609 85.6321 324.301 105.026 329.777C124.16 335.166 144.857 299.159 145.444 298.095C144.727 300.572 98.3372 459.115 81.2668 514.505C64.0444 570.352 58.8537 616.029 58.8537 616.029C58.8537 616.029 63.3494 629.11 88.0863 629.11C88.0863 629.11 110.087 653.448 148.463 643.887C148.463 643.887 183.972 663.835 227.43 642.235C227.43 642.235 263.764 653.035 287.806 630.219L271.582 371.195C271.582 371.195 379.043 312.024 379.043 290.88L379 290.858ZM263.156 336.34L275.188 238.38L322.989 278.103L263.156 336.34Z" fill="#6BB2AB"/>
<path d="M263.155 336.318C263.155 336.318 259.268 356.288 274.319 369.609C274.319 369.609 248.539 378.54 237.593 359.004C237.593 359.004 205.081 365.98 204.256 362.155C203.431 358.331 229.666 347.4 229.666 347.4C229.666 347.4 196.394 346.444 196.199 343.163C196.003 339.882 205.755 336.34 205.755 336.34C205.755 336.34 187.099 336.948 186.773 333.058C186.447 329.169 204.191 322.193 226.799 326.213C226.799 326.213 207.666 319.455 207.535 316.5C207.405 313.545 229.666 312.936 241.698 320.868C253.73 328.799 263.155 336.318 263.155 336.318Z" fill="#F4E9DC"/>
<path d="M41.5661 261.936C41.5661 261.936 19.8263 231.426 20.0001 227.059C20.1738 222.691 28.1878 187.879 32.0319 173.298C35.876 158.717 45.4102 149.047 50.0579 149.134C54.7056 149.221 46.4093 166.366 46.4093 166.366L46.2355 170.56C46.2355 170.56 65.2606 161.455 72.6447 161.629C80.0289 161.803 70.8204 169.821 70.8204 169.821C70.8204 169.821 74.6862 172.146 74.2736 175.189C73.8609 178.231 49.6018 194.876 49.6018 194.876C49.6018 194.876 52.5989 214.346 47.2345 224.494L62.0897 241.183L41.5878 261.936H41.5661Z" fill="#F4E9DC"/>
<path d="M203.062 224.516L264.676 324.04C264.676 324.04 183.407 256.221 168.899 210.565C148.854 147.526 173.547 137.009 173.547 137.009L173.286 149.069L203.062 224.516Z" fill="#389688"/>
<path d="M241.481 144.853C241.481 144.853 246.346 197.701 212.857 248.919L197.937 232.882L222.565 146.44L221.283 137.378C221.283 137.378 234.162 130.446 241.46 144.853H241.481Z" fill="#389688"/>
<path d="M127.613 358.635L121.51 379.583C121.51 379.583 189.14 427.433 274.34 414.59L271.93 377.258C271.93 377.258 214.225 389.448 127.635 358.657L127.613 358.635Z" fill="#F4E9DC"/>
<path d="M132.174 202.96C130.871 194.42 129.546 185.902 128.199 177.362C128.004 176.123 126.049 176.319 126.245 177.579C131.11 208.153 135.583 238.771 139.645 269.476C140.774 278.038 141.882 286.599 142.946 295.161C143.098 296.421 145.053 296.204 144.901 294.944C141.056 264.217 136.821 233.556 132.174 202.96Z" fill="#389688"/>
<path d="M263.546 151.611C258.312 166.41 257.422 182.555 261.114 197.81C261.418 199.027 263.373 198.831 263.069 197.592C259.463 182.686 260.202 166.888 265.327 152.415C265.74 151.22 263.959 150.416 263.546 151.611Z" fill="#389688"/>
<path d="M272.278 227.971C269.65 222.908 267.543 217.606 266.044 212.108C265.719 210.891 263.873 211.608 264.22 212.825C265.74 218.323 267.825 223.647 270.453 228.688C271.04 229.797 272.864 229.101 272.278 227.971Z" fill="#389688"/>
<path d="M341.862 265.63C336.346 268.737 330.851 271.866 325.335 274.974C324.227 275.604 325.4 277.19 326.486 276.56C332.002 273.453 337.497 270.323 343.013 267.216C344.121 266.586 342.948 264.999 341.862 265.63Z" fill="#389688"/>
<path d="M119.295 284.644C112.758 280.037 106.373 275.234 100.14 270.193C99.1626 269.389 97.903 270.91 98.902 271.714C105.135 276.734 111.52 281.558 118.057 286.165C119.078 286.882 120.338 285.361 119.295 284.644Z" fill="#389688"/>
<path d="M288.587 358.678C281.268 350.204 276.556 339.708 275.122 328.582C274.97 327.322 273.016 327.539 273.168 328.799C274.644 340.229 279.466 351.094 287.002 359.83C287.827 360.786 289.413 359.634 288.587 358.678Z" fill="#389688"/>
<path d="M72.9488 251.94C65.6298 259.828 58.3325 267.737 51.0135 275.626C50.1448 276.56 51.6867 277.799 52.5338 276.864C59.8527 268.976 67.15 261.066 74.469 253.178C75.3377 252.244 73.7958 251.005 72.9488 251.94Z" fill="#389688"/>
<path d="M136.821 414.829C129.937 442.296 123.052 469.763 116.189 497.252L95.6657 579.196C91.7999 594.603 87.9558 610.009 84.0899 625.394C83.7859 626.611 85.7188 626.916 86.0229 625.699C92.9075 598.232 99.7921 570.765 106.655 543.276C113.496 515.961 120.337 488.646 127.179 461.332C131.044 445.925 134.889 430.518 138.754 415.133C139.058 413.916 137.126 413.612 136.821 414.829Z" fill="#389688"/>
<path d="M177.565 420.175C173.373 449.206 169.204 478.216 165.012 507.247C160.842 536.105 156.694 564.985 152.524 593.842C150.178 610.053 147.855 626.264 145.509 642.496C145.335 643.756 147.268 644.061 147.442 642.8C151.634 613.769 155.803 584.759 159.995 555.727C164.165 526.87 168.313 497.99 172.483 469.133C174.828 452.922 177.152 436.711 179.498 420.479C179.672 419.219 177.739 418.914 177.565 420.175Z" fill="#389688"/>
<path d="M227.212 556.358C226.431 528.587 225.627 500.815 224.845 473.044C224.411 457.398 223.955 441.753 223.52 426.107C223.477 424.847 221.522 425.064 221.566 426.324C222.348 454.182 223.151 482.019 223.933 509.877C224.715 537.648 225.518 565.419 226.3 593.19C226.735 608.836 227.191 624.482 227.625 640.128C227.668 641.388 229.623 641.171 229.58 639.91C228.798 612.052 227.994 584.216 227.212 556.358Z" fill="#389688"/>
<path d="M233.814 335.014C224.715 334.34 215.593 334.362 206.493 335.058C205.233 335.166 205.451 337.122 206.71 337.013C215.636 336.318 224.584 336.296 233.489 336.948C234.748 337.035 235.052 335.101 233.793 335.014H233.814Z" fill="#E2CAB0"/>
<path d="M236.703 345.836C234.596 345.988 232.511 346.14 230.405 346.292C229.884 346.336 229.449 346.879 229.536 347.379C229.623 347.922 230.079 348.291 230.622 348.248C232.729 348.096 234.814 347.944 236.92 347.791C237.441 347.748 237.876 347.205 237.789 346.705C237.702 346.162 237.246 345.792 236.703 345.836Z" fill="#E2CAB0"/>
<path d="M233.38 327.083C231.382 326.518 229.384 325.953 227.386 325.388C226.887 325.257 226.322 325.714 226.257 326.213C226.192 326.8 226.539 327.191 227.082 327.343C229.08 327.908 231.078 328.473 233.076 329.038C233.576 329.169 234.141 328.712 234.206 328.213C234.271 327.626 233.923 327.235 233.38 327.083Z" fill="#E2CAB0"/>
<path d="M45.6492 169.3C42.2178 172.146 38.7863 175.015 35.3549 177.861C34.3776 178.666 35.5286 180.274 36.5059 179.448C39.9374 176.601 43.3688 173.733 46.8003 170.886C47.7776 170.082 46.6266 168.474 45.6492 169.3Z" fill="#E2CAB0"/>
<path d="M68.5183 168.452C61.2645 171.429 54.0107 174.428 46.7785 177.405C45.6058 177.883 46.3225 179.73 47.4952 179.23C54.7491 176.253 62.0029 173.255 69.235 170.278C70.4078 169.8 69.6911 167.953 68.5183 168.452Z" fill="#E2CAB0"/>
<path d="M49.9709 193.594C49.7972 193.138 49.1674 192.768 48.6896 193.029C46.1051 194.442 43.4989 195.854 40.9145 197.288C40.4584 197.549 40.1544 198.027 40.3498 198.57C40.5236 199.027 41.1534 199.396 41.6312 199.135C44.2156 197.723 46.8218 196.31 49.4063 194.876C49.8623 194.615 50.1664 194.137 49.9709 193.594Z" fill="#E2CAB0"/>
<path d="M57.2683 193.312C57.1163 192.964 56.8774 192.66 56.5733 192.442C56.2692 192.182 55.9218 192.008 55.5526 191.921C55.1833 191.769 54.7924 191.725 54.3798 191.791C54.1409 191.856 53.8803 191.921 53.6414 191.964C53.1636 192.16 52.7509 192.442 52.4251 192.834C52.2948 193.051 52.1645 193.268 52.0125 193.485C51.7953 193.985 51.7084 194.507 51.7736 195.028V195.311C51.7953 195.702 51.9256 196.071 52.1428 196.376C52.2948 196.723 52.5337 197.027 52.8378 197.245C53.1418 197.506 53.4893 197.679 53.8585 197.766C54.2277 197.918 54.6187 197.962 55.0313 197.897C55.2702 197.831 55.5308 197.766 55.7697 197.723C56.2475 197.527 56.6602 197.245 56.9859 196.854C57.1163 196.636 57.2466 196.419 57.3986 196.202C57.6158 195.702 57.7026 195.18 57.6375 194.659V194.376C57.6158 193.985 57.4855 193.616 57.2683 193.312Z" fill="#F4E9DC"/>
<path d="M66.6724 199.983C62.8935 199.983 63.5667 205.85 67.3239 205.85C71.0812 205.85 70.4296 199.983 66.6724 199.983Z" fill="#F4E9DC"/>
<path d="M84.6983 207.349C80.9193 207.349 81.5926 213.216 85.3498 213.216C89.1071 213.216 88.4555 207.349 84.6983 207.349Z" fill="#F4E9DC"/>
<path d="M104.613 215.694C104.548 215.455 104.483 215.194 104.44 214.955C104.244 214.477 103.962 214.064 103.571 213.738C103.354 213.608 103.137 213.477 102.919 213.325C102.42 213.108 101.899 213.021 101.377 213.086H100.834C100.444 213.108 100.074 213.238 99.7703 213.456C99.4228 213.608 99.1188 213.847 98.9016 214.151C98.641 214.455 98.4672 214.803 98.3803 215.172C98.2283 215.542 98.1849 215.933 98.25 216.346C98.3152 216.585 98.3803 216.845 98.4238 217.084C98.6192 217.563 98.9016 217.975 99.2925 218.301C99.5097 218.432 99.7269 218.562 99.944 218.714C100.444 218.932 100.965 219.018 101.486 218.953H102.029C102.42 218.932 102.789 218.801 103.093 218.584C103.441 218.432 103.745 218.193 103.962 217.888C104.222 217.584 104.396 217.237 104.483 216.867C104.635 216.498 104.679 216.107 104.613 215.694Z" fill="#F4E9DC"/>
<path d="M123.204 218.432C123.139 218.193 123.074 217.932 123.03 217.693C122.835 217.215 122.553 216.802 122.162 216.476C121.945 216.346 121.727 216.215 121.51 216.063C121.011 215.846 120.489 215.759 119.968 215.824H119.425C119.034 215.846 118.665 215.976 118.361 216.193C118.014 216.346 117.71 216.585 117.492 216.889C117.232 217.193 117.058 217.541 116.971 217.91C116.819 218.28 116.776 218.671 116.841 219.084C116.906 219.323 116.971 219.583 117.015 219.822C117.21 220.301 117.492 220.713 117.883 221.039C118.1 221.17 118.318 221.3 118.535 221.452C119.034 221.67 119.556 221.756 120.077 221.691H120.62C121.011 221.67 121.38 221.539 121.684 221.322C122.031 221.17 122.336 220.931 122.553 220.626C122.813 220.322 122.987 219.975 123.074 219.605C123.226 219.236 123.269 218.845 123.204 218.432Z" fill="#F4E9DC"/>
<path d="M200.434 200.309C200.369 200.07 200.304 199.809 200.26 199.57C200.065 199.092 199.782 198.679 199.391 198.353C199.174 198.223 198.957 198.092 198.74 197.94C198.24 197.723 197.719 197.636 197.198 197.701H196.916C196.525 197.723 196.155 197.853 195.851 198.071C195.504 198.223 195.2 198.462 194.983 198.766C194.722 199.07 194.548 199.418 194.461 199.787C194.309 200.157 194.266 200.548 194.331 200.961C194.396 201.2 194.461 201.46 194.505 201.699C194.7 202.178 194.983 202.59 195.374 202.916C195.591 203.047 195.808 203.177 196.025 203.329C196.525 203.547 197.046 203.633 197.567 203.568H197.849C198.24 203.547 198.61 203.416 198.914 203.199C199.261 203.047 199.565 202.808 199.782 202.504C200.043 202.199 200.217 201.852 200.304 201.482C200.456 201.113 200.499 200.722 200.434 200.309Z" fill="#F4E9DC"/>
<path d="M207.232 193.659C207.21 193.268 207.08 192.899 206.862 192.595C206.71 192.247 206.472 191.943 206.168 191.725C205.95 191.595 205.733 191.465 205.516 191.312C205.016 191.095 204.495 191.008 203.974 191.073C203.735 191.139 203.474 191.204 203.236 191.247C202.758 191.443 202.345 191.725 202.019 192.116C201.932 192.203 201.846 192.29 201.737 192.399C201.476 192.703 201.303 193.051 201.216 193.42C201.064 193.79 201.02 194.181 201.085 194.594C201.107 194.985 201.238 195.354 201.455 195.658C201.607 196.006 201.846 196.31 202.15 196.528C202.367 196.658 202.584 196.788 202.801 196.941C203.301 197.158 203.822 197.245 204.343 197.18C204.582 197.114 204.843 197.049 205.082 197.006C205.559 196.81 205.972 196.528 206.298 196.137C206.385 196.05 206.472 195.963 206.58 195.854C206.841 195.55 207.015 195.202 207.101 194.833C207.253 194.463 207.297 194.072 207.232 193.659Z" fill="#F4E9DC"/>
<path d="M213.66 185.923C213.508 185.576 213.269 185.271 212.965 185.054C212.661 184.793 212.314 184.62 211.945 184.533C211.575 184.381 211.184 184.337 210.772 184.402C210.533 184.467 210.272 184.533 210.033 184.576C209.556 184.772 209.143 185.054 208.817 185.445C208.687 185.663 208.557 185.88 208.405 186.097C208.187 186.597 208.101 187.119 208.166 187.64V187.923C208.187 188.314 208.318 188.683 208.535 188.987C208.687 189.335 208.926 189.639 209.23 189.857C209.534 190.117 209.881 190.291 210.251 190.378C210.62 190.53 211.011 190.574 211.423 190.508C211.662 190.443 211.923 190.378 212.162 190.335C212.64 190.139 213.052 189.857 213.378 189.465C213.508 189.248 213.639 189.031 213.791 188.813C214.008 188.314 214.095 187.792 214.03 187.271V186.988C214.008 186.597 213.878 186.228 213.66 185.923Z" fill="#F4E9DC"/>
<path d="M221.37 179.774C221.218 179.426 220.979 179.122 220.675 178.905C220.371 178.644 220.024 178.47 219.655 178.383C219.285 178.231 218.894 178.187 218.482 178.253C218.243 178.318 217.982 178.383 217.743 178.426C217.266 178.622 216.853 178.905 216.527 179.296C216.397 179.513 216.267 179.73 216.115 179.948C215.897 180.447 215.81 180.969 215.876 181.49V181.773C215.897 182.164 216.028 182.533 216.245 182.838C216.397 183.185 216.636 183.49 216.94 183.707C217.244 183.968 217.591 184.141 217.961 184.228C218.33 184.381 218.721 184.424 219.133 184.359C219.372 184.294 219.633 184.228 219.872 184.185C220.35 183.989 220.762 183.707 221.088 183.316C221.218 183.098 221.349 182.881 221.501 182.664C221.718 182.164 221.805 181.643 221.74 181.121V180.839C221.718 180.447 221.588 180.078 221.37 179.774Z" fill="#F4E9DC"/>
<path d="M233.988 140.181C230.209 140.181 230.883 146.049 234.64 146.049C238.397 146.049 237.746 140.181 233.988 140.181Z" fill="#F4E9DC"/>
<path d="M235.009 133.445C234.857 133.097 234.618 132.793 234.314 132.576C234.01 132.315 233.662 132.141 233.293 132.054C232.924 131.902 232.533 131.859 232.12 131.924C231.882 131.989 231.621 132.054 231.382 132.098C230.904 132.293 230.492 132.576 230.166 132.967C230.036 133.184 229.905 133.402 229.753 133.619C229.536 134.119 229.449 134.64 229.514 135.162V135.444C229.536 135.835 229.666 136.205 229.884 136.509C230.036 136.857 230.274 137.161 230.579 137.378C230.883 137.639 231.23 137.813 231.599 137.9C231.968 138.052 232.359 138.095 232.772 138.03C233.011 137.965 233.272 137.9 233.51 137.856C233.988 137.661 234.401 137.378 234.727 136.987C234.857 136.77 234.987 136.552 235.139 136.335C235.356 135.835 235.443 135.314 235.378 134.792V134.51C235.356 134.119 235.226 133.749 235.009 133.445Z" fill="#F4E9DC"/>
<path d="M229.123 128.512C228.971 128.165 228.732 127.86 228.428 127.643C228.124 127.382 227.777 127.208 227.408 127.122C227.038 126.969 226.647 126.926 226.235 126.991C225.996 127.056 225.735 127.122 225.496 127.165C225.019 127.361 224.606 127.643 224.28 128.034C224.15 128.251 224.02 128.469 223.867 128.686C223.65 129.186 223.563 129.707 223.629 130.229V130.511C223.65 130.903 223.781 131.272 223.998 131.576C224.15 131.924 224.389 132.228 224.693 132.445C224.997 132.706 225.344 132.88 225.714 132.967C226.083 133.119 226.474 133.162 226.886 133.097C227.125 133.032 227.386 132.967 227.625 132.923C228.103 132.728 228.515 132.445 228.841 132.054C228.971 131.837 229.102 131.62 229.254 131.402C229.471 130.903 229.558 130.381 229.492 129.86V129.577C229.471 129.186 229.34 128.816 229.123 128.512Z" fill="#F4E9DC"/>
<path d="M51.9038 160.064C48.1249 160.064 48.7982 165.932 52.5554 165.932C56.3126 165.932 55.6611 160.064 51.9038 160.064Z" fill="#F4E9DC"/>
<path d="M77.0315 180.991C76.9664 180.752 76.9012 180.491 76.8578 180.252C76.6623 179.774 76.38 179.361 75.989 179.035C75.7719 178.905 75.5547 178.774 75.3375 178.622C74.838 178.405 74.3168 178.318 73.7955 178.383H73.5132C73.1223 178.405 72.7531 178.535 72.449 178.752C72.1015 178.905 71.7975 179.144 71.5803 179.448C71.3197 179.752 71.1459 180.1 71.059 180.469C70.907 180.839 70.8636 181.23 70.9287 181.643C70.9939 181.882 71.059 182.142 71.1025 182.381C71.2979 182.859 71.5803 183.272 71.9712 183.598C72.1884 183.729 72.4056 183.859 72.6227 184.011C73.1223 184.228 73.6435 184.315 74.1647 184.25H74.4471C74.838 184.228 75.2072 184.098 75.5112 183.881C75.8587 183.729 76.1628 183.49 76.38 183.185C76.6406 182.881 76.8143 182.533 76.9012 182.164C77.0532 181.795 77.0967 181.403 77.0315 180.991Z" fill="#F4E9DC"/>
<path d="M84.0901 182.729C83.938 182.381 83.6991 182.077 83.3951 181.86C83.091 181.599 82.7435 181.425 82.3743 181.338C82.0051 181.186 81.6142 181.143 81.2016 181.208C80.9627 181.273 80.702 181.338 80.4631 181.382C79.9853 181.577 79.5727 181.86 79.2469 182.251C79.1166 182.468 78.9863 182.686 78.8343 182.903C78.6171 183.403 78.5302 183.924 78.5954 184.446V184.728C78.6171 185.119 78.7474 185.489 78.9646 185.793C79.1166 186.141 79.3555 186.445 79.6596 186.662C79.9636 186.923 80.3111 187.097 80.6803 187.184C81.0495 187.336 81.4404 187.379 81.8531 187.314C82.092 187.249 82.3526 187.184 82.5915 187.14C83.0693 186.945 83.4819 186.662 83.8077 186.271C83.938 186.054 84.0683 185.836 84.2204 185.619C84.4375 185.119 84.5244 184.598 84.4593 184.076V183.794C84.4375 183.403 84.3072 183.033 84.0901 182.729Z" fill="#F4E9DC"/>
<path d="M103.658 184.011C103.506 183.663 103.267 183.359 102.963 183.142C102.659 182.881 102.311 182.707 101.942 182.62C101.573 182.468 101.182 182.425 100.769 182.49C100.531 182.555 100.27 182.62 100.031 182.664C99.5532 182.859 99.1406 183.142 98.8148 183.533C98.6845 183.75 98.5542 183.968 98.4021 184.185C98.185 184.685 98.0981 185.206 98.1633 185.728V186.271C98.185 186.662 98.3153 187.032 98.5325 187.336C98.6845 187.684 98.9234 187.988 99.2274 188.205C99.5315 188.466 99.879 188.64 100.248 188.727C100.617 188.879 101.008 188.922 101.421 188.857C101.66 188.792 101.92 188.727 102.159 188.683C102.637 188.488 103.05 188.205 103.376 187.814C103.506 187.597 103.636 187.379 103.788 187.162C104.005 186.662 104.092 186.141 104.027 185.619V185.076C104.005 184.685 103.875 184.315 103.658 184.011Z" fill="#F4E9DC"/>
<path d="M159.386 165.062C159.365 164.671 159.234 164.302 159.017 163.998C158.865 163.65 158.626 163.346 158.322 163.128C158.105 162.998 157.888 162.868 157.671 162.716C157.171 162.498 156.65 162.411 156.129 162.476C155.89 162.542 155.629 162.607 155.39 162.65C154.913 162.846 154.5 163.128 154.174 163.52C154.087 163.606 154 163.693 153.892 163.802C153.631 164.106 153.457 164.454 153.371 164.823C153.219 165.193 153.175 165.584 153.24 165.997C153.262 166.388 153.392 166.757 153.609 167.062C153.761 167.409 154 167.713 154.304 167.931C154.522 168.061 154.739 168.192 154.956 168.344C155.456 168.561 155.977 168.648 156.498 168.583C156.737 168.517 156.997 168.452 157.236 168.409C157.714 168.213 158.127 167.931 158.453 167.54C158.539 167.453 158.626 167.366 158.735 167.257C158.996 166.953 159.169 166.605 159.256 166.236C159.408 165.866 159.452 165.475 159.386 165.062Z" fill="#F4E9DC"/>
<path d="M162.84 157.609C159.061 157.609 159.734 163.476 163.491 163.476C167.249 163.476 166.597 157.609 162.84 157.609Z" fill="#F4E9DC"/>
<path d="M108.566 180.208C104.787 180.208 105.461 186.076 109.218 186.076C112.975 186.076 112.324 180.208 108.566 180.208Z" fill="#F4E9DC"/>
<path d="M117.97 178.014C114.191 178.014 114.865 183.881 118.622 183.881C122.379 183.881 121.727 178.014 117.97 178.014Z" fill="#F4E9DC"/>
<path d="M126.549 175.08C122.77 175.08 123.443 180.947 127.2 180.947C130.958 180.947 130.306 175.08 126.549 175.08Z" fill="#F4E9DC"/>
<path d="M141.708 169.213C137.929 169.213 138.602 175.08 142.36 175.08C146.117 175.08 145.465 169.213 141.708 169.213Z" fill="#F4E9DC"/>
<path d="M128.786 215.563C125.007 215.563 125.68 221.43 129.437 221.43C133.194 221.43 132.543 215.563 128.786 215.563Z" fill="#F4E9DC"/>
<path d="M110.564 214.825C106.786 214.825 107.459 220.692 111.216 220.692C114.973 220.692 114.322 214.825 110.564 214.825Z" fill="#F4E9DC"/>
<path d="M92.8858 209.718C89.1068 209.718 89.7801 215.585 93.5373 215.585C97.2946 215.585 96.643 209.718 92.8858 209.718Z" fill="#F4E9DC"/>
<path d="M76.858 204.068C73.079 204.068 73.7523 209.935 77.5095 209.935C81.2667 209.935 80.6152 204.068 76.858 204.068Z" fill="#F4E9DC"/>
<path d="M60.1133 195.506C56.3344 195.506 57.0076 201.374 60.7649 201.374C64.5221 201.374 63.8706 195.506 60.1133 195.506Z" fill="#F4E9DC"/>
<path d="M137.886 214.455C134.107 214.455 134.78 220.322 138.537 220.322C142.295 220.322 141.643 214.455 137.886 214.455Z" fill="#F4E9DC"/>
<path d="M153.176 214.173C153.023 213.825 152.785 213.521 152.481 213.303C152.176 213.043 151.829 212.869 151.46 212.782C151.091 212.63 150.7 212.586 150.287 212.651C150.048 212.717 149.787 212.782 149.549 212.825C149.071 213.021 148.658 213.303 148.332 213.695C148.202 213.912 148.072 214.129 147.92 214.346C147.703 214.846 147.616 215.368 147.681 215.889V216.063C147.703 216.454 147.833 216.824 148.05 217.128C148.202 217.476 148.441 217.78 148.745 217.997C149.049 218.258 149.397 218.432 149.766 218.519C150.135 218.671 150.526 218.714 150.939 218.649C151.177 218.584 151.438 218.519 151.677 218.475C152.155 218.28 152.567 217.997 152.893 217.606C153.023 217.389 153.154 217.171 153.306 216.954C153.523 216.454 153.61 215.933 153.545 215.411V215.237C153.523 214.846 153.393 214.477 153.176 214.173Z" fill="#F4E9DC"/>
<path d="M159.93 210.631C156.151 210.631 156.824 216.498 160.581 216.498C164.339 216.498 163.687 210.631 159.93 210.631Z" fill="#F4E9DC"/>
<path d="M170.68 208.088C166.901 208.088 167.575 213.955 171.332 213.955C175.089 213.955 174.437 208.088 170.68 208.088Z" fill="#F4E9DC"/>
<path d="M180.323 205.546C176.544 205.546 177.217 211.413 180.974 211.413C184.732 211.413 184.08 205.546 180.323 205.546Z" fill="#F4E9DC"/>
<path d="M189.141 201.526C185.362 201.526 186.035 207.393 189.792 207.393C193.549 207.393 192.898 201.526 189.141 201.526Z" fill="#F4E9DC"/>
<path d="M228.038 162.52C224.259 162.52 224.932 168.387 228.689 168.387C232.446 168.387 231.795 162.52 228.038 162.52Z" fill="#F4E9DC"/>
<path d="M231.143 155.414C227.364 155.414 228.037 161.281 231.795 161.281C235.552 161.281 234.9 155.414 231.143 155.414Z" fill="#F4E9DC"/>
<path d="M223.955 170.169C220.176 170.169 220.849 176.036 224.606 176.036C228.363 176.036 227.712 170.169 223.955 170.169Z" fill="#F4E9DC"/>
<path d="M233.793 147.678C230.014 147.678 230.687 153.545 234.445 153.545C238.202 153.545 237.55 147.678 233.793 147.678Z" fill="#F4E9DC"/>
<path d="M90.3013 182.208C86.5224 182.208 87.1956 188.075 90.9529 188.075C94.7101 188.075 94.0585 182.208 90.3013 182.208Z" fill="#F4E9DC"/>
<path d="M148.158 166.366C144.379 166.366 145.053 172.233 148.81 172.233C152.567 172.233 151.915 166.366 148.158 166.366Z" fill="#F4E9DC"/>
<path d="M132.912 172.233C129.133 172.233 129.806 178.101 133.564 178.101C137.321 178.101 136.669 172.233 132.912 172.233Z" fill="#F4E9DC"/>
</g>
</g>
<defs>
<clipPath id="clip0_1_1584">
<rect width="400" height="450" fill="white"/>
</clipPath>
<clipPath id="clip1_1_1584">
<rect width="359" height="844" fill="white" transform="translate(20)"/>
</clipPath>
</defs>
</svg>
