<svg width="400" height="450" viewBox="0 0 400 450" fill="none" xmlns="http://www.w3.org/2000/svg">
<g clip-path="url(#clip0_8_1169)">
<g clip-path="url(#clip1_8_1169)">
<path d="M216.12 1.16521C182.594 -4.90607 149.619 13.0625 131.109 37.041C112.599 61.0808 105.305 90.3947 96.663 118.605C88.0209 146.815 102.976 186.861 79.2562 207.098C60.8687 222.736 36.4746 231.751 14.2871 243.219C-7.90048 254.687 -29.2913 270.387 -35.4204 292.403C-40.2625 309.819 -34.8075 328.524 -35.7269 346.615C-37.9947 391.812 -28.8622 419.287 -80.7149 442.407C-143.048 470.126 -211.143 598.543 -159.229 653.368C-50.1917 681.517 45.178 699.853 155.626 722.36C159.364 723.096 163.593 723.832 166.658 721.931C169.784 720.03 170.397 716.228 170.703 712.855C172.358 695.254 175.239 675.016 192.339 666.124C208.949 657.477 231.137 663.794 250.199 660.175C272.202 656.005 287.77 638.589 293.961 619.762C300.151 600.934 298.558 580.636 296.964 560.766C294.819 534.396 292.674 508.087 290.528 481.717C288.628 458.658 287.157 434.005 300.396 414.564C305.116 407.635 311.613 401.502 314.616 393.836C323.871 369.919 296.045 345.389 294.635 319.816C293.103 291.974 322.277 271.429 330.062 244.814C335.823 225.128 329.449 203.664 333.065 183.488C337.662 157.731 358.072 136.389 363.404 110.816C369.472 81.5024 353.107 48.6929 323.748 31.6443C294.451 14.5956 254.06 14.3503 226.234 31.031" fill="#000205"/>
<path d="M167.148 254.319C167.148 254.319 168.803 365.872 162.183 371.881C160.712 373.231 143.612 376.236 137.851 379.118C155.503 412.541 232.117 490.854 232.117 490.854L320.561 371.881L279.25 369.244L276.86 257.079L167.148 254.381V254.319Z" fill="#E87758"/>
<path d="M180.019 262.782H259.698C259.698 262.782 251.914 306.263 214.588 303.38C177.261 300.559 180.019 262.782 180.019 262.782Z" fill="#C94040"/>
<path d="M129.883 125.228C129.883 125.228 125.224 157.301 126.45 161.104C127.737 164.906 101.566 149.942 103.956 174.902C105.427 190.172 113.211 201.763 130.066 201.763C130.066 201.763 140.67 279.77 216.059 279.279C312.838 278.666 310.325 217.585 310.325 217.585C310.325 217.585 336.251 213.415 337.722 190.847C338.274 170.916 322.461 172.694 322.461 172.694C322.461 172.694 336.435 124.247 327.977 94.6875C319.519 65.1283 320.683 13.737 249.769 7.84972C178.855 1.90109 134.541 63.1659 131.966 80.8891C129.453 98.6123 129.821 125.228 129.821 125.228H129.883Z" fill="#E87758"/>
<path d="M328.039 94.7488C320.133 66.9681 320.623 19.8697 261.722 9.44421C262.886 12.4492 263.989 15.5155 265.093 18.5818C268.831 21.8934 272.019 26.1862 274.164 31.6443C287.709 65.6189 296.719 100.513 302.419 136.635C304.871 152.334 307.2 168.217 308.671 184.101C313.084 180.237 317.313 176.251 321.42 171.958C322.033 171.345 322.584 170.793 323.197 170.241C325.894 160.061 335.333 120.322 328.039 94.7488Z" fill="#C94040"/>
<path d="M255.715 4.17023C217.714 -4.29277 184.801 11.2227 184.801 11.2227C107.941 33.9747 124.98 174.779 124.98 174.779C137.729 190.663 153.542 156.627 163.9 123.082C167.823 110.326 158.69 136.819 205.211 125.167C212.014 123.449 229.666 114.986 221.514 98.3058C212.075 78.9881 246.889 84.2008 266.38 93.2771C286.054 102.476 308.732 101.127 327.12 89.4748C341.707 73.7754 343.362 12.1426 255.776 4.10891L255.715 4.17023Z" fill="#000205"/>
<path d="M244.927 150.065C244.927 150.065 252.895 140.375 260.067 141.418C280.048 144.3 275.022 157.301 275.022 157.301L244.866 150.065H244.927Z" fill="#000307"/>
<path d="M203.433 148.041C203.433 148.041 198.284 136.757 189.274 136.021C175.668 134.917 170.335 143.564 171.009 147.735L203.433 148.103V148.041Z" fill="#000307"/>
<path d="M238.92 219.854C239.595 219.609 233.036 236.167 215.017 234.45C198.59 232.917 195.894 214.641 195.894 214.641L238.92 219.793V219.854Z" fill="white"/>
<path d="M211.585 206.362L223.905 206.056C226.969 206.362 221.208 177.478 221.208 177.478C221.208 177.478 208.643 205.994 211.646 206.301L211.585 206.362Z" fill="#C94040"/>
<path d="M125.715 172.02C125.715 172.02 127.186 189.559 128.473 193.3C129.76 197.102 114.621 189.927 114.866 179.992C115.05 170.057 125.776 172.02 125.776 172.02H125.715Z" fill="#C94040"/>
<path d="M315.229 204.707L321.787 181.464C321.787 181.464 330.919 183.426 328.345 192.38C324.729 204.707 315.29 204.707 315.29 204.707H315.229Z" fill="#C94040"/>
<path d="M255.776 185.757C254.427 190.724 251.056 194.158 248.175 193.423C245.356 192.687 244.13 188.026 245.417 182.997C246.766 178.03 250.137 174.595 253.017 175.331C255.837 176.067 257.063 180.728 255.776 185.757Z" fill="#000307"/>
<path d="M201.839 180.36C201.533 185.511 198.897 189.559 195.955 189.375C193.013 189.191 190.868 184.898 191.175 179.747C191.481 174.595 194.117 170.548 197.059 170.732C200.001 170.916 202.146 175.209 201.839 180.36Z" fill="#000307"/>
<path d="M173.461 191.031C182.042 195.324 185.475 205.749 181.184 214.273C176.894 222.859 166.474 226.293 157.955 222.001C149.374 217.708 145.941 207.282 150.232 198.758C154.522 190.172 164.942 186.738 173.461 191.031Z" fill="#DE5745"/>
<path d="M275.757 205.136C284.338 209.429 287.77 219.854 283.48 228.378C279.19 236.964 268.77 240.398 260.25 236.106C251.67 231.813 248.237 221.387 252.528 212.863C256.818 204.277 267.238 200.843 275.757 205.136Z" fill="#DE5745"/>
<path d="M158.016 263.825C158.016 247.696 144.961 234.572 128.78 234.572C112.599 234.572 99.5439 247.635 99.5439 263.825C99.5439 280.015 112.599 293.077 128.78 293.077C144.961 293.077 158.016 280.015 158.016 263.825Z" stroke="#F3CE0C" stroke-width="0.5" stroke-miterlimit="10"/>
<path d="M128.779 200.107V234.634" stroke="#F3CE0C" stroke-width="0.5" stroke-linecap="round" stroke-linejoin="round"/>
<path d="M143.98 208.325L112.66 222.859" stroke="#F3CE0C" stroke-width="0.5" stroke-linecap="round" stroke-linejoin="round"/>
<path d="M112.66 208.325L143.98 222.859" stroke="#F3CE0C" stroke-width="0.5" stroke-linecap="round" stroke-linejoin="round"/>
<path d="M320.378 302.644C336.524 302.644 349.614 289.548 349.614 273.392C349.614 257.236 336.524 244.139 320.378 244.139C304.231 244.139 291.142 257.236 291.142 273.392C291.142 289.548 304.231 302.644 320.378 302.644Z" stroke="#F3CE0C" stroke-width="0.5" stroke-miterlimit="10"/>
<path d="M320.377 209.613V244.139" stroke="#F3CE0C" stroke-width="0.5" stroke-linecap="round" stroke-linejoin="round"/>
<path d="M335.578 217.83L304.258 232.365" stroke="#F3CE0C" stroke-width="0.5" stroke-linecap="round" stroke-linejoin="round"/>
<path d="M304.258 217.83L335.578 232.365" stroke="#F3CE0C" stroke-width="0.5" stroke-linecap="round" stroke-linejoin="round"/>
<path d="M289.241 337.723C300.09 348.578 364.814 468.409 367.082 523.725C369.595 584.928 343.484 637.055 343.484 637.055C343.484 637.055 109.044 648.953 102.792 651.467C84.7724 487.297 29.7938 443.326 73.8012 417.324C73.8012 417.324 153.48 350.724 165.984 343.12C165.984 343.12 192.646 376.849 223.843 378.689C245.418 379.976 268.586 355.323 289.18 337.661L289.241 337.723Z" fill="#F9D30E"/>
<path d="M155.257 343.487L234.507 864.023L166.045 1373.77L-115.713 1320.41L54.3714 396.841L155.257 343.487Z" fill="#864DB6"/>
<g style="mix-blend-mode:soft-light" opacity="0.47">
<path d="M-17.4004 1188.87C-4.52915 1168.69 8.28081 1148.52 21.0295 1128.22C31.5103 1111.54 45.1171 1094.98 48.7946 1075.72C57.1915 1031.26 54.3108 981.524 57.3754 936.266C69.8176 753.882 83.8534 571.069 70.3692 388.378L54.4334 396.78L-100.021 1313.73C-71.6435 1272.64 -44.2461 1230.88 -17.3391 1188.87H-17.4004Z" fill="black"/>
</g>
<path d="M168.742 319.877L221.514 790.493L127.861 660.727L146.555 597.255L99.0537 552.548L100.463 368.018L168.742 319.877Z" fill="#A56BDD"/>
<path d="M295.002 333.369L212.872 861.141L184.064 1369.41C184.064 1369.41 382.956 1378.06 449.212 1334.82L397.359 367.957L295.064 333.369H295.002Z" fill="#864DB6"/>
<g style="mix-blend-mode:soft-light" opacity="0.47">
<path d="M414.828 723.157L397.298 367.957L295.003 333.369L272.447 478.098C319.151 560.214 366.591 641.9 414.828 723.157Z" fill="black"/>
</g>
<path d="M278.576 310.739C274.224 307.857 348.203 348.823 348.203 348.823L323.809 558.313L287.77 591.49L313.696 636.197L221.452 790.493L278.515 310.739H278.576Z" fill="#A56BDD"/>
<path d="M595.515 376.665C595.515 376.665 559.414 679.616 547.217 719.846C535.02 760.076 491.564 803.127 439.65 739.225C387.736 675.323 527.052 351.46 527.052 351.46C527.052 351.46 512.649 314.664 511.178 306.017C509.707 297.37 488.132 268.547 498.919 267.075C509.707 265.603 527.726 302.399 531.343 299.517C534.959 296.634 531.772 203.787 537.104 200.046C551.508 189.927 547.891 264.193 551.508 261.311C555.124 258.428 555.124 203.848 563.03 202.192C576.698 199.31 564.501 269.222 570.937 267.811C577.434 266.401 590.366 205.075 596.128 212.311C601.889 219.547 586.934 283.449 590.366 277.93C593.983 272.165 596.863 232.487 606.241 239.724C614.454 246.04 601.828 367.037 595.454 376.726L595.515 376.665Z" fill="#E87758"/>
<path d="M348.326 347.78C348.326 347.78 412.437 338.397 431.928 370.839C451.357 403.281 465.822 490.854 465.822 490.854L511.178 384.576L607.712 440.076C607.712 440.076 584.667 834.464 483.045 784.729C381.424 734.993 392.272 652.816 392.272 652.816L348.326 347.842V347.78Z" fill="#864DB6"/>
<path d="M15.1452 776.143L53.5138 611.421C53.5138 611.421 114.928 422.23 54.8622 409.72C-27.3299 392.671 -60.3048 539.608 -74.218 759.585C-75.1986 775.162 -78.3245 790.616 -83.6569 805.273C-97.3862 842.927 -123.68 934.916 -118.593 1076.21C-118.593 1076.21 -144.887 1231.18 -133.61 1237.93C-122.332 1244.67 -131.342 1216.1 -131.342 1216.1C-131.342 1216.1 -123.067 1260.5 -116.325 1255.96C-109.583 1251.42 -115.59 1229.65 -115.59 1229.65C-115.59 1229.65 -115.59 1254.49 -106.58 1256.76C-91.5635 1256.76 -96.8346 1219.9 -96.8346 1219.9C-96.8346 1219.9 -90.828 1192.06 -86.2924 1178.5C-81.7568 1164.95 -83.2891 1256.76 -80.2858 1255.96C-59.9983 1257.49 -69.0082 1203.28 -59.9983 1133.37C-59.9983 1133.37 -36.7075 1186.78 -27.6976 1170.96C-22.9169 1162.56 -30.2106 1135.82 -38.0559 1112.52C-40.814 1104.3 -43.5722 1097.49 -45.84 1092.28C-49.5787 1083.63 -50.4368 1074.07 -48.4142 1064.93L15.2065 776.082L15.1452 776.143Z" fill="#E87758"/>
<path d="M73.8009 380.958C73.8009 380.958 -3.30397 376.604 -34.3175 450.195C-72.6861 541.264 -89.7864 714.817 -98.4286 734.257C-107.071 753.698 -164.746 1019.79 -164.746 1019.79L-12.0074 1022.67C-12.0074 1022.67 173.645 410.456 73.7396 381.019L73.8009 380.958Z" fill="#864DB6"/>
</g>
</g>
<defs>
<clipPath id="clip0_8_1169">
<rect width="400" height="450" fill="white"/>
</clipPath>
<clipPath id="clip1_8_1169">
<rect width="913" height="2328" fill="white" transform="translate(-304)"/>
</clipPath>
</defs>
</svg>
