<svg width="400" height="450" viewBox="0 0 400 450" fill="none" xmlns="http://www.w3.org/2000/svg">
<g clip-path="url(#clip0_8_108)">
<g clip-path="url(#clip1_8_108)">
<path d="M69.5049 127.415C69.5049 127.415 67.5464 203.89 19.5178 283.307C12.3513 295.207 16.669 310.225 29.1324 316.91C77.8286 342.982 280.537 374.713 372.009 321.857C382.47 315.796 389.859 306.17 388.123 294.85C383.672 265.971 369.917 209.506 327.764 160.171L69.4604 127.415H69.5049Z" fill="#FF9B53"/>
<path d="M353.798 142.916C357.412 67.8592 296.663 3.93994 218.112 0.148528C139.561 -3.64289 72.9533 54.1293 69.3394 129.186C65.7254 204.243 126.474 268.163 205.025 271.954C283.576 275.745 350.184 217.973 353.798 142.916Z" fill="#FF9B53"/>
<path d="M301.012 202.241C305.953 221.984 325.984 234.017 345.747 229.026C365.466 224.079 377.484 204.024 372.499 184.237C367.558 164.494 347.528 152.461 327.764 157.452C308.045 162.399 296.027 182.454 301.012 202.241Z" fill="#F2A37C"/>
<path d="M250.091 275.018L237.583 425.83L124.433 407.602L160.844 186.599L250.091 275.018Z" fill="#FFC09B"/>
<path d="M246.04 324.13C246.04 324.13 174.687 301.401 170.904 223.5L249.245 285.536L246.04 324.13Z" fill="#1E0A04"/>
<path d="M333.907 61.2785C342.809 69.5678 348.195 80.8876 349.976 92.9205C355.317 128.529 366.178 191.278 351.89 228.09C333.328 275.954 292.199 308.576 229.036 293.335C229.036 293.335 152.965 281.926 141.926 184.237C124.299 28.6115 257.658 -9.84915 333.907 61.2785Z" fill="#FFC09B"/>
<path d="M310.761 186.064L315.88 202.375C316.236 204.425 314.9 206.341 312.897 206.787L303.728 208.035" stroke="#1E0A04" stroke-width="1.22" stroke-linecap="round" stroke-linejoin="round"/>
<path d="M254.319 111.95C254.319 111.95 280.67 108.563 281.472 120.685C281.472 120.685 281.828 128.885 258.815 131.292C235.802 133.743 226.722 132.718 224.273 125.097C221.825 117.477 241.945 112.485 254.319 111.95Z" fill="#1E0A04"/>
<path d="M349.353 113.688C349.353 113.688 326.829 107.627 323.046 118.992C323.046 118.992 320.598 126.746 340.406 131.515C354.828 134.991 360.392 132.718 362.128 127.549C364.175 121.398 357.899 115.293 349.353 113.733V113.688Z" fill="#1E0A04"/>
<path d="M245.15 165.875C245.15 165.875 261.619 173.942 273.726 164.048" stroke="#1E0A04" stroke-width="1.22" stroke-linecap="round" stroke-linejoin="round"/>
<path d="M326.384 163.291C326.384 163.291 338.046 170.287 346.548 162.087" stroke="#1E0A04" stroke-width="1.22" stroke-linecap="round" stroke-linejoin="round"/>
<path d="M266.961 222.876C266.961 222.876 288.816 237.984 313.298 227.689" stroke="#1E0A04" stroke-width="1.22" stroke-linecap="round" stroke-linejoin="round"/>
<path d="M152.386 160.037C158.351 162.889 255.61 100.63 202.64 24.8679C202.64 24.8679 134.27 41.2237 133.513 159.057L152.431 160.037H152.386Z" fill="#FF9B53"/>
<path d="M177.58 122.78L166.586 199.523L143.439 127.682L177.58 122.78Z" fill="#FF9B53"/>
<path d="M86.1078 203.4C92.117 227.377 116.421 241.95 140.368 235.889C164.316 229.828 178.871 205.539 172.817 181.563C166.808 157.586 142.505 143.013 118.557 149.074C94.6096 155.135 80.0542 179.424 86.1078 203.4Z" fill="#FFC09B"/>
<path d="M109.966 178.443C109.966 178.443 143.172 170.599 150.116 207.099" stroke="#1E0A04" stroke-width="1.22" stroke-linecap="round" stroke-linejoin="round"/>
<path d="M218.086 0.178226C218.086 0.178226 352.023 -5.03602 372.232 91.8955L189.732 97.288L175.711 33.2463L218.086 0.178226Z" fill="#FF9B53"/>
<path d="M82.4134 397.129C82.4134 397.129 -69.7736 421.373 -69.7736 595.182L-2.07064 637.163L82.3689 397.174L82.4134 397.129Z" fill="#AB5DAD"/>
<path d="M79.8761 401.363L41.017 421.374C41.017 421.374 -60.6932 500.479 -41.5085 641.397L-51.9243 907.457L295.27 952.469L232.642 820.687L312.096 409.296L79.8316 401.363H79.8761Z" fill="#AB5DAD"/>
<path d="M82.4134 397.129L150.829 374.133L229.482 378.59L312.096 409.296C312.096 409.296 214.614 535.864 103.512 512.333C17.2476 494.061 82.3689 397.174 82.3689 397.174L82.4134 397.129Z" fill="#FFC09B"/>
<path d="M311.962 409.296C311.962 409.296 442.739 423.602 438.911 513.447C435.083 603.293 393.909 647.235 393.909 647.235L268.697 597.544L311.962 409.296Z" fill="#AB5DAD"/>
</g>
</g>
<defs>
<clipPath id="clip0_8_108">
<rect width="400" height="450" fill="white"/>
</clipPath>
<clipPath id="clip1_8_108">
<rect width="833" height="1578" fill="white" transform="translate(-394)"/>
</clipPath>
</defs>
</svg>
